<?xml version="1.0" encoding="utf-8"?>
<!-- Generator: Adobe Illustrator 25.4.1, SVG Export Plug-In . SVG Version: 6.00 Build 0)  -->
<svg version="1.1" id="Layer_4" xmlns="http://www.w3.org/2000/svg" xmlns:xlink="http://www.w3.org/1999/xlink" x="0px" y="0px"
	 viewBox="0 0 184.3 141.7" style="enable-background:new 0 0 184.3 141.7;" xml:space="preserve">
<style type="text/css">
	.st0{fill:#FFFFFF;}
	.st1{fill:#E5F0FB;}
	.st2{fill:#ED7099;}
	.st3{fill:#95623F;}
	.st4{fill:#EF8A66;}
	.st5{fill:#BCA68F;}
	.st6{fill:#918B72;}
	.st7{fill:#03A1DC;}
	.st8{fill:#7C4A17;}
	.st9{fill:#D20A11;}
	.st10{fill:#6F6053;}
	.st11{fill:#8B7C6B;}
	.st12{fill:#DF9C4E;}
	.st13{fill:#EEE7DA;}
	.st14{fill:#AAC933;}
	.st15{fill:#3E231E;}
	.st16{fill:#7A625C;}
	.st17{fill:#D86BA6;}
	.st18{fill:#81C182;}
	.st19{fill:#6C6436;}
	.st20{fill:#866B15;}
	.st21{fill:#BDD002;}
	.st22{clip-path:url(#SVGID_00000183965364589155390980000011371443990843150517_);fill:#BDD002;}
	.st23{fill:#BBB3A3;}
	.st24{fill:#A28514;}
	.st25{fill:none;}
	.st26{fill:#BDD00F;}
	.st27{clip-path:url(#SVGID_00000011743611515925415930000008478555061776314039_);}
	.st28{fill:#A39988;}
	.st29{fill:#819FAA;}
	.st30{fill:#B9C2C7;}
	.st31{fill:#FCDC43;}
</style>
<g>
	<path class="st5" d="M145.2,14.8c-3.1,0.2-6,1-8.8,2.2l0.1-0.1l-0.1,0.1c-2,0.9-3.9,1.9-5.6,3.2l4-5.1l-7.2,7.1l5.3-8.6l-6.3,7.9
		l4.2-9.2l-5.3,8.6l3-9.6l-4.2,9.2l1.8-9.9l-3,9.6l0.6-10l-1.8,9.9l-0.6-10l-0.6,10l-1.8-9.9l0.6,10l-3-9.6l1.8,9.9l-4.2-9.2l3,9.6
		l-5.3-8.6l4.2,9.2l-6.3-7.9l5.3,8.6l-7.2-7.1l3.4,4.2c-5.3-4.2-11.9-6.7-19.1-6.7S78.3,15.2,73,19.4l3.4-4.2l-7.2,7.1l5.3-8.6
		l-6.3,7.9l4.2-9.2l-5.3,8.6l3-9.6l-4.2,9.2l1.8-9.9l-3,9.6l0.6-10l-1.8,9.9l-0.6-10l-0.6,10l-1.8-9.9l0.6,10l-3-9.6l1.8,9.9
		l-4.2-9.2l3,9.6l-5.3-8.6l4.2,9.2l-6.3-7.9l5.3,8.6l-7.2-7.1l4.1,5.2c-1.7-1.3-3.6-2.4-5.6-3.3l-0.2-0.2l0.1,0.1
		c-2.8-1.2-5.8-2-8.9-2.2c-10.4,6-16.2,18.3-13.4,30.7c1.9,8.3,7.3,14.9,14.2,18.7c-0.4,2.8-0.7,5.7-0.7,8.7V85
		c0,30.3,23.7,54.9,53,54.9c29.3,0,53-24.6,53-54.9V72.9c0-3-0.2-5.9-0.7-8.7c6.9-3.7,12.3-10.3,14.2-18.6
		C161.4,33.1,155.6,20.9,145.2,14.8z"/>
	<path class="st6" d="M39.9,94.1c4.2,26,26,45.8,52.2,45.8c26.2,0,48-19.8,52.2-45.8H39.9z"/>
	<polygon points="92.1,124.4 60.6,112.1 61.7,109.3 92.1,121.2 122.6,109.3 123.7,112.1 	"/>
	<path d="M76.1,110.4c1.4-3.6-0.4-7.6-4-9c-3.6-1.4-7.6,0.4-9,4L76.1,110.4z"/>
	<path d="M108.2,110.4c-1.4-3.6,0.4-7.6,4-9c3.6-1.4,7.6,0.4,9,4L108.2,110.4z"/>
	<rect x="90.6" y="128.4" class="st7" width="3" height="7.7"/>
	<path d="M53.5,84v-1.5c3.7,0,6.8-3,6.8-6.8s-3-6.8-6.8-6.8v-1.5c4.6,0,8.3,3.7,8.3,8.3S58.1,84,53.5,84z"/>
	<path d="M130.7,84c-4.6,0-8.3-3.7-8.3-8.3s3.7-8.3,8.3-8.3V69c-3.7,0-6.8,3-6.8,6.8s3,6.8,6.8,6.8V84z"/>
	<path d="M152.1,36.6l-4.5-0.8c0-0.1-0.1-0.3-0.1-0.4l4.6-0.3l-4.8-0.2c0-0.1-0.1-0.2-0.1-0.3l4.7-0.9l-4.9,0.4
		c0-0.1-0.1-0.2-0.1-0.3l4.7-1.6l-4.9,1c0-0.1-0.1-0.2-0.1-0.3l4.6-2.2l-4.8,1.6c0-0.1-0.1-0.2-0.1-0.3l4.3-2.7l-4.6,2.2
		c0-0.1-0.1-0.2-0.1-0.3l3.9-3.2l-4.2,2.7c-0.1-0.1-0.1-0.2-0.2-0.3l3.4-3.6l-3.7,3.1c-0.1-0.1-0.1-0.2-0.2-0.3l2.8-3.8l-3.2,3.3
		c-0.1-0.1-0.2-0.2-0.3-0.3l2.2-3.9l-2.6,3.5c-0.1-0.1-0.2-0.3-0.3-0.4l1.6-3.9l-2,3.5c-0.1-0.1-0.3-0.3-0.4-0.4l1-3.6l-1.5,3.5
		c-5.6,1.8-9.9,6.4-11.3,12.4c-0.2,0.9-0.3,1.7-0.4,2.6c-0.3-5,1.5-10,5.3-13.8l-0.7-0.7c-6.9,6.9-7.4,17.7-1.6,25.2
		c0.7,1,1.5,2,2.5,2.9c5.7-1.8,10.1-6.4,11.5-12.5c0.2-1.1,0.4-2.2,0.4-3.3l2.8,1.2l-2.8-1.7c0-0.3,0-0.5,0-0.8l3.4,1L148,38
		c0-0.2,0-0.4,0-0.6l3.9,0.7l-4-1.2c0-0.2,0-0.3-0.1-0.5L152.1,36.6z"/>
	<path d="M49,27.4l-0.7,0.7c3.8,3.8,5.5,8.8,5.3,13.8c-0.1-0.9-0.2-1.7-0.4-2.6c-1.3-5.8-5.4-10.3-10.8-12.2l-2-4.7l1.2,4.4
		c0,0,0,0,0,0c-0.1,0.1-0.2,0.2-0.3,0.3L39,23l1.9,4.5c-0.1,0.1-0.1,0.2-0.2,0.2l-3-4l2.6,4.5c-0.1,0.1-0.1,0.1-0.2,0.2l-3.6-3.8
		l3.2,4.3c0,0.1-0.1,0.1-0.1,0.2l-4.2-3.4l3.8,4c0,0.1-0.1,0.1-0.1,0.2l-4.7-2.9l4.3,3.5c0,0-0.1,0.1-0.1,0.1l-5-2.4l4.7,3
		c0,0.1-0.1,0.1-0.1,0.2l-5.3-1.7l4.9,2.3c0,0.1-0.1,0.1-0.1,0.2L32.5,31l5.1,1.7c0,0.1-0.1,0.1-0.1,0.2l-5.3-0.4l5.1,1
		c0,0.1-0.1,0.2-0.1,0.3L32,34l4.9,0.4c0,0.1-0.1,0.2-0.1,0.4l-4.7,0.8l4.5-0.2c0,0.2-0.1,0.3-0.1,0.5l-4.2,1.3l4.1-0.7
		c0,0.2-0.1,0.4-0.1,0.6l-3.6,1.6l3.5-1c0,0.3,0,0.5-0.1,0.8l-2.8,1.7l2.8-1.2c0,1.4,0.1,2.9,0.4,4.3c1.4,6,5.8,10.7,11.5,12.5
		c0.9-0.9,1.8-1.8,2.5-2.9C56.4,45.1,55.9,34.3,49,27.4z"/>
	<circle cx="53.5" cy="75.8" r="2.7"/>
	<path class="st7" d="M53.5,71.4c-2.2,0-4,1.6-4.3,3.6h-5.6v1.5h5.6c0.4,2.1,2.2,3.6,4.3,3.6c2.4,0,4.4-2,4.4-4.4S56,71.4,53.5,71.4
		z M53.5,79.7c-2.1,0-3.9-1.7-3.9-3.9s1.7-3.9,3.9-3.9s3.9,1.7,3.9,3.9S55.7,79.7,53.5,79.7z"/>
	<circle cx="130.7" cy="75.8" r="2.7"/>
	<path class="st7" d="M140.6,75H135c-0.4-2.1-2.2-3.6-4.3-3.6c-2.4,0-4.4,2-4.4,4.4s2,4.4,4.4,4.4c2.2,0,4-1.6,4.3-3.6h5.6V75z
		 M130.7,79.7c-2.1,0-3.9-1.7-3.9-3.9s1.7-3.9,3.9-3.9s3.9,1.7,3.9,3.9S132.9,79.7,130.7,79.7z"/>
	<rect x="79" y="92.6" width="26.7" height="3"/>
	<path d="M92.4,89.4c-2.8,0-5.6-1.1-7.8-3.2l2.2-2.2c3.1,3.1,8.2,3.1,11.3,0l2.2,2.2C98,88.4,95.2,89.4,92.4,89.4z"/>
	<path d="M100.2,59.1c2.5-1.5,4.1-4.2,4.1-7.3c0-4.4-3.4-8.1-7.7-8.6C95.1,30,92.4,5.1,91.9,1.9c-0.5,3.3-3.3,28.1-4.7,41.4
		c-4.3,0.5-7.7,4.1-7.7,8.6c0,3.1,1.6,5.8,4.1,7.3l-5,14l13.3,6.8l13.3-6.8L100.2,59.1z"/>
</g>
</svg>
