<?xml version="1.0" encoding="utf-8"?>
<!-- Generator: Adobe Illustrator 25.4.1, SVG Export Plug-In . SVG Version: 6.00 Build 0)  -->
<svg version="1.1" id="Layer_4" xmlns="http://www.w3.org/2000/svg" xmlns:xlink="http://www.w3.org/1999/xlink" x="0px" y="0px"
	 viewBox="0 0 184.3 141.7" style="enable-background:new 0 0 184.3 141.7;" xml:space="preserve">
<style type="text/css">
	.st0{fill:#FFFFFF;}
	.st1{fill:#E5F0FB;}
	.st2{fill:#ED7099;}
	.st3{fill:#95623F;}
	.st4{fill:#EF8A66;}
	.st5{fill:#BCA68F;}
	.st6{fill:#918B72;}
	.st7{fill:#03A1DC;}
	.st8{fill:#7C4A17;}
	.st9{fill:#D20A11;}
	.st10{fill:#6F6053;}
	.st11{fill:#8B7C6B;}
	.st12{fill:#DF9C4E;}
	.st13{fill:#EEE7DA;}
	.st14{fill:#AAC933;}
	.st15{fill:#3E231E;}
	.st16{fill:#7A625C;}
	.st17{fill:#D86BA6;}
	.st18{fill:#81C182;}
	.st19{fill:#6C6436;}
	.st20{fill:#866B15;}
	.st21{fill:#BDD002;}
	.st22{clip-path:url(#SVGID_00000147211674504382255390000009458133323475091589_);fill:#BDD002;}
	.st23{fill:#BBB3A3;}
	.st24{fill:#A28514;}
	.st25{fill:none;}
	.st26{fill:#BDD00F;}
	.st27{clip-path:url(#SVGID_00000118357103366056223300000001247312309133726121_);}
	.st28{fill:#A39988;}
	.st29{fill:#819FAA;}
	.st30{fill:#B9C2C7;}
	.st31{fill:#FCDC43;}
</style>
<g>
	<path class="st20" d="M13.4,118.7c16.4,1.2,33.2-4.6,45.6-17.3s17.8-29.6,16.2-46L13.4,118.7z"/>
	<circle class="st21" cx="41.4" cy="104.5" r="5.9"/>
	<circle cx="44.6" cy="94.1" r="2.4"/>
	<path class="st20" d="M170.3,119.3c-16.4,1-33.2-4.9-45.4-17.8S107.3,71.8,109,55.4L170.3,119.3z"/>
	<g>
		<defs>
			<path id="SVGID_1_" d="M170.3,119.3c-16.4,1-33.2-4.9-45.4-17.8S107.3,71.8,109,55.4L170.3,119.3z"/>
		</defs>
		<clipPath id="SVGID_00000003106118454108884000000012495788674884853157_">
			<use xlink:href="#SVGID_1_"  style="overflow:visible;"/>
		</clipPath>
		
			<circle style="clip-path:url(#SVGID_00000003106118454108884000000012495788674884853157_);fill:#BDD002;" cx="156.4" cy="105.2" r="5.5"/>
	</g>
	<circle cx="143.9" cy="102.2" r="4.7"/>
	<path class="st23" d="M166.1,87.1c0-40.8-33.1-74-74-74s-74,33.1-74,74H166.1z"/>
	<path class="st24" d="M131.5,72.7c0-8.1-6.2-14.8-14.1-15.5c-6.5-7.4-15.4-12-25.3-12s-18.8,4.6-25.3,12
		c-7.9,0.8-14.1,7.4-14.1,15.5c0,3.8,1.3,7.2,3.6,9.9c-0.1,1.4-0.2,2.8-0.2,4.2c0,23,16.1,41.7,36,41.7c19.9,0,36-18.7,36-41.7
		c0-1.4-0.1-2.8-0.2-4.2C130.2,79.9,131.5,76.5,131.5,72.7z"/>
	<ellipse class="st25" cx="92.1" cy="86.9" rx="36" ry="41.7"/>
	<circle cx="92.9" cy="66.2" r="4.7"/>
	<circle class="st21" cx="84" cy="62.5" r="3.4"/>
	<circle class="st21" cx="105.6" cy="57" r="5.5"/>
	<polygon class="st20" points="69,76.3 75.2,81.1 64,70.1 63.4,70.9 63.4,70.9 63.4,70.9 63.4,70.9 63.4,70.9 63.4,70.9 63.4,70.9 
		62.7,70.1 51.6,81.1 57.8,76.3 52.9,82.5 58.5,77 54.4,83.6 59.3,77.5 56,84.6 60.1,78 57.8,85.4 61,78.3 59.6,86 61.9,78.6 
		61.5,86.4 62.9,78.7 63.4,86.5 63.8,78.7 65.3,86.4 64.8,78.6 67.1,86 65.7,78.3 69,85.4 66.6,78 70.7,84.6 67.5,77.5 72.3,83.6 
		68.2,77 73.8,82.5 	"/>
	<circle cx="63.4" cy="70.7" r="3.6"/>
	<path class="st26" d="M63.4,76.6c-1.5,0-3-0.6-4.1-1.7c-2.3-2.3-2.3-6,0-8.2c2.3-2.3,6-2.3,8.2,0c2.3,2.3,2.3,6,0,8.2
		C66.4,76,64.9,76.6,63.4,76.6z M63.4,65.6c-1.3,0-2.6,0.5-3.6,1.5c-2,2-2,5.2,0,7.2s5.2,2,7.2,0s2-5.2,0-7.2
		C66,66.1,64.7,65.6,63.4,65.6z"/>
	<polygon class="st20" points="126.5,76.3 132.7,81.1 121.5,70.1 120.9,70.9 120.9,70.9 120.9,70.9 120.9,70.9 120.9,70.9 
		120.9,70.9 120.9,70.9 120.3,70.1 109.1,81.1 115.3,76.3 110.4,82.5 116,77 111.9,83.6 116.8,77.5 113.6,84.6 117.6,78 115.3,85.4 
		118.5,78.3 117.1,86 119.5,78.6 119,86.4 120.4,78.7 120.9,86.5 121.4,78.7 122.8,86.4 122.3,78.6 124.7,86 123.2,78.3 126.5,85.4 
		124.1,78 128.2,84.6 125,77.5 129.8,83.6 125.8,77 131.3,82.5 	"/>
	<circle cx="120.9" cy="70.7" r="3.6"/>
	<path class="st26" d="M120.9,76.6c-1.5,0-3-0.6-4.1-1.7c-2.3-2.3-2.3-6,0-8.2c2.3-2.3,6-2.3,8.2,0c2.3,2.3,2.3,6,0,8.2
		C123.9,76,122.4,76.6,120.9,76.6z M120.9,65.6c-1.3,0-2.6,0.5-3.6,1.5c-2,2-2,5.2,0,7.2s5.2,2,7.2,0s2-5.2,0-7.2
		C123.5,66.1,122.2,65.6,120.9,65.6z"/>
	<g>
		<defs>
			<ellipse id="SVGID_00000120533580224206360440000013795376142097229987_" cx="92.1" cy="86.9" rx="36" ry="41.7"/>
		</defs>
		<clipPath id="SVGID_00000002357746764551928360000012669757665638415800_">
			<use xlink:href="#SVGID_00000120533580224206360440000013795376142097229987_"  style="overflow:visible;"/>
		</clipPath>
		<circle style="clip-path:url(#SVGID_00000002357746764551928360000012669757665638415800_);" cx="88.2" cy="50.2" r="7.8"/>
	</g>
	<path class="st23" d="M60.5,106.7c6.1,13,18,21.8,31.7,21.8s25.6-8.8,31.7-21.8H60.5z"/>
	<path class="st20" d="M92.1,78.3c-15.2,0-28,12.1-31.7,28.4L84,114l8.1,7.5l8.1-7.5l23.5-7.3C120.2,90.4,107.4,78.3,92.1,78.3z"/>
	<circle cx="88.8" cy="85.2" r="2.6"/>
	<circle cx="95.5" cy="85.2" r="2.6"/>
	<path class="st28" d="M116.7,17.4c-7.7-2.7-15.9-4.2-24.6-4.2s-16.9,1.5-24.6,4.2c3.9,9.8,13.4,16.7,24.6,16.7
		C103.3,34.1,112.8,27.1,116.7,17.4z"/>
	<path class="st28" d="M137,28.4c-5.1,8.5-5.2,19.4,0.7,28.2c5.9,8.8,16.1,13,25.9,11.5C159.3,52,149.8,38.2,137,28.4z"/>
	<path class="st28" d="M20.7,68.1c9.8,1.5,20.1-2.7,25.9-11.5c5.8-8.8,5.7-19.7,0.7-28.2C34.4,38.2,24.9,52,20.7,68.1z"/>
</g>
</svg>
