<svg id="Layer_1" data-name="Layer 1" xmlns="http://www.w3.org/2000/svg" xmlns:xlink="http://www.w3.org/1999/xlink" viewBox="0 0 5669.29 3578.44"><defs><style>.cls-1,.cls-10,.cls-11,.cls-14,.cls-23,.cls-25,.cls-35,.cls-36,.cls-37,.cls-40,.cls-41,.cls-43,.cls-44,.cls-45,.cls-53,.cls-54,.cls-56,.cls-57,.cls-58,.cls-59,.cls-61,.cls-7,.cls-9{fill:none;}.cls-2{fill:#8e003a;}.cls-3{fill:#ff9f9f;}.cls-4{fill:#ffce00;}.cls-5{fill:#ff8500;}.cls-6{fill:#3e231e;}.cls-7{stroke:#7a625c;stroke-width:4.45px;}.cls-10,.cls-11,.cls-14,.cls-23,.cls-25,.cls-35,.cls-36,.cls-37,.cls-40,.cls-41,.cls-43,.cls-44,.cls-45,.cls-53,.cls-54,.cls-56,.cls-57,.cls-58,.cls-59,.cls-61,.cls-7,.cls-9{stroke-miterlimit:10;}.cls-8{fill:#7a625c;}.cls-11,.cls-35,.cls-37,.cls-41,.cls-43,.cls-44,.cls-45,.cls-57,.cls-58,.cls-59,.cls-9{stroke:#000;}.cls-9{stroke-width:14.83px;}.cls-10,.cls-36{stroke:#fff;}.cls-10{stroke-width:3.71px;}.cls-11{stroke-width:7.41px;}.cls-12{clip-path:url(#clip-path);}.cls-13{fill:#154c24;}.cls-14,.cls-25,.cls-61{stroke:#154c24;}.cls-14{stroke-width:54.36px;}.cls-15{fill:#42ac55;}.cls-16{fill:#866b15;}.cls-17{fill:#bdd002;}.cls-18{clip-path:url(#clip-path-2);}.cls-19{fill:#bbb3a3;}.cls-20{clip-path:url(#clip-path-3);}.cls-21{fill:#a39988;}.cls-22{fill:#a28514;}.cls-23{stroke:#bdd00f;stroke-width:3.89px;}.cls-24{clip-path:url(#clip-path-4);}.cls-25{stroke-width:21.09px;}.cls-26{fill:#074900;}.cls-27{fill:#006300;}.cls-28{clip-path:url(#clip-path-5);}.cls-29{fill:#008700;}.cls-30{fill:#f9cc10;}.cls-31{clip-path:url(#clip-path-6);}.cls-32{fill:#f9ae10;}.cls-33{fill:#004f00;}.cls-34{fill:#ed7099;}.cls-35{stroke-width:18.17px;}.cls-36{stroke-width:3.03px;}.cls-37{stroke-width:12.11px;}.cls-38{fill:#df9c4e;}.cls-39{fill:#fff;}.cls-40{stroke:#aac933;stroke-width:3.77px;}.cls-41{stroke-width:15.07px;}.cls-42{fill:#eee7da;}.cls-43{stroke-width:7.54px;}.cls-44{stroke-width:7.65px;}.cls-45{stroke-width:22.61px;}.cls-46{fill:#6c6436;}.cls-47{fill:#052d0e;}.cls-48{fill:#c11654;}.cls-49{fill:#ce386e;}.cls-50{fill:#e85b9c;}.cls-51{fill:#d86ba6;}.cls-52{fill:#81c182;}.cls-53{stroke:#81c182;stroke-width:23.67px;}.cls-54{stroke:#d86ba6;stroke-width:3.94px;}.cls-55{clip-path:url(#clip-path-7);}.cls-56{stroke:#074900;stroke-width:15px;}.cls-57{stroke-width:10.77px;}.cls-58{stroke-width:16.39px;}.cls-59{stroke-width:16.15px;}.cls-60{fill:#e5f0fb;}.cls-61{stroke-width:21.98px;}.cls-62{fill:#e74c24;}.cls-63{fill:#95623f;}</style><clipPath id="clip-path"><path class="cls-1" d="M4964.29,2464.45H4378a159.39,159.39,0,0,0,78.81,151,230.48,230.48,0,0,0-16.38,100.79c7,115.52,100.91,209.53,216.42,216.48,134.14,8.07,245.45-98.33,245.45-230.72a230,230,0,0,0-16.82-86.54,159.39,159.39,0,0,0,78.81-151Z"/></clipPath><clipPath id="clip-path-2"><path class="cls-1" d="M3952.06,3292.39c-102.56,6.26-207.1-30.86-283.75-110.87s-109.25-186-98.6-288.25Z"/></clipPath><clipPath id="clip-path-3"><path class="cls-1" d="M3926,3091.32c0-255.13-206.82-462-462-462s-461.94,206.82-461.94,462Z"/></clipPath><clipPath id="clip-path-4"><ellipse class="cls-1" cx="3464.06" cy="3089.5" rx="224.92" ry="260.39"/></clipPath><clipPath id="clip-path-5"><ellipse class="cls-1" cx="1017.06" cy="464.62" rx="283.46" ry="79.92"/></clipPath><clipPath id="clip-path-6"><ellipse class="cls-1" cx="836.8" cy="441.29" rx="197.74" ry="303.48" transform="translate(-66.95 720.96) rotate(-45)"/></clipPath><clipPath id="clip-path-7"><path class="cls-1" d="M750.87,1965c-80.86,151-60.51,339.54,62.91,463s312,143.77,463,62.91Z"/></clipPath></defs><rect x="-11.89" width="5681.18" height="3578.44"/><circle class="cls-2" cx="3983.77" cy="2478.03" r="432.75"/><circle class="cls-3" cx="3983.77" cy="2478.03" r="394.32"/><circle class="cls-4" cx="3983.77" cy="2197.07" r="91.78"/><circle class="cls-4" cx="3983.77" cy="2759" r="91.78"/><circle class="cls-4" cx="3876.25" cy="2218.45" r="91.78"/><circle class="cls-4" cx="4091.29" cy="2737.61" r="91.78"/><circle class="cls-4" cx="3785.1" cy="2279.36" r="91.78"/><circle class="cls-4" cx="4182.44" cy="2676.7" r="91.78"/><circle class="cls-4" cx="3724.19" cy="2370.51" r="91.78"/><circle class="cls-4" cx="4243.35" cy="2585.55" r="91.78"/><circle class="cls-4" cx="3702.8" cy="2478.03" r="91.78"/><circle class="cls-4" cx="4264.73" cy="2478.03" r="91.78"/><circle class="cls-4" cx="3724.19" cy="2585.55" r="91.78"/><circle class="cls-4" cx="4243.35" cy="2370.51" r="91.78"/><circle class="cls-4" cx="3785.1" cy="2676.7" r="91.78"/><circle class="cls-4" cx="4182.44" cy="2279.36" r="91.78"/><circle class="cls-4" cx="3876.25" cy="2737.61" r="91.78"/><circle class="cls-4" cx="4091.29" cy="2218.45" r="91.78"/><circle class="cls-4" cx="3983.77" cy="2478.03" r="230.3"/><ellipse class="cls-5" cx="4051.43" cy="2758.24" rx="71.77" ry="42.41"/><ellipse cx="4051.43" cy="2758.24" rx="29.27" ry="16.84"/><ellipse class="cls-5" cx="4051.43" cy="2492.68" rx="42.41" ry="71.77"/><ellipse cx="4051.43" cy="2492.68" rx="16.84" ry="29.27"/><ellipse class="cls-5" cx="3712.41" cy="2469.34" rx="42.41" ry="71.77" transform="translate(-658.75 3348.32) rotate(-45)"/><ellipse cx="3712.41" cy="2469.34" rx="16.84" ry="29.27" transform="translate(-658.75 3348.32) rotate(-45)"/><ellipse class="cls-5" cx="3779.09" cy="2285.88" rx="42.41" ry="71.77" transform="translate(-509.49 3341.74) rotate(-45)"/><ellipse cx="3779.09" cy="2285.88" rx="16.84" ry="29.27" transform="translate(-509.49 3341.74) rotate(-45)"/><ellipse class="cls-5" cx="3825.85" cy="2478.03" rx="42.41" ry="71.77"/><ellipse cx="3825.85" cy="2478.03" rx="16.84" ry="29.27"/><ellipse class="cls-5" cx="3845.19" cy="2593.85" rx="71.77" ry="42.41" transform="translate(-504.15 4205.31) rotate(-54.33)"/><ellipse cx="3845.19" cy="2593.85" rx="29.27" ry="16.84" transform="translate(-504.15 4205.31) rotate(-54.33)"/><ellipse class="cls-5" cx="4188.38" cy="2661.01" rx="71.77" ry="42.41" transform="translate(-654.87 3741.02) rotate(-45)"/><ellipse cx="4188.38" cy="2661.01" rx="29.27" ry="16.84" transform="translate(-654.87 3741.02) rotate(-45)"/><ellipse class="cls-5" cx="3939.3" cy="2433" rx="71.77" ry="42.41" transform="translate(-566.59 3498.11) rotate(-45)"/><ellipse cx="3939.3" cy="2433" rx="29.27" ry="16.84" transform="translate(-566.59 3498.11) rotate(-45)"/><ellipse class="cls-5" cx="4040.34" cy="2353.13" rx="42.41" ry="71.77" transform="translate(-480.53 3546.16) rotate(-45)"/><ellipse cx="4040.34" cy="2353.13" rx="16.84" ry="29.27" transform="translate(-480.53 3546.16) rotate(-45)"/><ellipse class="cls-5" cx="4117.55" cy="2596.21" rx="71.77" ry="42.41" transform="translate(-629.8 3671.95) rotate(-45)"/><ellipse cx="4117.55" cy="2596.21" rx="29.27" ry="16.84" transform="translate(-629.8 3671.95) rotate(-45)"/><ellipse class="cls-5" cx="3741.68" cy="2389.26" rx="71.77" ry="42.41"/><ellipse cx="3741.68" cy="2389.26" rx="29.27" ry="16.84"/><ellipse class="cls-5" cx="4272.35" cy="2433" rx="42.41" ry="71.77"/><ellipse cx="4272.35" cy="2433" rx="16.84" ry="29.27"/><ellipse class="cls-5" cx="4157.49" cy="2478.03" rx="71.77" ry="42.41"/><ellipse cx="4157.49" cy="2478.03" rx="29.27" ry="16.84"/><ellipse class="cls-5" cx="3994.21" cy="2631.45" rx="42.41" ry="71.77" transform="translate(-690.84 3595.07) rotate(-45)"/><ellipse cx="3994.21" cy="2631.45" rx="16.84" ry="29.27" transform="translate(-690.84 3595.07) rotate(-45)"/><ellipse class="cls-5" cx="3761.03" cy="2652.81" rx="42.41" ry="71.77" transform="translate(-774.24 3436.43) rotate(-45)"/><ellipse cx="3761.03" cy="2652.81" rx="16.84" ry="29.27" transform="translate(-774.24 3436.43) rotate(-45)"/><ellipse class="cls-5" cx="4146.04" cy="2261.43" rx="42.41" ry="71.77" transform="translate(-384.73 3594.05) rotate(-45)"/><ellipse cx="4146.04" cy="2261.43" rx="16.84" ry="29.27" transform="translate(-384.73 3594.05) rotate(-45)"/><ellipse class="cls-5" cx="3879.78" cy="2728.97" rx="42.41" ry="71.77"/><ellipse cx="3879.78" cy="2728.97" rx="16.84" ry="29.27"/><ellipse class="cls-5" cx="3879.78" cy="2238.99" rx="42.41" ry="71.77"/><ellipse cx="3879.78" cy="2238.99" rx="16.84" ry="29.27"/><ellipse class="cls-5" cx="4199.9" cy="2344.2" rx="71.77" ry="42.41" transform="translate(-427.48 3656.38) rotate(-45)"/><ellipse cx="4199.9" cy="2344.2" rx="29.27" ry="16.84" transform="translate(-427.48 3656.38) rotate(-45)"/><ellipse class="cls-5" cx="4234.83" cy="2547.61" rx="42.41" ry="71.77" transform="translate(-561.08 3740.65) rotate(-45)"/><ellipse cx="4234.83" cy="2547.61" rx="16.84" ry="29.27" transform="translate(-561.08 3740.65) rotate(-45)"/><ellipse class="cls-5" cx="3922.19" cy="2315.76" rx="71.77" ry="42.41" transform="translate(-488.71 3451.67) rotate(-45)"/><ellipse cx="3922.19" cy="2315.76" rx="29.27" ry="16.84" transform="translate(-488.71 3451.67) rotate(-45)"/><ellipse class="cls-5" cx="3968.57" cy="2197.11" rx="71.77" ry="42.41"/><ellipse cx="3968.57" cy="2197.11" rx="29.27" ry="16.84"/><ellipse class="cls-5" cx="3939.3" cy="2545.28" rx="71.77" ry="42.41"/><ellipse cx="3939.3" cy="2545.28" rx="29.27" ry="16.84"/><circle class="cls-6" cx="4327.42" cy="2352.93" r="110.78"/><circle class="cls-6" cx="5014.87" cy="2352.93" r="110.78"/><circle class="cls-6" cx="4671.15" cy="2130.4" r="155.97"/><circle class="cls-6" cx="4671.15" cy="1973" r="49.81"/><path class="cls-6" d="M5105.16,2479.32c0-248.4-194.31-449.78-434-449.78s-434,201.38-434,449.78v99.24c0,248.41,194.32,449.79,434,449.79s434-201.38,434-449.79Z"/><line class="cls-7" x1="4327.42" y1="2352.93" x2="4327.42" y2="2285.85"/><line class="cls-7" x1="4327.42" y1="2352.93" x2="4315.77" y2="2286.87"/><line class="cls-7" x1="4327.42" y1="2352.93" x2="4304.48" y2="2289.9"/><line class="cls-7" x1="4327.42" y1="2352.93" x2="4293.88" y2="2294.84"/><line class="cls-7" x1="4327.42" y1="2352.93" x2="4284.31" y2="2301.55"/><line class="cls-7" x1="4327.42" y1="2352.93" x2="4276.04" y2="2309.81"/><line class="cls-7" x1="4327.42" y1="2352.93" x2="4269.33" y2="2319.39"/><line class="cls-7" x1="4327.42" y1="2352.93" x2="4264.39" y2="2329.99"/><line class="cls-7" x1="4327.42" y1="2352.93" x2="4261.37" y2="2341.28"/><line class="cls-7" x1="4327.42" y1="2352.93" x2="4260.35" y2="2352.93"/><line class="cls-7" x1="4327.42" y1="2352.93" x2="4261.37" y2="2364.58"/><line class="cls-7" x1="4327.42" y1="2352.93" x2="4264.39" y2="2375.87"/><line class="cls-7" x1="4327.42" y1="2352.93" x2="4269.33" y2="2386.47"/><line class="cls-7" x1="4327.42" y1="2352.93" x2="4276.04" y2="2396.05"/><line class="cls-7" x1="4327.42" y1="2352.93" x2="4284.31" y2="2404.31"/><line class="cls-7" x1="4327.42" y1="2352.93" x2="4293.88" y2="2411.02"/><line class="cls-7" x1="4327.42" y1="2352.93" x2="4304.48" y2="2415.96"/><line class="cls-7" x1="4327.42" y1="2352.93" x2="4350.36" y2="2289.9"/><line class="cls-7" x1="4327.42" y1="2352.93" x2="4339.07" y2="2286.87"/><line class="cls-7" x1="5014.87" y1="2352.93" x2="5014.87" y2="2285.85"/><line class="cls-7" x1="5014.87" y1="2352.93" x2="5026.52" y2="2286.87"/><line class="cls-7" x1="5014.87" y1="2352.93" x2="5037.81" y2="2289.9"/><line class="cls-7" x1="5014.87" y1="2352.93" x2="5048.41" y2="2294.84"/><line class="cls-7" x1="5014.87" y1="2352.93" x2="5057.98" y2="2301.55"/><line class="cls-7" x1="5014.87" y1="2352.93" x2="5066.25" y2="2309.81"/><line class="cls-7" x1="5014.87" y1="2352.93" x2="5072.96" y2="2319.39"/><line class="cls-7" x1="5014.87" y1="2352.93" x2="5077.9" y2="2329.99"/><line class="cls-7" x1="5014.87" y1="2352.93" x2="5080.93" y2="2341.28"/><line class="cls-7" x1="5014.87" y1="2352.93" x2="5081.94" y2="2352.93"/><line class="cls-7" x1="5014.87" y1="2352.93" x2="5080.93" y2="2364.58"/><line class="cls-7" x1="5014.87" y1="2352.93" x2="5077.9" y2="2375.87"/><line class="cls-7" x1="5014.87" y1="2352.93" x2="5072.96" y2="2386.47"/><line class="cls-7" x1="5014.87" y1="2352.93" x2="5066.25" y2="2396.05"/><line class="cls-7" x1="5014.87" y1="2352.93" x2="5057.98" y2="2404.31"/><line class="cls-7" x1="5014.87" y1="2352.93" x2="5048.41" y2="2411.02"/><line class="cls-7" x1="5014.87" y1="2352.93" x2="5037.81" y2="2415.96"/><line class="cls-7" x1="5014.87" y1="2352.93" x2="4991.93" y2="2289.9"/><line class="cls-7" x1="5014.87" y1="2352.93" x2="5003.22" y2="2286.87"/><path class="cls-8" d="M4964.29,2464.45H4378a159.39,159.39,0,0,0,78.81,151,230.48,230.48,0,0,0-16.38,100.79c7,115.52,100.91,209.53,216.42,216.48,134.14,8.07,245.45-98.33,245.45-230.72a230,230,0,0,0-16.82-86.54,159.39,159.39,0,0,0,78.81-151Z"/><polygon class="cls-8" points="4671.15 2239.83 4696.84 2658.92 4645.46 2658.92 4671.15 2239.83"/><polygon class="cls-8" points="4620.07 2242.95 4696.64 2655.79 4645.65 2662.05 4620.07 2242.95"/><polygon class="cls-8" points="4569.75 2252.28 4696.07 2652.71 4646.22 2665.14 4569.75 2252.28"/><polygon class="cls-8" points="4520.95 2267.66 4695.12 2649.72 4647.16 2668.13 4520.95 2267.66"/><polygon class="cls-8" points="4474.39 2288.89 4693.82 2646.86 4648.46 2670.99 4474.39 2288.89"/><polygon class="cls-8" points="4430.75 2315.62 4692.18 2644.19 4650.09 2673.66 4430.75 2315.62"/><polygon class="cls-8" points="4390.7 2347.48 4690.23 2641.74 4652.05 2676.12 4390.7 2347.48"/><polygon class="cls-8" points="4354.84 2383.98 4687.99 2639.54 4654.28 2678.32 4354.84 2383.98"/><polygon class="cls-8" points="4722.22 2242.95 4645.65 2655.79 4696.65 2662.05 4722.22 2242.95"/><polygon class="cls-8" points="4772.54 2252.28 4646.22 2652.71 4696.07 2665.14 4772.54 2252.28"/><polygon class="cls-8" points="4821.34 2267.66 4647.17 2649.72 4695.13 2668.13 4821.34 2267.66"/><polygon class="cls-8" points="4867.91 2288.89 4648.47 2646.86 4693.84 2670.99 4867.91 2288.89"/><polygon class="cls-8" points="4911.54 2315.62 4650.11 2644.19 4692.2 2673.66 4911.54 2315.62"/><polygon class="cls-8" points="4951.59 2347.48 4652.06 2641.74 4690.25 2676.12 4951.59 2347.48"/><polygon class="cls-8" points="4987.45 2383.98 4654.3 2639.54 4688.01 2678.32 4987.45 2383.98"/><line class="cls-9" x1="4671.15" y1="2709.91" x2="4671.15" y2="2781.34"/><polyline class="cls-9" points="4671.15 2698.8 4671.15 2510.7 4701.91 2479.93"/><polyline class="cls-9" points="4671.15 2709.91 4671.15 2510.7 4640.38 2479.93"/><circle cx="4472.26" cy="2531.16" r="20.19"/><circle class="cls-10" cx="4472.26" cy="2531.16" r="30.6"/><circle cx="4870.04" cy="2531.16" r="20.19"/><circle class="cls-10" cx="4870.04" cy="2531.16" r="30.6"/><circle cx="4571.66" cy="2698.8" r="50.89"/><circle cx="4770.64" cy="2698.8" r="50.89"/><path class="cls-6" d="M4691.24,2078.81a114.26,114.26,0,0,1,143.92-128.32A169.24,169.24,0,0,0,4691.24,2078.81Z"/><path class="cls-6" d="M4715,2105.42a114.29,114.29,0,0,1,143.92-128.33A169.25,169.25,0,0,0,4715,2105.42Z"/><path class="cls-6" d="M4738.69,2132a114.28,114.28,0,0,1,143.91-128.33A169.24,169.24,0,0,0,4738.69,2132Z"/><path class="cls-6" d="M4762.41,2158.62a114.28,114.28,0,0,1,119.5-132.45,115.22,115.22,0,0,1,24.42,4.13A169.23,169.23,0,0,0,4762.41,2158.62Z"/><path class="cls-11" d="M4442.2,2571.92a42.48,42.48,0,0,0,60.11,0"/><path class="cls-11" d="M4445.7,2592.11a42.49,42.49,0,0,0,56.61-20.19"/><path class="cls-11" d="M4900.09,2571.92a42.48,42.48,0,0,1-60.11,0"/><path class="cls-11" d="M4896.6,2592.11a42.49,42.49,0,0,1-56.62-20.19"/><path class="cls-9" d="M4584.4,2670.82a86.75,86.75,0,1,1,173.49,0"/><g class="cls-12"><line class="cls-9" x1="4420.26" y1="2781.34" x2="4933" y2="2781.34"/></g><circle class="cls-13" cx="2552.95" cy="662.95" r="276.07"/><circle class="cls-13" cx="2239.76" cy="976.15" r="276.07"/><circle class="cls-13" cx="2296.66" cy="340.36" r="381.8"/><circle class="cls-13" cx="1917.17" cy="719.85" r="381.8"/><circle class="cls-13" cx="1893.44" cy="316.64" r="381.8"/><circle class="cls-13" cx="2541.54" cy="964.74" r="167.28"/><path class="cls-14" d="M1736.39-513.64c-185.91,185.9-185.91,487.32,0,673.23"/><ellipse class="cls-15" cx="2216.64" cy="960.33" rx="62.6" ry="118.31" transform="translate(-29.82 1848.67) rotate(-45)"/><ellipse class="cls-15" cx="2537.13" cy="639.83" rx="62.6" ry="118.31" transform="translate(290.68 1981.43) rotate(-45)"/><ellipse class="cls-15" cx="1854.42" cy="598.11" rx="62.6" ry="118.31" transform="translate(120.22 1486.45) rotate(-45)"/><ellipse class="cls-15" cx="2174.91" cy="277.61" rx="62.6" ry="118.31" transform="translate(440.72 1619.21) rotate(-45)"/><path class="cls-16" d="M2972.12,3288.57c102.49,7.28,207.39-28.8,284.84-108s111.09-185,101.46-287.26Z"/><circle class="cls-17" cx="3147.02" cy="3199.94" r="36.56"/><circle cx="3167.46" cy="3134.58" r="14.95"/><path class="cls-16" d="M3952.06,3292.39c-102.56,6.26-207.1-30.86-283.75-110.87s-109.25-186-98.6-288.25Z"/><g class="cls-18"><circle class="cls-17" cx="3865.23" cy="3203.89" r="34.21"/></g><circle cx="3787.39" cy="3185.07" r="29.1"/><path class="cls-19" d="M3926,3091.32c0-255.13-206.82-462-462-462s-461.94,206.82-461.94,462Z"/><g class="cls-20"><path class="cls-21" d="M3299,2594.66a165,165,0,1,0,330.05,0Z"/><path class="cls-21" d="M3794.81,2671.4a165,165,0,1,0,182.35,275.1Z"/><path class="cls-21" d="M3133.32,2671.4A165,165,0,0,1,2951,2946.5Z"/></g><path class="cls-1" d="M3926,3091.32c0-255.13-206.82-462-462-462s-461.94,206.82-461.94,462Z"/><circle class="cls-22" cx="3315.67" cy="3001.26" r="97.58"/><circle class="cls-22" cx="3612.46" cy="3001.26" r="97.58"/><ellipse class="cls-22" cx="3464.06" cy="3089.5" rx="224.92" ry="260.39"/><ellipse class="cls-1" cx="3464.06" cy="3089.5" rx="224.92" ry="260.39"/><circle cx="3469.04" cy="2960.48" r="29.1"/><circle class="cls-17" cx="3413.25" cy="2937.16" r="21.11"/><circle class="cls-17" cx="3548.26" cy="2902.95" r="34.21"/><polygon class="cls-16" points="3284.44 3087.09 3278.46 2989.57 3290.42 2989.57 3284.44 3087.09"/><polygon class="cls-16" points="3296.32 3086.37 3278.51 2990.3 3290.37 2988.84 3296.32 3086.37"/><polygon class="cls-16" points="3308.03 3084.2 3278.64 2991.02 3290.24 2988.13 3308.03 3084.2"/><polygon class="cls-16" points="3319.39 3080.62 3278.86 2991.72 3290.02 2987.43 3319.39 3080.62"/><polygon class="cls-16" points="3330.22 3075.68 3279.16 2992.38 3289.72 2986.77 3330.22 3075.68"/><polygon class="cls-16" points="3340.38 3069.46 3279.54 2993 3289.34 2986.14 3340.38 3069.46"/><polygon class="cls-16" points="3349.7 3062.05 3280 2993.57 3288.88 2985.57 3349.7 3062.05"/><polygon class="cls-16" points="3358.04 3053.55 3280.52 2994.08 3288.36 2985.06 3358.04 3053.55"/><polygon class="cls-16" points="3272.55 3086.37 3290.37 2990.3 3278.51 2988.84 3272.55 3086.37"/><polygon class="cls-16" points="3260.84 3084.2 3290.24 2991.02 3278.64 2988.13 3260.84 3084.2"/><polygon class="cls-16" points="3249.49 3080.62 3290.02 2991.72 3278.86 2987.43 3249.49 3080.62"/><polygon class="cls-16" points="3238.65 3075.68 3289.72 2992.38 3279.16 2986.77 3238.65 3075.68"/><polygon class="cls-16" points="3228.5 3069.46 3289.33 2993 3279.54 2986.14 3228.5 3069.46"/><polygon class="cls-16" points="3219.18 3062.05 3288.88 2993.57 3279.99 2985.57 3219.18 3062.05"/><polygon class="cls-16" points="3210.84 3053.55 3288.36 2994.08 3280.51 2985.06 3210.84 3053.55"/><circle cx="3284.44" cy="2988.77" r="22.53"/><circle class="cls-23" cx="3284.44" cy="2988.77" r="34.14"/><polygon class="cls-16" points="3643.69 3087.09 3637.71 2989.57 3649.67 2989.57 3643.69 3087.09"/><polygon class="cls-16" points="3655.58 3086.37 3637.76 2990.3 3649.62 2988.84 3655.58 3086.37"/><polygon class="cls-16" points="3667.28 3084.2 3637.89 2991.02 3649.49 2988.13 3667.28 3084.2"/><polygon class="cls-16" points="3678.64 3080.62 3638.11 2991.72 3649.27 2987.43 3678.64 3080.62"/><polygon class="cls-16" points="3689.48 3075.68 3638.41 2992.38 3648.97 2986.77 3689.48 3075.68"/><polygon class="cls-16" points="3699.63 3069.46 3638.8 2993 3648.59 2986.14 3699.63 3069.46"/><polygon class="cls-16" points="3708.95 3062.05 3639.25 2993.57 3648.14 2985.57 3708.95 3062.05"/><polygon class="cls-16" points="3717.29 3053.55 3639.77 2994.08 3647.61 2985.06 3717.29 3053.55"/><polygon class="cls-16" points="3631.8 3086.37 3649.62 2990.3 3637.76 2988.84 3631.8 3086.37"/><polygon class="cls-16" points="3620.1 3084.2 3649.49 2991.02 3637.89 2988.13 3620.1 3084.2"/><polygon class="cls-16" points="3608.74 3080.62 3649.27 2991.72 3638.11 2987.43 3608.74 3080.62"/><polygon class="cls-16" points="3597.9 3075.68 3648.97 2992.38 3638.41 2986.77 3597.9 3075.68"/><polygon class="cls-16" points="3587.75 3069.46 3648.59 2993 3638.79 2986.14 3587.75 3069.46"/><polygon class="cls-16" points="3578.43 3062.05 3648.13 2993.57 3639.25 2985.57 3578.43 3062.05"/><polygon class="cls-16" points="3570.09 3053.55 3647.61 2994.08 3639.77 2985.06 3570.09 3053.55"/><circle cx="3643.69" cy="2988.77" r="22.53"/><circle class="cls-23" cx="3643.69" cy="2988.77" r="34.14"/><g class="cls-24"><circle cx="3439.65" cy="2860.59" r="49"/></g><path class="cls-19" d="M3266.29,3213.62c38.09,81.17,112.37,136.27,197.77,136.27s159.69-55.1,197.78-136.27Z"/><path class="cls-16" d="M3464.06,3036.12c-95.18,0-175.14,75.45-197.7,177.5l146.89,45.54,50.81,46.82,50.82-46.82,146.89-45.54C3639.21,3111.57,3559.25,3036.12,3464.06,3036.12Z"/><circle cx="3442.99" cy="3079.46" r="16.09"/><circle cx="3485.14" cy="3079.46" r="16.09"/><circle class="cls-13" cx="4458.9" cy="1604.39" r="125.86"/><circle class="cls-13" cx="4316.12" cy="1747.17" r="125.86"/><circle class="cls-13" cx="4342.06" cy="1457.32" r="174.06"/><circle class="cls-13" cx="4169.05" cy="1630.33" r="174.06"/><circle class="cls-13" cx="4158.23" cy="1446.5" r="174.06"/><circle class="cls-13" cx="4453.7" cy="1741.97" r="76.27"/><path class="cls-25" d="M4086.63,1068c-84.76,84.76-84.76,222.17,0,306.93"/><ellipse class="cls-15" cx="4305.58" cy="1739.96" rx="28.54" ry="53.94" transform="translate(30.73 3554.12) rotate(-45)"/><ellipse class="cls-15" cx="4451.69" cy="1593.85" rx="28.54" ry="53.94" transform="translate(176.85 3614.65) rotate(-45)"/><ellipse class="cls-15" cx="4140.44" cy="1574.82" rx="28.54" ry="53.94" transform="translate(99.14 3388.99) rotate(-45)"/><ellipse class="cls-15" cx="4286.55" cy="1428.71" rx="28.54" ry="53.94" transform="translate(245.25 3449.51) rotate(-45)"/><path class="cls-15" d="M1840.34,3348.39c227.62-227.62,527.27-336.69,818.38-325.45-243.63-154.63-577.83-119.05-799.17,102.28-126.78,126.79-192.61,290.61-196.66,453.22A1127.13,1127.13,0,0,1,1840.34,3348.39Z"/><path class="cls-26" d="M1892.94,3401c227.62-227.62,336.69-527.27,325.46-818.38,154.62,243.63,119,577.84-102.29,799.17-126.78,126.78-290.6,192.61-453.22,196.66A1126.5,1126.5,0,0,0,1892.94,3401Z"/><ellipse class="cls-27" cx="1017.06" cy="464.62" rx="283.46" ry="79.92"/><g class="cls-28"><ellipse class="cls-29" cx="1017.06" cy="424.35" rx="283.46" ry="79.92"/></g><ellipse class="cls-30" cx="836.8" cy="441.29" rx="197.74" ry="303.48" transform="translate(-66.95 720.96) rotate(-45)"/><g class="cls-31"><ellipse class="cls-32" cx="895.14" cy="426.9" rx="197.5" ry="296.1" transform="translate(-96.55 418.48) rotate(-25.01)"/></g><rect class="cls-27" x="1034.79" y="619.53" width="35.72" height="75.22" rx="17.86" transform="translate(2261.66 377.47) rotate(135)"/><ellipse class="cls-33" cx="1072.42" cy="676.91" rx="15.85" ry="9.66" transform="translate(-164.54 956.57) rotate(-45)"/><circle class="cls-34" cx="602.78" cy="570.6" r="120"/><circle class="cls-34" cx="695.53" cy="570.6" r="120"/><rect class="cls-34" x="323.29" y="478.67" width="651.74" height="853.56" rx="325.87"/><circle class="cls-34" cx="506.61" cy="1093.98" r="284.27"/><circle class="cls-34" cx="791.71" cy="1093.98" r="284.27"/><rect class="cls-34" x="388.46" y="510.92" width="87.88" height="167.26" rx="43.94" transform="translate(-293.76 479.89) rotate(-45)"/><rect class="cls-34" x="821.97" y="510.92" width="87.88" height="167.26" rx="43.94" transform="translate(1057.8 1627.25) rotate(-135)"/><path class="cls-35" d="M955.22,1082.66c0,63.71-52.13,115.85-115.85,115.85H458.94c-63.71,0-115.85-52.14-115.85-115.85"/><path d="M489.55,1198.51v28.89a19.32,19.32,0,0,1-19.26,19.27h0A19.32,19.32,0,0,1,451,1227.4v-28.89"/><path d="M847.29,1198.51v28.89A19.32,19.32,0,0,1,828,1246.67h0a19.32,19.32,0,0,1-19.27-19.27v-28.89"/><circle cx="430.18" cy="734.8" r="18.3"/><circle class="cls-36" cx="430.18" cy="734.8" r="27.73"/><circle cx="877.77" cy="734.8" r="18.3"/><circle class="cls-36" cx="877.77" cy="734.8" r="27.73"/><path class="cls-37" d="M476.08,811.8a64.89,64.89,0,0,0-91.8,0"/><path class="cls-37" d="M923.67,811.8a64.89,64.89,0,0,0-91.8,0"/><path d="M626,1139.12a36.43,36.43,0,0,0-72.86,0Z"/><path d="M745.22,1139.12a36.43,36.43,0,0,0-72.86,0Z"/><line class="cls-35" x1="649.1" y1="1002.71" x2="649.1" y2="1139.12"/><circle cx="430.18" cy="980.51" r="67.31"/><polygon points="430.18 852.78 437.33 933.45 423.03 933.45 430.18 852.78"/><polygon points="408 854.72 429.04 932.92 414.97 935.4 408 854.72"/><polygon points="386.49 860.49 420.8 933.84 407.37 938.73 386.49 860.49"/><polygon points="366.31 869.9 412.83 936.18 400.46 943.32 366.31 869.9"/><polygon points="348.08 882.67 405.4 939.86 394.45 949.05 348.08 882.67"/><polygon points="332.33 898.41 398.72 944.78 389.53 955.73 332.33 898.41"/><polygon points="319.56 916.65 392.99 950.79 385.84 963.17 319.56 916.65"/><polygon points="310.15 936.83 388.39 957.7 383.5 971.13 310.15 936.83"/><polygon points="304.39 958.33 385.07 965.3 382.58 979.38 304.39 958.33"/><polygon points="302.45 980.51 383.11 973.37 383.11 987.66 302.45 980.51"/><polygon points="304.39 1002.7 382.58 981.65 385.07 995.73 304.39 1002.7"/><polygon points="310.15 1024.2 383.5 989.9 388.39 1003.33 310.15 1024.2"/><polygon points="319.56 1044.38 385.84 997.86 392.99 1010.24 319.56 1044.38"/><polygon points="332.33 1062.62 389.53 1005.3 398.72 1016.25 332.33 1062.62"/><polygon points="348.08 1078.36 394.45 1011.98 405.4 1021.17 348.08 1078.36"/><polygon points="366.31 1091.13 400.46 1017.71 412.83 1024.85 366.31 1091.13"/><polygon points="386.49 1100.54 407.37 1022.3 420.8 1027.19 386.49 1100.54"/><polygon points="408 1106.31 414.97 1025.63 429.04 1028.11 408 1106.31"/><polygon points="430.18 1108.25 423.03 1027.59 437.33 1027.59 430.18 1108.25"/><polygon points="452.36 1106.31 431.32 1028.11 445.39 1025.63 452.36 1106.31"/><polygon points="473.87 1100.54 439.56 1027.19 452.99 1022.3 473.87 1100.54"/><polygon points="494.05 1091.13 447.53 1024.85 459.9 1017.71 494.05 1091.13"/><polygon points="512.28 1078.36 454.96 1021.17 465.91 1011.98 512.28 1078.36"/><polygon points="528.03 1062.62 461.64 1016.25 470.83 1005.3 528.03 1062.62"/><polygon points="540.8 1044.38 467.37 1010.24 474.52 997.86 540.8 1044.38"/><polygon points="550.21 1024.2 471.97 1003.33 476.86 989.9 550.21 1024.2"/><polygon points="555.97 1002.7 475.29 995.73 477.78 981.65 555.97 1002.7"/><polygon points="557.91 980.51 477.25 987.66 477.25 973.37 557.91 980.51"/><polygon points="555.97 958.33 477.78 979.38 475.29 965.3 555.97 958.33"/><polygon points="550.21 936.83 476.86 971.13 471.97 957.7 550.21 936.83"/><polygon points="540.8 916.65 474.52 963.17 467.37 950.79 540.8 916.65"/><polygon points="528.03 898.41 470.83 955.73 461.64 944.78 528.03 898.41"/><polygon points="512.28 882.67 465.91 949.05 454.96 939.86 512.28 882.67"/><polygon points="494.05 869.9 459.9 943.32 447.53 936.18 494.05 869.9"/><polygon points="473.87 860.49 452.99 938.73 439.56 933.84 473.87 860.49"/><polygon points="452.36 854.72 445.39 935.4 431.32 932.92 452.36 854.72"/><circle cx="877.77" cy="980.51" r="67.31"/><polygon points="877.77 852.78 884.91 933.45 870.62 933.45 877.77 852.78"/><polygon points="855.59 854.72 876.63 932.92 862.56 935.4 855.59 854.72"/><polygon points="834.08 860.49 868.38 933.84 854.96 938.73 834.08 860.49"/><polygon points="813.9 869.9 860.42 936.18 848.04 943.32 813.9 869.9"/><polygon points="795.66 882.67 852.99 939.86 842.04 949.05 795.66 882.67"/><polygon points="779.92 898.41 846.3 944.78 837.12 955.73 779.92 898.41"/><polygon points="767.15 916.65 840.58 950.79 833.43 963.17 767.15 916.65"/><polygon points="757.74 936.83 835.98 957.7 831.09 971.13 757.74 936.83"/><polygon points="751.98 958.33 832.65 965.3 830.17 979.38 751.98 958.33"/><polygon points="750.04 980.51 830.7 973.37 830.7 987.66 750.04 980.51"/><polygon points="751.98 1002.7 830.17 981.65 832.65 995.73 751.98 1002.7"/><polygon points="757.74 1024.2 831.09 989.9 835.98 1003.33 757.74 1024.2"/><polygon points="767.15 1044.38 833.43 997.86 840.58 1010.24 767.15 1044.38"/><polygon points="779.92 1062.62 837.12 1005.3 846.3 1016.25 779.92 1062.62"/><polygon points="795.66 1078.36 842.04 1011.98 852.99 1021.17 795.66 1078.36"/><polygon points="813.9 1091.13 848.04 1017.71 860.42 1024.85 813.9 1091.13"/><polygon points="834.08 1100.54 854.96 1022.3 868.38 1027.19 834.08 1100.54"/><polygon points="855.59 1106.31 862.56 1025.63 876.63 1028.11 855.59 1106.31"/><polygon points="877.77 1108.25 870.62 1027.59 884.91 1027.59 877.77 1108.25"/><polygon points="899.95 1106.31 878.9 1028.11 892.98 1025.63 899.95 1106.31"/><polygon points="921.46 1100.54 887.15 1027.19 900.58 1022.3 921.46 1100.54"/><polygon points="941.63 1091.13 895.12 1024.85 907.49 1017.71 941.63 1091.13"/><polygon points="959.87 1078.36 902.55 1021.17 913.5 1011.98 959.87 1078.36"/><polygon points="975.62 1062.62 909.23 1016.25 918.42 1005.3 975.62 1062.62"/><polygon points="988.39 1044.38 914.96 1010.24 922.11 997.86 988.39 1044.38"/><polygon points="997.8 1024.2 919.56 1003.33 924.44 989.9 997.8 1024.2"/><polygon points="1003.56 1002.7 922.88 995.73 925.37 981.65 1003.56 1002.7"/><polygon points="1005.5 980.51 924.84 987.66 924.84 973.37 1005.5 980.51"/><polygon points="1003.56 958.33 925.37 979.38 922.88 965.3 1003.56 958.33"/><polygon points="997.8 936.83 924.44 971.13 919.56 957.7 997.8 936.83"/><polygon points="988.39 916.65 922.11 963.17 914.96 950.79 988.39 916.65"/><polygon points="975.62 898.41 918.42 955.73 909.23 944.78 975.62 898.41"/><polygon points="959.87 882.67 913.5 949.05 902.55 939.86 959.87 882.67"/><polygon points="941.63 869.9 907.49 943.32 895.12 936.18 941.63 869.9"/><polygon points="921.46 860.49 900.58 938.73 887.15 933.84 921.46 860.49"/><polygon points="899.95 854.72 892.98 935.4 878.9 932.92 899.95 854.72"/><circle cx="615.68" cy="677.91" r="53.14"/><circle cx="682.63" cy="677.91" r="53.14"/><circle cx="621.8" cy="587.13" r="43.42"/><circle cx="676.51" cy="587.13" r="43.42"/><circle cx="628.99" cy="519.01" r="32.01"/><circle cx="669.32" cy="519.01" r="32.01"/><ellipse class="cls-38" cx="1840.31" cy="932.12" rx="510.74" ry="529.3"/><circle class="cls-38" cx="1431.42" cy="606.97" r="130.36"/><circle class="cls-38" cx="2249.21" cy="606.97" r="130.36"/><ellipse cx="1505.3" cy="844.18" rx="111.56" ry="64.42"/><circle class="cls-39" cx="1505.3" cy="844.18" r="23.76"/><circle class="cls-40" cx="1505.3" cy="844.18" r="36.01"/><ellipse cx="2175.32" cy="844.18" rx="111.56" ry="64.42"/><circle class="cls-39" cx="2175.32" cy="844.18" r="23.76"/><circle class="cls-40" cx="2175.32" cy="844.18" r="36.01"/><path class="cls-41" d="M1505.3,784.59a167.51,167.51,0,0,1,335,0"/><path class="cls-41" d="M2175.32,784.59a167.51,167.51,0,0,0-335,0v39.78"/><circle class="cls-42" cx="1654.28" cy="1093.28" r="133.58"/><circle class="cls-42" cx="2026.35" cy="1093.28" r="133.58"/><line class="cls-41" x1="1606.44" y1="1050.66" x2="1606.44" y2="1090.04"/><line class="cls-41" x1="1654.28" y1="1050.66" x2="1654.28" y2="1090.04"/><line class="cls-41" x1="1702.12" y1="1050.66" x2="1702.12" y2="1090.04"/><line class="cls-41" x1="1630.36" y1="1098.86" x2="1630.36" y2="1138.25"/><line class="cls-41" x1="1678.2" y1="1098.86" x2="1678.2" y2="1138.25"/><line class="cls-41" x1="1978.5" y1="1050.66" x2="1978.5" y2="1090.04"/><line class="cls-41" x1="2026.35" y1="1050.66" x2="2026.35" y2="1090.04"/><line class="cls-41" x1="2074.19" y1="1050.66" x2="2074.19" y2="1090.04"/><line class="cls-41" x1="2002.42" y1="1098.86" x2="2002.42" y2="1138.25"/><line class="cls-41" x1="2050.27" y1="1098.86" x2="2050.27" y2="1138.25"/><circle cx="1431.42" cy="606.97" r="46.11"/><line class="cls-43" x1="1431.42" y1="606.97" x2="1431.42" y2="528.04"/><line class="cls-43" x1="1431.42" y1="606.97" x2="1417.71" y2="529.24"/><line class="cls-43" x1="1431.42" y1="606.97" x2="1404.42" y2="532.8"/><line class="cls-43" x1="1431.42" y1="606.97" x2="1391.95" y2="538.61"/><line class="cls-43" x1="1431.42" y1="606.97" x2="1380.68" y2="546.5"/><line class="cls-43" x1="1431.42" y1="606.97" x2="1370.95" y2="556.23"/><line class="cls-43" x1="1431.42" y1="606.97" x2="1363.06" y2="567.5"/><line class="cls-43" x1="1431.42" y1="606.97" x2="1357.24" y2="579.97"/><line class="cls-43" x1="1431.42" y1="606.97" x2="1353.68" y2="593.26"/><line class="cls-43" x1="1431.42" y1="606.97" x2="1352.48" y2="606.97"/><line class="cls-43" x1="1431.42" y1="606.97" x2="1353.68" y2="620.68"/><line class="cls-43" x1="1431.42" y1="606.97" x2="1357.24" y2="633.97"/><line class="cls-43" x1="1431.42" y1="606.97" x2="1363.06" y2="646.44"/><line class="cls-43" x1="1431.42" y1="606.97" x2="1370.95" y2="657.71"/><line class="cls-43" x1="1431.42" y1="606.97" x2="1380.68" y2="667.44"/><line class="cls-43" x1="1431.42" y1="606.97" x2="1391.95" y2="675.33"/><line class="cls-43" x1="1431.42" y1="606.97" x2="1404.42" y2="681.14"/><line class="cls-43" x1="1431.42" y1="606.97" x2="1417.71" y2="684.7"/><line class="cls-43" x1="1431.42" y1="606.97" x2="1431.42" y2="685.9"/><line class="cls-43" x1="1431.42" y1="606.97" x2="1445.12" y2="684.7"/><line class="cls-43" x1="1431.42" y1="606.97" x2="1458.41" y2="681.14"/><line class="cls-43" x1="1431.42" y1="606.97" x2="1470.88" y2="675.33"/><line class="cls-43" x1="1431.42" y1="606.97" x2="1482.15" y2="667.44"/><line class="cls-43" x1="1431.42" y1="606.97" x2="1491.88" y2="657.71"/><line class="cls-43" x1="1431.42" y1="606.97" x2="1499.77" y2="646.44"/><line class="cls-43" x1="1431.42" y1="606.97" x2="1505.59" y2="633.97"/><line class="cls-43" x1="1431.42" y1="606.97" x2="1509.15" y2="620.68"/><line class="cls-43" x1="1431.42" y1="606.97" x2="1510.35" y2="606.97"/><line class="cls-43" x1="1431.42" y1="606.97" x2="1509.15" y2="593.26"/><line class="cls-43" x1="1431.42" y1="606.97" x2="1505.59" y2="579.97"/><line class="cls-43" x1="1431.42" y1="606.97" x2="1499.77" y2="567.5"/><line class="cls-43" x1="1431.42" y1="606.97" x2="1491.88" y2="556.23"/><line class="cls-43" x1="1431.42" y1="606.97" x2="1482.15" y2="546.5"/><line class="cls-43" x1="1431.42" y1="606.97" x2="1470.88" y2="538.61"/><line class="cls-43" x1="1431.42" y1="606.97" x2="1458.41" y2="532.8"/><line class="cls-43" x1="1431.42" y1="606.97" x2="1445.12" y2="529.24"/><circle cx="2249.21" cy="606.97" r="46.11"/><line class="cls-44" x1="2249.21" y1="606.97" x2="2249.21" y2="528.04"/><line class="cls-44" x1="2249.21" y1="606.97" x2="2235.5" y2="529.24"/><line class="cls-44" x1="2249.21" y1="606.97" x2="2222.21" y2="532.8"/><line class="cls-44" x1="2249.21" y1="606.97" x2="2209.74" y2="538.61"/><line class="cls-44" x1="2249.21" y1="606.97" x2="2198.47" y2="546.5"/><line class="cls-44" x1="2249.21" y1="606.97" x2="2188.74" y2="556.23"/><line class="cls-44" x1="2249.21" y1="606.97" x2="2180.85" y2="567.5"/><line class="cls-44" x1="2249.21" y1="606.97" x2="2175.03" y2="579.97"/><line class="cls-44" x1="2249.21" y1="606.97" x2="2171.47" y2="593.26"/><line class="cls-44" x1="2249.21" y1="606.97" x2="2170.27" y2="606.97"/><line class="cls-44" x1="2249.21" y1="606.97" x2="2171.47" y2="620.68"/><line class="cls-44" x1="2249.21" y1="606.97" x2="2175.03" y2="633.97"/><line class="cls-44" x1="2249.21" y1="606.97" x2="2180.85" y2="646.44"/><line class="cls-44" x1="2249.21" y1="606.97" x2="2188.74" y2="657.71"/><line class="cls-44" x1="2249.21" y1="606.97" x2="2198.47" y2="667.44"/><line class="cls-44" x1="2249.21" y1="606.97" x2="2209.74" y2="675.33"/><line class="cls-44" x1="2249.21" y1="606.97" x2="2222.21" y2="681.14"/><line class="cls-44" x1="2249.21" y1="606.97" x2="2235.5" y2="684.7"/><line class="cls-44" x1="2249.21" y1="606.97" x2="2249.21" y2="685.9"/><line class="cls-44" x1="2249.21" y1="606.97" x2="2262.91" y2="684.7"/><line class="cls-44" x1="2249.21" y1="606.97" x2="2276.2" y2="681.14"/><line class="cls-44" x1="2249.21" y1="606.97" x2="2288.67" y2="675.33"/><line class="cls-44" x1="2249.21" y1="606.97" x2="2299.94" y2="667.44"/><line class="cls-44" x1="2249.21" y1="606.97" x2="2309.67" y2="657.71"/><line class="cls-44" x1="2249.21" y1="606.97" x2="2317.56" y2="646.44"/><line class="cls-44" x1="2249.21" y1="606.97" x2="2323.38" y2="633.97"/><line class="cls-44" x1="2249.21" y1="606.97" x2="2326.94" y2="620.68"/><line class="cls-44" x1="2249.21" y1="606.97" x2="2328.14" y2="606.97"/><line class="cls-44" x1="2249.21" y1="606.97" x2="2326.94" y2="593.26"/><line class="cls-44" x1="2249.21" y1="606.97" x2="2323.38" y2="579.97"/><line class="cls-44" x1="2249.21" y1="606.97" x2="2317.56" y2="567.5"/><line class="cls-44" x1="2249.21" y1="606.97" x2="2309.67" y2="556.23"/><line class="cls-44" x1="2249.21" y1="606.97" x2="2299.94" y2="546.5"/><line class="cls-44" x1="2249.21" y1="606.97" x2="2288.67" y2="538.61"/><line class="cls-44" x1="2249.21" y1="606.97" x2="2276.2" y2="532.8"/><line class="cls-44" x1="2249.21" y1="606.97" x2="2262.91" y2="529.24"/><path d="M1898.41,610.13v0L2054,566.81l-155.63-43.33a45.22,45.22,0,1,0,0,86.65Z"/><path d="M1782.22,610.13v0l-155.64-43.35,155.64-43.33a45.22,45.22,0,1,1,0,86.65Z"/><path d="M1890.19,542.32v0l133.61-37.21-133.61-37.2a38.82,38.82,0,1,0,0,74.39Z"/><path d="M1790.44,542.32v0l-133.61-37.21,133.61-37.2a38.82,38.82,0,1,1,0,74.39Z"/><path d="M1880.2,484.84v0L1987,455.1,1880.2,425.36a31,31,0,1,0,0,59.48Z"/><path d="M1800.43,484.84v0L1693.58,455.1l106.85-29.74a31,31,0,1,1,0,59.48Z"/><path d="M2237.75,994.14h0l88-24.5-88-24.49a25.55,25.55,0,1,0,0,49Z"/><path d="M1442.87,994.14h0l-88-24.5,88-24.49a25.55,25.55,0,1,1,0,49Z"/><path class="cls-45" d="M2212.38,1100.62c0,102.74-83.29,186-186,186s-186-83.29-186-186"/><path class="cls-45" d="M1468.24,1100.62c0,102.74,83.29,186,186,186s186-83.29,186-186l0-13.14"/><path d="M1939.06,1280.57l109.62,84.09-100.25-98.54c-15.34-1.21-28.52-6.9-36.44-15a114.65,114.65,0,0,1-147-2.92c-3.62,11.15-18,19.58-35.64,20.7l-97.43,95.77,109.62-84.09-86,108.14,98.55-96.82L1682,1409.69l86-108.11-57.28,125.72,72.2-117.78-41.52,131.76,57.31-125.7-25.16,135.84,41.56-131.75-8.42,137.89,25.2-135.83,8.45,137.89,8.45-137.89,25.2,135.83-8.42-137.89,41.56,131.75-25.16-135.84,57.31,125.7-41.52-131.76,72.2,117.78-57.28-125.72,86,108.11-72.17-117.8,98.55,96.82Z"/><ellipse cx="1841.93" cy="1254.54" rx="70.77" ry="43.85"/><polygon class="cls-38" points="1840.32 824.37 1724.51 1122.43 1840.32 1244.08 1956.12 1122.43 1840.32 824.37"/><polygon class="cls-41" points="1840.32 824.37 1724.51 1122.43 1840.32 1244.08 1956.12 1122.43 1840.32 824.37"/><polygon points="1724.51 1120.38 1840.32 1242.03 1956.12 1120.38 1724.51 1120.38"/><path class="cls-15" d="M5337.15,2487.28c-75.49,0-147.79,17.54-214.55,49.6l214.55,734.35,214.54-734.35C5484.93,2504.82,5412.64,2487.28,5337.15,2487.28Z"/><path class="cls-46" d="M5125.69,2516.34c-72.69,20.36-137.57,56.75-193.21,105.63l404.67,649.26,8.51-765C5272.73,2493.37,5198.38,2496,5125.69,2516.34Z"/><path class="cls-15" d="M4929.91,2601.36c-64.51,39.21-117.17,91.75-157.56,153.83l564.8,516L5139,2532.29C5065.3,2539.58,4994.41,2562.14,4929.91,2601.36Z"/><path class="cls-26" d="M4764.31,2736c-51.53,55.16-88.07,120-110.22,190.63l683.06,344.57L4947,2613.12C4878,2640,4815.85,2680.87,4764.31,2736Z"/><path class="cls-47" d="M4641.19,2910.38c-34.75,67-52.45,139.28-54.73,213.3l750.69,147.55L4784,2742.75C4724.78,2787.26,4675.93,2843.37,4641.19,2910.38Z"/><path class="cls-46" d="M4569.65,3111.48c-15.38,73.91-12.94,148.26,4.84,220.15l762.66-60.4-675.23-359.68C4616.94,2970.38,4585,3037.58,4569.65,3111.48Z"/><path class="cls-27" d="M4555,3324.43c5.12,75.31,27.53,146.25,64,210.68l718.1-263.88L4589.93,3107C4562.48,3175.79,4549.89,3249.11,4555,3324.43Z"/><path class="cls-15" d="M5053.08,3296.64c-330.86,0-627.92-138.51-831.33-358.26,64.68,289.45,333.44,506.5,655.18,506.5,184.29,0,351.2-71.22,472.33-186.47A1158,1158,0,0,1,5053.08,3296.64Z"/><path class="cls-26" d="M5053.08,3220.18c-330.86,0-627.92,138.52-831.33,358.26C4286.43,3289,4555.19,3072,4876.93,3072c184.29,0,351.2,71.22,472.33,186.46A1158.46,1158.46,0,0,0,5053.08,3220.18Z"/><path class="cls-26" d="M5387.49,2962.24c0-330.87-138.51-627.93-358.26-831.34,289.45,64.69,506.5,333.44,506.5,655.18,0,184.29-71.22,351.2-186.47,472.33A1158,1158,0,0,0,5387.49,2962.24Z"/><path class="cls-47" d="M5311,2962.24c0-330.87,138.52-627.93,358.26-831.34-289.45,64.69-506.5,333.44-506.5,655.18,0,184.29,71.23,351.2,186.47,472.33A1158.44,1158.44,0,0,1,5311,2962.24Z"/><path class="cls-26" d="M1871.72,2670.27l-123.26,71c-.48-.58-1-1.12-1.53-1.7l91.35-109.11-109.11,91.35c-.58-.49-1.12-1.05-1.7-1.53l71-123.25L1706.84,2706l-1.95-1.16L1753.42,2571l-71.29,123.16c-.71-.27-1.43-.5-2.14-.75l24.56-140.2-48.8,133.61c-.75-.14-1.5-.2-2.26-.33l-.15-142.31-24.86,140h-2.29l-24.86-140-.15,142.31c-.75.13-1.51.19-2.27.33l-48.79-133.61,24.56,140.2c-.71.25-1.43.48-2.14.75L1501.25,2571l48.53,133.78-2,1.16L1456.22,2597l71,123.25c-.58.48-1.12,1-1.7,1.53l-109.12-91.36,91.36,109.12c-.49.58-1,1.12-1.53,1.7l-123.26-71,108.94,91.61c-.38.66-.78,1.3-1.15,2L1357,2715.31l123.16,71.28c-.26.71-.49,1.43-.75,2.15l-140.19-24.57,133.6,48.8c-.14.75-.2,1.51-.32,2.26l-142.31.16,140,24.85v2.3l-140,24.85,142.31.16c.12.75.18,1.51.32,2.26l-133.6,48.79L1479.36,2894c.26.72.49,1.43.75,2.14L1357,2967.47l133.79-48.53c.37.66.77,1.3,1.15,1.95L1383,3012.51l123.26-71c.48.58,1,1.12,1.53,1.69l-91.35,109.12L1525.5,2961c.58.5,1.12,1.05,1.7,1.54l-71,123.25,91.61-108.94c.65.38,1.3.78,2,1.15l-48.53,133.79,71.29-123.16c.71.27,1.43.5,2.14.75l-24.56,140.2,48.8-133.61c.75.14,1.5.2,2.26.33l.15,142.31,24.86-140.05c.76,0,1.53,0,2.29,0l24.86,140.05.15-142.31c.75-.13,1.51-.19,2.27-.33l48.79,133.61L1680,2989.36c.71-.25,1.43-.48,2.14-.75l71.29,123.16L1704.89,2978l1.95-1.16,91.61,108.94-71-123.25c.58-.48,1.12-1,1.7-1.53l109.12,91.35-91.36-109.12c.49-.57,1-1.11,1.53-1.69l123.26,71-108.94-91.62c.38-.65.78-1.29,1.15-1.95l133.79,48.53-123.16-71.29c.26-.71.49-1.42.75-2.14l140.19,24.56-133.6-48.79c.14-.75.2-1.51.32-2.26l142.31-.16-140-24.85v-2.3l140-24.85-142.31-.16c-.12-.75-.18-1.51-.32-2.26l133.6-48.8-140.19,24.57c-.26-.72-.49-1.44-.75-2.15l123.16-71.28-133.79,48.53c-.37-.66-.77-1.3-1.15-2Z"/><circle class="cls-34" cx="1545.62" cy="2983.35" r="105.56"/><circle class="cls-48" cx="1657.46" cy="2871.51" r="105.56"/><circle class="cls-48" cx="1585.78" cy="3135.34" r="105.56"/><circle class="cls-34" cx="1921.28" cy="2799.83" r="105.56"/><circle class="cls-49" cx="1737.77" cy="3175.49" r="105.56"/><circle class="cls-34" cx="1849.6" cy="3063.66" r="105.56"/><circle class="cls-48" cx="1889.76" cy="3215.65" r="105.56"/><circle class="cls-50" cx="2001.6" cy="3103.81" r="105.56"/><circle class="cls-49" cx="1961.44" cy="2951.82" r="105.56"/><circle class="cls-50" cx="1697.61" cy="3023.5" r="105.56"/><circle class="cls-48" cx="1809.45" cy="2911.67" r="105.56"/><circle class="cls-49" cx="1769.29" cy="2759.68" r="105.56"/><polygon class="cls-51" points="1439.42 1728.25 1370.51 1806.16 1361.51 1797.16 1439.42 1728.25"/><polygon class="cls-51" points="1429.93 1719.85 1371.03 1805.58 1360.99 1797.74 1429.93 1719.85"/><polygon class="cls-51" points="1419.48 1712.67 1371.46 1804.94 1360.56 1798.38 1419.48 1712.67"/><polygon class="cls-51" points="1408.24 1706.82 1371.82 1804.25 1360.2 1799.07 1408.24 1706.82"/><polygon class="cls-51" points="1396.36 1702.38 1372.1 1803.52 1359.92 1799.8 1396.36 1702.38"/><polygon class="cls-51" points="1384.04 1699.42 1372.28 1802.77 1359.74 1800.56 1384.04 1699.42"/><polygon class="cls-51" points="1371.44 1697.98 1372.36 1801.99 1359.65 1801.33 1371.44 1697.98"/><polygon class="cls-51" points="1358.77 1698.1 1372.36 1801.22 1359.66 1802.11 1358.77 1698.1"/><polygon class="cls-51" points="1447.82 1737.74 1362.09 1796.65 1369.93 1806.68 1447.82 1737.74"/><polygon class="cls-51" points="1455 1748.19 1362.73 1796.21 1369.29 1807.12 1455 1748.19"/><polygon class="cls-51" points="1460.85 1759.44 1363.42 1795.85 1368.6 1807.48 1460.85 1759.44"/><polygon class="cls-51" points="1465.29 1771.31 1364.15 1795.58 1367.87 1807.75 1465.29 1771.31"/><polygon class="cls-51" points="1468.25 1783.64 1364.91 1795.4 1367.12 1807.93 1468.25 1783.64"/><polygon class="cls-51" points="1469.69 1796.23 1365.68 1795.31 1366.35 1808.02 1469.69 1796.23"/><polygon class="cls-51" points="1469.58 1808.91 1366.45 1795.32 1365.57 1808.01 1469.58 1808.91"/><polygon class="cls-51" points="1513.49 1802.32 1444.58 1880.23 1435.58 1871.23 1513.49 1802.32"/><polygon class="cls-51" points="1503.99 1793.92 1445.09 1879.65 1435.06 1871.81 1503.99 1793.92"/><polygon class="cls-51" points="1493.55 1786.74 1445.53 1879.01 1434.62 1872.45 1493.55 1786.74"/><polygon class="cls-51" points="1482.3 1780.89 1445.89 1878.32 1434.26 1873.14 1482.3 1780.89"/><polygon class="cls-51" points="1470.43 1776.45 1446.16 1877.59 1433.99 1873.87 1470.43 1776.45"/><polygon class="cls-51" points="1458.1 1773.49 1446.34 1876.83 1433.81 1874.62 1458.1 1773.49"/><polygon class="cls-51" points="1445.51 1772.05 1446.43 1876.06 1433.72 1875.39 1445.51 1772.05"/><polygon class="cls-51" points="1432.83 1772.16 1446.42 1875.28 1433.73 1876.17 1432.83 1772.16"/><polygon class="cls-51" points="1521.89 1811.81 1436.16 1870.71 1444 1880.74 1521.89 1811.81"/><polygon class="cls-51" points="1529.07 1822.26 1436.8 1870.28 1443.36 1881.18 1529.07 1822.26"/><polygon class="cls-51" points="1534.92 1833.5 1437.49 1869.92 1442.67 1881.54 1534.92 1833.5"/><polygon class="cls-51" points="1539.36 1845.38 1438.22 1869.64 1441.94 1881.82 1539.36 1845.38"/><polygon class="cls-51" points="1542.32 1857.7 1438.97 1869.46 1441.18 1882 1542.32 1857.7"/><polygon class="cls-51" points="1543.76 1870.3 1439.75 1869.38 1440.41 1882.09 1543.76 1870.3"/><polygon class="cls-51" points="1543.64 1882.97 1440.52 1869.38 1439.63 1882.08 1543.64 1882.97"/><circle class="cls-52" cx="1247.39" cy="1693.82" r="53.25"/><circle class="cls-52" cx="1130.41" cy="1687.01" r="39.31"/><circle class="cls-52" cx="1039.68" cy="1705.83" r="29.11"/><circle class="cls-52" cx="1547.92" cy="1994.35" r="53.25"/><circle class="cls-52" cx="1554.73" cy="2111.33" r="39.31"/><circle class="cls-52" cx="1535.91" cy="2202.06" r="29.11"/><ellipse class="cls-46" cx="926.8" cy="2314.93" rx="275.37" ry="314.14" transform="translate(-1365.45 1333.38) rotate(-45)"/><circle class="cls-46" cx="974.74" cy="2158.8" r="362.4"/><circle class="cls-46" cx="1082.94" cy="2267" r="362.4"/><ellipse class="cls-46" cx="1099.31" cy="2142.43" rx="480.52" ry="415.07" transform="translate(-1192.95 1404.83) rotate(-45)"/><polygon class="cls-52" points="1532.8 1708.94 1415.77 1875.2 1366.54 1825.97 1532.8 1708.94"/><polygon class="cls-52" points="1493.06 1713.83 1376.03 1880.09 1326.8 1830.86 1493.06 1713.83"/><polygon class="cls-52" points="1527.91 1748.68 1410.88 1914.94 1361.65 1865.71 1527.91 1748.68"/><path class="cls-52" d="M1307.54,1934.19a69.89,69.89,0,0,0-98.84-98.84Z"/><path class="cls-52" d="M1406.39,2033a69.9,69.9,0,1,0-98.85-98.85Z"/><path class="cls-52" d="M1425.43,1953.23a96.82,96.82,0,0,0-136.92-136.92Z"/><path class="cls-52" d="M1208.7,1934.19a69.89,69.89,0,1,0-98.85-98.84Z"/><path class="cls-52" d="M1307.54,2033a69.89,69.89,0,0,0-98.84-98.85Z"/><path class="cls-52" d="M1406.39,2131.89a69.9,69.9,0,0,0-98.85-98.85Z"/><circle cx="1094.03" cy="2092.72" r="29.7"/><circle cx="1149.02" cy="2147.71" r="29.7"/><path d="M750.87,1965c-80.86,151-60.51,339.54,62.91,463s312,143.77,463,62.91Z"/><line class="cls-53" x1="991.94" y1="1932.81" x2="991.94" y2="1753.52"/><path d="M944.62,1876.63a97.39,97.39,0,0,0,47.32,83.51,97.36,97.36,0,0,0,0-167A97.41,97.41,0,0,0,944.62,1876.63Z"/><circle class="cls-39" cx="991.94" cy="1876.63" r="19.44"/><circle class="cls-54" cx="991.94" cy="1876.63" r="29.47"/><line class="cls-53" x1="1308.93" y1="2249.8" x2="1488.22" y2="2249.8"/><path d="M1365.11,2202.49a97.4,97.4,0,0,0-83.51,47.31,97.35,97.35,0,0,0,167,0A97.43,97.43,0,0,0,1365.11,2202.49Z"/><circle class="cls-39" cx="1365.11" cy="2249.8" r="19.44"/><circle class="cls-54" cx="1365.11" cy="2249.8" r="29.47"/><g class="cls-55"><polygon class="cls-39" points="751.95 1960.12 713.07 1998.99 719.79 2027.6 748.38 2034.31 787.26 1995.43 751.95 1960.12"/><polygon class="cls-39" points="787.26 1995.43 748.38 2034.31 755.1 2062.91 783.7 2069.62 822.57 2030.74 787.26 1995.43"/><polygon class="cls-39" points="822.57 2030.74 783.7 2069.62 790.41 2098.22 819.01 2104.93 857.88 2066.05 822.57 2030.74"/><polygon class="cls-39" points="857.88 2066.05 819.01 2104.93 825.72 2133.53 854.32 2140.24 893.19 2101.37 857.88 2066.05"/><polygon class="cls-39" points="893.19 2101.37 854.32 2140.24 861.03 2168.84 889.63 2175.55 928.5 2136.68 893.19 2101.37"/><polygon class="cls-39" points="928.5 2136.68 889.63 2175.55 896.35 2204.15 924.94 2210.86 963.82 2171.99 928.5 2136.68"/><polygon class="cls-39" points="963.82 2171.99 924.94 2210.86 931.66 2239.47 960.25 2246.18 999.13 2207.3 963.82 2171.99"/><polygon class="cls-39" points="999.13 2207.3 960.25 2246.18 966.97 2274.78 995.56 2281.49 1034.44 2242.61 999.13 2207.3"/><polygon class="cls-39" points="1034.44 2242.61 995.56 2281.49 1002.28 2310.09 1030.88 2316.8 1069.75 2277.92 1034.44 2242.61"/><polygon class="cls-39" points="1069.75 2277.92 1030.88 2316.8 1037.59 2345.4 1066.19 2352.11 1105.06 2313.24 1069.75 2277.92"/><polygon class="cls-39" points="1105.06 2313.24 1066.19 2352.11 1072.9 2380.71 1101.5 2387.42 1140.37 2348.55 1105.06 2313.24"/><polygon class="cls-39" points="1140.37 2348.55 1101.5 2387.42 1108.21 2416.02 1136.81 2422.73 1175.68 2383.86 1140.37 2348.55"/><polygon class="cls-39" points="1175.68 2383.86 1136.81 2422.73 1143.53 2451.33 1172.12 2458.04 1210.99 2419.17 1175.68 2383.86"/><polygon class="cls-39" points="1210.99 2419.17 1172.12 2458.04 1178.84 2486.65 1207.43 2493.36 1246.31 2454.48 1210.99 2419.17"/><polygon class="cls-39" points="1246.31 2454.48 1207.43 2493.36 1214.15 2521.96 1242.74 2528.67 1281.62 2489.79 1246.31 2454.48"/></g><line class="cls-56" x1="877.26" y1="2826.45" x2="877.26" y2="3576.78"/><path class="cls-47" d="M628.06,2468.45c-82,10.93-160.24,38.81-230.76,85s-127.3,106.86-170,177.68l650,554.57Zm11,289.28c-15.08,0-27.32-22.67-27.32-50.63s12.24-50.64,27.32-50.64,27.33,22.67,27.33,50.64S654.19,2757.73,639.1,2757.73Z"/><path class="cls-26" d="M727.29,2820.51c-106.12-186.24-69.12-413.4,77.09-546.32-60.11,190.23-42.3,407.88,66.83,599.4Z"/><path class="cls-26" d="M729.61,2843.72c-74.59-201-1.33-419.15,164.46-526.66-90.09,178-107.74,395.66-31,602.32Z"/><path class="cls-47" d="M608.83,2940.65c-159-152.66-237.89-356.29-234.27-555.76-102.45,169-73.43,397.28,81.21,545.73,88.57,85,201.65,127.81,313.05,128.31A771.48,771.48,0,0,1,608.83,2940.65Z"/><path class="cls-26" d="M980,2606.9l86.69-62.34,22.15-86.63c-75.73-33.25-157.09-50.09-241.35-47.23s-164.29,25.19-237.59,63.5l267.32,811.52,155-606.23Zm-25.27-113.18A25.28,25.28,0,1,1,980,2519,25.27,25.27,0,0,1,954.77,2493.72Z"/><path class="cls-15" d="M1496.35,2666.63c-59.62-59.61-130.56-102.85-208.6-130.26L1129.62,2825v152.81h-83.71L877.26,3285.72l749.35-410.49C1599.2,2797.19,1556,2726.25,1496.35,2666.63Zm-89,196.24c-33.43,33.43-67.16,53.9-75.34,45.72s12.29-41.91,45.72-75.34,67.16-53.9,75.34-45.72S1440.81,2829.44,1407.38,2862.87Z"/><path class="cls-15" d="M1171.58,2845.27c100.7-105.85,169.5-234.49,201.76-370.55,45.75,151,8.23,316.59-95.25,439.36Z"/><path class="cls-27" d="M486.73,2975.37C299.32,2871.32,213,2658,268.9,2468.45c34.85,142.43,113.37,275.67,229.06,378.77Z"/><path class="cls-27" d="M877.26,3285.72,416.85,2566c-76,32.64-143.84,80.59-199.27,144.12s-93.76,137.23-115.81,217l241.6,111.75,165.32,10.49-4.06,64.1ZM239,2877.09c-15.09,0-27.32-22.67-27.32-50.64s12.23-50.64,27.32-50.64,27.32,22.67,27.32,50.64S254.06,2877.09,239,2877.09Z"/><ellipse class="cls-39" cx="3844.13" cy="693.99" rx="455.73" ry="472.29" transform="translate(635.19 2921.48) rotate(-45)"/><polygon class="cls-39" points="3445.48 295.34 3562.52 398.86 3549 412.38 3445.48 295.34"/><polygon class="cls-39" points="3432.86 309.61 3561.64 398.09 3549.87 413.15 3432.86 309.61"/><polygon class="cls-39" points="3422.08 325.3 3560.68 397.43 3550.84 413.81 3422.08 325.3"/><polygon class="cls-39" points="3413.29 342.19 3559.65 396.89 3551.87 414.36 3413.29 342.19"/><polygon class="cls-39" points="3406.62 360.02 3558.55 396.48 3552.96 414.76 3406.62 360.02"/><polygon class="cls-39" points="3402.17 378.54 3557.42 396.21 3554.1 415.04 3402.17 378.54"/><polygon class="cls-39" points="3400.02 397.46 3556.26 396.08 3555.26 415.17 3400.02 397.46"/><polygon class="cls-39" points="3400.18 416.5 3555.09 396.09 3556.43 415.16 3400.18 416.5"/><polygon class="cls-39" points="3459.74 282.73 3548.23 411.5 3563.29 399.73 3459.74 282.73"/><polygon class="cls-39" points="3475.44 271.94 3547.57 410.54 3563.95 400.7 3475.44 271.94"/><polygon class="cls-39" points="3492.33 263.15 3547.03 409.51 3564.49 401.73 3492.33 263.15"/><polygon class="cls-39" points="3510.16 256.48 3546.62 408.41 3564.9 402.82 3510.16 256.48"/><polygon class="cls-39" points="3528.68 252.03 3546.35 407.28 3565.18 403.96 3528.68 252.03"/><polygon class="cls-39" points="3547.6 249.88 3546.22 406.12 3565.31 405.12 3547.6 249.88"/><polygon class="cls-39" points="3566.64 250.04 3546.23 404.95 3565.3 406.29 3566.64 250.04"/><circle class="cls-39" cx="3405.96" cy="746.83" r="116.32"/><ellipse cx="3405.96" cy="746.83" rx="58.06" ry="32.53"/><circle class="cls-39" cx="3896.97" cy="255.82" r="116.32"/><path class="cls-57" d="M3539.68,812.28a149.46,149.46,0,1,1,211.37-211.37"/><path class="cls-57" d="M3962.42,389.54a149.46,149.46,0,0,0-211.37,211.37l25.1,25.1"/><line class="cls-58" x1="3645.79" y1="495.65" x2="3546.18" y2="396.04"/><line class="cls-58" x1="3546.18" y1="495.65" x2="3645.79" y2="396.04"/><line class="cls-58" x1="3595.99" y1="516.28" x2="3595.99" y2="375.42"/><line class="cls-58" x1="3525.55" y1="445.85" x2="3666.42" y2="445.85"/><circle cx="3555.33" cy="827.94" r="28.48"/><circle cx="3978.08" cy="405.19" r="28.48"/><path class="cls-57" d="M4025.11,701.76l-249-75.75,75.76,249a122.47,122.47,0,1,0,173.2-173.2Z"/><path d="M4025.11,701.76,3851.91,875a122.47,122.47,0,1,0,173.2-173.2Z"/><path d="M3935.72,752.65a26.76,26.76,0,0,0-7.43,14.17A14.1,14.1,0,0,1,3917,778.14a26.78,26.78,0,0,0-14.17,7.44,27.22,27.22,0,0,0,0,38.49l32.93-32.93,5.57-5.56,32.93-32.93A27.23,27.23,0,0,0,3935.72,752.65Z"/><polyline class="cls-59" points="4012.42 862.28 4078.96 928.81 4184.64 823.13"/><polyline class="cls-59" points="4012.42 862.28 4078.96 928.81 3973.27 1034.49"/><ellipse cx="3896.98" cy="255.82" rx="32.53" ry="58.06"/><circle class="cls-60" cx="3710.72" cy="966.28" r="119.19"/><circle class="cls-60" cx="4116.42" cy="560.58" r="119.19"/><path d="M4004,1003.81a124.4,124.4,0,0,0,150-150Z"/><path class="cls-61" d="M4909,1005.64c0-291.52,236.32-527.85,527.84-527.84"/><polygon class="cls-34" points="4832.42 1536.19 4742.59 1536.19 4710.92 1209.24 4864.09 1209.24 4832.42 1536.19"/><polygon class="cls-34" points="4953.92 1536.19 4864.09 1536.19 4832.42 1209.24 4985.59 1209.24 4953.92 1536.19"/><polygon class="cls-34" points="5075.43 1536.19 4985.59 1536.19 4953.92 1209.24 5107.09 1209.24 5075.43 1536.19"/><ellipse class="cls-62" cx="4909.01" cy="1116.06" rx="148.01" ry="221.3"/><path class="cls-61" d="M4750.64,771.67C5021.29,880,5328.51,748.44,5436.85,477.8"/><polygon class="cls-34" points="4229.63 645.6 4196.25 729 4488.01 879.9 4544.94 737.71 4229.63 645.6"/><polygon class="cls-34" points="4274.79 532.8 4241.4 616.2 4533.17 767.11 4590.09 624.91 4274.79 532.8"/><polygon class="cls-34" points="4319.94 420 4286.56 503.4 4578.32 654.3 4635.24 512.11 4319.94 420"/><ellipse class="cls-62" cx="4648.13" cy="730.63" rx="148.01" ry="221.3" transform="translate(2242.41 4774.33) rotate(-68.18)"/><path class="cls-15" d="M5443.93,479.18l18.19-31.84a84,84,0,0,0-115-114.47,84,84,0,0,0-115,114.47l18.19,31.84-68.62,120.09a84,84,0,1,0,145.94,83.4l19.48-34.09,19.48,34.09a84,84,0,0,0,145.94-83.4Z"/><path class="cls-15" d="M5250.33,727.71l-18.19,31.85a84,84,0,0,0,115,114.47,84,84,0,0,0,115-114.47l-18.19-31.85,68.62-120.09a84,84,0,1,0-145.94-83.39l-19.48,34.09-19.48-34.09a84,84,0,0,0-145.94,83.39Z"/><path class="cls-63" d="M663.33,1682.56a584.16,584.16,0,0,0,48.25-361.5L533.7,1235.45a584.18,584.18,0,0,0-252.44,263.21c-67.62,140.48-74.24,294.5-30.47,432.21a.93.93,0,0,1,0,.1,52,52,0,0,0,93.75,45.12.42.42,0,0,0,0-.1C479.47,1924.29,595.72,1823,663.33,1682.56Z"/><circle class="cls-63" cx="615.2" cy="1293.59" r="39"/><circle class="cls-63" cx="652.28" cy="1300.62" r="29.25"/><circle class="cls-63" cx="689.36" cy="1307.65" r="19.5"/><polygon class="cls-63" points="711.58 1321.06 708.42 1303.56 692.11 1301.92 692.94 1329.98 711.58 1321.06"/><polygon class="cls-63" points="533.7 1235.45 549.35 1226.99 560.8 1238.72 538.35 1255.58 533.7 1235.45"/><circle class="cls-63" cx="615.28" cy="1293.66" r="39"/><circle class="cls-63" cx="586.65" cy="1269.06" r="29.25"/><circle class="cls-63" cx="558.03" cy="1244.47" r="19.5"/><ellipse class="cls-6" cx="379.38" cy="1591.23" rx="28.94" ry="8" transform="translate(-1230.04 1298.46) rotate(-66.28)"/><ellipse class="cls-6" cx="362.61" cy="1630.58" rx="28.94" ry="8" transform="translate(-1286.39 1364.02) rotate(-68.28)"/><ellipse class="cls-6" cx="347.24" cy="1670.49" rx="28.94" ry="8" transform="translate(-1342.45 1433.7) rotate(-70.28)"/><ellipse class="cls-6" cx="333.26" cy="1710.92" rx="28.94" ry="8" transform="translate(-1397.92 1507.62) rotate(-72.28)"/><ellipse class="cls-6" cx="320.7" cy="1751.81" rx="28.94" ry="8" transform="translate(-1452.47 1585.89) rotate(-74.28)"/><ellipse class="cls-6" cx="309.58" cy="1793.11" rx="28.94" ry="8" transform="translate(-1505.79 1668.57) rotate(-76.28)"/><ellipse class="cls-6" cx="299.9" cy="1834.77" rx="28.94" ry="8" transform="translate(-1557.54 1755.73) rotate(-78.28)"/><ellipse class="cls-6" cx="291.69" cy="1876.75" rx="28.94" ry="8.62" transform="translate(-1607.37 1847.4) rotate(-80.28)"/><ellipse class="cls-6" cx="397.5" cy="1552.48" rx="28.94" ry="8" transform="translate(-1173.67 1236.87) rotate(-64.28)"/><ellipse class="cls-6" cx="416.5" cy="1514.16" rx="28.94" ry="8" transform="translate(-1117.61 1178.55) rotate(-62.28)"/><ellipse class="cls-6" cx="436.82" cy="1476.52" rx="28.94" ry="8" transform="translate(-1062.03 1123.88) rotate(-60.28)"/><ellipse class="cls-6" cx="458.45" cy="1439.61" rx="28.94" ry="8" transform="translate(-1007.17 1072.68) rotate(-58.28)"/><ellipse class="cls-6" cx="481.35" cy="1403.49" rx="28.94" ry="8" transform="translate(-953.23 1024.73) rotate(-56.28)"/><ellipse class="cls-6" cx="505.49" cy="1368.18" rx="28.94" ry="8" transform="translate(-900.42 979.8) rotate(-54.28)"/><ellipse class="cls-6" cx="530.85" cy="1333.73" rx="28.94" ry="8" transform="translate(-848.92 937.66) rotate(-52.28)"/><ellipse class="cls-6" cx="557.4" cy="1300.2" rx="28.94" ry="8" transform="translate(-798.88 898.07) rotate(-50.28)"/><ellipse class="cls-6" cx="263.06" cy="1853.84" rx="8" ry="28.94" transform="translate(-73.55 11.93) rotate(-2.28)"/><line class="cls-1" x1="262.48" y1="1839.38" x2="261.9" y2="1824.92"/><ellipse class="cls-6" cx="263.35" cy="1810.45" rx="28.94" ry="8" transform="translate(-1554.19 2019.34) rotate(-88.28)"/><line class="cls-1" x1="263.78" y1="1795.98" x2="264.21" y2="1781.52"/><ellipse class="cls-6" cx="265.65" cy="1767.1" rx="28.94" ry="8" transform="translate(-1514.96 1917.55) rotate(-86.28)"/><line class="cls-1" x1="266.59" y1="1752.66" x2="267.52" y2="1738.22"/><ellipse class="cls-6" cx="269.97" cy="1723.92" rx="28.94" ry="8" transform="translate(-1473.69 1790.31) rotate(-83.28)"/><line class="cls-1" x1="271.66" y1="1709.55" x2="273.35" y2="1695.17"/><ellipse class="cls-6" cx="277.05" cy="1681.11" rx="28.94" ry="8" transform="translate(-1426.26 1640.62) rotate(-79.28)"/><line class="cls-1" x1="279.73" y1="1666.89" x2="282.42" y2="1652.67"/><ellipse class="cls-6" cx="287.09" cy="1638.9" rx="28.94" ry="8" transform="translate(-1370.97 1500.13) rotate(-75.28)"/><line class="cls-1" x1="290.76" y1="1624.9" x2="294.43" y2="1610.9"/><ellipse class="cls-6" cx="300.05" cy="1597.49" rx="28.94" ry="8" transform="translate(-1309.23 1368.97) rotate(-71.28)"/><line class="cls-1" x1="304.69" y1="1583.78" x2="309.33" y2="1570.07"/><ellipse class="cls-6" cx="315.87" cy="1557.09" rx="28.94" ry="8" transform="translate(-1242.39 1247.06) rotate(-67.28)"/><line class="cls-1" x1="321.45" y1="1543.74" x2="327.04" y2="1530.39"/><ellipse class="cls-6" cx="334.01" cy="1517.66" rx="28.94" ry="8" transform="translate(-1178.24 1159.96) rotate(-64.28)"/><line class="cls-1" x1="340.29" y1="1504.62" x2="346.57" y2="1491.58"/><ellipse class="cls-6" cx="518.76" cy="1279.78" rx="28.94" ry="8" transform="translate(-704.8 639.59) rotate(-40.32)"/><line class="cls-1" x1="507.73" y1="1289.14" x2="496.69" y2="1298.5"/><ellipse class="cls-6" cx="486.33" cy="1308.63" rx="28.94" ry="8" transform="translate(-754.27 668.36) rotate(-42.32)"/><line class="cls-1" x1="475.62" y1="1318.37" x2="464.92" y2="1328.1"/><ellipse class="cls-6" cx="455.27" cy="1338.94" rx="28.94" ry="8" transform="translate(-816.85 721.08) rotate(-45.32)"/><line class="cls-1" x1="445.09" y1="1349.23" x2="434.91" y2="1359.51"/><ellipse class="cls-6" cx="426.22" cy="1371.18" rx="28.94" ry="8" transform="translate(-891.4 800.51) rotate(-49.32)"/><line class="cls-1" x1="416.79" y1="1382.15" x2="407.35" y2="1393.12"/><ellipse class="cls-6" cx="399.5" cy="1405.36" rx="28.94" ry="8" transform="matrix(0.6, -0.8, 0.8, 0.6, -966.17, 886.14)"/><line class="cls-1" x1="390.85" y1="1416.96" x2="382.2" y2="1428.56"/><ellipse class="cls-6" cx="375.22" cy="1441.32" rx="28.94" ry="8" transform="translate(-1040.5 978.78) rotate(-57.32)"/><line class="cls-1" x1="367.4" y1="1453.49" x2="359.58" y2="1465.67"/><ellipse class="cls-6" cx="353.51" cy="1478.89" rx="28.94" ry="8" transform="translate(-1113.56 1079.15) rotate(-61.32)"/><line class="cls-1" x1="346.56" y1="1491.58" x2="339.61" y2="1504.27"/><ellipse class="cls-6" cx="471.63" cy="1591.99" rx="28.94" ry="8" transform="translate(-1167.31 1326.02) rotate(-64.28)"/><ellipse class="cls-6" cx="453.08" cy="1630.53" rx="28.94" ry="8" transform="translate(-1212.53 1331.12) rotate(-64.28)"/><ellipse class="cls-6" cx="434.52" cy="1669.09" rx="28.94" ry="8" transform="translate(-1257.77 1336.22) rotate(-64.28)"/><ellipse class="cls-6" cx="416.06" cy="1707.44" rx="28.94" ry="8" transform="translate(-1302.78 1341.3) rotate(-64.28)"/><ellipse class="cls-6" cx="397.5" cy="1746" rx="28.94" ry="8" transform="translate(-1348.02 1346.41) rotate(-64.28)"/><ellipse class="cls-6" cx="378.87" cy="1784.72" rx="28.94" ry="8" transform="translate(-1393.46 1351.53) rotate(-64.28)"/><ellipse class="cls-6" cx="360.31" cy="1823.28" rx="28.94" ry="8" transform="translate(-1438.69 1356.64) rotate(-64.28)"/><ellipse class="cls-6" cx="341.85" cy="1861.63" rx="28.94" ry="8" transform="translate(-1483.7 1361.72) rotate(-64.28)"/><ellipse class="cls-6" cx="323.29" cy="1900.19" rx="28.94" ry="8" transform="translate(-1528.94 1366.82) rotate(-64.28)"/><ellipse class="cls-6" cx="601.42" cy="1322.34" rx="28.94" ry="8" transform="translate(-850.91 1290.32) rotate(-64.28)"/><ellipse class="cls-6" cx="582.86" cy="1360.89" rx="28.94" ry="8" transform="translate(-896.15 1295.42) rotate(-64.28)"/><ellipse class="cls-6" cx="564.4" cy="1399.25" rx="28.94" ry="8" transform="translate(-941.15 1300.5) rotate(-64.28)"/><ellipse class="cls-6" cx="545.84" cy="1437.8" rx="28.94" ry="8" transform="translate(-986.39 1305.6) rotate(-64.28)"/><ellipse class="cls-6" cx="527.2" cy="1476.53" rx="28.94" ry="8" transform="translate(-1031.83 1310.73) rotate(-64.28)"/><ellipse class="cls-6" cx="508.65" cy="1515.08" rx="28.94" ry="8" transform="translate(-1077.07 1315.84) rotate(-64.28)"/><ellipse class="cls-6" cx="490.19" cy="1553.44" rx="28.94" ry="8" transform="translate(-1122.07 1320.91) rotate(-64.28)"/><ellipse class="cls-6" cx="529.78" cy="1663.62" rx="28.94" ry="8" transform="translate(-1189.52 1359.81) rotate(-62.32)"/><ellipse class="cls-6" cx="509.48" cy="1701.27" rx="28.94" ry="8" transform="translate(-1220.83 1301.36) rotate(-60.32)"/><ellipse class="cls-6" cx="487.88" cy="1738.18" rx="28.94" ry="8" transform="translate(-1247.49 1240.36) rotate(-58.32)"/><ellipse class="cls-6" cx="465" cy="1774.33" rx="28.94" ry="8" transform="translate(-1269.32 1177.17) rotate(-56.32)"/><ellipse class="cls-6" cx="440.88" cy="1809.65" rx="28.94" ry="8" transform="translate(-1286.16 1112.13) rotate(-54.32)"/><ellipse class="cls-6" cx="415.54" cy="1844.11" rx="28.94" ry="8" transform="translate(-1297.89 1045.62) rotate(-52.32)"/><ellipse class="cls-6" cx="389.01" cy="1877.66" rx="28.94" ry="8" transform="translate(-1304.39 978.02) rotate(-50.32)"/><ellipse class="cls-6" cx="361.32" cy="1910.27" rx="28.94" ry="8.62" transform="translate(-1305.58 909.71) rotate(-48.32)"/><ellipse class="cls-6" cx="548.75" cy="1625.28" rx="28.94" ry="8" transform="translate(-1153.78 1415.38) rotate(-64.32)"/><ellipse class="cls-6" cx="566.85" cy="1586.53" rx="28.94" ry="8" transform="translate(-1113.74 1468.31) rotate(-66.32)"/><ellipse class="cls-6" cx="583.59" cy="1547.16" rx="28.94" ry="8" transform="translate(-1069.72 1517.78) rotate(-68.32)"/><ellipse class="cls-6" cx="598.95" cy="1507.24" rx="28.94" ry="8" transform="translate(-1021.96 1563.48) rotate(-70.32)"/><ellipse class="cls-6" cx="612.9" cy="1466.81" rx="28.94" ry="8" transform="translate(-970.77 1605.15) rotate(-72.32)"/><ellipse class="cls-6" cx="625.43" cy="1425.91" rx="28.94" ry="8" transform="matrix(0.27, -0.96, 0.96, 0.27, -916.46, 1642.56)"/><ellipse class="cls-6" cx="636.53" cy="1384.6" rx="28.94" ry="8" transform="translate(-859.35 1675.49) rotate(-76.32)"/><ellipse class="cls-6" cx="646.18" cy="1342.93" rx="28.94" ry="8" transform="translate(-799.79 1703.74) rotate(-78.32)"/><ellipse class="cls-6" cx="397.09" cy="1918.35" rx="28.94" ry="8" transform="translate(-1058.97 607.76) rotate(-36.32)"/><line class="cls-1" x1="408.75" y1="1909.78" x2="420.42" y2="1901.22"/><ellipse class="cls-6" cx="430.82" cy="1891.06" rx="28.94" ry="8" transform="translate(-1121.17 727.87) rotate(-40.32)"/><line class="cls-1" x1="441.86" y1="1881.7" x2="452.9" y2="1872.34"/><ellipse class="cls-6" cx="463.26" cy="1862.21" rx="28.94" ry="8" transform="translate(-1132.95 797.06) rotate(-42.32)"/><line class="cls-1" x1="473.96" y1="1852.48" x2="484.67" y2="1842.74"/><ellipse class="cls-6" cx="494.32" cy="1831.9" rx="28.94" ry="8" transform="translate(-1155.74 895.14) rotate(-45.32)"/><line class="cls-1" x1="504.5" y1="1821.61" x2="514.67" y2="1811.33"/><ellipse class="cls-6" cx="523.36" cy="1799.67" rx="28.94" ry="8" transform="translate(-1182.51 1023.33) rotate(-49.32)"/><line class="cls-1" x1="532.8" y1="1788.69" x2="542.24" y2="1777.72"/><ellipse class="cls-6" cx="550.09" cy="1765.48" rx="28.94" ry="8" transform="translate(-1194.34 1151.89) rotate(-53.32)"/><line class="cls-1" x1="558.74" y1="1753.88" x2="567.39" y2="1742.28"/><ellipse class="cls-6" cx="574.37" cy="1729.52" rx="28.94" ry="8" transform="translate(-1191.46 1278.97) rotate(-57.32)"/><line class="cls-1" x1="582.19" y1="1717.35" x2="590.01" y2="1705.17"/><ellipse class="cls-6" cx="596.08" cy="1691.96" rx="28.94" ry="8" transform="translate(-1174.34 1402.75) rotate(-61.32)"/><line class="cls-1" x1="603.03" y1="1679.26" x2="609.98" y2="1666.57"/><ellipse class="cls-6" cx="615.57" cy="1653.18" rx="28.94" ry="8" transform="translate(-1141.06 1491.4) rotate(-64.32)"/><line class="cls-1" x1="621.85" y1="1640.14" x2="628.13" y2="1627.1"/><ellipse class="cls-6" cx="686.24" cy="1360.39" rx="28.94" ry="8" transform="translate(-694.14 2005.5) rotate(-88.28)"/><line class="cls-1" x1="685.81" y1="1374.86" x2="685.38" y2="1389.32"/><ellipse class="cls-6" cx="683.93" cy="1403.74" rx="28.94" ry="8" transform="translate(-761.22 1995.16) rotate(-86.28)"/><line class="cls-1" x1="683" y1="1418.18" x2="682.06" y2="1432.62"/><ellipse class="cls-6" cx="679.61" cy="1446.92" rx="28.94" ry="8" transform="translate(-836.9 1952.55) rotate(-83.28)"/><line class="cls-1" x1="677.92" y1="1461.3" x2="676.23" y2="1475.67"/><ellipse class="cls-6" cx="672.54" cy="1489.73" rx="28.94" ry="8" transform="translate(-916.29 1873.43) rotate(-79.28)"/><line class="cls-1" x1="669.85" y1="1503.95" x2="667.16" y2="1518.17"/><ellipse class="cls-6" cx="662.5" cy="1531.94" rx="28.94" ry="8" transform="translate(-987.5 1783.44) rotate(-75.28)"/><line class="cls-1" x1="658.83" y1="1545.94" x2="655.15" y2="1559.94"/><ellipse class="cls-6" cx="649.54" cy="1573.35" rx="28.94" ry="8" transform="translate(-1049.05 1683.57) rotate(-71.28)"/><line class="cls-1" x1="644.9" y1="1587.06" x2="640.26" y2="1600.77"/><ellipse class="cls-6" cx="633.72" cy="1613.76" rx="28.94" ry="8" transform="translate(-1099.58 1575.03) rotate(-67.28)"/><line class="cls-1" x1="628.13" y1="1627.11" x2="622.55" y2="1640.46"/><path class="cls-6" d="M311.08,2003.77A52,52,0,0,1,250,1974.34a52.56,52.56,0,0,1,61.13,29.43Z"/></svg>