<svg xmlns="http://www.w3.org/2000/svg" xmlns:xlink="http://www.w3.org/1999/xlink" viewBox="0 0 5442.52 3061.42"><defs><style>.cls-1{fill:none;}.cls-2{fill:#8e003a;}.cls-3{fill:#ff9f9f;}.cls-4{fill:#ffce00;}.cls-5{fill:#ff8500;}.cls-6{fill:#154c24;}.cls-7{fill:#42ac55;}.cls-8{fill:#866b15;}.cls-9{fill:#bdd002;}.cls-10{clip-path:url(#clip-path);}.cls-11{fill:#bbb3a3;}.cls-12{clip-path:url(#clip-path-2);}.cls-13{fill:#a39988;}.cls-14{fill:#a28514;}.cls-15{fill:#bdd00f;}.cls-16{clip-path:url(#clip-path-3);}.cls-17{fill:#074900;}.cls-18{fill:#006300;}.cls-19{clip-path:url(#clip-path-4);}.cls-20{fill:#008700;}.cls-21{fill:#f9cc10;}.cls-22{clip-path:url(#clip-path-5);}.cls-23{fill:#f9ae10;}.cls-24{fill:#004f00;}.cls-25{fill:#ed7099;}.cls-26{fill:#fff;}.cls-27{fill:#df9c4e;}.cls-28{fill:#aac933;}.cls-29{fill:#eee7da;}.cls-30{fill:#6c6436;}.cls-31{fill:#052d0e;}.cls-32{fill:#c11654;}.cls-33{fill:#ce386e;}.cls-34{fill:#e85b9c;}.cls-35{fill:#d86ba6;}.cls-36{fill:#81c182;}.cls-37{clip-path:url(#clip-path-6);}.cls-38{fill:#e5f0fb;}.cls-39{fill:#3e231e;}.cls-40{fill:#7a625c;}.cls-41{clip-path:url(#clip-path-7);}.cls-42{fill:#e74c24;}</style><clipPath id="clip-path"><path class="cls-1" d="M5249.72,2850.19c-99.34,6.06-200.6-29.89-274.84-107.39s-105.82-180.2-95.5-279.19Z"/></clipPath><clipPath id="clip-path-2"><path class="cls-1" d="M5224.49,2655.43c0-247.11-200.33-447.43-447.44-447.43s-447.43,200.32-447.43,447.43Z"/></clipPath><clipPath id="clip-path-3"><ellipse class="cls-1" cx="4777.05" cy="2653.67" rx="217.86" ry="252.21"/></clipPath><clipPath id="clip-path-4"><ellipse class="cls-1" cx="952.67" cy="573.86" rx="278.53" ry="78.53"/></clipPath><clipPath id="clip-path-5"><ellipse class="cls-1" cx="775.55" cy="550.94" rx="194.3" ry="298.21" transform="translate(-162.42 709.76) rotate(-45)"/></clipPath><clipPath id="clip-path-6"><path class="cls-1" d="M818.66,1759.66c-97.39,181.85-72.88,409,75.77,557.6S1270.18,2490.41,1452,2393Z"/></clipPath><clipPath id="clip-path-7"><path class="cls-1" d="M4243.85,1956.89H3640.78a164,164,0,0,0,81.07,155.33A237,237,0,0,0,3705,2215.89c7.17,118.82,103.79,215.52,222.62,222.67,138,8.3,252.46-101.14,252.46-237.32a236.67,236.67,0,0,0-17.3-89,164,164,0,0,0,81.07-155.31Z"/></clipPath></defs><g id="Layer_1" data-name="Layer 1"><rect width="5440.11" height="3061.42"/><circle class="cls-2" cx="3274.54" cy="2412.73" r="409.23"/><circle class="cls-3" cx="3274.54" cy="2412.73" r="372.89"/><circle class="cls-4" cx="3274.54" cy="2147.03" r="86.79"/><circle class="cls-4" cx="3274.54" cy="2678.42" r="86.79"/><circle class="cls-4" cx="3172.87" cy="2167.26" r="86.79"/><circle class="cls-4" cx="3376.22" cy="2658.2" r="86.79"/><circle class="cls-4" cx="3086.67" cy="2224.85" r="86.79"/><circle class="cls-4" cx="3462.42" cy="2600.6" r="86.79"/><circle class="cls-4" cx="3029.07" cy="2311.05" r="86.79"/><circle class="cls-4" cx="3520.01" cy="2514.41" r="86.79"/><circle class="cls-4" cx="3008.85" cy="2412.73" r="86.79"/><circle class="cls-4" cx="3540.24" cy="2412.73" r="86.79"/><circle class="cls-4" cx="3029.07" cy="2514.41" r="86.79"/><circle class="cls-4" cx="3520.01" cy="2311.05" r="86.79"/><circle class="cls-4" cx="3086.67" cy="2600.6" r="86.79"/><circle class="cls-4" cx="3462.42" cy="2224.85" r="86.79"/><circle class="cls-4" cx="3172.87" cy="2658.2" r="86.79"/><circle class="cls-4" cx="3376.22" cy="2167.26" r="86.79"/><circle class="cls-4" cx="3274.54" cy="2412.73" r="217.78"/><ellipse class="cls-5" cx="3338.53" cy="2677.71" rx="67.87" ry="40.11"/><ellipse cx="3338.53" cy="2677.71" rx="27.68" ry="15.92"/><ellipse class="cls-5" cx="3338.53" cy="2426.58" rx="40.11" ry="67.87"/><ellipse cx="3338.53" cy="2426.58" rx="15.92" ry="27.68"/><ellipse class="cls-5" cx="3017.93" cy="2404.51" rx="40.11" ry="67.87" transform="translate(-816.32 2838.26) rotate(-45)"/><ellipse cx="3017.93" cy="2404.51" rx="15.92" ry="27.68" transform="translate(-816.32 2838.26) rotate(-45)"/><ellipse class="cls-5" cx="3080.99" cy="2231.02" rx="40.11" ry="67.87" transform="translate(-675.17 2832.04) rotate(-45)"/><ellipse cx="3080.99" cy="2231.02" rx="15.92" ry="27.68" transform="translate(-675.17 2832.04) rotate(-45)"/><ellipse class="cls-5" cx="3125.21" cy="2412.73" rx="40.11" ry="67.87"/><ellipse cx="3125.21" cy="2412.73" rx="15.92" ry="27.68"/><ellipse class="cls-5" cx="3143.5" cy="2522.25" rx="67.87" ry="40.11" transform="translate(-738.53 3605.39) rotate(-54.33)"/><ellipse cx="3143.5" cy="2522.25" rx="27.68" ry="15.92" transform="translate(-738.53 3605.39) rotate(-54.33)"/><ellipse class="cls-5" cx="3468.03" cy="2585.76" rx="67.87" ry="40.11" transform="translate(-812.64 3209.62) rotate(-45)"/><ellipse cx="3468.03" cy="2585.76" rx="27.68" ry="15.92" transform="translate(-812.64 3209.62) rotate(-45)"/><ellipse class="cls-5" cx="3232.49" cy="2370.14" rx="67.87" ry="40.11" transform="translate(-729.17 2979.92) rotate(-45)"/><ellipse cx="3232.49" cy="2370.14" rx="27.68" ry="15.92" transform="translate(-729.17 2979.92) rotate(-45)"/><ellipse class="cls-5" cx="3328.04" cy="2294.61" rx="40.11" ry="67.87" transform="translate(-647.78 3025.35) rotate(-45)"/><ellipse cx="3328.04" cy="2294.61" rx="15.92" ry="27.68" transform="translate(-647.78 3025.35) rotate(-45)"/><ellipse class="cls-5" cx="3401.05" cy="2524.48" rx="67.87" ry="40.11" transform="translate(-788.93 3144.3) rotate(-45)"/><ellipse cx="3401.05" cy="2524.48" rx="27.68" ry="15.92" transform="translate(-788.93 3144.3) rotate(-45)"/><ellipse class="cls-5" cx="3045.61" cy="2328.78" rx="67.87" ry="40.11"/><ellipse cx="3045.61" cy="2328.78" rx="27.68" ry="15.92"/><ellipse class="cls-5" cx="3547.44" cy="2370.14" rx="40.11" ry="67.87"/><ellipse cx="3547.44" cy="2370.14" rx="15.92" ry="27.68"/><ellipse class="cls-5" cx="3438.83" cy="2412.73" rx="67.87" ry="40.11"/><ellipse cx="3438.83" cy="2412.73" rx="27.68" ry="15.92"/><ellipse class="cls-5" cx="3284.42" cy="2557.81" rx="40.11" ry="67.87" transform="translate(-846.66 3071.6) rotate(-45)"/><ellipse cx="3284.42" cy="2557.81" rx="15.92" ry="27.68" transform="translate(-846.66 3071.6) rotate(-45)"/><ellipse class="cls-5" cx="3063.91" cy="2578" rx="40.11" ry="67.87" transform="translate(-925.53 2921.59) rotate(-45)"/><ellipse cx="3063.91" cy="2578" rx="15.92" ry="27.68" transform="translate(-925.53 2921.59) rotate(-45)"/><ellipse class="cls-5" cx="3427.99" cy="2207.9" rx="40.11" ry="67.87" transform="translate(-557.19 3070.63) rotate(-45)"/><ellipse cx="3427.99" cy="2207.9" rx="15.92" ry="27.68" transform="translate(-557.19 3070.63) rotate(-45)"/><ellipse class="cls-5" cx="3176.2" cy="2650.03" rx="40.11" ry="67.87"/><ellipse cx="3176.2" cy="2650.03" rx="15.92" ry="27.68"/><ellipse class="cls-5" cx="3176.2" cy="2186.68" rx="40.11" ry="67.87"/><ellipse cx="3176.2" cy="2186.68" rx="15.92" ry="27.68"/><ellipse class="cls-5" cx="3478.93" cy="2286.18" rx="67.87" ry="40.11" transform="translate(-597.62 3129.58) rotate(-45)"/><ellipse cx="3478.93" cy="2286.18" rx="27.68" ry="15.92" transform="translate(-597.62 3129.58) rotate(-45)"/><ellipse class="cls-5" cx="3511.96" cy="2478.53" rx="40.11" ry="67.87" transform="translate(-723.96 3209.27) rotate(-45)"/><ellipse cx="3511.96" cy="2478.53" rx="15.92" ry="27.68" transform="translate(-723.96 3209.27) rotate(-45)"/><ellipse class="cls-5" cx="3216.31" cy="2259.28" rx="67.87" ry="40.11" transform="translate(-655.52 2936) rotate(-45)"/><ellipse cx="3216.31" cy="2259.28" rx="27.68" ry="15.92" transform="translate(-655.52 2936) rotate(-45)"/><ellipse class="cls-5" cx="3260.17" cy="2147.08" rx="67.87" ry="40.11"/><ellipse cx="3260.17" cy="2147.08" rx="27.68" ry="15.92"/><ellipse class="cls-5" cx="3232.49" cy="2476.32" rx="67.87" ry="40.11"/><ellipse cx="3232.49" cy="2476.32" rx="27.68" ry="15.92"/><circle class="cls-6" cx="1929.88" cy="609.5" r="208.79"/><circle class="cls-6" cx="1693.02" cy="846.37" r="208.79"/><circle class="cls-6" cx="1736.05" cy="365.53" r="288.75"/><circle class="cls-6" cx="1449.05" cy="652.53" r="288.75"/><circle class="cls-6" cx="1431.11" cy="347.59" r="288.75"/><circle class="cls-6" cx="1921.26" cy="837.74" r="126.51"/><path class="cls-6" d="M1294.52,246.63a382.63,382.63,0,0,1-84.62-127.44,383.9,383.9,0,0,1-28.21-144.95,383.9,383.9,0,0,1,28.21-145,382.63,382.63,0,0,1,84.62-127.44l35.63,35.63a332.65,332.65,0,0,0-98.07,236.76A332.63,332.63,0,0,0,1330.15,211Z"/><ellipse class="cls-7" cx="1675.54" cy="834.4" rx="47.34" ry="89.47" transform="translate(-99.26 1429.17) rotate(-45)"/><ellipse class="cls-7" cx="1917.92" cy="592.02" rx="47.34" ry="89.47" transform="translate(143.13 1529.57) rotate(-45)"/><ellipse class="cls-7" cx="1401.59" cy="560.46" rx="47.34" ry="89.47" transform="translate(14.21 1155.23) rotate(-45)"/><ellipse class="cls-7" cx="1643.98" cy="318.08" rx="47.34" ry="89.47" transform="translate(256.6 1255.63) rotate(-45)"/><path class="cls-8" d="M4300.56,2846.49c99.27,7,200.88-27.9,275.89-104.65s107.6-179.14,98.27-278.23Z"/><circle class="cls-9" cx="4469.96" cy="2760.65" r="35.41"/><circle cx="4489.76" cy="2697.34" r="14.48"/><path class="cls-8" d="M5249.72,2850.19c-99.34,6.06-200.6-29.89-274.84-107.39s-105.82-180.2-95.5-279.19Z"/><g class="cls-10"><circle class="cls-9" cx="5165.62" cy="2764.46" r="33.14"/></g><circle cx="5090.22" cy="2746.24" r="28.18"/><path class="cls-11" d="M5224.49,2655.43c0-247.11-200.33-447.43-447.44-447.43s-447.43,200.32-447.43,447.43Z"/><g class="cls-12"><path class="cls-13" d="M4617.21,2174.38a159.84,159.84,0,0,0,319.68,0Z"/><path class="cls-13" d="M5097.4,2248.7A159.84,159.84,0,0,0,5274,2515.16Z"/><path class="cls-13" d="M4456.7,2248.7a159.84,159.84,0,0,1-176.63,266.46Z"/></g><path class="cls-1" d="M5224.49,2655.43c0-247.11-200.33-447.43-447.44-447.43s-447.43,200.32-447.43,447.43Z"/><circle class="cls-14" cx="4633.32" cy="2568.2" r="94.52"/><circle class="cls-14" cx="4920.79" cy="2568.2" r="94.52"/><ellipse class="cls-14" cx="4777.05" cy="2653.67" rx="217.86" ry="252.21"/><ellipse class="cls-1" cx="4777.05" cy="2653.67" rx="217.86" ry="252.21"/><circle cx="4781.87" cy="2528.7" r="28.18"/><circle class="cls-9" cx="4727.83" cy="2506.12" r="20.44"/><circle class="cls-9" cx="4858.6" cy="2472.98" r="33.14"/><polygon class="cls-8" points="4603.07 2651.34 4597.28 2556.88 4608.86 2556.88 4603.07 2651.34"/><polygon class="cls-8" points="4614.58 2650.64 4597.32 2557.59 4608.82 2556.18 4614.58 2650.64"/><polygon class="cls-8" points="4625.92 2648.54 4597.45 2558.28 4608.69 2555.48 4625.92 2648.54"/><polygon class="cls-8" points="4636.92 2645.07 4597.66 2558.96 4608.48 2554.81 4636.92 2645.07"/><polygon class="cls-8" points="4647.42 2640.28 4597.96 2559.6 4608.18 2554.16 4647.42 2640.28"/><polygon class="cls-8" points="4657.25 2634.26 4598.33 2560.2 4607.81 2553.56 4657.25 2634.26"/><polygon class="cls-8" points="4666.28 2627.08 4598.77 2560.76 4607.37 2553.01 4666.28 2627.08"/><polygon class="cls-8" points="4674.36 2618.85 4599.27 2561.25 4606.87 2552.51 4674.36 2618.85"/><polygon class="cls-8" points="4591.56 2650.64 4608.81 2557.59 4597.32 2556.18 4591.56 2650.64"/><polygon class="cls-8" points="4580.22 2648.54 4608.69 2558.28 4597.45 2555.48 4580.22 2648.54"/><polygon class="cls-8" points="4569.22 2645.07 4608.47 2558.96 4597.66 2554.81 4569.22 2645.07"/><polygon class="cls-8" points="4558.72 2640.28 4608.18 2559.6 4597.95 2554.16 4558.72 2640.28"/><polygon class="cls-8" points="4548.89 2634.26 4607.81 2560.2 4598.32 2553.56 4548.89 2634.26"/><polygon class="cls-8" points="4539.86 2627.08 4607.37 2560.76 4598.76 2553.01 4539.86 2627.08"/><polygon class="cls-8" points="4531.78 2618.85 4606.86 2561.25 4599.27 2552.51 4531.78 2618.85"/><circle cx="4603.07" cy="2556.1" r="21.82"/><path class="cls-15" d="M4603.07,2591.37a35.28,35.28,0,1,1,25-60.22h0a35.27,35.27,0,0,1-25,60.22Zm0-66.11a30.84,30.84,0,1,0,21.82,9A30.79,30.79,0,0,0,4603.07,2525.26Z"/><polygon class="cls-8" points="4951.03 2651.34 4945.24 2556.88 4956.82 2556.88 4951.03 2651.34"/><polygon class="cls-8" points="4962.55 2650.64 4945.29 2557.59 4956.78 2556.18 4962.55 2650.64"/><polygon class="cls-8" points="4973.89 2648.54 4945.42 2558.28 4956.65 2555.48 4973.89 2648.54"/><polygon class="cls-8" points="4984.89 2645.07 4945.63 2558.96 4956.44 2554.81 4984.89 2645.07"/><polygon class="cls-8" points="4995.38 2640.28 4945.92 2559.6 4956.15 2554.16 4995.38 2640.28"/><polygon class="cls-8" points="5005.22 2634.26 4946.29 2560.2 4955.78 2553.56 5005.22 2634.26"/><polygon class="cls-8" points="5014.24 2627.08 4946.73 2560.76 4955.34 2553.01 5014.24 2627.08"/><polygon class="cls-8" points="5022.33 2618.85 4947.24 2561.25 4954.84 2552.51 5022.33 2618.85"/><polygon class="cls-8" points="4939.52 2650.64 4956.78 2557.59 4945.29 2556.18 4939.52 2650.64"/><polygon class="cls-8" points="4928.18 2648.54 4956.65 2558.28 4945.42 2555.48 4928.18 2648.54"/><polygon class="cls-8" points="4917.18 2645.07 4956.44 2558.96 4945.63 2554.81 4917.18 2645.07"/><polygon class="cls-8" points="4906.69 2640.28 4956.15 2559.6 4945.92 2554.16 4906.69 2640.28"/><polygon class="cls-8" points="4896.85 2634.26 4955.78 2560.2 4946.29 2553.56 4896.85 2634.26"/><polygon class="cls-8" points="4887.83 2627.08 4955.34 2560.76 4946.73 2553.01 4887.83 2627.08"/><polygon class="cls-8" points="4879.74 2618.85 4954.83 2561.25 4947.23 2552.51 4879.74 2618.85"/><circle cx="4951.04" cy="2556.1" r="21.82"/><path class="cls-15" d="M4951,2591.39a35.28,35.28,0,1,1,24.94-60.24h0a35.29,35.29,0,0,1-24.94,60.24Zm0-66.13a30.84,30.84,0,1,0,21.81,9A30.76,30.76,0,0,0,4951,2525.26Z"/><g class="cls-16"><circle cx="4753.41" cy="2431.95" r="47.46"/></g><path class="cls-11" d="M4585.49,2773.89c36.89,78.62,108.84,132,191.56,132s154.67-53.37,191.57-132Z"/><path class="cls-8" d="M4777.05,2602c-92.19,0-169.64,73.08-191.49,171.92L4727.83,2818l49.22,45.35,49.22-45.35,142.28-44.11C4946.69,2675.05,4869.25,2602,4777.05,2602Z"/><circle cx="4756.64" cy="2643.94" r="15.59"/><circle cx="4797.46" cy="2643.94" r="15.59"/><circle class="cls-6" cx="4593.83" cy="2292.64" r="99.32"/><circle class="cls-6" cx="4706.5" cy="2179.97" r="99.32"/><circle class="cls-6" cx="4477.78" cy="2200.44" r="137.35"/><circle class="cls-6" cx="4614.3" cy="2063.91" r="137.35"/><circle class="cls-6" cx="4469.24" cy="2055.38" r="137.35"/><circle class="cls-6" cx="4702.4" cy="2288.53" r="60.18"/><path class="cls-6" d="M4404.27,2007.35c-62.1-62.1-163.15-62.1-225.25,0l-17-16.95c71.45-71.44,187.7-71.44,259.15,0Z"/><ellipse class="cls-7" cx="4700.81" cy="2171.65" rx="22.52" ry="42.56" transform="translate(-158.75 3960.04) rotate(-45)"/><ellipse class="cls-7" cx="4585.51" cy="2286.95" rx="22.52" ry="42.56" transform="translate(-274.05 3912.28) rotate(-45)"/><ellipse class="cls-7" cx="4570.5" cy="2041.34" rx="22.52" ry="42.56" transform="translate(-104.78 3829.73) rotate(-45)"/><ellipse class="cls-7" cx="4455.2" cy="2156.64" rx="22.52" ry="42.56" transform="translate(-220.08 3781.97) rotate(-45)"/><path class="cls-7" d="M1865.33,2789.08c242.69-242.7,562.2-359,872.59-347-259.77-164.87-616.11-126.94-852.11,109.06-135.18,135.18-205.37,309.85-209.69,483.24A1201.49,1201.49,0,0,1,1865.33,2789.08Z"/><path class="cls-17" d="M1921.41,2845.17c242.7-242.7,359-562.2,347-872.6,164.86,259.77,126.93,616.12-109.07,852.11-135.18,135.19-309.85,205.38-483.24,209.69A1201.17,1201.17,0,0,0,1921.41,2845.17Z"/><ellipse class="cls-18" cx="952.67" cy="573.86" rx="278.53" ry="78.53"/><g class="cls-19"><ellipse class="cls-20" cx="952.67" cy="534.29" rx="278.53" ry="78.53"/></g><ellipse class="cls-21" cx="775.55" cy="550.94" rx="194.3" ry="298.21" transform="translate(-162.42 709.76) rotate(-45)"/><g class="cls-22"><ellipse class="cls-23" cx="832.87" cy="536.8" rx="194.07" ry="290.96" transform="translate(-148.85 402.46) rotate(-25.01)"/></g><rect class="cls-18" x="970.1" y="726.09" width="35.09" height="73.91" rx="17.55" transform="translate(2225.56 604.22) rotate(135)"/><ellipse class="cls-24" cx="1007.07" cy="782.46" rx="15.58" ry="9.49" transform="translate(-258.32 941.28) rotate(-45)"/><circle class="cls-25" cx="534.69" cy="785.86" r="117.92"/><circle class="cls-25" cx="625.83" cy="785.86" r="117.92"/><rect class="cls-25" x="260.05" y="695.54" width="640.41" height="838.73" rx="320.21"/><circle class="cls-25" cx="440.19" cy="1300.15" r="279.33"/><circle class="cls-25" cx="720.33" cy="1300.15" r="279.33"/><rect class="cls-25" x="324.09" y="727.22" width="86.36" height="164.36" rx="43.18" transform="translate(-464.76 496.77) rotate(-45)"/><rect class="cls-25" x="750.07" y="727.22" width="86.36" height="164.36" rx="43.18" transform="translate(781.83 1942.64) rotate(-135)"/><path d="M767.17,1413.8H393.35A124.92,124.92,0,0,1,268.57,1289h21.89a103,103,0,0,0,102.89,102.9H767.17A103,103,0,0,0,870.07,1289H892A124.92,124.92,0,0,1,767.17,1413.8Z"/><path d="M423.43,1402.86v28.39a19,19,0,0,1-18.93,18.93h0a19,19,0,0,1-18.93-18.93v-28.39"/><path d="M775,1402.86v28.39A19,19,0,0,1,756,1450.18h0a19,19,0,0,1-18.93-18.93v-28.39"/><circle cx="365.09" cy="947.21" r="17.98"/><path class="cls-26" d="M365.09,976.28a29.07,29.07,0,1,1,29.07-29.07A29.1,29.1,0,0,1,365.09,976.28Zm0-54.5a25.43,25.43,0,1,0,25.42,25.43A25.45,25.45,0,0,0,365.09,921.78Z"/><circle cx="804.9" cy="947.21" r="17.98"/><path class="cls-26" d="M804.9,976.28A29.07,29.07,0,1,1,834,947.21,29.1,29.1,0,0,1,804.9,976.28Zm0-54.5a25.43,25.43,0,1,0,25.42,25.43A25.45,25.45,0,0,0,804.9,921.78Z"/><path d="M325.15,1028l-10.32-10.32a71.05,71.05,0,0,1,100.52,0L405,1028a56.44,56.44,0,0,0-79.88,0Z"/><path d="M844.84,1028a56.44,56.44,0,0,0-79.88,0l-10.32-10.32a71.05,71.05,0,0,1,100.52,0Z"/><path d="M557.46,1344.51a35.8,35.8,0,1,0-71.59,0Z"/><path d="M674.65,1344.51a35.8,35.8,0,1,0-71.59,0Z"/><rect x="569.26" y="1210.47" width="21.88" height="134.04"/><circle cx="365.09" cy="1188.66" r="66.14"/><polygon points="365.09 1063.14 372.11 1142.4 358.07 1142.4 365.09 1063.14"/><polygon points="343.29 1065.05 363.97 1141.89 350.14 1144.33 343.29 1065.05"/><polygon points="322.16 1070.71 355.87 1142.79 342.67 1147.6 322.16 1070.71"/><polygon points="302.33 1079.96 348.04 1145.09 335.88 1152.11 302.33 1079.96"/><polygon points="284.41 1092.51 340.74 1148.71 329.98 1157.74 284.41 1092.51"/><polygon points="268.94 1107.98 334.17 1153.55 325.14 1164.31 268.94 1107.98"/><polygon points="256.39 1125.9 328.54 1159.45 321.52 1171.61 256.39 1125.9"/><polygon points="247.15 1145.73 324.03 1166.24 319.22 1179.44 247.15 1145.73"/><polygon points="241.48 1166.86 320.76 1173.71 318.32 1187.54 241.48 1166.86"/><polygon points="239.58 1188.66 318.84 1181.63 318.84 1195.68 239.58 1188.66"/><polygon points="241.48 1210.45 318.32 1189.77 320.76 1203.6 241.48 1210.45"/><polygon points="247.15 1231.58 319.22 1197.88 324.03 1211.07 247.15 1231.58"/><polygon points="256.39 1251.41 321.52 1205.7 328.54 1217.86 256.39 1251.41"/><polygon points="268.94 1269.33 325.14 1213.01 334.17 1223.77 268.94 1269.33"/><polygon points="284.41 1284.8 329.98 1219.57 340.74 1228.6 284.41 1284.8"/><polygon points="302.33 1297.35 335.88 1225.2 348.04 1232.22 302.33 1297.35"/><polygon points="322.16 1306.6 342.67 1229.72 355.87 1234.52 322.16 1306.6"/><polygon points="343.29 1312.26 350.14 1232.99 363.97 1235.42 343.29 1312.26"/><polygon points="365.09 1314.17 358.07 1234.91 372.11 1234.91 365.09 1314.17"/><polygon points="386.88 1312.26 366.2 1235.42 380.04 1232.99 386.88 1312.26"/><polygon points="408.02 1306.6 374.31 1234.52 387.51 1229.72 408.02 1306.6"/><polygon points="427.84 1297.35 382.13 1232.22 394.3 1225.2 427.84 1297.35"/><polygon points="445.77 1284.8 389.44 1228.6 400.2 1219.57 445.77 1284.8"/><polygon points="461.24 1269.33 396.01 1223.77 405.03 1213.01 461.24 1269.33"/><polygon points="473.79 1251.41 401.63 1217.86 408.65 1205.7 473.79 1251.41"/><polygon points="483.03 1231.58 406.15 1211.07 410.95 1197.88 483.03 1231.58"/><polygon points="488.69 1210.45 409.42 1203.6 411.86 1189.77 488.69 1210.45"/><polygon points="490.6 1188.66 411.34 1195.68 411.34 1181.63 490.6 1188.66"/><polygon points="488.69 1166.86 411.86 1187.54 409.42 1173.71 488.69 1166.86"/><polygon points="483.03 1145.73 410.95 1179.44 406.15 1166.24 483.03 1145.73"/><polygon points="473.79 1125.9 408.65 1171.61 401.63 1159.45 473.79 1125.9"/><polygon points="461.24 1107.98 405.03 1164.31 396.01 1153.55 461.24 1107.98"/><polygon points="445.77 1092.51 400.2 1157.74 389.44 1148.71 445.77 1092.51"/><polygon points="427.84 1079.96 394.3 1152.11 382.13 1145.09 427.84 1079.96"/><polygon points="408.02 1070.71 387.51 1147.6 374.31 1142.79 408.02 1070.71"/><polygon points="386.88 1065.05 380.04 1144.33 366.2 1141.89 386.88 1065.05"/><circle cx="804.9" cy="1188.66" r="66.14"/><polygon points="804.9 1063.14 811.92 1142.4 797.88 1142.4 804.9 1063.14"/><polygon points="783.11 1065.05 803.78 1141.89 789.95 1144.33 783.11 1065.05"/><polygon points="761.97 1070.71 795.68 1142.79 782.48 1147.6 761.97 1070.71"/><polygon points="742.14 1079.96 787.86 1145.09 775.69 1152.11 742.14 1079.96"/><polygon points="724.22 1092.51 780.55 1148.71 769.79 1157.74 724.22 1092.51"/><polygon points="708.75 1107.98 773.98 1153.55 764.96 1164.31 708.75 1107.98"/><polygon points="696.2 1125.9 768.36 1159.45 761.33 1171.61 696.2 1125.9"/><polygon points="686.96 1145.73 763.84 1166.24 759.04 1179.44 686.96 1145.73"/><polygon points="681.29 1166.86 760.57 1173.71 758.13 1187.54 681.29 1166.86"/><polygon points="679.39 1188.66 758.65 1181.63 758.65 1195.68 679.39 1188.66"/><polygon points="681.29 1210.45 758.13 1189.77 760.57 1203.6 681.29 1210.45"/><polygon points="686.96 1231.58 759.04 1197.88 763.84 1211.07 686.96 1231.58"/><polygon points="696.2 1251.41 761.33 1205.7 768.36 1217.86 696.2 1251.41"/><polygon points="708.75 1269.33 764.96 1213.01 773.98 1223.77 708.75 1269.33"/><polygon points="724.22 1284.8 769.79 1219.57 780.55 1228.6 724.22 1284.8"/><polygon points="742.14 1297.35 775.69 1225.2 787.86 1232.22 742.14 1297.35"/><polygon points="761.97 1306.6 782.48 1229.72 795.68 1234.52 761.97 1306.6"/><polygon points="783.11 1312.26 789.95 1232.99 803.78 1235.42 783.11 1312.26"/><polygon points="804.9 1314.17 797.88 1234.91 811.92 1234.91 804.9 1314.17"/><polygon points="826.7 1312.26 806.02 1235.42 819.85 1232.99 826.7 1312.26"/><polygon points="847.83 1306.6 814.12 1234.52 827.32 1229.72 847.83 1306.6"/><polygon points="867.66 1297.35 821.95 1232.22 834.11 1225.2 867.66 1297.35"/><polygon points="885.58 1284.8 829.25 1228.6 840.01 1219.57 885.58 1284.8"/><polygon points="901.05 1269.33 835.82 1223.77 844.84 1213.01 901.05 1269.33"/><polygon points="913.6 1251.41 841.44 1217.86 848.47 1205.7 913.6 1251.41"/><polygon points="922.84 1231.58 845.96 1211.07 850.76 1197.88 922.84 1231.58"/><polygon points="928.5 1210.45 849.23 1203.6 851.67 1189.77 928.5 1210.45"/><polygon points="930.41 1188.66 851.15 1195.68 851.15 1181.63 930.41 1188.66"/><polygon points="928.5 1166.86 851.67 1187.54 849.23 1173.71 928.5 1166.86"/><polygon points="922.84 1145.73 850.76 1179.44 845.96 1166.24 922.84 1145.73"/><polygon points="913.6 1125.9 848.47 1171.61 841.44 1159.45 913.6 1125.9"/><polygon points="901.05 1107.98 844.84 1164.31 835.82 1153.55 901.05 1107.98"/><polygon points="885.58 1092.51 840.01 1157.74 829.25 1148.71 885.58 1092.51"/><polygon points="867.66 1079.96 834.11 1152.11 821.95 1145.09 867.66 1079.96"/><polygon points="847.83 1070.71 827.32 1147.6 814.12 1142.79 847.83 1070.71"/><polygon points="826.7 1065.05 819.85 1144.33 806.02 1141.89 826.7 1065.05"/><circle cx="547.37" cy="891.31" r="52.22"/><circle cx="613.15" cy="891.31" r="52.22"/><circle cx="553.38" cy="802.1" r="42.67"/><circle cx="607.14" cy="802.1" r="42.67"/><circle cx="560.45" cy="735.17" r="31.45"/><circle cx="600.07" cy="735.17" r="31.45"/><ellipse class="cls-27" cx="2084.19" cy="777.33" rx="415.79" ry="430.89"/><circle class="cls-27" cx="1751.31" cy="512.64" r="106.12"/><circle class="cls-27" cx="2417.06" cy="512.64" r="106.12"/><ellipse cx="1811.46" cy="705.74" rx="90.82" ry="52.44"/><circle class="cls-26" cx="1811.46" cy="705.74" r="19.34"/><path class="cls-28" d="M1811.46,736.83a31.09,31.09,0,1,1,31.09-31.09A31.12,31.12,0,0,1,1811.46,736.83Zm0-58.64A27.55,27.55,0,1,0,1839,705.74,27.58,27.58,0,0,0,1811.46,678.19Z"/><ellipse cx="2356.91" cy="705.74" rx="90.82" ry="52.44"/><circle class="cls-26" cx="2356.91" cy="705.74" r="19.34"/><path class="cls-28" d="M2356.91,736.83A31.09,31.09,0,1,1,2388,705.74,31.12,31.12,0,0,1,2356.91,736.83Zm0-58.64a27.55,27.55,0,1,0,27.55,27.55A27.57,27.57,0,0,0,2356.91,678.19Z"/><path d="M2091.26,657.23h-14.14c0-71.29-58-129.29-129.3-129.29a129.44,129.44,0,0,0-129.29,129.29h-14.14c0-79.09,64.35-143.43,143.43-143.43S2091.26,578.14,2091.26,657.23Z"/><path d="M2077.12,689.62V657.23c0-79.09,64.34-143.43,143.43-143.43S2364,578.14,2364,657.23h-14.14a129.29,129.29,0,0,0-258.58,0v32.39Z"/><circle class="cls-29" cx="1932.74" cy="908.54" r="108.74"/><circle class="cls-29" cx="2235.64" cy="908.54" r="108.74"/><rect x="1886.72" y="873.84" width="14.14" height="32.06"/><rect x="1925.67" y="873.84" width="14.14" height="32.06"/><rect x="1964.62" y="873.84" width="14.14" height="32.06"/><rect x="1906.2" y="913.08" width="14.14" height="32.06"/><rect x="1945.14" y="913.08" width="14.14" height="32.06"/><rect x="2189.62" y="873.84" width="14.14" height="32.06"/><rect x="2228.57" y="873.84" width="14.14" height="32.06"/><rect x="2267.51" y="873.84" width="14.14" height="32.06"/><rect x="2209.09" y="913.08" width="14.14" height="32.06"/><rect x="2248.04" y="913.08" width="14.14" height="32.06"/><circle cx="1751.31" cy="512.64" r="37.54"/><rect x="1747.78" y="448.38" width="7.07" height="64.26"/><rect x="1742.2" y="448.87" width="7.07" height="64.26" transform="translate(-57 310.45) rotate(-10)"/><rect x="1736.79" y="450.32" width="7.07" height="64.26" transform="translate(-60.05 624.32) rotate(-20)"/><rect x="1731.71" y="452.68" width="7.07" height="64.26" transform="translate(-9.93 932.57) rotate(-30)"/><rect x="1727.12" y="455.89" width="7.07" height="64.26" transform="translate(91.2 1226.62) rotate(-40)"/><rect x="1723.16" y="459.85" width="7.07" height="64.26" transform="translate(239.91 1498.47) rotate(-50)"/><rect x="1719.95" y="464.44" width="7.07" height="64.26" transform="translate(431.7 1740.87) rotate(-60)"/><rect x="1717.58" y="469.52" width="7.07" height="64.26" transform="translate(661.07 1947.4) rotate(-70)"/><rect x="1716.14" y="474.93" width="7.07" height="64.26" transform="translate(921.7 2112.55) rotate(-80)"/><rect x="1687.05" y="509.1" width="64.26" height="7.07"/><rect x="1687.54" y="514.68" width="64.26" height="7.07" transform="translate(-63.86 306.44) rotate(-10)"/><rect x="1688.99" y="520.09" width="64.26" height="7.07" transform="translate(-75.3 620.13) rotate(-20)"/><rect x="1691.36" y="525.17" width="64.26" height="7.07" transform="translate(-33.45 932.58) rotate(-30)"/><rect x="1694.57" y="529.75" width="64.26" height="7.07" transform="translate(61.21 1234.73) rotate(-40)"/><rect x="1698.53" y="533.71" width="64.26" height="7.07" transform="translate(206.62 1517.62) rotate(-50)"/><rect x="1703.12" y="536.93" width="64.26" height="7.07" transform="translate(399.57 1773) rotate(-60)"/><rect x="1708.19" y="539.29" width="64.26" height="7.07" transform="translate(635.02 1992.55) rotate(-70)"/><rect x="1713.6" y="540.74" width="64.26" height="7.07" transform="translate(906.41 2168.89) rotate(-79.99)"/><rect x="1747.78" y="512.64" width="7.07" height="64.26"/><rect x="1753.36" y="512.15" width="7.07" height="64.26" transform="translate(-67.82 313.36) rotate(-10)"/><rect x="1758.77" y="510.7" width="7.07" height="64.26" transform="translate(-79.38 635.49) rotate(-20)"/><rect x="1763.84" y="508.33" width="7.07" height="64.26" transform="translate(-33.45 956.1) rotate(-30)"/><rect x="1768.43" y="505.12" width="7.07" height="64.26" transform="translate(69.23 1264.7) rotate(-40)"/><rect x="1772.39" y="501.16" width="7.07" height="64.26" transform="translate(225.86 1550.94) rotate(-50)"/><rect x="1775.6" y="496.57" width="7.07" height="64.26" transform="translate(431.71 1805.13) rotate(-60)"/><rect x="1777.97" y="491.5" width="7.07" height="64.26" transform="translate(680.15 2018.6) rotate(-70)"/><rect x="1779.42" y="486.09" width="7.07" height="64.26" transform="translate(963.01 2184.1) rotate(-80)"/><rect x="1751.31" y="509.1" width="64.26" height="7.07"/><rect x="1750.82" y="503.52" width="64.26" height="7.07" transform="translate(-60.96 317.26) rotate(-10)"/><rect x="1749.37" y="498.11" width="64.26" height="7.07" transform="translate(-64.14 639.45) rotate(-20)"/><rect x="1747.01" y="493.04" width="64.26" height="7.07" transform="translate(-9.93 956.1) rotate(-30)"/><rect x="1743.79" y="488.45" width="64.26" height="7.07" transform="translate(99.27 1256.71) rotate(-40)"/><rect x="1739.83" y="484.49" width="64.26" height="7.07" transform="translate(259.08 1531.67) rotate(-50)"/><rect x="1735.25" y="481.28" width="64.26" height="7.07" transform="translate(463.83 1773) rotate(-60)"/><rect x="1730.17" y="478.91" width="64.26" height="7.07" transform="translate(706.23 1973.47) rotate(-70)"/><rect x="1724.76" y="477.46" width="64.26" height="7.07" transform="translate(977.95 2127.59) rotate(-79.99)"/><circle cx="2417.06" cy="512.64" r="37.54"/><rect x="2413.47" y="448.38" width="7.18" height="64.26"/><rect x="2407.89" y="448.87" width="7.18" height="64.26" transform="translate(-46.89 426.05) rotate(-10)"/><rect x="2402.49" y="450.32" width="7.18" height="64.26" transform="translate(-19.9 852.02) rotate(-20)"/><rect x="2397.41" y="452.68" width="7.18" height="64.26" transform="translate(79.26 1265.44) rotate(-30)"/><rect x="2392.82" y="455.89" width="7.18" height="64.26" transform="translate(246.96 1654.56) rotate(-40)"/><rect x="2388.86" y="459.85" width="7.18" height="64.26" transform="translate(477.73 2008.46) rotate(-50)"/><rect x="2385.65" y="464.44" width="7.18" height="64.26" transform="translate(764.58 2317.43) rotate(-60)"/><rect x="2383.28" y="469.52" width="7.18" height="64.26" transform="translate(1099.12 2573) rotate(-70)"/><rect x="2381.83" y="474.93" width="7.18" height="64.26" transform="translate(1471.85 2768.19) rotate(-80)"/><rect x="2352.81" y="509.05" width="64.26" height="7.18"/><rect x="2353.29" y="514.62" width="64.26" height="7.18" transform="translate(-53.75 422.11) rotate(-10)"/><rect x="2354.74" y="520.03" width="64.26" height="7.18" transform="translate(-35.15 847.93) rotate(-20)"/><rect x="2357.11" y="525.11" width="64.26" height="7.18" transform="translate(55.7 1265.3) rotate(-30)"/><rect x="2360.32" y="529.7" width="64.26" height="7.18" transform="translate(216.96 1662.65) rotate(-40)"/><rect x="2364.28" y="533.66" width="64.26" height="7.18" transform="translate(444.57 2027.8) rotate(-50)"/><rect x="2368.87" y="536.87" width="64.26" height="7.18" transform="translate(732.57 2349.67) rotate(-60)"/><rect x="2373.95" y="539.24" width="64.26" height="7.18" transform="translate(1073.24 2618.25) rotate(-70)"/><rect x="2379.36" y="540.69" width="64.26" height="7.18" transform="translate(1456.97 2824.71) rotate(-80.01)"/><rect x="2413.47" y="512.64" width="7.18" height="64.26"/><rect x="2419.05" y="512.15" width="7.18" height="64.26" transform="translate(-57.71 428.97) rotate(-10)"/><rect x="2424.46" y="510.7" width="7.18" height="64.26" transform="translate(-39.23 863.18) rotate(-20)"/><rect x="2429.54" y="508.33" width="7.18" height="64.26" transform="translate(55.75 1288.98) rotate(-30)"/><rect x="2434.13" y="505.12" width="7.18" height="64.26" transform="translate(224.99 1692.63) rotate(-40)"/><rect x="2438.09" y="501.16" width="7.18" height="64.26" transform="translate(463.68 2060.93) rotate(-50)"/><rect x="2441.3" y="496.57" width="7.18" height="64.26" transform="translate(764.58 2381.69) rotate(-60)"/><rect x="2443.67" y="491.5" width="7.18" height="64.26" transform="translate(1118.2 2644.21) rotate(-70)"/><rect x="2445.11" y="486.09" width="7.18" height="64.26" transform="translate(1513.16 2839.73) rotate(-80)"/><rect x="2417.06" y="509.05" width="64.26" height="7.18"/><rect x="2416.58" y="503.47" width="64.26" height="7.18" transform="translate(-50.85 432.93) rotate(-10)"/><rect x="2415.13" y="498.06" width="64.26" height="7.18" transform="translate(-23.99 867.25) rotate(-20)"/><rect x="2412.76" y="492.98" width="64.26" height="7.18" transform="translate(79.21 1288.81) rotate(-30)"/><rect x="2409.55" y="488.39" width="64.26" height="7.18" transform="translate(255.03 1684.63) rotate(-40)"/><rect x="2405.59" y="484.43" width="64.26" height="7.18" transform="translate(497.04 2041.86) rotate(-50)"/><rect x="2401" y="481.22" width="64.26" height="7.18" transform="translate(796.83 2349.67) rotate(-60)"/><rect x="2395.92" y="478.85" width="64.26" height="7.18" transform="translate(1144.44 2599.17) rotate(-70)"/><rect x="2390.51" y="477.4" width="64.26" height="7.18" transform="translate(1528.51 2783.4) rotate(-80.01)"/><path d="M2131.48,515.21v0l126.7-35.29-126.7-35.27a36.81,36.81,0,1,0,0,70.54Z"/><path d="M2036.89,515.21v0l-126.7-35.29,126.7-35.27a36.81,36.81,0,1,1,0,70.54Z"/><path d="M2124.79,460v0l108.77-30.29-108.77-30.28a31.6,31.6,0,1,0,0,60.55Z"/><path d="M2043.59,460v0l-108.77-30.29,108.77-30.28a31.6,31.6,0,1,1,0,60.55Z"/><path d="M2116.66,413.21v0l87-24.23-87-24.21a25.27,25.27,0,1,0,0,48.42Z"/><path d="M2051.72,413.21v0l-87-24.23,87-24.21a25.27,25.27,0,1,1,0,48.42Z"/><path d="M2407.74,827.82h0l71.61-19.94L2407.74,788a20.81,20.81,0,1,0,0,39.87Z"/><path d="M1760.64,827.82h0L1689,807.89,1760.64,788a20.81,20.81,0,1,1,0,39.87Z"/><path d="M2235.64,1076.56c-89.36,0-162.06-72.7-162.06-162h21.21c0,77.66,63.19,140.84,140.85,140.84s140.84-63.18,140.84-140.84h21.21C2397.69,1003.86,2325,1076.56,2235.64,1076.56Z"/><path d="M1932.74,1076.56c-89.36,0-162-72.7-162-162h21.21c0,77.66,63.18,140.84,140.84,140.84s140.84-63.18,140.84-140.84l0-10.68,21.21,0,0,10.7C2094.79,1003.86,2022.1,1076.56,1932.74,1076.56Z"/><path d="M2164.58,1061l89.24,68.45-81.62-80.22c-12.48-1-23.21-5.62-29.66-12.22a93.33,93.33,0,0,1-119.65-2.38c-3,9.08-14.65,15.94-29,16.86l-79.31,78,89.23-68.45-70,88,80.23-78.82-58.75,95.9,70-88-46.62,102.35,58.78-95.89-33.81,107.27,46.65-102.34-20.48,110.59,33.84-107.26-6.85,112.26,20.51-110.58,6.88,112.26,6.88-112.26,20.51,110.58-6.85-112.26,33.83,107.26-20.48-110.59,46.65,102.34-33.8-107.27,58.78,95.89-46.63-102.35,70,88-58.76-95.9,80.23,78.82Z"/><ellipse cx="2085.5" cy="1039.81" rx="57.61" ry="35.69"/><polygon class="cls-27" points="2084.19 689.62 1989.92 932.26 2084.19 1031.3 2178.47 932.26 2084.19 689.62"/><path d="M2084.19,1041.55,1981.7,933.89,2084.19,670.1l102.49,263.79Zm-86.06-110.91,86.06,90.4,86.06-90.4-86.06-221.5Z"/><polygon points="1989.92 930.59 2084.19 1029.63 2178.47 930.59 1989.92 930.59"/><path class="cls-7" d="M3492.31,278.92c-55.65,0-108.95,12.93-158.16,36.57l158.16,541.37,158.17-541.37C3601.26,291.85,3548,278.92,3492.31,278.92Z"/><path class="cls-30" d="M3336.42,300.34c-53.59,15-101.42,41.84-142.44,77.88l298.33,478.64,6.28-564C3444.82,283.41,3390,285.33,3336.42,300.34Z"/><path class="cls-7" d="M3192.09,363c-47.56,28.91-86.38,67.65-116.16,113.41l416.38,380.43L3346.23,312.1C3291.9,317.48,3239.64,334.11,3192.09,363Z"/><path class="cls-17" d="M3070,462.31c-38,40.66-64.93,88.44-81.26,140.53l503.56,254L3204.7,371.7C3153.83,391.53,3108,421.64,3070,462.31Z"/><path class="cls-31" d="M2979.23,590.84c-25.61,49.41-38.66,102.68-40.34,157.25l553.42,108.77L3084.5,467.26C3040.86,500.07,3004.85,541.44,2979.23,590.84Z"/><path class="cls-30" d="M2926.5,739.1c-11.34,54.49-9.54,109.3,3.56,162.3l562.25-44.54L2994.52,591.7C2961.36,635.07,2937.84,684.61,2926.5,739.1Z"/><path class="cls-18" d="M2915.7,896.09c3.78,55.52,20.3,107.82,47.22,155.32l529.39-194.55L2941.45,735.8C2921.21,786.51,2911.93,840.56,2915.7,896.09Z"/><path class="cls-7" d="M3282.9,875.6C3039,875.6,2820,773.49,2670,611.49c47.69,213.39,245.83,373.4,483,373.4,135.86,0,258.91-52.51,348.21-137.47A853.73,853.73,0,0,1,3282.9,875.6Z"/><path class="cls-17" d="M3282.9,819.24C3039,819.24,2820,921.35,2670,1083.35,2717.7,870,2915.84,710,3153,710c135.86,0,258.91,52.51,348.21,137.47A853.73,853.73,0,0,0,3282.9,819.24Z"/><path class="cls-17" d="M3529.43,629.07c0-243.92-102.12-462.92-264.12-612.88,213.39,47.69,373.4,245.82,373.4,483,0,135.87-52.5,258.92-137.47,348.22A853.75,853.75,0,0,0,3529.43,629.07Z"/><path class="cls-31" d="M3473.06,629.07c0-243.92,102.12-462.92,264.12-612.88-213.39,47.69-373.4,245.82-373.4,483,0,135.87,52.5,258.92,137.46,348.22A854.19,854.19,0,0,1,3473.06,629.07Z"/><path class="cls-17" d="M1898.78,2066l-131.42,75.68c-.51-.62-1.11-1.19-1.63-1.81l97.4-116.34L1746.79,2121c-.62-.53-1.19-1.12-1.81-1.64l75.68-131.42L1723,2104.08c-.69-.41-1.38-.83-2.08-1.23l51.74-142.65-76,131.32c-.75-.28-1.52-.53-2.28-.8l26.19-149.49-52,142.46c-.8-.15-1.61-.21-2.41-.35l-.17-151.73-26.5,149.32H1637l-26.5-149.32-.16,151.73c-.8.14-1.61.21-2.41.35l-52-142.46,26.19,149.49c-.76.27-1.53.52-2.29.8l-76-131.32,51.75,142.65c-.7.4-1.39.82-2.08,1.23l-97.69-116.16,75.69,131.42c-.62.51-1.2,1.11-1.81,1.63l-116.35-97.41,97.41,116.35c-.52.62-1.12,1.19-1.64,1.81L1377.64,2066l116.15,97.68c-.41.7-.83,1.38-1.23,2.08l-142.65-51.74,131.32,76c-.28.76-.53,1.52-.8,2.28L1331,2166.16l142.46,52c-.15.8-.22,1.61-.35,2.41l-151.74.17,149.32,26.5v2.45l-149.32,26.5,151.74.16c.13.81.2,1.62.35,2.42l-142.46,52,149.48-26.19c.27.77.52,1.53.8,2.29l-131.32,76,142.65-51.75c.4.7.82,1.39,1.23,2.08L1377.64,2431l131.41-75.68c.52.62,1.12,1.19,1.64,1.81l-97.41,116.34L1529.63,2376c.61.53,1.19,1.12,1.81,1.64l-75.69,131.41,97.69-116.15c.69.41,1.38.83,2.08,1.23l-51.75,142.65,76-131.32c.76.28,1.53.53,2.29.8l-26.19,149.48,52-142.46c.8.15,1.61.22,2.41.35l.16,151.74,26.5-149.32h2.45l26.5,149.32.17-151.74c.8-.13,1.61-.2,2.41-.35l52,142.46-26.19-149.48c.76-.27,1.53-.52,2.28-.8l76,131.32-51.74-142.65c.7-.4,1.39-.82,2.08-1.23l97.68,116.15L1745,2377.65c.62-.52,1.19-1.11,1.81-1.64l116.35,97.41-97.41-116.35c.52-.61,1.12-1.19,1.63-1.8L1898.78,2431l-116.16-97.69c.41-.69.84-1.38,1.23-2.08l142.65,51.75-131.32-76c.29-.76.53-1.52.8-2.29l149.49,26.19-142.46-52c.15-.8.21-1.61.35-2.42l151.74-.16-149.33-26.5c0-.82,0-1.63,0-2.45l149.33-26.5-151.74-.17c-.14-.8-.2-1.61-.35-2.41l142.46-52L1796,2192.35c-.27-.76-.51-1.52-.8-2.28l131.32-76-142.65,51.74c-.39-.7-.82-1.38-1.23-2.08Z"/><circle class="cls-25" cx="1551.08" cy="2399.86" r="112.56"/><circle class="cls-32" cx="1670.33" cy="2280.61" r="112.56"/><circle class="cls-32" cx="1593.9" cy="2561.92" r="112.56"/><circle class="cls-25" cx="1951.63" cy="2204.19" r="112.56"/><circle class="cls-33" cx="1755.96" cy="2604.73" r="112.56"/><circle class="cls-25" cx="1875.2" cy="2485.49" r="112.56"/><circle class="cls-32" cx="1918.02" cy="2647.55" r="112.56"/><circle class="cls-34" cx="2037.26" cy="2528.3" r="112.56"/><circle class="cls-33" cx="1994.45" cy="2366.24" r="112.56"/><circle class="cls-34" cx="1713.14" cy="2442.67" r="112.56"/><circle class="cls-32" cx="1832.39" cy="2323.43" r="112.56"/><circle class="cls-33" cx="1789.57" cy="2161.37" r="112.56"/><polygon class="cls-35" points="1647.96 1474.52 1564.96 1568.36 1554.12 1557.52 1647.96 1474.52"/><polygon class="cls-35" points="1636.53 1464.4 1565.58 1567.66 1553.5 1558.22 1636.53 1464.4"/><polygon class="cls-35" points="1623.94 1455.76 1566.11 1566.88 1552.97 1558.99 1623.94 1455.76"/><polygon class="cls-35" points="1610.4 1448.71 1566.54 1566.06 1552.54 1559.82 1610.4 1448.71"/><polygon class="cls-35" points="1596.1 1443.36 1566.87 1565.18 1552.21 1560.7 1596.1 1443.36"/><polygon class="cls-35" points="1581.25 1439.8 1567.09 1564.27 1551.99 1561.61 1581.25 1439.8"/><polygon class="cls-35" points="1566.08 1438.07 1567.19 1563.34 1551.89 1562.54 1566.08 1438.07"/><polygon class="cls-35" points="1550.82 1438.2 1567.18 1562.4 1551.89 1563.47 1550.82 1438.2"/><polygon class="cls-35" points="1658.08 1485.96 1554.83 1556.9 1564.26 1568.98 1658.08 1485.96"/><polygon class="cls-35" points="1666.72 1498.54 1555.6 1556.37 1563.49 1569.51 1666.72 1498.54"/><polygon class="cls-35" points="1673.77 1512.08 1556.43 1555.94 1562.66 1569.94 1673.77 1512.08"/><polygon class="cls-35" points="1679.12 1526.38 1557.3 1555.61 1561.79 1570.27 1679.12 1526.38"/><polygon class="cls-35" points="1682.68 1541.23 1558.21 1555.39 1560.88 1570.49 1682.68 1541.23"/><polygon class="cls-35" points="1684.41 1556.4 1559.14 1555.29 1559.94 1570.6 1684.41 1556.4"/><polygon class="cls-35" points="1684.28 1571.66 1560.08 1555.3 1559.01 1570.59 1684.28 1571.66"/><polygon class="cls-35" points="1737.17 1563.73 1654.17 1657.57 1643.33 1646.72 1737.17 1563.73"/><polygon class="cls-35" points="1725.73 1553.61 1654.79 1656.86 1642.71 1647.43 1725.73 1553.61"/><polygon class="cls-35" points="1713.15 1544.96 1655.32 1656.09 1642.18 1648.2 1713.15 1544.96"/><polygon class="cls-35" points="1699.61 1537.91 1655.75 1655.26 1641.75 1649.03 1699.61 1537.91"/><polygon class="cls-35" points="1685.31 1532.57 1656.08 1654.38 1641.42 1649.9 1685.31 1532.57"/><polygon class="cls-35" points="1670.46 1529 1656.3 1653.47 1641.2 1650.81 1670.46 1529"/><polygon class="cls-35" points="1655.29 1527.28 1656.4 1652.55 1641.09 1651.74 1655.29 1527.28"/><polygon class="cls-35" points="1640.02 1527.41 1656.39 1651.61 1641.1 1652.68 1640.02 1527.41"/><polygon class="cls-35" points="1747.28 1575.16 1644.03 1646.11 1653.47 1658.18 1747.28 1575.16"/><polygon class="cls-35" points="1755.93 1587.75 1644.8 1645.58 1652.7 1658.72 1755.93 1587.75"/><polygon class="cls-35" points="1762.98 1601.29 1645.63 1645.14 1651.87 1659.15 1762.98 1601.29"/><polygon class="cls-35" points="1768.33 1615.59 1646.51 1644.82 1650.99 1659.48 1768.33 1615.59"/><polygon class="cls-35" points="1771.89 1630.43 1647.42 1644.6 1650.08 1659.69 1771.89 1630.43"/><polygon class="cls-35" points="1773.62 1645.6 1648.35 1644.49 1649.15 1659.8 1773.62 1645.6"/><polygon class="cls-35" points="1773.49 1660.87 1649.29 1644.5 1648.22 1659.79 1773.49 1660.87"/><circle class="cls-36" cx="1416.67" cy="1433.06" r="64.13"/><circle class="cls-36" cx="1275.79" cy="1424.85" r="47.34"/><circle class="cls-36" cx="1166.5" cy="1447.51" r="35.06"/><circle class="cls-36" cx="1778.63" cy="1795.01" r="64.13"/><circle class="cls-36" cx="1786.84" cy="1935.9" r="47.34"/><circle class="cls-36" cx="1764.17" cy="2045.18" r="35.06"/><ellipse class="cls-30" cx="1030.56" cy="2181.13" rx="331.66" ry="378.35" transform="translate(-1240.45 1367.55) rotate(-45)"/><circle class="cls-30" cx="1088.29" cy="1993.08" r="436.47"/><circle class="cls-30" cx="1218.61" cy="2123.39" r="436.47"/><ellipse class="cls-30" cx="1238.32" cy="1973.36" rx="578.74" ry="499.92" transform="translate(-1032.68 1453.61) rotate(-45)"/><polygon class="cls-36" points="1760.42 1451.27 1619.47 1651.51 1560.18 1592.21 1760.42 1451.27"/><polygon class="cls-36" points="1712.56 1457.15 1571.61 1657.39 1512.32 1598.1 1712.56 1457.15"/><polygon class="cls-36" points="1754.54 1499.13 1613.59 1699.37 1554.3 1640.08 1754.54 1499.13"/><path class="cls-36" d="M1489.13,1722.56a84.18,84.18,0,0,0-119.06-119Z"/><path class="cls-36" d="M1608.18,1841.62a84.18,84.18,0,1,0-119-119.06Z"/><path class="cls-36" d="M1631.1,1745.48a116.6,116.6,0,1,0-164.9-164.9Z"/><path class="cls-36" d="M1370.07,1722.56a84.18,84.18,0,1,0-119-119Z"/><path class="cls-36" d="M1489.13,1841.62a84.19,84.19,0,0,0-119.06-119.06Z"/><path class="cls-36" d="M1608.18,1960.67a84.18,84.18,0,1,0-119-119.05Z"/><circle cx="1231.96" cy="1913.49" r="35.77"/><circle cx="1298.2" cy="1979.73" r="35.77"/><path d="M818.66,1759.66c-97.39,181.85-72.88,409,75.77,557.6S1270.18,2490.41,1452,2393Z"/><rect class="cls-36" x="1094.75" y="1504.95" width="28.5" height="215.94"/><path d="M1052,1653.23a117.29,117.29,0,0,0,57,100.58,117.25,117.25,0,0,0,0-201.16A117.32,117.32,0,0,0,1052,1653.23Z"/><circle class="cls-26" cx="1109.01" cy="1653.23" r="23.42"/><path class="cls-35" d="M1109,1691.1a37.87,37.87,0,1,1,26.77-11.09A37.62,37.62,0,0,1,1109,1691.1Zm0-71a33.11,33.11,0,1,0,23.41,9.69A33,33,0,0,0,1109,1620.13Z"/><rect class="cls-36" x="1490.8" y="2088.43" width="215.94" height="28.5"/><path d="M1558.45,2045.69a117.31,117.31,0,0,0-100.57,57,117.24,117.24,0,0,0,201.15,0A117.32,117.32,0,0,0,1558.45,2045.69Z"/><circle class="cls-26" cx="1558.46" cy="2102.68" r="23.42"/><path class="cls-35" d="M1558.46,2140.53a37.85,37.85,0,1,1,26.77-11.07h0A37.75,37.75,0,0,1,1558.46,2140.53Zm0-71a33.12,33.12,0,1,0,23.41,9.7A32.87,32.87,0,0,0,1558.46,2069.57Z"/><g class="cls-37"><polygon class="cls-26" points="819.96 1753.79 773.14 1800.61 781.23 1835.06 815.67 1843.14 862.49 1796.32 819.96 1753.79"/><polygon class="cls-26" points="862.49 1796.32 815.67 1843.14 823.76 1877.58 858.2 1885.66 905.02 1838.85 862.49 1796.32"/><polygon class="cls-26" points="905.02 1838.85 858.2 1885.66 866.29 1920.11 900.73 1928.19 947.55 1881.37 905.02 1838.85"/><polygon class="cls-26" points="947.55 1881.37 900.73 1928.19 908.82 1962.64 943.26 1970.72 990.08 1923.9 947.55 1881.37"/><polygon class="cls-26" points="990.08 1923.9 943.26 1970.72 951.35 2005.17 985.79 2013.25 1032.61 1966.43 990.08 1923.9"/><polygon class="cls-26" points="1032.61 1966.43 985.79 2013.25 993.88 2047.7 1028.32 2055.78 1075.13 2008.96 1032.61 1966.43"/><polygon class="cls-26" points="1075.13 2008.96 1028.32 2055.78 1036.4 2090.23 1070.85 2098.31 1117.66 2051.49 1075.13 2008.96"/><polygon class="cls-26" points="1117.66 2051.49 1070.85 2098.31 1078.93 2132.76 1113.37 2140.84 1160.19 2094.02 1117.66 2051.49"/><polygon class="cls-26" points="1160.19 2094.02 1113.37 2140.84 1121.46 2175.29 1155.9 2183.37 1202.72 2136.55 1160.19 2094.02"/><polygon class="cls-26" points="1202.72 2136.55 1155.9 2183.37 1163.99 2217.82 1198.43 2225.9 1245.25 2179.08 1202.72 2136.55"/><polygon class="cls-26" points="1245.25 2179.08 1198.43 2225.9 1206.52 2260.35 1240.96 2268.43 1287.78 2221.61 1245.25 2179.08"/><polygon class="cls-26" points="1287.78 2221.61 1240.96 2268.43 1249.05 2302.88 1283.49 2310.96 1330.31 2264.14 1287.78 2221.61"/><polygon class="cls-26" points="1330.31 2264.14 1283.49 2310.96 1291.58 2345.41 1326.02 2353.49 1372.84 2306.67 1330.31 2264.14"/><polygon class="cls-26" points="1372.84 2306.67 1326.02 2353.49 1334.11 2387.94 1368.55 2396.02 1415.37 2349.2 1372.84 2306.67"/><polygon class="cls-26" points="1415.37 2349.2 1368.55 2396.02 1376.64 2430.47 1411.08 2438.55 1457.9 2391.73 1415.37 2349.2"/></g><rect class="cls-17" x="696.91" y="2485.72" width="20.84" height="638.86"/><path class="cls-31" d="M495.16,2180.9c-69.81,9.31-136.45,33-196.48,72.39s-108.39,91-144.78,151.28l553.43,472.19Zm9.4,246.31c-12.85,0-23.27-19.31-23.27-43.12S491.71,2341,504.56,2341s23.26,19.3,23.26,43.11S517.4,2427.21,504.56,2427.21Z"/><path class="cls-17" d="M579.64,2480.66c-90.35-158.57-58.85-352,65.64-465.16-51.18,162-36,347.28,56.9,510.35Z"/><path class="cls-17" d="M581.62,2500.42c-63.51-171.11-1.14-356.88,140-448.42-76.71,151.56-91.74,336.88-26.42,512.84Z"/><path class="cls-31" d="M478.78,2583c-135.4-130-202.55-303.36-199.47-473.2-87.23,143.87-62.52,338.27,69.14,464.66,75.42,72.4,171.7,108.82,266.55,109.25A657.05,657.05,0,0,1,478.78,2583Z"/><path class="cls-17" d="M794.85,2298.78l73.8-53.07,18.86-73.77C823,2143.63,753.76,2129.29,682,2131.73s-139.88,21.44-202.29,54.06l227.6,691,132-516.18Zm-21.52-96.36a21.52,21.52,0,1,1,21.52,21.52A21.51,21.51,0,0,1,773.33,2202.42Z"/><path class="cls-7" d="M1234.45,2349.64c-50.76-50.76-111.16-87.57-177.61-110.91L922.2,2484.51v130.12H850.93l-143.6,262.13,638-349.51C1322,2460.8,1285.21,2400.4,1234.45,2349.64Zm-75.75,167.08c-28.47,28.47-57.19,45.9-64.15,38.93s10.46-35.68,38.93-64.15,57.18-45.89,64.15-38.93S1187.16,2488.26,1158.7,2516.72Z"/><path class="cls-7" d="M957.93,2501.74c85.74-90.12,144.32-199.65,171.79-315.5,39,128.58,7,269.56-81.11,374.09Z"/><path class="cls-18" d="M374.81,2612.51c-159.56-88.59-233.08-270.24-185.46-431.61,29.67,121.27,96.52,234.72,195,322.5Z"/><path class="cls-18" d="M707.33,2876.76l-392-612.84c-64.71,27.79-122.47,68.62-169.67,122.71s-79.83,116.85-98.6,184.72l205.71,95.15,140.76,8.93L390.05,2730ZM163.86,2528.83c-12.85,0-23.26-19.3-23.26-43.11s10.41-43.12,23.26-43.12,23.26,19.3,23.26,43.12S176.71,2528.83,163.86,2528.83Z"/><ellipse class="cls-26" cx="3916.62" cy="715.93" rx="384.99" ry="398.98" transform="translate(640.91 2979.16) rotate(-45)"/><polygon class="cls-26" points="3579.84 379.16 3678.72 466.61 3667.3 478.03 3579.84 379.16"/><polygon class="cls-26" points="3569.19 391.21 3677.98 465.96 3668.03 478.68 3569.19 391.21"/><polygon class="cls-26" points="3560.07 404.46 3677.16 465.4 3668.85 479.24 3560.07 404.46"/><polygon class="cls-26" points="3552.65 418.73 3676.29 464.94 3669.72 479.7 3552.65 418.73"/><polygon class="cls-26" points="3547.01 433.8 3675.37 464.6 3670.64 480.04 3547.01 433.8"/><polygon class="cls-26" points="3543.26 449.44 3674.41 464.37 3671.6 480.27 3543.26 449.44"/><polygon class="cls-26" points="3541.44 465.43 3673.43 464.26 3672.58 480.39 3541.44 465.43"/><polygon class="cls-26" points="3541.58 481.51 3672.44 464.27 3673.57 480.38 3541.58 481.51"/><polygon class="cls-26" points="3591.89 368.5 3666.64 477.29 3679.37 467.35 3591.89 368.5"/><polygon class="cls-26" points="3605.15 359.39 3666.09 476.48 3679.93 468.16 3605.15 359.39"/><polygon class="cls-26" points="3619.42 351.96 3665.63 475.6 3680.39 469.03 3619.42 351.96"/><polygon class="cls-26" points="3634.49 346.33 3665.28 474.68 3680.73 469.96 3634.49 346.33"/><polygon class="cls-26" points="3650.13 342.57 3665.05 473.72 3680.96 470.92 3650.13 342.57"/><polygon class="cls-26" points="3666.11 340.75 3664.94 472.74 3681.07 471.89 3666.11 340.75"/><polygon class="cls-26" points="3682.2 340.89 3664.95 471.75 3681.07 472.88 3682.2 340.89"/><circle class="cls-26" cx="3546.46" cy="760.57" r="98.26"/><ellipse cx="3546.46" cy="760.57" rx="49.05" ry="27.48"/><circle class="cls-26" cx="3961.26" cy="345.77" r="98.26"/><path d="M3654.79,820.49a132.81,132.81,0,0,1,187.83-187.82l-9.27,9.26a119.71,119.71,0,0,0-169.3,169.3Z"/><path d="M3854.56,663.13l-21.21-21.2c-51.78-51.78-51.78-136,0-187.83s136.05-51.78,187.83,0l-9.26,9.27a119.71,119.71,0,0,0-169.3,169.3l21.2,21.2Z"/><rect x="3697.02" y="446.8" width="19.95" height="119" transform="translate(727.75 2769.54) rotate(-45)"/><rect x="3647.49" y="496.33" width="119" height="19.95" transform="translate(727.82 2769.63) rotate(-45)"/><rect x="3697.02" y="446.8" width="19.95" height="119"/><rect x="3647.49" y="496.33" width="119" height="19.95"/><circle cx="3672.65" cy="829.09" r="24.06"/><circle cx="4029.77" cy="471.96" r="24.06"/><path d="M3996.35,905.61a109.67,109.67,0,0,1-77.8-32.17l-1.15-1.15-68.05-223.63,223.63,68,1.16,1.16a110,110,0,0,1-77.79,187.75ZM3929,865.31a96.91,96.91,0,0,0,137-137l-197-59.93Z"/><path d="M4069.5,722.49,3923.19,868.81A103.46,103.46,0,1,0,4069.5,722.49Z"/><path d="M3994,765.48a22.6,22.6,0,0,0-6.29,12,11.89,11.89,0,0,1-9.56,9.56,22.59,22.59,0,0,0-12,6.28,23,23,0,0,0,0,32.52L3994,798l4.71-4.7,27.81-27.82A23,23,0,0,0,3994,765.48Z"/><polygon points="4115 928.2 4051.84 865.04 4065.74 851.15 4115 900.41 4197.33 818.08 4211.22 831.97 4115 928.2"/><polygon points="4032.66 1010.53 4018.77 996.64 4101.1 914.3 4051.84 865.04 4065.74 851.15 4128.89 914.3 4032.66 1010.53"/><ellipse cx="3961.26" cy="345.77" rx="27.48" ry="49.05"/><circle class="cls-38" cx="3803.91" cy="945.96" r="100.69"/><circle class="cls-38" cx="4146.65" cy="603.22" r="100.69"/><path d="M4051.63,977.66A105.09,105.09,0,0,0,4178.35,851Z"/><circle class="cls-39" cx="3588.76" cy="1842.18" r="113.95"/><circle class="cls-39" cx="4295.88" cy="1842.18" r="113.95"/><circle class="cls-39" cx="3942.32" cy="1613.28" r="160.44"/><circle class="cls-39" cx="3942.32" cy="1451.38" r="51.23"/><path class="cls-39" d="M4388.75,1972.19c0-255.51-199.87-462.65-446.43-462.65s-446.44,207.14-446.44,462.65v102.08c0,255.52,199.88,462.66,446.44,462.66s446.43-207.14,446.43-462.66Z"/><rect class="cls-40" x="3586.23" y="1773.19" width="5.06" height="69"/><rect class="cls-40" x="3580.24" y="1773.71" width="5.06" height="69" transform="translate(-259.56 649.61) rotate(-10)"/><rect class="cls-40" x="3574.43" y="1775.27" width="5.06" height="68.99" transform="translate(-403.26 1332.54) rotate(-20)"/><rect class="cls-40" x="3568.98" y="1777.81" width="5.06" height="69" transform="translate(-427.66 2028.55) rotate(-30)"/><rect class="cls-40" x="3564.06" y="1781.26" width="5.06" height="69" transform="translate(-332.73 2717.35) rotate(-40)"/><rect class="cls-40" x="3559.8" y="1785.51" width="5.06" height="69" transform="matrix(0.64, -0.77, 0.77, 0.64, -121.7, 3379.02)"/><rect class="cls-40" x="3556.36" y="1790.44" width="5.06" height="69" transform="translate(198.99 3994.53) rotate(-60)"/><rect class="cls-40" x="3553.81" y="1795.89" width="5.06" height="69" transform="translate(620.01 4546.23) rotate(-70)"/><rect class="cls-40" x="3552.26" y="1801.69" width="5.06" height="69" transform="translate(1129.18 5018.1) rotate(-80)"/><rect class="cls-40" x="3519.76" y="1839.65" width="69" height="5.06"/><rect class="cls-40" x="3520.29" y="1845.64" width="68.99" height="5.06" transform="translate(-266.95 645.42) rotate(-10)"/><rect class="cls-40" x="3521.84" y="1851.45" width="69" height="5.06" transform="translate(-419.62 1328.09) rotate(-20)"/><rect class="cls-40" x="3524.39" y="1856.9" width="68.99" height="5.06" transform="translate(-452.91 2028.67) rotate(-30)"/><rect class="cls-40" x="3527.84" y="1861.83" width="68.99" height="5.06" transform="translate(-364.94 2726.08) rotate(-40)"/><rect class="cls-40" x="3532.09" y="1866.08" width="69" height="5.06" transform="translate(-157.44 3399.58) rotate(-50)"/><rect class="cls-40" x="3537.01" y="1869.53" width="68.99" height="5.06" transform="translate(164.81 4029.53) rotate(-60.01)"/><rect class="cls-40" x="3542.46" y="1872.07" width="68.99" height="5.06" transform="translate(592.37 4595.08) rotate(-70.01)"/><rect class="cls-40" x="3566.06" y="1807.24" width="68.99" height="5.06" transform="translate(668.83 4574.59) rotate(-70.01)"/><rect class="cls-40" x="3560.25" y="1805.68" width="69" height="5.06" transform="translate(1189.23 5033.94) rotate(-79.99)"/><rect class="cls-40" x="4293.35" y="1773.19" width="5.06" height="69"/><rect class="cls-40" x="4267.37" y="1805.68" width="69" height="5.06" transform="translate(1773.44 5730.29) rotate(-79.99)"/><rect class="cls-40" x="4273.18" y="1807.24" width="68.99" height="5.06" transform="translate(1134.19 5239.09) rotate(-70.01)"/><rect class="cls-40" x="4278.63" y="1809.78" width="69" height="5.06" transform="translate(587.46 4641.95) rotate(-60.01)"/><rect class="cls-40" x="4283.55" y="1813.23" width="69" height="5.06" transform="translate(151.47 3956.35) rotate(-50)"/><rect class="cls-40" x="4287.8" y="1817.48" width="69" height="5.06" transform="translate(-158.62 3204.21) rotate(-40)"/><rect class="cls-40" x="4291.25" y="1822.4" width="69" height="5.06" transform="translate(-332.91 2407.5) rotate(-30)"/><rect class="cls-40" x="4293.8" y="1827.85" width="68.99" height="5.06" transform="translate(-365 1590.68) rotate(-20)"/><rect class="cls-40" x="4295.35" y="1833.66" width="69" height="5.06" transform="translate(-253.09 779.84) rotate(-10)"/><rect class="cls-40" x="4295.88" y="1839.65" width="68.99" height="5.06"/><rect class="cls-40" x="4327.32" y="1813.67" width="5.06" height="68.99" transform="translate(1757.91 5791.32) rotate(-80)"/><rect class="cls-40" x="4325.76" y="1819.48" width="5.06" height="68.99" transform="translate(1105.76 5287.15) rotate(-70)"/><rect class="cls-40" x="4323.22" y="1824.93" width="5.06" height="68.99" transform="translate(552.58 4675.95) rotate(-60)"/><rect class="cls-40" x="4319.77" y="1829.86" width="5.06" height="68.99" transform="translate(115.81 3977.06) rotate(-50)"/><rect class="cls-40" x="4315.52" y="1834.11" width="5.06" height="69" transform="translate(-190.89 3212.75) rotate(-40)"/><rect class="cls-40" x="4310.6" y="1837.56" width="5.06" height="68.99" transform="translate(-358.18 2407.36) rotate(-30)"/><rect class="cls-40" x="4305.15" y="1840.1" width="5.06" height="68.99" transform="translate(-381.37 1586.36) rotate(-20)"/><rect class="cls-40" x="4281.55" y="1775.27" width="5.06" height="68.99" transform="translate(-360.61 1574.38) rotate(-20)"/><rect class="cls-40" x="4287.36" y="1773.71" width="5.06" height="69" transform="translate(-248.82 772.4) rotate(-10)"/><path class="cls-40" d="M4243.85,1956.89H3640.78a164,164,0,0,0,81.07,155.33A237,237,0,0,0,3705,2215.89c7.17,118.82,103.79,215.52,222.62,222.67,138,8.3,252.46-101.14,252.46-237.32a236.67,236.67,0,0,0-17.3-89,164,164,0,0,0,81.07-155.31Z"/><polygon class="cls-40" points="3942.32 1725.84 3968.74 2156.93 3915.89 2156.93 3942.32 1725.84"/><polygon class="cls-40" points="3889.78 1729.06 3968.54 2153.71 3916.09 2160.15 3889.78 1729.06"/><polygon class="cls-40" points="3838.02 1738.65 3967.95 2150.54 3916.67 2163.32 3838.02 1738.65"/><polygon class="cls-40" points="3787.82 1754.48 3966.98 2147.46 3917.64 2166.4 3787.82 1754.48"/><polygon class="cls-40" points="3739.93 1776.3 3965.64 2144.53 3918.98 2169.34 3739.93 1776.3"/><polygon class="cls-40" points="3695.05 1803.81 3963.95 2141.78 3920.66 2172.09 3695.05 1803.81"/><polygon class="cls-40" points="3653.85 1836.57 3961.94 2139.25 3922.67 2174.62 3653.85 1836.57"/><polygon class="cls-40" points="3616.96 1874.12 3959.64 2136.99 3924.97 2176.88 3616.96 1874.12"/><polygon class="cls-40" points="3994.86 1729.06 3916.09 2153.71 3968.55 2160.15 3994.86 1729.06"/><polygon class="cls-40" points="4046.61 1738.65 3916.68 2150.54 3967.96 2163.32 4046.61 1738.65"/><polygon class="cls-40" points="4096.81 1754.48 3917.65 2147.46 3966.99 2166.4 4096.81 1754.48"/><polygon class="cls-40" points="4144.71 1776.3 3918.99 2144.53 3965.66 2169.34 4144.71 1776.3"/><polygon class="cls-40" points="4189.59 1803.81 3920.68 2141.78 3963.97 2172.09 4189.59 1803.81"/><polygon class="cls-40" points="4230.78 1836.57 3922.69 2139.25 3961.97 2174.62 4230.78 1836.57"/><polygon class="cls-40" points="4267.68 1874.12 3924.99 2136.99 3959.66 2176.88 4267.68 1874.12"/><rect x="3933.89" y="2209.37" width="16.85" height="73.48"/><polygon points="3950.74 2197.95 3933.89 2197.95 3933.89 2000.97 3968 1966.86 3979.92 1978.78 3950.74 2007.95 3950.74 2197.95"/><polygon points="3950.74 2209.37 3933.89 2209.37 3933.89 2007.95 3904.72 1978.78 3916.63 1966.86 3950.74 2000.97 3950.74 2209.37"/><circle cx="3737.74" cy="2025.52" r="20.77"/><path class="cls-26" d="M3737.74,2059.1a33.59,33.59,0,1,1,33.58-33.58A33.63,33.63,0,0,1,3737.74,2059.1Zm0-62.95a29.37,29.37,0,1,0,29.37,29.37A29.4,29.4,0,0,0,3737.74,1996.15Z"/><circle cx="4146.9" cy="2025.52" r="20.77"/><path class="cls-26" d="M4146.9,2059.1a33.59,33.59,0,1,1,33.58-33.58A33.62,33.62,0,0,1,4146.9,2059.1Zm0-62.95a29.37,29.37,0,1,0,29.37,29.37A29.4,29.4,0,0,0,4146.9,1996.15Z"/><circle cx="3839.98" cy="2197.95" r="52.35"/><circle cx="4044.65" cy="2197.95" r="52.35"/><path class="cls-39" d="M3963,1560.22a117.55,117.55,0,0,1,148-132A174.1,174.1,0,0,0,3963,1560.22Z"/><path class="cls-39" d="M3987.39,1587.59a117.54,117.54,0,0,1,122.93-136.24,117.17,117.17,0,0,1,25.11,4.24A174.07,174.07,0,0,0,3987.39,1587.59Z"/><path class="cls-39" d="M4011.79,1615a117.55,117.55,0,0,1,148-132A174.1,174.1,0,0,0,4011.79,1615Z"/><path class="cls-39" d="M4036.19,1642.31a117.52,117.52,0,0,1,148-132A174.08,174.08,0,0,0,4036.19,1642.31Z"/><path d="M3737.74,2084.46a47.63,47.63,0,0,1-33.9-14.05l6-5.95a39.48,39.48,0,0,0,55.87,0l6,5.95A47.63,47.63,0,0,1,3737.74,2084.46Z"/><path d="M3729.14,2096.66a47.75,47.75,0,0,1-20.53-4.65l3.61-7.61a39.49,39.49,0,0,0,52.62-18.77l7.62,3.61a48,48,0,0,1-43.32,27.42Z"/><path d="M4146.9,2084.46a47.61,47.61,0,0,1-33.89-14.05l6-5.95a39.47,39.47,0,0,0,55.86,0l6,5.95A47.63,47.63,0,0,1,4146.9,2084.46Z"/><path d="M4155.56,2096.63a48,48,0,0,1-43.38-27.39l7.61-3.61a39.56,39.56,0,0,0,52.62,18.77L4176,2092A47.58,47.58,0,0,1,4155.56,2096.63Z"/><path d="M4040,2169.17h-16.85a80.81,80.81,0,1,0-161.61,0h-16.85a97.66,97.66,0,1,1,195.31,0Z"/><g class="cls-41"><rect x="3684.25" y="2274.42" width="527.42" height="16.85"/></g><path class="cls-6" d="M4760.58,1025.75h-25a428.67,428.67,0,0,1,429-429v25a403.67,403.67,0,0,0-404,404Z"/><polygon class="cls-25" points="4687.65 1444.4 4616.76 1444.4 4591.77 1186.41 4712.64 1186.41 4687.65 1444.4"/><polygon class="cls-25" points="4783.53 1444.4 4712.64 1444.4 4687.65 1186.41 4808.51 1186.41 4783.53 1444.4"/><polygon class="cls-25" points="4879.4 1444.4 4808.51 1444.4 4783.53 1186.41 4904.39 1186.41 4879.4 1444.4"/><ellipse class="cls-42" cx="4748.08" cy="1112.88" rx="116.79" ry="174.63"/><path class="cls-6" d="M4777.68,883.56a426.29,426.29,0,0,1-159.2-30.84l9.28-23.2A403.67,403.67,0,0,0,5153,604.58l23.19,9.29A429.5,429.5,0,0,1,4786,883.48C4783.26,883.53,4780.46,883.56,4777.68,883.56Z"/><polygon class="cls-25" points="4211.99 741.64 4185.65 807.45 4415.88 926.53 4460.8 814.32 4211.99 741.64"/><polygon class="cls-25" points="4247.62 652.63 4221.28 718.44 4451.51 837.52 4496.43 725.31 4247.62 652.63"/><polygon class="cls-25" points="4283.26 563.62 4256.91 629.43 4487.14 748.51 4532.06 636.3 4283.26 563.62"/><ellipse class="cls-42" cx="4542.23" cy="808.74" rx="116.79" ry="174.63" transform="translate(2103.35 4725.09) rotate(-68.18)"/><path class="cls-7" d="M5170.19,610.32l14.35-25.12a66.31,66.31,0,0,0-90.74-90.33,66.31,66.31,0,0,0-90.74,90.33l14.36,25.12-54.15,94.76a66.32,66.32,0,1,0,115.16,65.81L5093.8,744l15.38,26.9a66.32,66.32,0,1,0,115.16-65.81Z"/><path class="cls-7" d="M5017.42,806.44l-14.36,25.12a66.31,66.31,0,0,0,90.74,90.33,66.31,66.31,0,0,0,90.74-90.33l-14.35-25.12,54.15-94.77a66.32,66.32,0,1,0-115.16-65.8l-15.38,26.9-15.37-26.9a66.32,66.32,0,1,0-115.16,65.8Z"/></g><g id="Isolation_Mode" data-name="Isolation Mode"><path class="cls-29" d="M2644.16,1639.45a47.45,47.45,0,1,0,23.72,88.53,9.88,9.88,0,1,0-9.88-17.12,27.67,27.67,0,0,1-39.69-14.08h63.41a9.88,9.88,0,0,0,9.88-9.89A47.49,47.49,0,0,0,2644.16,1639.45ZM2618.31,1677a27.68,27.68,0,0,1,51.7,0Z"/><path class="cls-29" d="M2717.3,1621.66a9.88,9.88,0,0,0-9.88,9.88v92.91a9.89,9.89,0,1,0,19.77,0v-92.91A9.88,9.88,0,0,0,2717.3,1621.66Z"/><path class="cls-29" d="M2944.64,1639.45a9.88,9.88,0,0,0-9.89,9.88v75.12a9.89,9.89,0,1,0,19.77,0v-75.12A9.88,9.88,0,0,0,2944.64,1639.45Z"/><path class="cls-29" d="M2820.1,1639.45a9.89,9.89,0,0,0-9.36,6.71,47.44,47.44,0,1,0,0,81.47,9.88,9.88,0,0,0,19.23-3.18v-75.12A9.88,9.88,0,0,0,2820.1,1639.45Zm-33.61,75.12a27.68,27.68,0,1,1,23.72-41.86v28.36A27.66,27.66,0,0,1,2786.49,1714.57Z"/><path class="cls-29" d="M2911,1659.22a9.89,9.89,0,0,0,0-19.77H2879.4v-7.91a9.89,9.89,0,0,0-19.77,0v7.91h-7.9a9.89,9.89,0,1,0,0,19.77h7.9v37.56A37.55,37.55,0,0,0,2916,1729.3a9.88,9.88,0,1,0-9.88-17.11,17.81,17.81,0,0,1-8.9,2.38,18,18,0,0,1-17.79-17.79v-37.56Z"/><circle class="cls-29" cx="2944.64" cy="1621.66" r="11.86"/><path class="cls-29" d="M2569,1639.45a9.86,9.86,0,0,0-9.34,6.69,47.45,47.45,0,1,0-.54,81.81v14.29H2547.3a31.63,31.63,0,1,0,31.63,31.63V1649.33A9.88,9.88,0,0,0,2569,1639.45Zm-9.88,134.42A11.86,11.86,0,1,1,2547.3,1762h11.86Zm-23.72-59.3a27.68,27.68,0,1,1,23.72-41.86v28.36A27.66,27.66,0,0,1,2535.44,1714.57Z"/><path class="cls-29" d="M2351.66,1413.11l8.56-15a39.53,39.53,0,0,0-54.09-53.85,39.54,39.54,0,0,0-54.1,53.85l8.56,15-32.28,56.49a39.53,39.53,0,1,0,68.65,39.23l9.17-16,9.16,16a39.53,39.53,0,0,0,68.65-39.23ZM2314,1457.58h-15.81a7.91,7.91,0,1,1,0-15.81H2314a7.91,7.91,0,1,1,0,15.81Z"/><path class="cls-29" d="M3055.41,1413.11l8.56-15a39.53,39.53,0,0,0-54.09-53.85,39.54,39.54,0,0,0-54.1,53.85l8.56,15-32.28,56.49a39.53,39.53,0,1,0,68.65,39.23l9.17-16,9.16,16a39.53,39.53,0,0,0,68.65-39.23Zm-37.63,44.47H3002a7.91,7.91,0,1,1,0-15.81h15.81a7.91,7.91,0,1,1,0,15.81Z"/><path class="cls-29" d="M3344,1461.54h37.56a27.68,27.68,0,0,0,0-55.35H3344a5.93,5.93,0,1,1,0-11.86h37.56a27.68,27.68,0,0,0,0-55.35H3314.3a39.53,39.53,0,0,0-34.17,59.41,15.52,15.52,0,0,1,0,15.59,39.55,39.55,0,0,0,0,39.76,15.52,15.52,0,0,1,0,15.59,39.54,39.54,0,0,0,34.17,59.42h67.22a27.68,27.68,0,0,0,0-55.35H3344a5.93,5.93,0,1,1,0-11.86Z"/><path class="cls-29" d="M3219.42,1449.68a39.32,39.32,0,0,0-22.18,6.83l0,0h0a7.9,7.9,0,0,1-12.26-6.6,8.13,8.13,0,0,1,.42-2.53l0,0a39.5,39.5,0,0,0-3-33.37,15.52,15.52,0,0,1,0-15.59,39.54,39.54,0,1,0-68.35,0,15.52,15.52,0,0,1,0,15.59,39.55,39.55,0,0,0,0,39.76,15.52,15.52,0,0,1,0,15.59,39.53,39.53,0,0,0,59.77,50,15.5,15.5,0,0,1,20,0,39.53,39.53,0,1,0,25.6-69.66Z"/><path class="cls-29" d="M2681.72,1378.51a39.54,39.54,0,1,0-73.71,19.88,15.52,15.52,0,0,1,0,15.59,39.55,39.55,0,0,0,0,39.76,15.52,15.52,0,0,1,0,15.59,39.54,39.54,0,1,0,68.35,0,15.52,15.52,0,0,1,0-15.59,39.55,39.55,0,0,0,0-39.76,15.52,15.52,0,0,1,0-15.59A39.29,39.29,0,0,0,2681.72,1378.51Z"/><path class="cls-29" d="M2578.93,1378.51a39.54,39.54,0,1,0-78.84,4.1l-25.57-29.83h0a39.53,39.53,0,0,0-64.18,45.6,15.52,15.52,0,0,1,0,15.59,39.55,39.55,0,0,0,0,39.76,15.52,15.52,0,0,1,0,15.59,39.58,39.58,0,1,0,73.48,15.79l25.56,29.82h0a39.53,39.53,0,0,0,64.18-45.61,15.52,15.52,0,0,1,0-15.59,39.48,39.48,0,0,0,0-39.76,15.52,15.52,0,0,1,0-15.59A39.3,39.3,0,0,0,2578.93,1378.51Z"/><path class="cls-29" d="M2207.29,1378.51a39.54,39.54,0,1,0-78.84,4.1l-25.57-29.83h0a39.53,39.53,0,0,0-64.18,45.6,15.52,15.52,0,0,1,0,15.59,39.55,39.55,0,0,0,0,39.76,15.52,15.52,0,0,1,0,15.59,39.58,39.58,0,1,0,73.48,15.79l25.56,29.82h0a39.54,39.54,0,0,0,64.19-45.61,15.47,15.47,0,0,1,0-15.59,39.55,39.55,0,0,0,0-39.76,15.47,15.47,0,0,1,0-15.59A39.39,39.39,0,0,0,2207.29,1378.51Z"/><path class="cls-29" d="M2911,1378.51a39.53,39.53,0,0,0-69.55-25.72h0l-33.24,38.78L2775,1352.78h0a39.53,39.53,0,0,0-64.19,45.6,15.47,15.47,0,0,1,0,15.59,39.57,39.57,0,0,0,0,39.77,15.45,15.45,0,0,1,0,15.58,39.54,39.54,0,1,0,69.48,2.09h0a31.61,31.61,0,0,0,55.83,0h0a39.53,39.53,0,1,0,69.48-2.09,15.5,15.5,0,0,1,0-15.58,39.57,39.57,0,0,0,0-39.77,15.52,15.52,0,0,1,0-15.59A39.29,39.29,0,0,0,2911,1378.51Z"/></g></svg>