<?xml version="1.0" encoding="utf-8"?>
<!-- Generator: Adobe Illustrator 25.4.1, SVG Export Plug-In . SVG Version: 6.00 Build 0)  -->
<svg version="1.1" id="Layer_4" xmlns="http://www.w3.org/2000/svg" xmlns:xlink="http://www.w3.org/1999/xlink" x="0px" y="0px"
	 viewBox="0 0 184.3 141.7" style="enable-background:new 0 0 184.3 141.7;" xml:space="preserve">
<style type="text/css">
	.st0{fill:#FFFFFF;}
	.st1{fill:#E5F0FB;}
	.st2{fill:#ED7099;}
	.st3{fill:#95623F;}
	.st4{fill:#EF8A66;}
	.st5{fill:#BCA68F;}
	.st6{fill:#918B72;}
	.st7{fill:#03A1DC;}
	.st8{fill:#7C4A17;}
	.st9{fill:#D20A11;}
	.st10{fill:#6F6053;}
	.st11{fill:#8B7C6B;}
	.st12{fill:#DF9C4E;}
	.st13{fill:#EEE7DA;}
	.st14{fill:#AAC933;}
	.st15{fill:#3E231E;}
	.st16{fill:#7A625C;}
	.st17{fill:#D86BA6;}
	.st18{fill:#81C182;}
	.st19{fill:#6C6436;}
	.st20{fill:#866B15;}
	.st21{fill:#BDD002;}
	.st22{clip-path:url(#SVGID_00000168830187164152802310000006529498146860211887_);fill:#BDD002;}
	.st23{fill:#BBB3A3;}
	.st24{fill:#A28514;}
	.st25{fill:none;}
	.st26{fill:#BDD00F;}
	.st27{clip-path:url(#SVGID_00000161612150377944194710000018093823617442962599_);}
	.st28{fill:#A39988;}
	.st29{fill:#819FAA;}
	.st30{fill:#B9C2C7;}
	.st31{fill:#FCDC43;}
</style>
<g>
	<path class="st12" d="M154.2,33.4c0-8.3-6.7-15-15-15c-4.2,0-8,1.7-10.7,4.5c-10-8.2-22.6-13-36.3-13s-26.3,4.9-36.3,13
		c-2.7-2.8-6.5-4.5-10.7-4.5c-8.3,0-15,6.7-15,15c0,5.8,3.3,10.8,8.1,13.3c-3.1,7.4-4.8,15.6-4.8,24.1c0,33.7,26.3,60.9,58.8,60.9
		s58.8-27.3,58.8-60.9c0-8.6-1.7-16.7-4.8-24.1C150.9,44.2,154.2,39.2,154.2,33.4z"/>
	<path class="st13" d="M113.5,74c-5.3,0-10,2.7-12.7,6.8l4.7,12l-4.8,5c2.7,4.2,7.5,7,12.9,7c8.5,0,15.4-6.9,15.4-15.4
		S122,74,113.5,74z"/>
	<path class="st13" d="M78.8,92.8l4.7-12C80.7,76.7,76,74,70.7,74c-8.5,0-15.4,6.9-15.4,15.4s6.9,15.4,15.4,15.4
		c5.4,0,10.1-2.8,12.9-7L78.8,92.8z"/>
	<g>
		<rect x="64.2" y="84.5" width="2" height="4.5"/>
		<rect x="69.7" y="84.5" width="2" height="4.5"/>
		<rect x="75.2" y="84.5" width="2" height="4.5"/>
		<rect x="66.9" y="90.1" width="2" height="4.5"/>
		<rect x="72.5" y="90.1" width="2" height="4.5"/>
	</g>
	<g>
		<rect x="107" y="84.5" width="2" height="4.5"/>
		<rect x="112.5" y="84.5" width="2" height="4.5"/>
		<rect x="118" y="84.5" width="2" height="4.5"/>
		<rect x="109.8" y="90.1" width="2" height="4.5"/>
		<rect x="115.3" y="90.1" width="2" height="4.5"/>
	</g>
	<polygon points="54.1,32.9 50.7,32.9 54.1,32.3 53.9,31.4 50.6,31.9 53.7,30.8 53.4,29.8 50.2,31 53.2,29.3 52.7,28.4 49.7,30.1 
		52.3,28 51.7,27.2 49.1,29.4 51.3,26.8 50.5,26.1 48.3,28.7 50,25.8 49.1,25.3 47.5,28.2 48.6,25.1 47.7,24.7 46.5,27.9 47.1,24.6 
		46.1,24.4 45.5,27.7 45.5,24.3 44.5,24.3 44.5,27.7 43.9,24.4 43,24.6 43.6,27.9 42.4,24.7 41.5,25.1 42.6,28.2 40.9,25.3 
		40.1,25.8 41.7,28.7 39.6,26.1 38.8,26.8 41,29.4 38.4,27.2 37.8,28 40.3,30.1 37.4,28.4 36.9,29.3 39.8,31 36.7,29.8 36.3,30.8 
		39.5,31.9 36.2,31.4 36,32.3 39.3,32.9 35.9,32.9 35.9,33.9 39.3,33.9 36,34.5 36.2,35.5 39.5,34.9 36.3,36.1 36.7,37 39.8,35.8 
		36.9,37.5 37.4,38.4 40.3,36.7 37.8,38.9 38.4,39.7 41,37.5 38.8,40.1 39.6,40.7 41.7,38.1 40.1,41 40.9,41.5 42.6,38.6 41.5,41.8 
		42.4,42.1 43.6,39 43,42.3 43.9,42.5 44.5,39.1 44.5,42.5 45.5,42.5 45.5,39.1 46.1,42.5 47.1,42.3 46.5,39 47.7,42.1 48.6,41.8 
		47.5,38.6 49.1,41.5 50,41 48.3,38.1 50.5,40.7 51.3,40.1 49.1,37.5 51.7,39.7 52.3,38.9 49.7,36.7 52.7,38.4 53.2,37.5 50.2,35.8 
		53.4,37 53.7,36.1 50.6,34.9 53.9,35.5 54.1,34.5 50.7,33.9 54.1,33.9 	"/>
	<polygon points="148.3,32.9 145,32.9 148.2,32.3 148.1,31.3 144.8,31.9 147.9,30.8 147.6,29.8 144.5,31 147.3,29.3 146.8,28.4 
		144,30.1 146.5,28 145.8,27.2 143.3,29.3 145.4,26.8 144.7,26.1 142.5,28.7 144.2,25.8 143.3,25.3 141.7,28.1 142.8,25.1 
		141.8,24.7 140.7,27.8 141.3,24.6 140.3,24.4 139.7,27.6 139.7,24.3 138.7,24.3 138.7,27.6 138.1,24.4 137.1,24.6 137.7,27.8 
		136.6,24.7 135.6,25.1 136.7,28.1 135.1,25.3 134.2,25.8 135.9,28.7 133.7,26.1 133,26.8 135.1,29.3 132.6,27.2 131.9,28 
		134.4,30.1 131.6,28.4 131.1,29.3 133.9,31 130.8,29.8 130.5,30.8 133.6,31.9 130.3,31.3 130.2,32.3 133.4,32.9 130.1,32.9 
		130.1,33.9 133.4,33.9 130.2,34.5 130.3,35.5 133.6,34.9 130.5,36.1 130.8,37 133.9,35.9 131.1,37.5 131.6,38.4 134.4,36.8 
		131.9,38.9 132.6,39.7 135.1,37.5 133,40.1 133.7,40.7 135.9,38.2 134.2,41 135.1,41.6 136.7,38.7 135.6,41.8 136.6,42.1 
		137.7,39.1 137.1,42.3 138.1,42.5 138.7,39.2 138.7,42.5 139.7,42.5 139.7,39.2 140.3,42.5 141.3,42.3 140.7,39.1 141.8,42.1 
		142.8,41.8 141.7,38.7 143.3,41.6 144.2,41 142.5,38.2 144.7,40.7 145.4,40.1 143.3,37.5 145.8,39.7 146.5,38.9 144,36.8 
		146.8,38.4 147.3,37.5 144.5,35.9 147.6,37 147.9,36.1 144.8,34.9 148.1,35.5 148.2,34.5 145,33.9 148.3,33.9 	"/>
	<g>
		<path d="M116.7,28.8l-14.5-4l11-3.1l-12.5-3.5l8.2-2.3l-12.3-3.4c-0.3-0.1-0.7-0.1-1-0.1c-2,0-3.6,1.6-3.6,3.6
			c0,1.1,0.5,2,1.2,2.7c-0.8,0.8-1.2,1.9-1.2,3.1c0,1.4,0.6,2.6,1.6,3.4c-1,0.9-1.6,2.3-1.6,3.7c0,2.9,2.3,5.2,5.2,5.2
			c0.5,0,1-0.1,1.5-0.2v0L116.7,28.8z"/>
		<path d="M92.1,15.9c0-2-1.6-3.6-3.6-3.6c-0.4,0-0.7,0.1-1,0.1l-12.3,3.4l8.2,2.3L71,21.7l11,3.1l-14.5,4l17.9,5v0
			c0.5,0.1,1,0.2,1.5,0.2c2.9,0,5.2-2.3,5.2-5.2c0-1.5-0.6-2.8-1.6-3.7c1-0.8,1.6-2,1.6-3.4c0-1.2-0.5-2.3-1.2-3.1
			C91.6,18,92.1,17,92.1,15.9z"/>
	</g>
	<path d="M137.9,78L137.9,78l10.1-2.8l-10.1-2.8c-0.3-0.1-0.5-0.1-0.8-0.1c-1.6,0-2.9,1.3-2.9,2.9s1.3,2.9,2.9,2.9
		C137.3,78.1,137.6,78.1,137.9,78z"/>
	<path d="M46.4,78L46.4,78l-10.1-2.8l10.1-2.8c0.3-0.1,0.5-0.1,0.8-0.1c1.6,0,2.9,1.3,2.9,2.9s-1.3,2.9-2.9,2.9
		C46.9,78.1,46.6,78.1,46.4,78z"/>
	<path d="M117.8,60.7c2.6,4.4,7.4,7.4,12.8,7.4s10.3-3,12.8-7.4c-2.4-4.2-6.8-7.1-11.9-7.4c-0.3-10.9-9.3-19.8-20.3-19.8
		c-9,0-16.6,5.9-19.3,14c-2.6-8.1-10.3-14-19.3-14c-11,0-20,8.8-20.3,19.8c-5.1,0.3-9.5,3.2-11.9,7.4c2.6,4.4,7.4,7.4,12.8,7.4
		c5.5,0,10.3-3,12.8-7.4c-2.4-4.2-6.8-7-11.8-7.4c0.3-9.8,8.4-17.8,18.3-17.8c10.1,0,18.3,8.2,18.3,18.3v4.4L77.6,93l8.9,9.3
		c-3.6,4.8-9.4,7.8-15.8,7.8c-11,0-19.9-8.9-19.9-19.9h-3c0,12.6,10.3,22.9,22.9,22.9c2,0,4-0.3,5.8-0.8l-8.4,8.2l12.6-9.7
		l-9.9,12.5l11.3-11.1l-8.3,13.6l9.9-12.4l-6.6,14.5l8.3-13.6l-4.8,15.2l6.6-14.5l-2.9,15.6l4.8-15.2l-1,15.9l2.9-15.6l1,15.9
		l1-15.9l2.9,15.6l-1-15.9l4.8,15.2L96.9,115l6.6,14.5l-4.8-15.2l8.3,13.6l-6.6-14.5l9.9,12.4l-8.3-13.6l11.3,11.1l-9.9-12.5
		l12.6,9.7l-8.4-8.2c1.9,0.5,3.8,0.8,5.8,0.8c12.6,0,22.9-10.3,22.9-22.9h-3c0,11-8.9,19.9-19.9,19.9c-6.4,0-12.2-3.1-15.8-7.9
		l8.9-9.3L93.1,58.3v-4.4c0-10.1,8.2-18.3,18.3-18.3c9.9,0,18,7.9,18.3,17.8C124.6,53.7,120.2,56.6,117.8,60.7z M79.9,92.5
		l12.2-31.3l12.2,31.3H79.9z"/>
	<circle class="st0" cx="53.5" cy="60.7" r="2.7"/>
	<path class="st14" d="M53.5,65.1c-2.4,0-4.4-2-4.4-4.4s2-4.4,4.4-4.4s4.4,2,4.4,4.4S56,65.1,53.5,65.1z M53.5,56.8
		c-2.1,0-3.9,1.7-3.9,3.9s1.7,3.9,3.9,3.9s3.9-1.7,3.9-3.9S55.7,56.8,53.5,56.8z"/>
	<circle class="st0" cx="130.7" cy="60.7" r="2.7"/>
	<path class="st14" d="M130.7,65.1c-2.4,0-4.4-2-4.4-4.4s2-4.4,4.4-4.4s4.4,2,4.4,4.4S133.1,65.1,130.7,65.1z M130.7,56.8
		c-2.1,0-3.9,1.7-3.9,3.9s1.7,3.9,3.9,3.9s3.9-1.7,3.9-3.9S132.8,56.8,130.7,56.8z"/>
</g>
</svg>
