<?xml version="1.0" encoding="utf-8"?>
<!-- Generator: Adobe Illustrator 25.4.1, SVG Export Plug-In . SVG Version: 6.00 Build 0)  -->
<svg version="1.1" id="Layer_4" xmlns="http://www.w3.org/2000/svg" xmlns:xlink="http://www.w3.org/1999/xlink" x="0px" y="0px"
	 viewBox="0 0 184.3 141.7" style="enable-background:new 0 0 184.3 141.7;" xml:space="preserve">
<style type="text/css">
	.st0{fill:#FFFFFF;}
	.st1{fill:#E5F0FB;}
	.st2{fill:#ED7099;}
	.st3{fill:#95623F;}
	.st4{fill:#EF8A66;}
	.st5{fill:#BCA68F;}
	.st6{fill:#918B72;}
	.st7{fill:#03A1DC;}
	.st8{fill:#7C4A17;}
	.st9{fill:#D20A11;}
	.st10{fill:#6F6053;}
	.st11{fill:#8B7C6B;}
	.st12{fill:#DF9C4E;}
	.st13{fill:#EEE7DA;}
	.st14{fill:#AAC933;}
	.st15{fill:#3E231E;}
	.st16{fill:#7A625C;}
	.st17{fill:#D86BA6;}
	.st18{fill:#81C182;}
	.st19{fill:#6C6436;}
	.st20{fill:#866B15;}
	.st21{fill:#BDD002;}
	.st22{clip-path:url(#SVGID_00000111149273018389007080000015327306227915676040_);fill:#BDD002;}
	.st23{fill:#BBB3A3;}
	.st24{fill:#A28514;}
	.st25{fill:none;}
	.st26{fill:#BDD00F;}
	.st27{clip-path:url(#SVGID_00000103971005337792783910000003676270761722023095_);}
	.st28{fill:#A39988;}
	.st29{fill:#819FAA;}
	.st30{fill:#B9C2C7;}
	.st31{fill:#FCDC43;}
</style>
<g>
	<path class="st15" d="M147.6,55.9c0-6.3-4.3-11.6-10.2-13.1c-6-10.2-15.1-18.2-26-22.6c2.7-1.9,6-3.2,9.4-3.7c-1-0.3-1.9-0.4-3-0.5
		c-3.5-0.2-6.8,0.9-9.4,3c-0.3-0.5-0.6-0.9-0.9-1.3c2.9-2.3,6.5-3.9,10.4-4.4c-1-0.3-1.9-0.4-3-0.5c-3.4-0.2-6.6,0.9-9.1,2.8
		c-0.4-0.4-0.8-0.7-1.2-1.1c2.9-2.4,6.5-3.9,10.4-4.4c-1-0.3-1.9-0.4-3-0.5c-3.7-0.2-7.1,1-9.7,3.2c-0.5-0.3-1-0.6-1.5-0.8
		c3.1-2.7,7-4.6,11.2-5.1c-1-0.3-1.9-0.4-3-0.5c-4.3-0.2-8.3,1.5-11,4.4c0,0,0,0-0.1,0c0.1-0.4,0.1-0.8,0.1-1.1
		c0-3.4-2.7-6.1-6.1-6.1S86,6.1,86,9.5c0,0.4,0,0.8,0.1,1.1c-4.4,1.5-8.1,4.5-10.4,8.5c-12.1,4.1-22.3,12.6-28.9,23.7
		c-5.9,1.5-10.2,6.8-10.2,13.1c0,3.2,1.1,6.1,2.9,8.4c-0.3,2.3-0.4,4.6-0.4,7v12.1c0,30.3,23.7,54.9,53,54.9c29.3,0,53-24.6,53-54.9
		V71.3c0-2.4-0.2-4.7-0.4-7C146.5,62,147.6,59.1,147.6,55.9z"/>
	<polygon class="st16" points="52.7,48.1 51.1,52.5 51.9,47.9 51.3,47.8 50.5,52.4 50.5,47.7 49.9,47.7 49.9,52.4 49,47.8 
		48.5,47.9 49.3,52.5 47.7,48.1 47.1,48.3 48.7,52.7 46.3,48.6 45.8,48.9 48.2,53.1 45.1,49.4 44.7,49.8 47.7,53.4 44.1,50.4 
		43.7,50.8 47.4,53.9 43.2,51.5 42.9,52 47,54.4 42.6,52.8 42.4,53.4 46.8,55 42.2,54.2 42.1,54.7 46.7,55.6 42,55.6 42,56.2 
		46.7,56.2 42.1,57 42.2,57.6 46.8,56.8 42.4,58.4 42.6,59 47,57.3 42.9,59.7 43.2,60.2 47.4,57.8 43.7,60.9 44.1,61.4 47.7,58.3 
		44.7,62 45.1,62.3 48.2,58.7 45.8,62.8 46.3,63.1 48.7,59 47.1,63.5 47.7,63.7 50.5,56 53.3,48.3 	"/>
	<polygon class="st16" points="142.3,55.6 137.5,55.6 142.2,54.7 142.1,54.2 137.4,55 141.9,53.4 141.7,52.8 137.2,54.4 141.3,52 
		141,51.5 136.9,53.9 140.5,50.8 140.2,50.4 136.5,53.4 139.6,49.8 139.1,49.4 136.1,53.1 138.4,48.9 137.9,48.6 135.5,52.7 
		137.2,48.3 136.6,48.1 135,52.5 135.8,47.9 135.2,47.8 134.4,52.4 134.4,47.7 133.8,47.7 133.8,52.4 133,47.8 132.4,47.9 
		133.2,52.5 131.6,48.1 131,48.3 133.8,56 136.6,63.7 137.2,63.5 135.5,59 137.9,63.1 138.4,62.8 136.1,58.7 139.1,62.3 139.6,62 
		136.5,58.3 140.2,61.4 140.5,60.9 136.9,57.8 141,60.2 141.3,59.7 137.2,57.3 141.7,59 141.9,58.4 137.4,56.8 142.1,57.6 142.2,57 
		137.5,56.2 142.3,56.2 	"/>
	<path class="st16" d="M127.9,69.5h-7.2l10-9.8l-12.8,9.8H115l11.4-14.3l-14.5,14.3h-1.5l11.1-18.2L107,69.5h-0.6l9.8-21.4L103,69.5
		h-0.1l7.6-24L99.8,68.8l4.7-25.2L96.8,68l1.6-25.6l-4.7,25.2l-1.6-25.6l-1.6,25.6l-4.7-25.2L87.5,68l-7.7-24.4l4.7,25.2L73.8,45.5
		l7.6,24h-0.1L68.1,48.1l9.8,21.4h-0.6L62.8,51.3l11.1,18.2h-1.5L57.9,55.2l11.4,14.3h-2.9l-12.8-9.8l10,9.8h-7.2
		c-0.6,7.8,3.4,14.8,9.6,18.4c-1.5,3.8-2.3,7.9-2,12.3c0.9,14.1,12.3,25.6,26.4,26.4c16.4,1,30-12,30-28.2c0-3.7-0.7-7.3-2.1-10.6
		C124.5,84.3,128.5,77.3,127.9,69.5C127.9,69.5,127.9,69.5,127.9,69.5z"/>
	<circle cx="67.8" cy="77.6" r="2.5"/>
	<path class="st0" d="M67.8,81.6c-2.2,0-4-1.8-4-4s1.8-4,4-4s4,1.8,4,4S70,81.6,67.8,81.6z M67.8,74.1c-1.9,0-3.5,1.6-3.5,3.5
		s1.6,3.5,3.5,3.5s3.5-1.6,3.5-3.5S69.8,74.1,67.8,74.1z"/>
	<circle cx="116.4" cy="77.6" r="2.5"/>
	<path class="st0" d="M116.4,81.6c-2.2,0-4-1.8-4-4s1.8-4,4-4c2.2,0,4,1.8,4,4S118.6,81.6,116.4,81.6z M116.4,74.1
		c-1.9,0-3.5,1.6-3.5,3.5s1.6,3.5,3.5,3.5c1.9,0,3.5-1.6,3.5-3.5S118.3,74.1,116.4,74.1z"/>
	<g>
		<path d="M71.2,82.2c-1.8,1.8-4.8,1.8-6.6,0L63.8,83c1.1,1.1,2.6,1.7,4,1.7c0.4,0,0.8-0.1,1.3-0.2c-0.2,0.1-0.5,0.2-0.7,0.3
			c-1.2,0.4-2.5,0.4-3.6-0.2l-0.4,0.9c0.8,0.4,1.6,0.6,2.4,0.6c0.6,0,1.3-0.1,1.9-0.3c1.4-0.5,2.6-1.5,3.2-2.9l-0.5-0.2L71.2,82.2z"
			/>
		<path d="M115.8,84.8c-0.2-0.1-0.5-0.2-0.7-0.3c0.4,0.1,0.8,0.2,1.3,0.2c1.5,0,2.9-0.6,4-1.7l-0.7-0.7c-1.8,1.8-4.8,1.8-6.6,0
			l-0.4,0.4l-0.5,0.2c0.7,1.4,1.8,2.4,3.2,2.9c0.6,0.2,1.3,0.3,1.9,0.3c0.8,0,1.7-0.2,2.4-0.6l-0.4-0.9
			C118.3,85.2,117,85.2,115.8,84.8z"/>
	</g>
	<path d="M93.1,107.2v-7.7v-1.4v-13c4.1,0.4,7.4,3.5,8.3,7.4c-2,1-3.4,3.1-3.4,5.5c0,3.4,2.8,6.2,6.2,6.2c3.4,0,6.2-2.8,6.2-6.2
		s-2.8-6.2-6.2-6.2c-0.3,0-0.6,0-0.9,0.1c-1.2-4.8-5.2-8.4-10.3-8.8v-7.6l3.5-3.5l-1.4-1.4l-3,3l-3-3l-1.4,1.4l3.5,3.5v7.6
		c-5,0.4-9.1,4.1-10.3,8.8c-0.3,0-0.6-0.1-0.9-0.1c-3.4,0-6.2,2.8-6.2,6.2s2.8,6.2,6.2,6.2s6.2-2.8,6.2-6.2c0-2.4-1.4-4.5-3.4-5.5
		c0.9-4,4.2-7,8.3-7.4v13v1.4v7.7H65.3c0.2,0.7,0.5,1.3,0.7,2h52.2c0.3-0.7,0.5-1.3,0.7-2H93.1z"/>
</g>
</svg>
