<?xml version="1.0" encoding="utf-8"?>
<!-- Generator: Adobe Illustrator 25.4.1, SVG Export Plug-In . SVG Version: 6.00 Build 0)  -->
<svg version="1.1" id="Layer_4" xmlns="http://www.w3.org/2000/svg" xmlns:xlink="http://www.w3.org/1999/xlink" x="0px" y="0px"
	 viewBox="0 0 184.3 141.7" style="enable-background:new 0 0 184.3 141.7;" xml:space="preserve">
<style type="text/css">
	.st0{fill:#FFFFFF;}
	.st1{fill:#E5F0FB;}
	.st2{fill:#ED7099;}
	.st3{fill:#95623F;}
	.st4{fill:#EF8A66;}
	.st5{fill:#BCA68F;}
	.st6{fill:#918B72;}
	.st7{fill:#03A1DC;}
	.st8{fill:#7C4A17;}
	.st9{fill:#D20A11;}
	.st10{fill:#6F6053;}
	.st11{fill:#8B7C6B;}
	.st12{fill:#DF9C4E;}
	.st13{fill:#EEE7DA;}
	.st14{fill:#AAC933;}
	.st15{fill:#3E231E;}
	.st16{fill:#7A625C;}
	.st17{fill:#D86BA6;}
	.st18{fill:#81C182;}
	.st19{fill:#6C6436;}
	.st20{fill:#866B15;}
	.st21{fill:#BDD002;}
	.st22{clip-path:url(#SVGID_00000075850478633665867640000012974094333475099064_);fill:#BDD002;}
	.st23{fill:#BBB3A3;}
	.st24{fill:#A28514;}
	.st25{fill:none;}
	.st26{fill:#BDD00F;}
	.st27{clip-path:url(#SVGID_00000029031870487583135120000006605638769068858240_);}
	.st28{fill:#A39988;}
	.st29{fill:#819FAA;}
	.st30{fill:#B9C2C7;}
	.st31{fill:#FCDC43;}
</style>
<g>
	<path class="st3" d="M151.9,43.2c0-8.3-6.7-15-15-15c-3,0-5.9,0.9-8.2,2.5c-7-5.7-15.2-9.9-24.2-11.9l7.5-7.3l-9.1,7
		c-0.1,0-0.3-0.1-0.4-0.1l7.3-9.2l-9.1,8.9c0,0-0.1,0-0.1,0l6.7-10.9L99,17.5l5.5-12l-6.9,11.2l4-12.5l-5.5,12l2.4-12.9l-4,12.5
		l0.8-13.1l-2.4,12.9L92.1,2.4l-0.8,13.1L88.9,2.6l0.8,13.1l-4-12.5l2.4,12.9l-5.5-12l4,12.5L79.8,5.5l5.5,12L77.1,7.2l6.7,10.9
		c0,0-0.1,0-0.1,0l-9.1-8.9l7.3,9.2c-0.1,0-0.3,0.1-0.4,0.1l-9.1-7l7.5,7.3c-9,2-17.2,6.1-24.2,11.9c-2.4-1.6-5.2-2.5-8.2-2.5
		c-8.3,0-15,6.7-15,15c0,4.7,2.2,8.9,5.5,11.6C35,62.1,33.3,70,33.3,78.4c0,33.6,26.3,60.9,58.8,60.9s58.8-27.3,58.8-60.9
		c0-8.3-1.6-16.3-4.5-23.5C149.7,52.1,151.9,47.9,151.9,43.2z"/>
	<ellipse transform="matrix(0.7071 -0.7071 0.7071 0.7071 -16.7066 46.1434)" cx="47.3" cy="43.2" rx="4.2" ry="7.5"/>
	<ellipse transform="matrix(0.7071 -0.7071 0.7071 0.7071 9.5247 109.4713)" cx="136.9" cy="43.2" rx="7.5" ry="4.2"/>
	<circle class="st4" cx="55.1" cy="91" r="15.4"/>
	<circle class="st4" cx="129.1" cy="91" r="15.4"/>
	<path d="M111.4,41.1c-9,0-16.6,5.9-19.3,14c-2.6-8.1-10.3-14-19.3-14c-11.2,0-20.3,9.1-20.3,20.3h2c0-10.1,8.2-18.3,18.3-18.3
		s18.3,8.2,18.3,18.3l0,4.3L75.4,95.1l-0.1,0.2v0.2c0,8.9,7,16.2,15.8,16.7v2.5c0,6.3-5.2,11.5-11.5,11.5s-11.5-5.2-11.5-11.5h-2
		c0,7.4,6.1,13.5,13.5,13.5c5.6,0,10.5-3.5,12.5-8.4c2,4.9,6.8,8.4,12.5,8.4c7.4,0,13.5-6.1,13.5-13.5h-2c0,6.3-5.2,11.5-11.5,11.5
		c-6.3,0-11.5-5.2-11.5-11.5v-2.5c8.8-0.5,15.8-7.8,15.8-16.7v-0.2L93.1,65.7l0-4.3c0-10.1,8.2-18.3,18.3-18.3
		c10.1,0,18.3,8.2,18.3,18.3h2C131.7,50.2,122.6,41.1,111.4,41.1z M85.9,101.4c0-1.4,1.1-2.5,2.5-2.5c1.4,0,2.5,1.1,2.5,2.5
		c0,1.4-1.1,2.5-2.5,2.5C87,103.9,85.9,102.8,85.9,101.4z M93.3,101.4c0-1.4,1.1-2.5,2.5-2.5c1.4,0,2.5,1.1,2.5,2.5
		c0,1.4-1.1,2.5-2.5,2.5C94.5,103.9,93.3,102.8,93.3,101.4z M77.5,95.6l14.7-27.5l14.7,27.5H77.5z"/>
	<circle cx="111.4" cy="61.4" r="2.7"/>
	<path class="st4" d="M111.4,65.8c-2.4,0-4.4-2-4.4-4.4s2-4.4,4.4-4.4s4.4,2,4.4,4.4S113.8,65.8,111.4,65.8z M111.4,57.5
		c-2.1,0-3.9,1.7-3.9,3.9s1.7,3.9,3.9,3.9s3.9-1.7,3.9-3.9S113.5,57.5,111.4,57.5z"/>
	<circle cx="72.8" cy="61.4" r="2.7"/>
	<path class="st4" d="M72.8,65.8c-2.4,0-4.4-2-4.4-4.4s2-4.4,4.4-4.4s4.4,2,4.4,4.4S75.3,65.8,72.8,65.8z M72.8,57.5
		c-2.1,0-3.9,1.7-3.9,3.9s1.7,3.9,3.9,3.9s3.9-1.7,3.9-3.9S75,57.5,72.8,57.5z"/>
</g>
</svg>
