<?xml version="1.0" encoding="utf-8"?>
<!-- Generator: Adobe Illustrator 25.4.1, SVG Export Plug-In . SVG Version: 6.00 Build 0)  -->
<svg version="1.1" id="Layer_4" xmlns="http://www.w3.org/2000/svg" xmlns:xlink="http://www.w3.org/1999/xlink" x="0px" y="0px"
	 viewBox="0 0 184.3 141.7" style="enable-background:new 0 0 184.3 141.7;" xml:space="preserve">
<style type="text/css">
	.st0{fill:#FFFFFF;}
	.st1{fill:#E5F0FB;}
	.st2{fill:#ED7099;}
	.st3{fill:#95623F;}
	.st4{fill:#EF8A66;}
	.st5{fill:#BCA68F;}
	.st6{fill:#918B72;}
	.st7{fill:#03A1DC;}
	.st8{fill:#7C4A17;}
	.st9{fill:#D20A11;}
	.st10{fill:#6F6053;}
	.st11{fill:#8B7C6B;}
	.st12{fill:#DF9C4E;}
	.st13{fill:#EEE7DA;}
	.st14{fill:#AAC933;}
	.st15{fill:#3E231E;}
	.st16{fill:#7A625C;}
	.st17{fill:#D86BA6;}
	.st18{fill:#81C182;}
	.st19{fill:#6C6436;}
	.st20{fill:#866B15;}
	.st21{fill:#BDD002;}
	.st22{clip-path:url(#SVGID_00000006686073680346207010000015413609474739981999_);fill:#BDD002;}
	.st23{fill:#BBB3A3;}
	.st24{fill:#A28514;}
	.st25{fill:none;}
	.st26{fill:#BDD00F;}
	.st27{clip-path:url(#SVGID_00000083076921901965717430000005125521743972731317_);}
	.st28{fill:#A39988;}
	.st29{fill:#819FAA;}
	.st30{fill:#B9C2C7;}
	.st31{fill:#FCDC43;}
</style>
<g>
	<path class="st29" d="M147.9,97.8c2-6.1,3-12.6,3-19.3c0-31.9-23.7-58.1-53.9-60.7L92.1,2.3l-4.9,15.5C57,20.4,33.3,46.5,33.3,78.5
		c0,6.7,1.1,13.2,3,19.3l-36.6,30.5l42.3-17.8c10.4,17.4,28.9,29,50.1,29c21.2,0,39.7-11.6,50.1-29l42.3,17.8L147.9,97.8z"/>
	<path class="st30" d="M35.9,96.3c7.4,25,29.8,43.1,56.2,43.1s48.9-18.2,56.2-43.1c-5.3-7.8-13.5-13.2-23-14.6
		c-3-16.2-16.8-28.4-33.3-28.4S61.9,65.6,58.8,81.7C49.4,83.1,41.2,88.6,35.9,96.3z"/>
	<g>
		<defs>
			<path id="SVGID_00000153689459351164809190000015814889794783065497_" d="M92.1,112.8c-16.4,0-31.7-3.6-45.1-9.8
				c9.9,14.3,26.4,23.7,45.1,23.7s35.2-9.4,45.1-23.7C123.9,109.2,108.5,112.8,92.1,112.8z"/>
		</defs>
		<use xlink:href="#SVGID_00000153689459351164809190000015814889794783065497_"  style="overflow:visible;"/>
		<clipPath id="SVGID_00000122704469899890037960000006864543879168754614_">
			<use xlink:href="#SVGID_00000153689459351164809190000015814889794783065497_"  style="overflow:visible;"/>
		</clipPath>
	</g>
	<ellipse cx="77" cy="89.5" rx="2.6" ry="4"/>
	<ellipse cx="107.2" cy="89.5" rx="2.6" ry="4"/>
	<path class="st31" d="M109.1,76.5l-7.9-2.1c0,0,0-0.1,0-0.1l8.2-0.7l-8.2-0.7c0,0,0-0.1,0-0.1l7.9-2.1l-8.2,0.7c0,0,0-0.1,0-0.1
		l7.4-3.5l-7.9,2.1c0,0,0-0.1-0.1-0.1l6.7-4.7l-7.4,3.5c0,0-0.1-0.1-0.1-0.1l5.8-5.8l-6.7,4.7c0,0-0.1-0.1-0.1-0.1l4.7-6.7l-5.8,5.8
		c0,0-0.1-0.1-0.1-0.1l3.5-7.4L96,65.3c0,0-0.1,0-0.1-0.1l2.1-7.9l-3.5,7.4c0,0-0.1,0-0.1,0l0.7-8.2L93,64.5c0,0-0.1,0-0.1,0
		l-0.7-8.2l-0.7,8.2c0,0-0.1,0-0.1,0l-2.1-7.9l0.7,8.2c0,0-0.1,0-0.1,0l-3.5-7.4l2.1,7.9c0,0-0.1,0-0.1,0.1l-4.7-6.7L87,66
		c0,0-0.1,0.1-0.1,0.1l-5.8-5.8l4.7,6.7c0,0-0.1,0.1-0.1,0.1l-6.7-4.7l5.8,5.8c0,0-0.1,0.1-0.1,0.1l-7.4-3.5l6.7,4.7
		c0,0,0,0.1-0.1,0.1L76,67.6l7.4,3.5c0,0,0,0.1,0,0.1l-8.2-0.7l7.9,2.1c0,0,0,0.1,0,0.1l-8.2,0.7l8.2,0.7c0,0,0,0.1,0,0.1l-7.9,2.1
		l8.2-0.7c0,0,0,0.1,0,0.1L76,79.4l7.9-2.1c0,0,0,0.1,0.1,0.1l-6.7,4.7l7.4-3.5c0,0,0.1,0.1,0.1,0.1l-5.8,5.8l6.7-4.7
		c0,0,0.1,0.1,0.1,0.1l-4.7,6.7l5.8-5.8c0,0,0.1,0.1,0.1,0.1l-3.5,7.4l4.7-6.7c0,0,0.1,0,0.1,0.1l-2.1,7.9l3.5-7.4c0,0,0.1,0,0.1,0
		l-0.7,8.2l2.1-7.9c0,0,0.1,0,0.1,0l0.7,8.2l0.7-8.2c0,0,0.1,0,0.1,0l2.1,7.9l-0.7-8.2c0,0,0.1,0,0.1,0l3.5,7.4l-2.1-7.9
		c0,0,0.1,0,0.1-0.1l4.7,6.7L97.3,81c0,0,0.1-0.1,0.1-0.1l5.8,5.8l-4.7-6.7c0,0,0.1-0.1,0.1-0.1l6.7,4.7l-5.8-5.8
		c0,0,0.1-0.1,0.1-0.1l7.4,3.5l-6.7-4.7c0,0,0-0.1,0.1-0.1l7.9,2.1l-7.4-3.5c0,0,0-0.1,0-0.1L109.1,76.5z"/>
	<circle cx="52.3" cy="49.3" r="2.5"/>
	<path class="st0" d="M52.3,53.3c-2.2,0-4-1.8-4-4c0-2.2,1.8-4,4-4s4,1.8,4,4C56.3,51.5,54.5,53.3,52.3,53.3z M52.3,45.8
		c-1.9,0-3.5,1.6-3.5,3.5c0,1.9,1.6,3.5,3.5,3.5s3.5-1.6,3.5-3.5C55.8,47.4,54.3,45.8,52.3,45.8z"/>
	<circle cx="131.9" cy="49.3" r="2.5"/>
	<path class="st0" d="M131.9,53.3c-2.2,0-4-1.8-4-4c0-2.2,1.8-4,4-4s4,1.8,4,4C135.9,51.5,134.1,53.3,131.9,53.3z M131.9,45.8
		c-1.9,0-3.5,1.6-3.5,3.5c0,1.9,1.6,3.5,3.5,3.5s3.5-1.6,3.5-3.5C135.4,47.4,133.8,45.8,131.9,45.8z"/>
	<path d="M113.5,35.2l-1.4-1.4c-2.1,2.1-4.5,3.8-7,5.1c-4-1.9-8.4-2.9-12.9-2.9c-4.5,0-8.9,1-12.9,2.9c-2.5-1.3-4.9-3-7-5.1
		l-1.4,1.4c1.9,1.9,4.1,3.5,6.3,4.8c-2.3,1.3-4.4,2.9-6.3,4.9l1.4,1.4c2.1-2.1,4.5-3.8,7.1-5.2c4.1,1.9,8.5,2.9,12.9,2.9
		c4.4,0,8.8-1,12.9-2.9c2.6,1.3,5,3.1,7.1,5.2l1.4-1.4c-1.9-1.9-4.1-3.5-6.3-4.9C109.4,38.8,111.6,37.1,113.5,35.2z M81.7,40.1
		c3.3-1.3,6.8-2,10.5-2c3.6,0,7.2,0.7,10.5,2C95.9,42.7,88.4,42.7,81.7,40.1z"/>
	<g>
		<path class="st0" d="M73.4,122l3.4-10.3c-2.4-0.3-4.8-0.8-7.1-1.2L73.4,122z"/>
		<path class="st0" d="M86.5,112.7c-2.6-0.1-5.1-0.4-7.6-0.7l3.9,12L86.5,112.7z"/>
		<path class="st0" d="M105.4,112c-2.5,0.3-5.1,0.5-7.6,0.7l3.7,11.4L105.4,112z"/>
		<path class="st0" d="M92.1,112.8c-1.3,0-2.7,0-4-0.1l4,12.3l4-12.3C94.8,112.8,93.5,112.8,92.1,112.8z"/>
		<path class="st0" d="M107.5,111.7l3.4,10.3l3.8-11.5C112.2,111,109.9,111.4,107.5,111.7z"/>
	</g>
	<path class="st0" d="M123.4,108.3c-1.9,0.6-3.9,1.1-5.9,1.6l2.7,8.2L123.4,108.3z"/>
	<path class="st0" d="M66.8,109.8c-2-0.5-3.9-1-5.9-1.6l3.2,9.8L66.8,109.8z"/>
</g>
</svg>
