<?xml version="1.0" encoding="utf-8"?>
<!-- Generator: Adobe Illustrator 25.4.1, SVG Export Plug-In . SVG Version: 6.00 Build 0)  -->
<svg version="1.1" id="Layer_4" xmlns="http://www.w3.org/2000/svg" xmlns:xlink="http://www.w3.org/1999/xlink" x="0px" y="0px"
	 viewBox="0 0 184.3 141.7" style="enable-background:new 0 0 184.3 141.7;" xml:space="preserve">
<style type="text/css">
	.st0{fill:#FFFFFF;}
	.st1{fill:#E5F0FB;}
	.st2{fill:#ED7099;}
	.st3{fill:#95623F;}
	.st4{fill:#EF8A66;}
	.st5{fill:#BCA68F;}
	.st6{fill:#918B72;}
	.st7{fill:#03A1DC;}
	.st8{fill:#7C4A17;}
	.st9{fill:#D20A11;}
	.st10{fill:#6F6053;}
	.st11{fill:#8B7C6B;}
	.st12{fill:#DF9C4E;}
	.st13{fill:#EEE7DA;}
	.st14{fill:#AAC933;}
	.st15{fill:#3E231E;}
	.st16{fill:#7A625C;}
	.st17{fill:#D86BA6;}
	.st18{fill:#81C182;}
	.st19{fill:#6C6436;}
	.st20{fill:#866B15;}
	.st21{fill:#BDD002;}
	.st22{clip-path:url(#SVGID_00000004537889545241000740000011188340178479860122_);fill:#BDD002;}
	.st23{fill:#BBB3A3;}
	.st24{fill:#A28514;}
	.st25{fill:none;}
	.st26{fill:#BDD00F;}
	.st27{clip-path:url(#SVGID_00000065066856811836616870000013515072022221245885_);}
	.st28{fill:#A39988;}
	.st29{fill:#819FAA;}
	.st30{fill:#B9C2C7;}
	.st31{fill:#FCDC43;}
</style>
<g>
	<polygon class="st17" points="85.5,21.4 85.5,21.4 85.5,21.4 85.5,21.4 86,22.1 95.4,12.8 90.2,16.8 94.3,11.7 89.6,16.3 93,10.7 
		88.9,15.8 91.7,9.8 88.2,15.4 90.2,9.2 87.5,15.2 88.7,8.7 86.7,15 87.1,8.4 85.9,14.9 85.5,8.3 85.1,14.9 83.9,8.4 84.3,15 
		82.3,8.7 83.5,15.2 80.8,9.2 82.7,15.4 79.3,9.8 82,15.8 77.9,10.7 81.4,16.3 76.7,11.7 80.8,16.8 75.6,12.8 85,22.1 85.5,21.4 
		85.5,21.4 	"/>
	<polygon class="st17" points="98.8,21.4 98.8,21.4 98.8,21.4 98.8,21.4 99.3,22.1 108.7,12.8 103.5,16.8 107.6,11.7 102.9,16.3 
		106.3,10.7 102.2,15.8 104.9,9.8 101.5,15.4 103.5,9.2 100.7,15.2 101.9,8.7 100,15 100.4,8.4 99.2,14.9 98.8,8.3 98.4,14.9 
		97.2,8.4 97.6,15 95.6,8.7 96.8,15.2 94,9.2 96,15.4 92.6,9.8 95.3,15.8 91.2,10.7 94.7,16.3 90,11.7 94.1,16.8 88.8,12.8 
		98.2,22.1 98.8,21.4 98.8,21.4 	"/>
	<circle class="st18" cx="65.2" cy="22.4" r="6.7"/>
	<circle class="st18" cx="54.1" cy="32.3" r="5"/>
	<circle class="st18" cx="47.6" cy="42.1" r="3.7"/>
	<circle class="st18" cx="119.1" cy="22.4" r="6.7"/>
	<circle class="st18" cx="130.2" cy="32.3" r="5"/>
	<circle class="st18" cx="136.6" cy="42.1" r="3.7"/>
	<path class="st19" d="M147.8,88.5c0-5.9-1.1-11.5-3.2-16.7C142.8,40.1,120,15,92.1,15S41.5,40.1,39.6,71.8
		c-2,5.2-3.2,10.8-3.2,16.7c0,18.1,10.4,33.7,25.6,41.2c7.3,7.4,18,12,30,12s22.7-4.7,30-12C137.3,122.2,147.8,106.6,147.8,88.5z"/>
	<g>
		<path class="st18" d="M83.3,31.5c-4.9,0-8.9,4-8.9,8.9h17.7C92.1,35.5,88.2,31.5,83.3,31.5z"/>
		<path class="st18" d="M92.1,40.4h17.7c0-4.9-4-8.9-8.9-8.9C96.1,31.5,92.1,35.5,92.1,40.4z"/>
		<path class="st18" d="M104.4,31.5c0-4.6-2.5-8.6-6.2-10.7L95.3,4L94,11L92.1,0l-1.9,11L89,4l-2.9,16.9c-3.7,2.1-6.2,6.1-6.2,10.7
			h3.4H101H104.4z"/>
		<path class="st18" d="M74.4,40.4c-4.9,0-8.9,4-8.9,8.9h17.7C83.3,44.3,79.3,40.4,74.4,40.4z"/>
		<path class="st18" d="M92.1,40.4c-4.9,0-8.9,4-8.9,8.9H101C101,44.3,97,40.4,92.1,40.4z"/>
		<path class="st18" d="M109.8,40.4c-4.9,0-8.9,4-8.9,8.9h17.7C118.7,44.3,114.7,40.4,109.8,40.4z"/>
	</g>
	<circle cx="87.2" cy="71.9" r="3.8"/>
	<circle cx="97.1" cy="71.9" r="3.8"/>
	<path d="M45,91.2c6.3,20.8,25,35.9,47.1,35.9S133,112,139.3,91.2H45z"/>
	
		<rect x="54.2" y="47.3" transform="matrix(0.7071 -0.7071 0.7071 0.7071 -25.1986 56.5614)" class="st18" width="3" height="22.7"/>
	<path d="M54.4,65.9c3.2,3.2,7.7,4.3,11.7,3.2c1-4.1-0.1-8.5-3.2-11.7c-3.2-3.2-7.7-4.3-11.7-3.2C50.2,58.3,51.3,62.8,54.4,65.9z"/>
	<circle class="st0" cx="58.7" cy="61.7" r="2.5"/>
	<path class="st17" d="M58.7,65.7c-2.2,0-4-1.8-4-4s1.8-4,4-4c2.2,0,4,1.8,4,4S60.9,65.7,58.7,65.7z M58.7,58.2
		c-1.9,0-3.5,1.6-3.5,3.5s1.6,3.5,3.5,3.5c1.9,0,3.5-1.6,3.5-3.5S60.6,58.2,58.7,58.2z"/>
	
		<rect x="117.2" y="57.2" transform="matrix(0.7071 -0.7071 0.7071 0.7071 -3.8469 108.1091)" class="st18" width="22.7" height="3"/>
	<path d="M121.3,57.5c-3.2,3.2-4.3,7.7-3.2,11.7c4.1,1,8.5-0.1,11.7-3.2c3.2-3.2,4.3-7.7,3.2-11.7C129,53.2,124.5,54.3,121.3,57.5z"
		/>
	<circle class="st0" cx="125.6" cy="61.7" r="2.5"/>
	<path class="st17" d="M125.6,65.7c-2.2,0-4-1.8-4-4s1.8-4,4-4s4,1.8,4,4S127.8,65.7,125.6,65.7z M125.6,58.2
		c-1.9,0-3.5,1.6-3.5,3.5s1.6,3.5,3.5,3.5s3.5-1.6,3.5-3.5S127.5,58.2,125.6,58.2z"/>
	<path class="st0" d="M45,91.2c0.9,2.8,1.9,5.5,3.2,8.1l2.7-1.7l3.2,2l3.2-2l3.2,2l3.2-2l3.2,2l3.2-2l3.2,2l3.2-2l3.2,2l3.2-2l3.2,2
		l3.2-2l3.2,2l3.2-2l3.2,2l3.2-2l3.2,2l3.2-2l3.2,2l3.2-2l3.2,2l3.2-2l3.2,2l3.2-2l3.2,2l3.2-2l2.7,1.7c1.3-2.6,2.4-5.3,3.2-8.1H45z
		"/>
</g>
</svg>
