<?xml version="1.0" encoding="utf-8"?>
<!-- Generator: Adobe Illustrator 25.4.1, SVG Export Plug-In . SVG Version: 6.00 Build 0)  -->
<svg version="1.1" id="Layer_4" xmlns="http://www.w3.org/2000/svg" xmlns:xlink="http://www.w3.org/1999/xlink" x="0px" y="0px"
	 viewBox="0 0 184.3 141.7" style="enable-background:new 0 0 184.3 141.7;" xml:space="preserve">
<style type="text/css">
	.st0{fill:#FFFFFF;}
	.st1{fill:#E5F0FB;}
	.st2{fill:#ED7099;}
	.st3{fill:#95623F;}
	.st4{fill:#EF8A66;}
	.st5{fill:#BCA68F;}
	.st6{fill:#918B72;}
	.st7{fill:#03A1DC;}
	.st8{fill:#7C4A17;}
	.st9{fill:#D20A11;}
	.st10{fill:#6F6053;}
	.st11{fill:#8B7C6B;}
	.st12{fill:#DF9C4E;}
	.st13{fill:#EEE7DA;}
	.st14{fill:#AAC933;}
	.st15{fill:#3E231E;}
	.st16{fill:#7A625C;}
	.st17{fill:#D86BA6;}
	.st18{fill:#81C182;}
	.st19{fill:#6C6436;}
	.st20{fill:#866B15;}
	.st21{fill:#BDD002;}
	.st22{clip-path:url(#SVGID_00000108996021329118903240000006549726138721987714_);fill:#BDD002;}
	.st23{fill:#BBB3A3;}
	.st24{fill:#A28514;}
	.st25{fill:none;}
	.st26{fill:#BDD00F;}
	.st27{clip-path:url(#SVGID_00000106107220205859510850000005449961161395526275_);}
	.st28{fill:#A39988;}
	.st29{fill:#819FAA;}
	.st30{fill:#B9C2C7;}
	.st31{fill:#FCDC43;}
</style>
<g>
	<path class="st2" d="M136,65.8v-9.7c0-9.7-3.2-18.7-8.6-26l1.9-1.9c2.3-2.3,2.3-6.1,0-8.4h0c-2.3-2.3-6.1-2.3-8.4,0l-1.8,1.8
		c-2-1.6-4.1-3-6.3-4.2c-2.6-5.3-8.1-9-14.5-9c-2.2,0-4.3,0.4-6.2,1.3c-1.9-0.8-4-1.3-6.2-1.3c-6.4,0-11.8,3.7-14.5,9
		c-2.2,1.2-4.3,2.6-6.3,4.2l-1.8-1.8c-2.3-2.3-6.1-2.3-8.4,0c-2.3,2.3-2.3,6.1,0,8.4l1.9,1.9c-5.4,7.3-8.6,16.3-8.6,26v9.7
		c-8.3,7-13.6,17.5-13.6,29.3c0,21.2,17.1,38.3,38.3,38.3c7,0,13.6-1.9,19.2-5.2c5.6,3.3,12.2,5.2,19.2,5.2
		c21.2,0,38.3-17.1,38.3-38.3C149.6,83.3,144.3,72.8,136,65.8z"/>
	<circle cx="62.6" cy="46.7" r="2.5"/>
	<path class="st0" d="M62.6,50.7c-2.2,0-4-1.8-4-4c0-2.2,1.8-4,4-4c2.2,0,4,1.8,4,4C66.6,48.9,64.8,50.7,62.6,50.7z M62.6,43.2
		c-1.9,0-3.5,1.6-3.5,3.5c0,1.9,1.6,3.5,3.5,3.5c1.9,0,3.5-1.6,3.5-3.5C66.1,44.7,64.5,43.2,62.6,43.2z"/>
	<circle cx="122.9" cy="46.7" r="2.5"/>
	<path class="st0" d="M122.9,50.7c-2.2,0-4-1.8-4-4c0-2.2,1.8-4,4-4s4,1.8,4,4C126.9,48.9,125.1,50.7,122.9,50.7z M122.9,43.2
		c-1.9,0-3.5,1.6-3.5,3.5c0,1.9,1.6,3.5,3.5,3.5s3.5-1.6,3.5-3.5C126.4,44.7,124.8,43.2,122.9,43.2z"/>
	<path d="M68.1,57.7c-1.5-1.5-3.4-2.3-5.5-2.3c-2.1,0-4,0.8-5.5,2.3l-1.4-1.4c1.8-1.8,4.3-2.9,6.9-2.9c2.6,0,5,1,6.9,2.9L68.1,57.7z
		"/>
	<path d="M117.4,57.7l-1.4-1.4c1.8-1.8,4.3-2.9,6.9-2.9s5,1,6.9,2.9l-1.4,1.4c-1.5-1.5-3.4-2.3-5.5-2.3S118.9,56.3,117.4,57.7z"/>
	<g>
		<path d="M131.9,93.5c0,7.8-6.3,14.1-14.1,14.1H66.5c-7.8,0-14.1-6.3-14.1-14.1h-3c0,9.1,7.1,16.5,16,17.1v2.4
			c0,1.4,1.2,2.6,2.6,2.6s2.6-1.2,2.6-2.6v-2.4h43v2.4c0,1.4,1.2,2.6,2.6,2.6s2.6-1.2,2.6-2.6v-2.4c8.9-0.6,16-8,16-17.1H131.9z"/>
		<path d="M84.1,96.2c-2.7,0-4.9,2.2-4.9,4.9H89C89,98.4,86.8,96.2,84.1,96.2z"/>
		<path d="M100.2,96.2c-2.7,0-4.9,2.2-4.9,4.9h9.8C105.1,98.4,102.9,96.2,100.2,96.2z"/>
		<rect x="90.6" y="82.8" width="3" height="18.4"/>
	</g>
	<path d="M79.6,82.8l-7.9-2.1c0,0,0-0.1,0-0.1l8.2-0.7L71.7,79c0,0,0-0.1,0-0.1l7.9-2.1l-8.2,0.7c0,0,0-0.1,0-0.1l7.4-3.5L70.9,76
		c0,0,0-0.1-0.1-0.1l6.7-4.7l-7.4,3.5c0,0-0.1-0.1-0.1-0.1l5.8-5.8l-6.7,4.7c0,0-0.1-0.1-0.1-0.1l4.7-6.7l-5.8,5.8
		c0,0-0.1-0.1-0.1-0.1l3.5-7.4l-4.7,6.7c0,0-0.1,0-0.1-0.1l2.1-7.9L65,71c0,0-0.1,0-0.1,0l0.7-8.2l-2.1,7.9c0,0-0.1,0-0.1,0
		l-0.7-8.2l-0.7,8.2c0,0-0.1,0-0.1,0l-2.1-7.9l0.7,8.2c0,0-0.1,0-0.1,0l-3.5-7.4l2.1,7.9c0,0-0.1,0-0.1,0.1L54,64.9l3.5,7.4
		c0,0-0.1,0.1-0.1,0.1l-5.8-5.8l4.7,6.7c0,0-0.1,0.1-0.1,0.1l-6.7-4.7l5.8,5.8c0,0-0.1,0.1-0.1,0.1l-7.4-3.5l6.7,4.7
		c0,0,0,0.1-0.1,0.1l-7.9-2.1l7.4,3.5c0,0,0,0.1,0,0.1l-8.2-0.7l7.9,2.1c0,0,0,0.1,0,0.1l-8.2,0.7l8.2,0.7c0,0,0,0.1,0,0.1l-7.9,2.1
		l8.2-0.7c0,0,0,0.1,0,0.1l-7.4,3.5l7.9-2.1c0,0,0,0.1,0.1,0.1l-6.7,4.7l7.4-3.5c0,0,0.1,0.1,0.1,0.1l-5.8,5.8l6.7-4.7
		c0,0,0.1,0.1,0.1,0.1L51.6,93l5.8-5.8c0,0,0.1,0.1,0.1,0.1L54,94.7l4.7-6.7c0,0,0.1,0,0.1,0.1l-2.1,7.9l3.5-7.4c0,0,0.1,0,0.1,0
		l-0.7,8.2l2.1-7.9c0,0,0.1,0,0.1,0l0.7,8.2l0.7-8.2c0,0,0.1,0,0.1,0l2.1,7.9l-0.7-8.2c0,0,0.1,0,0.1,0l3.5,7.4L66.4,88
		c0,0,0.1,0,0.1-0.1l4.7,6.7l-3.5-7.4c0,0,0.1-0.1,0.1-0.1l5.8,5.8L69,86.2c0,0,0.1-0.1,0.1-0.1l6.7,4.7L70,85c0,0,0.1-0.1,0.1-0.1
		l7.4,3.5l-6.7-4.7c0,0,0-0.1,0.1-0.1l7.9,2.1l-7.4-3.5c0,0,0-0.1,0-0.1L79.6,82.8z"/>
	<path d="M139.9,82.8l-7.9-2.1c0,0,0-0.1,0-0.1l8.2-0.7L132,79c0,0,0-0.1,0-0.1l7.9-2.1l-8.2,0.7c0,0,0-0.1,0-0.1l7.4-3.5l-7.9,2.1
		c0,0,0-0.1-0.1-0.1l6.7-4.7l-7.4,3.5c0,0-0.1-0.1-0.1-0.1l5.8-5.8l-6.7,4.7c0,0-0.1-0.1-0.1-0.1l4.7-6.7l-5.8,5.8
		c0,0-0.1-0.1-0.1-0.1l3.5-7.4l-4.7,6.7c0,0-0.1,0-0.1-0.1l2.1-7.9l-3.5,7.4c0,0-0.1,0-0.1,0l0.7-8.2l-2.1,7.9c0,0-0.1,0-0.1,0
		l-0.7-8.2l-0.7,8.2c0,0-0.1,0-0.1,0l-2.1-7.9l0.7,8.2c0,0-0.1,0-0.1,0l-3.5-7.4l2.1,7.9c0,0-0.1,0-0.1,0.1l-4.7-6.7l3.5,7.4
		c0,0-0.1,0.1-0.1,0.1l-5.8-5.8l4.7,6.7c0,0-0.1,0.1-0.1,0.1l-6.7-4.7l5.8,5.8c0,0-0.1,0.1-0.1,0.1l-7.4-3.5l6.7,4.7
		c0,0,0,0.1-0.1,0.1l-7.9-2.1l7.4,3.5c0,0,0,0.1,0,0.1l-8.2-0.7l7.9,2.1c0,0,0,0.1,0,0.1l-8.2,0.7l8.2,0.7c0,0,0,0.1,0,0.1l-7.9,2.1
		l8.2-0.7c0,0,0,0.1,0,0.1l-7.4,3.5l7.9-2.1c0,0,0,0.1,0.1,0.1l-6.7,4.7l7.4-3.5c0,0,0.1,0.1,0.1,0.1l-5.8,5.8l6.7-4.7
		c0,0,0.1,0.1,0.1,0.1l-4.7,6.7l5.8-5.8c0,0,0.1,0.1,0.1,0.1l-3.5,7.4L119,88c0,0,0.1,0,0.1,0.1l-2.1,7.9l3.5-7.4c0,0,0.1,0,0.1,0
		l-0.7,8.2l2.1-7.9c0,0,0.1,0,0.1,0l0.7,8.2l0.7-8.2c0,0,0.1,0,0.1,0l2.1,7.9l-0.7-8.2c0,0,0.1,0,0.1,0l3.5,7.4l-2.1-7.9
		c0,0,0.1,0,0.1-0.1l4.7,6.7l-3.5-7.4c0,0,0.1-0.1,0.1-0.1L134,93l-4.7-6.7c0,0,0.1-0.1,0.1-0.1l6.7,4.7l-5.8-5.8
		c0,0,0.1-0.1,0.1-0.1l7.4,3.5l-6.7-4.7c0,0,0-0.1,0.1-0.1l7.9,2.1l-7.4-3.5c0,0,0-0.1,0-0.1L139.9,82.8z"/>
	<path d="M98.3,32.1c2-0.9,3.3-2.9,3.3-5.3c0-2.7-1.8-5-4.3-5.6c1.1-0.8,1.8-2.1,1.8-3.5c0-2.4-1.9-4.3-4.3-4.3c-1,0-2,0.4-2.7,1
		c-0.7-0.6-1.7-1-2.7-1c-2.4,0-4.3,1.9-4.3,4.3c0,1.5,0.7,2.7,1.8,3.5c-2.5,0.7-4.3,2.9-4.3,5.6c0,2.3,1.4,4.3,3.3,5.3
		c-3.1,0.8-5.5,3.6-5.5,7c0,4,3.2,7.2,7.2,7.2c1.7,0,3.3-0.6,4.5-1.6c1.2,1,2.8,1.6,4.5,1.6c4,0,7.2-3.2,7.2-7.2
		C103.8,35.6,101.5,32.8,98.3,32.1z M92.1,33.4c-0.6-0.5-1.2-0.8-1.9-1.1c0.7-0.2,1.3-0.6,1.9-1c0.6,0.5,1.2,0.8,1.9,1
		C93.3,32.6,92.7,33,92.1,33.4z M92.1,20.9c0.3,0.3,0.7,0.5,1,0.6c-0.4,0.2-0.7,0.4-1,0.7c-0.3-0.3-0.7-0.5-1-0.7
		C91.5,21.4,91.8,21.2,92.1,20.9z"/>
</g>
</svg>
