<?xml version="1.0" encoding="utf-8"?>
<!-- Generator: Adobe Illustrator 25.4.1, SVG Export Plug-In . SVG Version: 6.00 Build 0)  -->
<svg version="1.1" id="Layer_4" xmlns="http://www.w3.org/2000/svg" xmlns:xlink="http://www.w3.org/1999/xlink" x="0px" y="0px"
	 viewBox="0 0 184.3 141.7" style="enable-background:new 0 0 184.3 141.7;" xml:space="preserve">
<style type="text/css">
	.st0{fill:#FFFFFF;}
	.st1{fill:#E5F0FB;}
	.st2{fill:#ED7099;}
	.st3{fill:#95623F;}
	.st4{fill:#EF8A66;}
	.st5{fill:#BCA68F;}
	.st6{fill:#918B72;}
	.st7{fill:#03A1DC;}
	.st8{fill:#7C4A17;}
	.st9{fill:#D20A11;}
	.st10{fill:#6F6053;}
	.st11{fill:#8B7C6B;}
	.st12{fill:#DF9C4E;}
	.st13{fill:#EEE7DA;}
	.st14{fill:#AAC933;}
	.st15{fill:#3E231E;}
	.st16{fill:#7A625C;}
	.st17{fill:#D86BA6;}
	.st18{fill:#81C182;}
	.st19{fill:#6C6436;}
	.st20{fill:#866B15;}
	.st21{fill:#BDD002;}
	.st22{clip-path:url(#SVGID_00000074411257165561272810000001097061497586573442_);fill:#BDD002;}
	.st23{fill:#BBB3A3;}
	.st24{fill:#A28514;}
	.st25{fill:none;}
	.st26{fill:#BDD00F;}
	.st27{clip-path:url(#SVGID_00000016043173755883729330000015780026157115374764_);}
	.st28{fill:#A39988;}
	.st29{fill:#819FAA;}
	.st30{fill:#B9C2C7;}
	.st31{fill:#FCDC43;}
</style>
<g>
	<path class="st0" d="M151.9,41.6c0-8.3-6.7-15-15-15c-3,0-5.9,0.9-8.2,2.5c-7.7-6.4-17-10.7-27.1-12.4l5.8-5.7l-7.1,5.5
		c-0.1,0-0.2,0-0.3,0l5.7-7.2l-7.1,7c0,0,0,0,0,0l5.2-8.5l-6.3,7.9l4.2-9.2L96.3,15l3-9.6l-4.2,9.2L97,4.7l-3,9.6l0.6-10l-1.8,9.9
		l-0.6-10l-0.6,10l-1.8-9.9l0.6,10l-3-9.6l1.8,9.9l-4.2-9.2l3,9.6l-5.3-8.6l4.2,9.2l-6.3-7.9l5.2,8.5c0,0,0,0,0,0l-7.1-7l5.7,7.2
		c-0.1,0-0.2,0-0.3,0L76.9,11l5.8,5.7c-10.2,1.7-19.4,6.1-27.1,12.4c-2.4-1.6-5.2-2.5-8.2-2.5c-8.3,0-15,6.7-15,15
		c0,4.7,2.2,8.9,5.5,11.6c-2.9,7.2-4.5,15.2-4.5,23.5c0,33.6,26.3,60.9,58.8,60.9s58.8-27.3,58.8-60.9c0-8.3-1.6-16.3-4.5-23.5
		C149.7,50.5,151.9,46.3,151.9,41.6z"/>
	<circle class="st1" cx="55.1" cy="89.4" r="15.4"/>
	<circle class="st1" cx="129.1" cy="89.4" r="15.4"/>
	<g>
		<ellipse transform="matrix(0.7071 -0.7071 0.7071 0.7071 -15.5657 45.6711)" cx="47.3" cy="41.6" rx="4.2" ry="7.5"/>
		<polygon points="84.6,36.9 86.8,39 90.6,35.2 90.6,40.6 93.6,40.6 93.6,35.2 97.5,39 99.6,36.9 95.8,33 101.2,33 101.2,30 
			95.8,30 99.6,26.2 97.5,24 93.6,27.8 93.6,22.4 90.6,22.4 90.6,27.8 86.8,24 84.6,26.2 88.5,30 83,30 83,33 88.5,33 		"/>
		<path d="M142.2,36.3c-1.6-1.6-5.3-0.6-8.3,2.3c-2.9,2.9-4,6.6-2.3,8.3c1.6,1.6,5.3,0.6,8.3-2.3S143.8,38,142.2,36.3z"/>
		<path d="M131.6,59.1c-0.4-10.9-9.3-19.6-20.2-19.6c-9,0-16.6,5.9-19.3,14c-2.6-8.1-10.3-14-19.3-14c-11,0-19.9,8.7-20.2,19.6
			c-1.6,0.4-2.7,1.8-2.7,3.5c0,2,1.6,3.7,3.7,3.7s3.7-1.6,3.7-3.7c0-1.7-1.1-3.1-2.6-3.5C55,49.4,63,41.5,72.8,41.5
			c10.1,0,18.3,8.2,18.3,18.3v4.3L75.3,93.7V94c0,8.8,6.7,16,15.3,16.7v7.4H72.9v3h6.6c2.9,3.7,7.5,6.2,12.6,6.2
			c5.1,0,9.7-2.4,12.6-6.2h6.7v-3H93.6v-7.4c8.6-0.8,15.3-8,15.3-16.7v-0.2L93.1,64.1v-4.3c0-10.1,8.2-18.3,18.3-18.3
			c9.9,0,17.9,7.9,18.2,17.6c-1.5,0.4-2.6,1.8-2.6,3.5c0,2,1.6,3.7,3.7,3.7c2,0,3.7-1.6,3.7-3.7C134.4,61,133.2,59.5,131.6,59.1z
			 M106.8,94h-8.1l0,0c0-1.9-1.6-3.5-3.5-3.5c-0.7,0-1.4,0.2-2,0.6c-0.6,0.4-1.4,0.4-2.1,0c-0.6-0.4-1.2-0.6-2-0.6
			c-1.9,0-3.5,1.6-3.5,3.5l0,0h-8.1l14.7-27.5L106.8,94z"/>
	</g>
</g>
</svg>
