<?xml version="1.0" encoding="utf-8"?>
<!-- Generator: Adobe Illustrator 25.4.1, SVG Export Plug-In . SVG Version: 6.00 Build 0)  -->
<svg version="1.1" id="Layer_4" xmlns="http://www.w3.org/2000/svg" xmlns:xlink="http://www.w3.org/1999/xlink" x="0px" y="0px"
	 viewBox="0 0 184.3 141.7" style="enable-background:new 0 0 184.3 141.7;" xml:space="preserve">
<style type="text/css">
	.st0{fill:#FFFFFF;}
	.st1{fill:#E5F0FB;}
	.st2{fill:#ED7099;}
	.st3{fill:#95623F;}
	.st4{fill:#EF8A66;}
	.st5{fill:#BCA68F;}
	.st6{fill:#918B72;}
	.st7{fill:#03A1DC;}
	.st8{fill:#7C4A17;}
	.st9{fill:#D20A11;}
	.st10{fill:#6F6053;}
	.st11{fill:#8B7C6B;}
	.st12{fill:#DF9C4E;}
	.st13{fill:#EEE7DA;}
	.st14{fill:#AAC933;}
	.st15{fill:#3E231E;}
	.st16{fill:#7A625C;}
	.st17{fill:#D86BA6;}
	.st18{fill:#81C182;}
	.st19{fill:#6C6436;}
	.st20{fill:#866B15;}
	.st21{fill:#BDD002;}
	.st22{clip-path:url(#SVGID_00000083798391854382645410000014550935868694701240_);fill:#BDD002;}
	.st23{fill:#BBB3A3;}
	.st24{fill:#A28514;}
	.st25{fill:none;}
	.st26{fill:#BDD00F;}
	.st27{clip-path:url(#SVGID_00000093160115528052993200000015736898140865979800_);}
	.st28{fill:#A39988;}
	.st29{fill:#819FAA;}
	.st30{fill:#B9C2C7;}
	.st31{fill:#FCDC43;}
</style>
<g>
	<polygon class="st2" points="92.1,22.9 92.1,22.9 92.1,22.9 92.1,22.9 92.1,22.9 92.1,22.9 93,23.9 107.9,9.2 99.6,15.6 106.1,7.4 
		98.7,14.7 104.1,5.8 97.6,14 102,4.4 96.5,13.4 99.6,3.4 95.3,12.9 97.2,2.6 94,12.6 94.7,2.1 92.8,12.4 92.1,2 91.5,12.4 
		89.6,2.1 90.2,12.6 87.1,2.6 89,12.9 84.6,3.4 87.8,13.4 82.3,4.4 86.6,14 80.1,5.8 85.6,14.7 78.1,7.4 84.6,15.6 76.3,9.2 
		91.3,23.9 92.1,22.9 92.1,22.9 	"/>
	<path class="st8" d="M143.3,53.3c-2.3,0-4.4,0.5-6.3,1.5c0.5-2.1,0.9-4.1,1.1-6.2c0.4,1.4,0.6,2.7,0.6,4.1
		c3.5-3.9,4.7-9.6,2.4-14.8c-0.8-1.9-2-3.5-3.5-4.8c1.1,0.2,2.2,0.5,3.2,1c-1.4-3.1-3.9-5.6-7-7c-0.3-0.5-0.6-1-0.9-1.5
		c1.4,0.2,2.8,0.6,4.1,1.1c-1.8-3.9-5.4-6.9-9.7-7.8c-0.6-0.5-1.2-1-1.8-1.5c1.1,0.2,2.2,0.5,3.2,1c-2.2-4.8-7-8.1-12.6-8.1
		c-2,0-3.9,0.4-5.6,1.2c-6.3-0.6-12.7,0.7-18.3,3.8c-5.7-3.1-12-4.4-18.3-3.8c-1.7-0.8-3.6-1.2-5.6-1.2c-5.6,0-10.4,3.3-12.6,8.1
		c1-0.5,2.1-0.8,3.2-1c-0.6,0.5-1.2,1-1.8,1.5c-4.3,0.9-7.9,3.9-9.7,7.8c1.3-0.6,2.7-1,4.1-1.1c-0.3,0.5-0.6,1-0.9,1.5
		c-3.1,1.4-5.6,3.9-7,7c1-0.5,2.1-0.8,3.2-1c-1.4,1.3-2.7,2.9-3.5,4.8c-2.2,5.1-1.1,10.9,2.4,14.8c0-1.4,0.2-2.8,0.6-4.1
		c0.2,2,0.5,4.1,1.1,6.2c-1.9-0.9-4.1-1.5-6.3-1.5c-5,0-9.4,2.6-12,6.5c2.6,3.9,7,6.5,12,6.5c1.7,0,3.2-0.3,4.7-0.8
		c-0.6,0.8-1.1,1.7-1.6,2.7C41.8,73.3,43,79,46.5,82.9c0-1.9,0.3-3.8,1.1-5.7c0.2-0.4,0.4-0.8,0.6-1.2c0,0.6,0.1,1.2,0.1,1.8
		c-0.1,1.3,0.1,2.5,0.4,3.7c0.2,1.4,0.4,2.8,0.7,4.2c-2.2,5.1-1,10.8,2.5,14.6c0-1.5,0.2-3.1,0.7-4.6c5.5,12.7,15.6,22.3,27.9,26.1
		l-8.8,8.7l10.6-8.2c0,0,0,0,0,0l-8.4,10.5l9.6-9.5l-7,11.5l8.4-10.6l-5.6,12.3l7-11.5L82.5,138l5.6-12.3L85.6,139l4.1-12.9
		l-0.8,13.5l2.5-13.3l0.8,13.5l0.8-13.5l2.5,13.3l-0.8-13.5l4.1,12.9l-2.5-13.3l5.6,12.3l-4.1-12.9l7,11.5l-5.6-12.3l8.4,10.6
		l-7-11.5l9.6,9.5l-8.4-10.5c0,0,0,0,0,0l10.6,8.2l-8.8-8.7c12.3-3.8,22.4-13.4,27.9-26.1c0.5,1.5,0.8,3.1,0.7,4.6
		c3.5-3.9,4.6-9.6,2.5-14.6c0.3-1.4,0.5-2.7,0.7-4.2c0.3-1.2,0.4-2.5,0.4-3.7c0-0.6,0.1-1.2,0.1-1.8c0.2,0.4,0.4,0.8,0.6,1.2
		c0.8,1.8,1.2,3.8,1.1,5.7c3.5-3.9,4.7-9.6,2.4-14.8c-0.4-1-1-1.9-1.6-2.7c1.5,0.5,3.1,0.8,4.7,0.8c5,0,9.4-2.6,12-6.5
		C152.8,55.9,148.3,53.3,143.3,53.3z"/>
	<ellipse cx="143.3" cy="59.8" rx="5.3" ry="2.9"/>
	<ellipse cx="40.9" cy="59.8" rx="5.3" ry="2.9"/>
	<path class="st2" d="M66.9,69.5c0-3.8-3.1-6.8-6.8-6.8c-3.8,0-6.8,3.1-6.8,6.8H66.9z"/>
	<path class="st0" d="M60.1,73.5c-2.2,0-4-1.8-4-4s1.8-4,4-4s4,1.8,4,4S62.3,73.5,60.1,73.5z M60.1,66.1c-1.9,0-3.5,1.6-3.5,3.5
		s1.6,3.5,3.5,3.5s3.5-1.6,3.5-3.5S62,66.1,60.1,66.1z"/>
	<path class="st2" d="M131,69.5c0-3.8-3.1-6.8-6.8-6.8c-3.8,0-6.8,3.1-6.8,6.8H131z"/>
	<path class="st0" d="M124.2,73.5c-2.2,0-4-1.8-4-4s1.8-4,4-4s4,1.8,4,4S126.3,73.5,124.2,73.5z M124.2,66.1c-1.9,0-3.5,1.6-3.5,3.5
		s1.6,3.5,3.5,3.5s3.5-1.6,3.5-3.5S126.1,66.1,124.2,66.1z"/>
	<path d="M124.2,67.1c-1.2,0-2.2,0.8-2.4,2H62.5c-0.2-1.1-1.2-2-2.4-2c-1.4,0-2.5,1.1-2.5,2.5c0,1.4,1.1,2.5,2.5,2.5
		c1.2,0,2.2-0.8,2.4-2h59.2c0.2,1.1,1.2,2,2.4,2c1.4,0,2.5-1.1,2.5-2.5C126.6,68.2,125.5,67.1,124.2,67.1z"/>
	<path d="M59,47.2c-15.1,0-27.4-12.3-27.4-27.4h11c0,9.1,7.4,16.4,16.4,16.4V47.2z"/>
	<path d="M125.3,47.2v-11c9.1,0,16.4-7.4,16.4-16.4h11C152.7,34.9,140.4,47.2,125.3,47.2z"/>
	<path d="M92.1,93.1c-9.8,0-17.7,5.9-17.7,13.1c0,7.2,7.9,13.1,17.7,13.1s17.7-5.9,17.7-13.1C109.8,99,101.9,93.1,92.1,93.1z
		 M85.6,108.1c-1.8,0-3.2-1.4-3.2-3.2s1.4-3.2,3.2-3.2s3.2,1.4,3.2,3.2S87.3,108.1,85.6,108.1z M98.7,108.1c-1.8,0-3.2-1.4-3.2-3.2
		s1.4-3.2,3.2-3.2c1.8,0,3.2,1.4,3.2,3.2S100.5,108.1,98.7,108.1z"/>
</g>
</svg>
