<?xml version="1.0" encoding="utf-8"?>
<!-- Generator: Adobe Illustrator 25.4.1, SVG Export Plug-In . SVG Version: 6.00 Build 0)  -->
<svg version="1.1" xmlns="http://www.w3.org/2000/svg" xmlns:xlink="http://www.w3.org/1999/xlink" x="0px" y="0px"
	 viewBox="0 0 1920 1080" style="enable-background:new 0 0 1920 1080;" xml:space="preserve">
<style type="text/css">
	.st0{clip-path:url(#SVGID_00000062149751564384245540000006189000859491938994_);fill:#003308;}
	.st1{clip-path:url(#SVGID_00000062149751564384245540000006189000859491938994_);fill:#3AAE50;}
	.st2{clip-path:url(#SVGID_00000062149751564384245540000006189000859491938994_);fill:#6C6630;}
	.st3{clip-path:url(#SVGID_00000062149751564384245540000006189000859491938994_);fill:#12491A;}
	.st4{clip-path:url(#SVGID_00000062149751564384245540000006189000859491938994_);fill:#006627;}
	.st5{clip-path:url(#SVGID_00000062149751564384245540000006189000859491938994_);}
	.st6{clip-path:url(#SVGID_00000062149751564384245540000006189000859491938994_);fill:#064C1E;}
	.st7{clip-path:url(#SVGID_00000062149751564384245540000006189000859491938994_);fill:#97633A;}
	.st8{clip-path:url(#SVGID_00000062149751564384245540000006189000859491938994_);fill:#3C1E17;}
</style>
<g id="Layer_2">
</g>
<g id="Layer_1">
	<g>
		<defs>
			<rect id="SVGID_1_" width="1920" height="1080"/>
		</defs>
		<clipPath id="SVGID_00000181063085092840010360000004651002402986040458_">
			<use xlink:href="#SVGID_1_"  style="overflow:visible;"/>
		</clipPath>
		
			<rect style="clip-path:url(#SVGID_00000181063085092840010360000004651002402986040458_);fill:#003308;" width="1920" height="1080"/>
		<path style="clip-path:url(#SVGID_00000181063085092840010360000004651002402986040458_);fill:#3AAE50;" d="M414,1152.9
			c7-39.9,4.5-79.7-6.2-117.9L0.1,1079.9l367.7,181.6C391,1229.3,407,1192.7,414,1152.9z"/>
		<path style="clip-path:url(#SVGID_00000181063085092840010360000004651002402986040458_);fill:#6C6630;" d="M418.3,1038.6
			c-4-40.3-17.2-77.9-37.8-111.8L0.1,1079.9l403.1,75.7C416.8,1118.3,422.3,1078.8,418.3,1038.6z"/>
		<path style="clip-path:url(#SVGID_00000181063085092840010360000004651002402986040458_);fill:#3AAE50;" d="M391.7,927.3
			c-14.7-37.7-37.5-70.4-66.5-97.5l-325,250.1l408.5-35.8C411.7,1004.5,406.4,965,391.7,927.3z"/>
		<path style="clip-path:url(#SVGID_00000181063085092840010360000004651002402986040458_);fill:#12491A;" d="M336,827.3
			c-24.3-32.3-55.1-57.7-90.4-75.9L0.1,1079.9l383.7-144.7C376.1,896.3,360.3,859.7,336,827.3z"/>
		<path style="clip-path:url(#SVGID_00000181063085092840010360000004651002402986040458_);fill:#3AAE50;" d="M255.4,746.1
			c-32.1-24.6-68.6-40.7-107.5-48.7L0.1,1079.9l330.5-242.8C312.6,801.7,287.6,770.7,255.4,746.1z"/>
		<path style="clip-path:url(#SVGID_00000181063085092840010360000004651002402986040458_);fill:#6C6630;" d="M155.9,689.6
			c-37.6-15-77.1-20.6-116.7-17.9L0.1,1079.9l252.7-323C226,727.7,193.5,704.6,155.9,689.6z"/>
		<path style="clip-path:url(#SVGID_00000181063085092840010360000004651002402986040458_);fill:#006627;" d="M44.9,662.1
			c-40.2-4.3-79.8,0.9-117.2,14.2l72.5,403.7l156.2-379.2C122.6,679.8,85.1,666.4,44.9,662.1z"/>
		<path style="clip-path:url(#SVGID_00000181063085092840010360000004651002402986040458_);fill:#3AAE50;" d="M7.5,920
			C38.3,745.3,139.1,601.4,274,514.5C115.2,521.7-24.4,643.4-54.3,813.2c-17.2,97.3,4.9,192,54.5,266.7C-4.2,1027.8-2,974.2,7.5,920
			z"/>
		<path style="clip-path:url(#SVGID_00000181063085092840010360000004651002402986040458_);fill:#12491A;" d="M47.9,927.1
			C78.7,752.5,33.2,582.7-63.9,454.9c146.8,61.1,236.4,223.2,206.4,393c-17.2,97.3-70.3,178.8-142.4,232
			C22.1,1032.5,38.3,981.3,47.9,927.1z"/>
		<path style="clip-path:url(#SVGID_00000181063085092840010360000004651002402986040458_);fill:#12491A;" d="M152.9,1127.7
			c174.7,30.8,344.4-14.7,472.2-111.7c-61.1,146.8-223.2,236.4-393,206.4c-97.3-17.2-178.8-70.3-232-142.4
			C47.6,1101.9,98.8,1118.1,152.9,1127.7z"/>
		<path style="clip-path:url(#SVGID_00000181063085092840010360000004651002402986040458_);fill:#3AAE50;" d="M160.1,1087.3
			c174.7,30.8,318.6,131.6,405.5,266.5c-7.2-158.8-128.9-298.4-298.7-328.4c-97.3-17.2-192,4.9-266.7,54.5
			C52.2,1075.5,105.9,1077.8,160.1,1087.3z"/>
		
			<rect x="1392.2" y="121.5" transform="matrix(0.7072 -0.707 0.707 0.7072 330.6071 1047.0706)" style="clip-path:url(#SVGID_00000181063085092840010360000004651002402986040458_);" width="74.4" height="5.7"/>
		
			<circle style="clip-path:url(#SVGID_00000181063085092840010360000004651002402986040458_);fill:#064C1E;" cx="-56.4" cy="141.8" r="126.8"/>
		
			<circle style="clip-path:url(#SVGID_00000181063085092840010360000004651002402986040458_);fill:#064C1E;" cx="54.4" cy="312.5" r="126.8"/>
		
			<circle style="clip-path:url(#SVGID_00000181063085092840010360000004651002402986040458_);fill:#064C1E;" cx="89.7" cy="21.4" r="175.4"/>
		
			<circle style="clip-path:url(#SVGID_00000181063085092840010360000004651002402986040458_);fill:#064C1E;" cx="223.9" cy="228.2" r="175.4"/>
		
			<circle style="clip-path:url(#SVGID_00000181063085092840010360000004651002402986040458_);fill:#064C1E;" cx="273.1" cy="49.3" r="175.4"/>
		<path style="clip-path:url(#SVGID_00000181063085092840010360000004651002402986040458_);fill:#064C1E;" d="M367,6.6l-16.7-25.7
			c94.1-61,121-187.2,59.9-281.3l25.7-16.7C506.2-208.8,475.3-63.6,367,6.6z"/>
		
			<ellipse transform="matrix(0.8389 -0.5443 0.5443 0.8389 -156.7563 85.6574)" style="clip-path:url(#SVGID_00000181063085092840010360000004651002402986040458_);fill:#3AAE50;" cx="66.3" cy="307.6" rx="54.4" ry="28.8"/>
		
			<ellipse transform="matrix(0.8389 -0.5443 0.5443 0.8389 -55.2218 172.4743)" style="clip-path:url(#SVGID_00000181063085092840010360000004651002402986040458_);fill:#3AAE50;" cx="263.7" cy="179.5" rx="54.4" ry="28.8"/>
		
			<ellipse transform="matrix(0.8389 -0.5443 0.5443 0.8389 21.5951 82.635)" style="clip-path:url(#SVGID_00000181063085092840010360000004651002402986040458_);fill:#3AAE50;" cx="150.4" cy="4.8" rx="54.4" ry="28.8"/>
		
			<rect x="1526.8" y="102" style="clip-path:url(#SVGID_00000181063085092840010360000004651002402986040458_);" width="5.7" height="59.5"/>
		
			<rect x="390" y="180.3" style="clip-path:url(#SVGID_00000181063085092840010360000004651002402986040458_);" width="25.1" height="123.8"/>
		<path style="clip-path:url(#SVGID_00000181063085092840010360000004651002402986040458_);" d="M589.9,247.9c-0.7,0-1.3-0.1-2-0.3
			l-639-201.8c-3.5-1.1-5.5-4.9-4.4-8.4c1.1-3.5,4.9-5.5,8.4-4.4l639,201.8c3.5,1.1,5.5,4.9,4.4,8.4
			C595.4,246,592.7,247.9,589.9,247.9z"/>
		<path style="clip-path:url(#SVGID_00000181063085092840010360000004651002402986040458_);" d="M1780.8,132.6c-0.1,0-0.3,0-0.4,0
			l-385.7-38.9c-2.2-0.2-3.8-2.2-3.6-4.4c0.2-2.2,2.2-3.8,4.4-3.6l385.7,38.9c2.2,0.2,3.8,2.2,3.6,4.4
			C1784.5,131.1,1782.8,132.6,1780.8,132.6z"/>
		<path style="clip-path:url(#SVGID_00000181063085092840010360000004651002402986040458_);" d="M1363.3,462.5
			c-2.7,0-5.3-1.3-6.8-3.7c-2.3-3.7-1.2-8.7,2.5-11l291-182.6c3.7-2.3,8.7-1.2,11,2.5c2.3,3.7,1.2,8.7-2.5,11l-291,182.6
			C1366.2,462.1,1364.7,462.5,1363.3,462.5z"/>
		<path style="clip-path:url(#SVGID_00000181063085092840010360000004651002402986040458_);fill:#97633A;" d="M1990.5,127
			c0-111.3-36.1-214.1-97.2-297.5l-8.3-11.4c0,0,0,0,0-0.1l-0.6-0.9l0,0c-3.1-3.9-7.8-6.5-13.2-6.5c-5.7,0-10.7,2.8-13.7,7.2
			c-4.5-4.4-10.7-7.2-17.6-7.2c-5.4,0-10.3,1.7-14.4,4.6c-2.2-1.3-4.5-2.3-6.9-3c-3.1-1-6.5-1.5-10-1.5c-6.1,0-11.9,1.7-16.8,4.5
			c-4.1-2.8-9-4.5-14.4-4.5c-6.8,0-13,2.7-17.6,7.2c-3-4.3-8-7.2-13.7-7.2c-5.4,0-10.1,2.5-13.2,6.5l0,0l-9,12.4
			c-61.1,83.4-97.2,186.2-97.2,297.5c0,133.8,52.2,255.3,137.3,345.5c0,0,0,0.1,0,0.1c0,24.7,20,44.6,44.6,44.6
			c24.7,0,44.6-20,44.6-44.6c0,0,0-0.1,0-0.1C1938.3,382.4,1990.5,260.8,1990.5,127z"/>
		<path style="clip-path:url(#SVGID_00000181063085092840010360000004651002402986040458_);fill:#3C1E17;" d="M1773.7,396.9
			c0.9-6,0.6-12.3-0.9-18.6c-1.5-6.2-4.2-11.8-7.7-16.6c1.1-6.1,1.1-12.5-0.2-19c-1.3-6.2-3.8-11.9-7.2-16.9
			c1.4-6,1.6-12.5,0.4-18.9c-1.1-6.3-3.4-12-6.6-17.1c1.6-6,2-12.4,1.1-18.9c-0.9-6.3-3-12.1-6-17.3c1.8-5.9,2.4-12.3,1.8-18.9
			c-0.7-6.3-2.5-12.3-5.3-17.6c2-5.9,2.9-12.2,2.4-18.8c-0.4-6.4-2.1-12.3-4.7-17.7c2.2-5.8,3.3-12.1,3.1-18.7
			c-0.2-6.4-1.7-12.4-4.1-17.9c2.4-5.7,3.7-12,3.7-18.6s-1.3-12.8-3.7-18.6c2.4-5.5,3.9-11.5,4.1-17.9c0.2-6.6-0.9-12.9-3-18.7
			c2.6-5.4,4.3-11.4,4.7-17.7c0.5-6.6-0.4-12.9-2.4-18.8c2.8-5.3,4.7-11.2,5.4-17.6c0.7-6.6,0-12.9-1.7-18.9c3-5.2,5.1-11,6-17.3
			c0.9-6.5,0.5-12.9-1.1-18.9c3.2-5.1,5.5-10.9,6.6-17.1c1.1-6.5,0.9-12.9-0.4-19c3.4-5,5.8-10.7,7.2-16.9c1.4-6.4,1.4-12.9,0.2-19
			c3.5-4.9,6.2-10.4,7.8-16.6c2.2-8.8,1.8-17.7-0.6-25.8c-6,6-10.5,13.6-12.7,22.4c-1.6,6.4-1.8,12.9-0.9,19.1
			c-3.4,5-5.9,10.7-7.2,17c-1.4,6.5-1.4,13-0.2,19.1c-3.2,5.1-5.5,10.9-6.6,17.2c-1.2,6.5-0.9,13,0.5,19.1c-3,5.2-5.1,11.1-6,17.4
			c-0.9,6.6-0.5,13,1.1,19c-2.8,5.3-4.7,11.3-5.4,17.7c-0.7,6.6,0,13,1.8,19c-2.7,5.4-4.3,11.4-4.8,17.8c-0.5,6.6,0.4,13,2.4,18.9
			c-2.5,5.5-3.9,11.6-4.2,18c-0.2,6.6,0.9,13,3.1,18.8c-2.3,5.6-3.5,11.7-3.5,18.1s1.3,12.5,3.5,18.1c-2.2,5.8-3.3,12.2-3.1,18.8
			c0.2,6.4,1.7,12.5,4.1,18c-2,5.9-2.9,12.3-2.5,18.9c0.4,6.4,2.1,12.4,4.8,17.8c-1.8,6-2.5,12.4-1.8,19c0.7,6.4,2.6,12.3,5.4,17.7
			c-1.6,6-2,12.5-1.1,19c0.9,6.3,3,12.2,6,17.4c-1.4,6.1-1.6,12.6-0.5,19.1c1.1,6.3,3.4,12.1,6.6,17.2c-1.2,6.1-1.2,12.6,0.2,19.1
			c1.3,6.3,3.8,12,7.2,17c-1,6.2-0.7,12.6,0.9,19.1c1.5,6.1,4.2,11.6,7.6,16.4c-1,6.4-0.7,13,1.2,19.4c2.5,8.7,7.4,16.2,14,21.8
			c2.5-8.3,2.8-17.2,0.3-25.9C1780.7,407.2,1777.7,401.7,1773.7,396.9z"/>
		<path style="clip-path:url(#SVGID_00000181063085092840010360000004651002402986040458_);fill:#3C1E17;" d="M1739.2,391
			c-0.1-6.4-1.4-12.8-4.2-19c-2.6-5.9-6.3-11-10.7-15.3c0.1-6.3-1-12.7-3.5-18.9c-2.4-6-5.9-11.2-10.1-15.5
			c0.5-6.3-0.3-12.8-2.5-19.2c-2.1-6-5.2-11.4-9.2-15.9c0.9-6.3,0.6-12.9-1.2-19.4c-1.6-6.2-4.4-11.7-8-16.5
			c1.3-6.2,1.5-12.8,0.2-19.4c-1.2-6.3-3.6-12-6.9-17c1.8-6.1,2.4-12.6,1.6-19.4c-0.8-6.3-2.8-12.2-5.7-17.5
			c2.2-6,3.3-12.5,2.9-19.2c-0.3-6.4-1.9-12.5-4.5-18c2.5-5.8,3.9-12.2,3.9-18.9c0-6.7-1.4-13.1-3.8-18.9c2.6-5.5,4.1-11.5,4.5-18
			c0.4-6.7-0.7-13.2-2.9-19.2c2.9-5.3,4.9-11.1,5.7-17.5c0.8-6.7,0.2-13.3-1.6-19.4c3.3-5,5.7-10.8,6.9-17
			c1.3-6.6,1.1-13.2-0.2-19.4c3.6-4.8,6.4-10.3,8-16.5c1.7-6.5,2.1-13.1,1.2-19.4c3.9-4.5,7.1-9.9,9.2-15.9c2.2-6.4,3-12.9,2.5-19.2
			c4.2-4.3,7.7-9.5,10.1-15.5c2.5-6.2,3.6-12.6,3.5-18.9c4.4-4.2,8.1-9.3,10.7-15.3c3.7-8.3,4.9-17.1,3.8-25.5
			c-6.9,4.9-12.7,11.6-16.4,19.9c-2.7,6.2-4.1,12.6-4.2,18.9c-4.3,4.4-7.8,9.6-10.3,15.7c-2.5,6.3-3.7,12.8-3.5,19.2
			c-4,4.6-7.2,10-9.3,16.1c-2.2,6.5-3,13.1-2.5,19.6c-3.6,4.8-6.5,10.4-8.1,16.6c-1.8,6.6-2.1,13.3-1.1,19.7
			c-3.3,5.1-5.7,10.8-6.9,17.1c-1.3,6.7-1.1,13.4,0.3,19.7c-2.9,5.3-5,11.2-5.7,17.6c-0.8,6.8-0.2,13.5,1.6,19.6
			c-2.6,5.5-4.1,11.5-4.5,18c-0.4,6.8,0.7,13.3,2.9,19.3c-2.3,5.6-3.6,11.8-3.6,18.3c0,6.5,1.3,12.7,3.6,18.3
			c-2.2,6-3.3,12.5-2.9,19.3c0.3,6.4,1.9,12.5,4.5,18c-1.8,6.2-2.5,12.8-1.6,19.6c0.8,6.4,2.8,12.3,5.7,17.6
			c-1.4,6.3-1.6,13-0.3,19.7c1.2,6.3,3.6,12.1,6.9,17.1c-1,6.4-0.7,13.1,1.1,19.7c1.7,6.2,4.5,11.8,8.1,16.6
			c-0.5,6.4,0.2,13.1,2.5,19.6c2.1,6.1,5.3,11.5,9.3,16.1c-0.2,6.4,1,12.9,3.5,19.2c2.4,6,6,11.3,10.3,15.7
			c0.1,6.3,1.4,12.8,4.2,18.9c2.6,5.9,6.3,10.9,10.6,15.1c0.5,6.4,2.3,12.9,5.5,19c4.3,8,10.5,14.3,17.7,18.7
			c0.4-8.5-1.3-17.1-5.6-25.2C1747.8,399.6,1743.8,394.8,1739.2,391z"/>
		<path style="clip-path:url(#SVGID_00000181063085092840010360000004651002402986040458_);fill:#3C1E17;" d="M1808.5-153.3
			c-4.4,7.3-6.9,15.8-6.9,24.8c0,6.5,1.3,12.7,3.6,18.4c-2.3,5.7-3.6,11.8-3.6,18.3c0,6.5,1.3,12.6,3.6,18.3
			c-2.3,5.6-3.6,11.8-3.6,18.2c0,6.5,1.3,12.7,3.6,18.4c-2.3,5.7-3.6,11.8-3.6,18.3c0,6.5,1.3,12.8,3.7,18.5
			c-2.3,5.7-3.7,11.9-3.7,18.4c0,6.5,1.3,12.7,3.6,18.4c-2.3,5.7-3.6,11.8-3.6,18.3c0,6.5,1.3,12.6,3.6,18.3
			c-2.3,5.6-3.6,11.8-3.6,18.2c0,6.5,1.3,12.7,3.6,18.4c-2.3,5.7-3.6,11.8-3.6,18.3c0,6.5,1.3,12.7,3.6,18.4
			c-2.3,5.7-3.6,11.8-3.6,18.3c0,6.5,1.3,12.7,3.6,18.4c-2.3,5.7-3.6,11.8-3.6,18.3c0,6.5,1.3,12.6,3.6,18.3
			c-2.3,5.6-3.6,11.8-3.6,18.2c0,6.5,1.3,12.7,3.6,18.4c-2.3,5.7-3.6,11.8-3.6,18.3c0,6.5,1.3,12.8,3.7,18.5
			c-2.3,5.7-3.7,11.9-3.7,18.4c0,6.5,1.3,12.7,3.6,18.4c-2.3,5.7-3.6,11.8-3.6,18.3c0,6.5,1.3,12.6,3.6,18.3
			c-2.3,5.6-3.6,11.8-3.6,18.2c0,6.5,1.3,12.7,3.6,18.4c-2.3,5.7-3.6,11.8-3.6,18.3c0,9.1,2.5,17.6,6.9,24.8
			c4.4-7.3,6.9-15.8,6.9-24.8c0-6.5-1.3-12.7-3.6-18.4c2.3-5.7,3.6-11.8,3.6-18.3c0-6.5-1.3-12.6-3.6-18.3
			c2.3-5.6,3.6-11.8,3.6-18.2c0-6.5-1.3-12.7-3.6-18.4c2.3-5.7,3.6-11.8,3.6-18.3c0-6.5-1.3-12.8-3.7-18.5
			c2.3-5.7,3.7-11.9,3.7-18.4c0-6.5-1.3-12.7-3.6-18.4c2.3-5.7,3.6-11.8,3.6-18.3c0-6.5-1.3-12.6-3.6-18.3
			c2.3-5.6,3.6-11.8,3.6-18.2c0-6.5-1.3-12.7-3.6-18.4c2.3-5.7,3.6-11.8,3.6-18.3c0-6.5-1.3-12.7-3.6-18.4
			c2.3-5.7,3.6-11.8,3.6-18.3c0-6.5-1.3-12.7-3.6-18.4c2.3-5.7,3.6-11.8,3.6-18.3c0-6.5-1.3-12.6-3.6-18.3
			c2.3-5.6,3.6-11.8,3.6-18.2c0-6.5-1.3-12.7-3.6-18.4c2.3-5.7,3.6-11.8,3.6-18.3c0-6.5-1.3-12.8-3.7-18.5
			c2.3-5.7,3.7-11.9,3.7-18.4c0-6.5-1.3-12.7-3.6-18.4c2.3-5.7,3.6-11.8,3.6-18.3c0-6.5-1.3-12.6-3.6-18.3
			c2.3-5.6,3.6-11.8,3.6-18.2c0-6.5-1.3-12.7-3.6-18.4c2.3-5.7,3.6-11.8,3.6-18.3C1815.4-137.5,1812.9-146,1808.5-153.3z"/>
		<path style="clip-path:url(#SVGID_00000181063085092840010360000004651002402986040458_);fill:#3C1E17;" d="M1865.7,345.6
			c1.4-6.5,1.4-13,0.2-19.1c3.2-5.1,5.5-10.9,6.6-17.2c1.2-6.5,0.9-13-0.5-19.1c3-5.2,5.1-11.1,6-17.4c0.9-6.6,0.5-13-1.1-19
			c2.8-5.3,4.7-11.3,5.4-17.7c0.7-6.6,0-13-1.8-19c2.7-5.4,4.3-11.4,4.8-17.8c0.5-6.6-0.4-13-2.5-18.9c2.5-5.5,3.9-11.6,4.1-18
			c0.2-6.6-0.9-13-3.1-18.8c2.3-5.6,3.5-11.7,3.5-18.1c0-6.4-1.3-12.5-3.5-18.1c2.2-5.8,3.3-12.2,3.1-18.8c-0.2-6.4-1.7-12.5-4.2-18
			c2-5.9,2.9-12.3,2.4-18.9c-0.4-6.4-2.1-12.4-4.8-17.8c1.8-6,2.5-12.4,1.8-19c-0.7-6.4-2.6-12.3-5.4-17.7c1.6-6,2-12.5,1.1-19
			c-0.9-6.3-3-12.2-6-17.4c1.4-6.1,1.6-12.6,0.5-19.1c-1.1-6.3-3.4-12.1-6.6-17.2c1.2-6.1,1.2-12.6-0.2-19.1c-1.3-6.3-3.8-12-7.2-17
			c1-6.2,0.7-12.6-0.9-19.1c-2.2-8.8-6.7-16.4-12.7-22.4c-2.5,8.1-2.8,16.9-0.6,25.8c1.5,6.2,4.2,11.8,7.8,16.6
			c-1.1,6.1-1.1,12.5,0.2,19c1.3,6.2,3.8,11.9,7.2,16.9c-1.4,6.1-1.6,12.5-0.4,19c1.1,6.3,3.4,12,6.6,17.1c-1.6,6-2,12.4-1.1,18.9
			c0.9,6.3,3,12.1,6,17.3c-1.8,5.9-2.4,12.3-1.7,18.9c0.7,6.3,2.5,12.3,5.4,17.6c-2,5.9-2.9,12.2-2.4,18.8
			c0.4,6.4,2.1,12.3,4.7,17.7c-2.2,5.8-3.3,12.1-3,18.7c0.2,6.4,1.7,12.4,4.1,17.9c-2.4,5.7-3.7,12-3.7,18.6s1.3,12.8,3.7,18.6
			c-2.4,5.5-3.9,11.5-4.1,17.9c-0.2,6.6,0.9,12.9,3.1,18.7c-2.6,5.4-4.3,11.4-4.7,17.7c-0.5,6.6,0.4,12.9,2.4,18.8
			c-2.8,5.3-4.7,11.2-5.3,17.6c-0.7,6.6,0,12.9,1.8,18.9c-3,5.2-5.1,11-6,17.3c-0.9,6.5-0.5,12.9,1.1,18.9
			c-3.2,5.1-5.5,10.9-6.6,17.1c-1.1,6.5-0.9,12.9,0.4,18.9c-3.3,5-5.8,10.7-7.2,16.9c-1.4,6.4-1.4,12.9-0.2,19
			c-3.5,4.9-6.2,10.4-7.7,16.6c-1.6,6.3-1.8,12.6-0.9,18.6c-4,4.7-7,10.3-8.8,16.5c-2.5,8.7-2.2,17.6,0.3,25.9
			c6.5-5.7,11.5-13.1,14-21.8c1.9-6.5,2.2-13.1,1.2-19.4c3.5-4.8,6.1-10.3,7.6-16.4c1.6-6.4,1.8-12.9,0.9-19.1
			C1861.9,357.6,1864.4,351.9,1865.7,345.6z"/>
		<path style="clip-path:url(#SVGID_00000181063085092840010360000004651002402986040458_);fill:#3C1E17;" d="M1949.5,122.1
			c0-6.5-1.3-12.6-3.6-18.3c2.2-6,3.3-12.5,2.9-19.3c-0.3-6.4-1.9-12.5-4.5-18c1.8-6.2,2.5-12.8,1.6-19.6
			c-0.8-6.4-2.8-12.3-5.7-17.6c1.4-6.3,1.6-13,0.3-19.7c-1.2-6.3-3.6-12.1-6.9-17.1c1-6.4,0.7-13.1-1.1-19.7
			c-1.7-6.2-4.5-11.8-8.1-16.6c0.5-6.4-0.2-13.1-2.5-19.6c-2.1-6.1-5.3-11.5-9.3-16.1c0.2-6.4-1-12.9-3.5-19.2
			c-2.4-6-6-11.3-10.3-15.7c-0.1-6.3-1.4-12.8-4.2-18.9c-3.7-8.3-9.4-15-16.4-19.9c-1,8.4,0.1,17.2,3.8,25.5
			c2.6,5.9,6.3,11,10.7,15.3c-0.1,6.3,1,12.7,3.5,18.9c2.4,6,5.9,11.2,10.1,15.5c-0.5,6.3,0.3,12.8,2.5,19.2
			c2.1,6,5.2,11.4,9.2,15.9c-0.9,6.3-0.6,12.9,1.2,19.4c1.6,6.2,4.4,11.7,8,16.5c-1.3,6.2-1.5,12.8-0.2,19.4c1.2,6.3,3.6,12,6.9,17
			c-1.8,6.1-2.4,12.6-1.6,19.4c0.8,6.3,2.8,12.2,5.7,17.5c-2.2,6-3.3,12.5-2.9,19.2c0.3,6.4,1.9,12.5,4.5,18
			c-2.5,5.8-3.8,12.2-3.8,18.9c0,6.7,1.4,13.1,3.9,18.9c-2.6,5.5-4.2,11.5-4.5,18c-0.4,6.7,0.7,13.2,2.9,19.2
			c-2.9,5.3-4.9,11.1-5.7,17.5c-0.8,6.7-0.2,13.3,1.6,19.4c-3.3,5-5.7,10.8-6.9,17c-1.3,6.6-1.1,13.2,0.2,19.4
			c-3.6,4.8-6.4,10.3-8,16.5c-1.7,6.5-2.1,13.1-1.2,19.4c-3.9,4.5-7.1,9.9-9.2,15.9c-2.2,6.4-3,12.9-2.5,19.2
			c-4.2,4.3-7.7,9.5-10.1,15.5c-2.5,6.2-3.6,12.6-3.5,18.9c-4.4,4.2-8.1,9.3-10.7,15.3c-2.7,6.2-4.1,12.6-4.2,19
			c-4.6,3.9-8.6,8.6-11.5,14.3c-4.3,8-6,16.7-5.6,25.2c7.3-4.4,13.5-10.7,17.7-18.7c3.2-6.1,5-12.5,5.5-19c4.4-4.2,8-9.3,10.6-15.1
			c2.7-6.2,4.1-12.6,4.2-18.9c4.3-4.4,7.8-9.6,10.3-15.7c2.5-6.3,3.7-12.8,3.5-19.2c4-4.6,7.2-10,9.3-16.1c2.2-6.5,3-13.1,2.5-19.6
			c3.6-4.8,6.5-10.4,8.1-16.6c1.8-6.6,2.1-13.3,1.1-19.7c3.3-5.1,5.7-10.8,6.9-17.1c1.3-6.7,1.1-13.4-0.3-19.7
			c2.9-5.3,5-11.2,5.7-17.6c0.8-6.8,0.2-13.5-1.6-19.6c2.6-5.5,4.1-11.5,4.5-18c0.4-6.8-0.7-13.3-2.9-19.3
			C1948.2,134.7,1949.5,128.6,1949.5,122.1z"/>
		<path style="clip-path:url(#SVGID_00000181063085092840010360000004651002402986040458_);fill:#3C1E17;" d="M1837.6,506.5
			c-7.8,6.7-18,10.8-29.1,10.8c-11.1,0-21.3-4.1-29.1-10.8c7.9-6.7,18-10.7,29.1-10.7C1819.6,495.8,1829.8,499.9,1837.6,506.5z"/>
		
			<rect x="1451.2" y="397.4" style="clip-path:url(#SVGID_00000181063085092840010360000004651002402986040458_);" width="9.6" height="100.7"/>
		
			<rect x="1915.7" y="948" transform="matrix(0.4806 -0.8769 0.8769 0.4806 50.3006 2246.4814)" style="clip-path:url(#SVGID_00000181063085092840010360000004651002402986040458_);fill:#12491A;" width="11.9" height="265.5"/>
		<path style="clip-path:url(#SVGID_00000181063085092840010360000004651002402986040458_);fill:#3AAE50;" d="M1489.4,990.2
			c-15.4,39.7-22.1,82-18.7,125.2c3.4,43.3,16.7,83.9,38.1,120.8l411.3-156.2L1489.4,990.2z M1622.8,1056.8
			c-3.7,6.8-17,6.7-29.6-0.2c-12.6-6.9-19.8-18.1-16.1-24.9c3.7-6.8,17-6.7,29.6,0.2C1619.3,1038.8,1626.5,1050,1622.8,1056.8z"/>
		<path style="clip-path:url(#SVGID_00000181063085092840010360000004651002402986040458_);fill:#12491A;" d="M1673,1032.5
			c-110.4,1.8-203.8-71.1-227.6-170c71,74.2,173.7,120.1,287.2,118.2L1673,1032.5z"/>
		<path style="clip-path:url(#SVGID_00000181063085092840010360000004651002402986040458_);fill:#12491A;" d="M1684,1037.2
			c-109.2-16.1-189.6-103.1-197.1-204.6c58.1,84.7,152,146.6,264.3,163.1L1684,1037.2z"/>
		<path style="clip-path:url(#SVGID_00000181063085092840010360000004651002402986040458_);fill:#3AAE50;" d="M1697.9,1115.7
			c-108.3,34-219.8,19.2-308.9-31.8c50.9,88.1,161.2,131.5,266.5,98.4c60.3-19,107.6-59.4,135.4-109.6
			C1762.6,1090.6,1731.5,1105.2,1697.9,1115.7z"/>
		<path style="clip-path:url(#SVGID_00000181063085092840010360000004651002402986040458_);fill:#12491A;" d="M1639.1,865.5
			l-6.7-54.6l-33.6-31.4c-33.8,26-61.5,58.5-81.1,97.3c-19.6,38.8-29.3,80.4-30.1,123l432.6,80.1l-235.4-220L1639.1,865.5z
			 M1581.7,848.9c-6.3-3.5-8.6-11.4-5.2-17.7c3.5-6.3,11.4-8.6,17.7-5.2s8.6,11.4,5.2,17.7C1595.9,850,1588,852.4,1581.7,848.9z"/>
		<path style="clip-path:url(#SVGID_00000181063085092840010360000004651002402986040458_);fill:#3AAE50;" d="M1793.8,647.1
			c-41.7,12.2-78.8,33.5-110.4,62l91.2,142.9l69,37.8l-20.7,37.8l97.3,152.4l0.1-440C1878.2,633,1835.5,635,1793.8,647.1z
			 M1860.4,735.9c6.8,23.4,7.7,43.7,2,45.3c-5.7,1.7-15.9-15.9-22.7-39.3c-6.8-23.4-7.7-43.7-2-45.3
			C1843.4,694.9,1853.6,712.5,1860.4,735.9z"/>
		<path style="clip-path:url(#SVGID_00000181063085092840010360000004651002402986040458_);fill:#3AAE50;" d="M1794.1,838
			c-22.9-71.7-63.9-134.6-117.4-182.8c79.5,16.7,145,74.6,174.8,151.8L1794.1,838z"/>
		<path style="clip-path:url(#SVGID_00000181063085092840010360000004651002402986040458_);fill:#006627;" d="M1920.1,1079.9
			l-439,29.8c-4.1,42.4,0.8,84.9,15.8,125.7c15,40.8,38.8,76.3,69.3,106l110.3-81.4l45.7-72.1l27.9,17.7L1920.1,1079.9z
			 M1577.6,1267c-3.7,6.8-17,6.7-29.6-0.2s-19.8-18.1-16.1-24.9s17-6.7,29.6,0.2S1581.4,1260.2,1577.6,1267z"/>
		<path style="clip-path:url(#SVGID_00000181063085092840010360000004651002402986040458_);fill:#12491A;" d="M654.9,86.4
			C714,69.8,774.2,78.5,824,106.1c0.1,0,0.1,0.1,0.1,0.2c-28.2,49.4-75.1,88.2-134.2,104.8s-119.4,7.9-169.2-19.7
			c-0.1,0-0.1-0.1-0.1-0.2C548.9,141.8,595.8,103,654.9,86.4z"/>
		<path style="clip-path:url(#SVGID_00000181063085092840010360000004651002402986040458_);fill:#3AAE50;" d="M824.2,106.2
			c-28.2,49.5-75.1,88.3-134.3,105s-119.5,7.9-169.3-19.7L824.2,106.2z"/>
		<path style="clip-path:url(#SVGID_00000181063085092840010360000004651002402986040458_);" d="M475.3,206.8c-1.2,0-2.3-0.8-2.6-2
			c-0.4-1.4,0.4-2.9,1.9-3.3l97.7-27.4c1.4-0.4,2.9,0.4,3.3,1.9c0.4,1.4-0.4,2.9-1.9,3.3l-97.7,27.4
			C475.8,206.8,475.6,206.8,475.3,206.8z"/>
		<path style="clip-path:url(#SVGID_00000181063085092840010360000004651002402986040458_);fill:#97633A;" d="M527.2,467.1
			c0-76.6-24.9-147.4-66.9-204.8l-5.7-7.9c0,0,0,0,0,0l-0.4-0.6l0,0c-2.1-2.7-5.4-4.5-9.1-4.5c-3.9,0-7.4,2-9.4,4.9
			c-3.1-3.1-7.4-4.9-12.1-4.9c-3.7,0-7.1,1.2-9.9,3.1c-1.5-0.9-3.1-1.6-4.8-2.1c-2.2-0.7-4.5-1-6.9-1c-4.2,0-8.2,1.1-11.6,3.1
			c-2.8-2-6.2-3.1-9.9-3.1c-4.7,0-9,1.9-12.1,4.9c-2.1-3-5.5-4.9-9.4-4.9c-3.7,0-7,1.7-9.1,4.4l0,0l-6.2,8.5
			c-42.1,57.4-66.9,128.2-66.9,204.8c0,92.1,35.9,175.8,94.5,237.8c0,0,0,0,0,0.1c0,17,13.8,30.7,30.7,30.7
			c17,0,30.7-13.8,30.7-30.7c0,0,0,0,0-0.1C491.3,642.8,527.2,559.2,527.2,467.1z"/>
		<path style="clip-path:url(#SVGID_00000181063085092840010360000004651002402986040458_);fill:#3C1E17;" d="M378,652.8
			c0.6-4.1,0.4-8.5-0.6-12.8c-1.1-4.3-2.9-8.1-5.3-11.4c0.8-4.2,0.8-8.6-0.2-13c-0.9-4.3-2.6-8.2-4.9-11.6c0.9-4.2,1.1-8.6,0.3-13
			c-0.8-4.3-2.3-8.3-4.5-11.8c1.1-4.1,1.4-8.5,0.8-13c-0.6-4.3-2-8.4-4.1-11.9c1.2-4.1,1.7-8.5,1.2-13c-0.5-4.4-1.7-8.4-3.7-12.1
			c1.4-4,2-8.4,1.7-12.9c-0.3-4.4-1.4-8.5-3.3-12.2c1.5-4,2.3-8.3,2.1-12.9c-0.2-4.4-1.2-8.5-2.8-12.3c1.6-3.9,2.6-8.2,2.6-12.8
			c0-4.5-0.9-8.8-2.5-12.8c1.7-3.8,2.7-7.9,2.8-12.3c0.2-4.5-0.6-8.9-2.1-12.9c1.8-3.7,3-7.8,3.3-12.2c0.3-4.5-0.3-8.9-1.6-12.9
			c1.9-3.7,3.2-7.7,3.7-12.1c0.5-4.5,0-8.9-1.2-13c2.1-3.6,3.5-7.6,4.1-11.9c0.6-4.5,0.3-8.9-0.7-13c2.2-3.5,3.8-7.5,4.5-11.8
			c0.8-4.5,0.6-8.9-0.3-13c2.3-3.4,4-7.3,4.9-11.6c0.9-4.4,1-8.9,0.2-13c2.4-3.3,4.3-7.2,5.3-11.4c1.5-6.1,1.3-12.2-0.4-17.7
			c-4.1,4.1-7.2,9.4-8.7,15.4c-1.1,4.4-1.3,8.9-0.6,13.1c-2.3,3.4-4.1,7.4-5,11.7c-1,4.5-1,8.9-0.1,13.1c-2.2,3.5-3.8,7.5-4.6,11.8
			c-0.8,4.5-0.6,8.9,0.3,13.1c-2.1,3.6-3.5,7.6-4.1,12c-0.6,4.5-0.3,9,0.8,13.1c-2,3.7-3.3,7.8-3.7,12.2c-0.5,4.5,0,9,1.2,13.1
			c-1.8,3.7-3,7.9-3.3,12.3c-0.3,4.6,0.3,9,1.7,13c-1.7,3.8-2.7,8-2.9,12.4c-0.2,4.6,0.6,8.9,2.1,13c-1.6,3.9-2.4,8.1-2.4,12.5
			s0.9,8.6,2.4,12.5c-1.5,4-2.3,8.4-2.1,13c0.2,4.4,1.2,8.6,2.9,12.4c-1.4,4.1-2,8.5-1.7,13c0.3,4.4,1.5,8.5,3.3,12.3
			c-1.2,4.1-1.7,8.5-1.2,13.1c0.5,4.4,1.8,8.5,3.7,12.2c-1.1,4.2-1.4,8.6-0.8,13.1c0.6,4.4,2.1,8.4,4.1,12c-1,4.2-1.1,8.6-0.3,13.1
			c0.8,4.3,2.4,8.3,4.6,11.8c-0.8,4.2-0.8,8.7,0.1,13.1c0.9,4.3,2.6,8.2,5,11.7c-0.7,4.2-0.5,8.7,0.6,13.1c1,4.2,2.9,8,5.2,11.3
			c-0.7,4.4-0.5,8.9,0.8,13.4c1.7,6,5.1,11.1,9.6,15c1.7-5.7,1.9-11.8,0.2-17.8C382.8,659.9,380.7,656.1,378,652.8z"/>
		<path style="clip-path:url(#SVGID_00000181063085092840010360000004651002402986040458_);fill:#3C1E17;" d="M354.3,648.7
			c-0.1-4.4-1-8.8-2.9-13.1c-1.8-4.1-4.4-7.6-7.4-10.5c0.1-4.3-0.7-8.7-2.4-13c-1.7-4.1-4-7.7-6.9-10.7c0.3-4.3-0.2-8.8-1.7-13.2
			c-1.4-4.1-3.6-7.8-6.3-10.9c0.6-4.3,0.4-8.8-0.8-13.3c-1.1-4.2-3.1-8-5.5-11.4c0.9-4.3,1-8.8,0.1-13.4c-0.8-4.3-2.5-8.2-4.7-11.7
			c1.2-4.2,1.6-8.7,1.1-13.3c-0.5-4.4-1.9-8.4-3.9-12c1.5-4.1,2.2-8.6,2-13.2c-0.2-4.4-1.3-8.6-3.1-12.4c1.7-4,2.7-8.4,2.7-13
			c0-4.6-0.9-9-2.6-13c1.8-3.8,2.9-7.9,3.1-12.4c0.2-4.6-0.5-9.1-2-13.2c2-3.6,3.4-7.7,3.9-12c0.6-4.6,0.2-9.1-1.1-13.3
			c2.2-3.5,3.9-7.4,4.7-11.7c0.9-4.6,0.8-9.1-0.1-13.4c2.5-3.3,4.4-7.1,5.5-11.4c1.2-4.5,1.4-9,0.8-13.3c2.7-3.1,4.9-6.8,6.3-10.9
			c1.5-4.4,2-8.8,1.7-13.2c2.9-3,5.3-6.6,6.9-10.7c1.7-4.3,2.5-8.7,2.4-13c3-2.9,5.6-6.4,7.4-10.5c2.5-5.7,3.3-11.8,2.6-17.5
			c-4.8,3.3-8.7,8-11.3,13.7c-1.9,4.2-2.8,8.7-2.9,13c-3,3-5.4,6.6-7.1,10.8c-1.8,4.3-2.5,8.8-2.4,13.2c-2.8,3.2-5,6.9-6.4,11.1
			c-1.5,4.5-2.1,9-1.7,13.5c-2.5,3.3-4.4,7.2-5.6,11.4c-1.2,4.6-1.4,9.2-0.8,13.6c-2.3,3.5-3.9,7.5-4.8,11.8
			c-0.9,4.6-0.8,9.2,0.2,13.6c-2,3.6-3.4,7.7-3.9,12.1c-0.6,4.7-0.1,9.3,1.1,13.5c-1.8,3.8-2.9,7.9-3.1,12.4
			c-0.2,4.7,0.5,9.2,2,13.3c-1.6,3.9-2.5,8.1-2.5,12.6c0,4.5,0.9,8.7,2.5,12.6c-1.5,4.1-2.3,8.6-2,13.3c0.2,4.4,1.3,8.6,3.1,12.4
			c-1.3,4.3-1.7,8.8-1.1,13.5c0.5,4.4,1.9,8.5,3.9,12.1c-1,4.3-1.1,8.9-0.2,13.6c0.8,4.3,2.5,8.3,4.8,11.8c-0.7,4.4-0.5,9,0.8,13.6
			c1.1,4.3,3.1,8.1,5.6,11.4c-0.4,4.4,0.2,9,1.7,13.5c1.4,4.2,3.7,7.9,6.4,11.1c-0.1,4.4,0.7,8.9,2.4,13.2c1.7,4.2,4.1,7.8,7.1,10.8
			c0.1,4.4,1,8.8,2.9,13c1.8,4,4.3,7.5,7.3,10.4c0.3,4.4,1.6,8.9,3.8,13c2.9,5.5,7.2,9.9,12.2,12.9c0.3-5.8-0.9-11.8-3.8-17.3
			C360.2,654.7,357.5,651.4,354.3,648.7z"/>
		<path style="clip-path:url(#SVGID_00000181063085092840010360000004651002402986040458_);fill:#3C1E17;" d="M402,274.1
			c-3,5-4.7,10.8-4.7,17.1c0,4.5,0.9,8.7,2.5,12.6c-1.6,3.9-2.5,8.2-2.5,12.6c0,4.5,0.9,8.7,2.5,12.6c-1.6,3.9-2.5,8.1-2.5,12.6
			c0,4.5,0.9,8.7,2.5,12.6c-1.6,3.9-2.5,8.2-2.5,12.6c0,4.5,0.9,8.8,2.5,12.7c-1.6,3.9-2.5,8.2-2.5,12.7c0,4.5,0.9,8.7,2.5,12.6
			c-1.6,3.9-2.5,8.2-2.5,12.6c0,4.5,0.9,8.7,2.5,12.6c-1.6,3.9-2.5,8.1-2.5,12.6c0,4.5,0.9,8.7,2.5,12.6c-1.6,3.9-2.5,8.2-2.5,12.6
			c0,4.5,0.9,8.7,2.5,12.6c-1.6,3.9-2.5,8.2-2.5,12.6c0,4.5,0.9,8.7,2.5,12.6c-1.6,3.9-2.5,8.2-2.5,12.6c0,4.5,0.9,8.7,2.5,12.6
			c-1.6,3.9-2.5,8.1-2.5,12.6c0,4.5,0.9,8.7,2.5,12.6c-1.6,3.9-2.5,8.2-2.5,12.6c0,4.5,0.9,8.8,2.5,12.7c-1.6,3.9-2.5,8.2-2.5,12.7
			c0,4.5,0.9,8.7,2.5,12.6c-1.6,3.9-2.5,8.2-2.5,12.6c0,4.5,0.9,8.7,2.5,12.6c-1.6,3.9-2.5,8.1-2.5,12.6c0,4.5,0.9,8.7,2.5,12.6
			c-1.6,3.9-2.5,8.2-2.5,12.6c0,6.3,1.7,12.1,4.7,17.1c3-5,4.7-10.8,4.7-17.1c0-4.5-0.9-8.7-2.5-12.6c1.6-3.9,2.5-8.2,2.5-12.6
			c0-4.5-0.9-8.7-2.5-12.6c1.6-3.9,2.5-8.1,2.5-12.6c0-4.5-0.9-8.7-2.5-12.6c1.6-3.9,2.5-8.2,2.5-12.6c0-4.5-0.9-8.8-2.5-12.7
			c1.6-3.9,2.5-8.2,2.5-12.7c0-4.5-0.9-8.7-2.5-12.6c1.6-3.9,2.5-8.2,2.5-12.6c0-4.5-0.9-8.7-2.5-12.6c1.6-3.9,2.5-8.1,2.5-12.6
			c0-4.5-0.9-8.7-2.5-12.6c1.6-3.9,2.5-8.2,2.5-12.6c0-4.5-0.9-8.7-2.5-12.6c1.6-3.9,2.5-8.2,2.5-12.6c0-4.5-0.9-8.7-2.5-12.6
			c1.6-3.9,2.5-8.2,2.5-12.6c0-4.5-0.9-8.7-2.5-12.6c1.6-3.9,2.5-8.1,2.5-12.6c0-4.5-0.9-8.7-2.5-12.6c1.6-3.9,2.5-8.2,2.5-12.6
			c0-4.5-0.9-8.8-2.5-12.7c1.6-3.9,2.5-8.2,2.5-12.7c0-4.5-0.9-8.7-2.5-12.6c1.6-3.9,2.5-8.2,2.5-12.6c0-4.5-0.9-8.7-2.5-12.6
			c1.6-3.9,2.5-8.1,2.5-12.6c0-4.5-0.9-8.7-2.5-12.6c1.6-3.9,2.5-8.2,2.5-12.6C406.7,285,405,279.1,402,274.1z"/>
		<path style="clip-path:url(#SVGID_00000181063085092840010360000004651002402986040458_);fill:#3C1E17;" d="M441.3,617.5
			c0.9-4.5,0.9-8.9,0.1-13.1c2.2-3.5,3.8-7.5,4.6-11.8c0.8-4.5,0.6-8.9-0.3-13.1c2.1-3.6,3.5-7.6,4.1-12c0.6-4.5,0.3-9-0.8-13.1
			c2-3.7,3.3-7.8,3.7-12.2c0.5-4.5,0-9-1.2-13.1c1.8-3.7,3-7.9,3.3-12.3c0.3-4.6-0.3-9-1.7-13c1.7-3.8,2.7-8,2.9-12.4
			c0.2-4.6-0.6-8.9-2.1-13c1.6-3.9,2.4-8.1,2.4-12.5c0-4.4-0.9-8.6-2.4-12.5c1.5-4,2.3-8.4,2.1-13c-0.2-4.4-1.2-8.6-2.9-12.4
			c1.4-4.1,2-8.5,1.7-13c-0.3-4.4-1.5-8.5-3.3-12.3c1.2-4.1,1.7-8.5,1.2-13.1c-0.5-4.4-1.8-8.5-3.7-12.2c1.1-4.2,1.4-8.6,0.8-13.1
			c-0.6-4.4-2.1-8.4-4.1-12c1-4.2,1.1-8.6,0.3-13.1c-0.8-4.3-2.4-8.3-4.6-11.8c0.8-4.2,0.8-8.7-0.1-13.1c-0.9-4.3-2.6-8.2-5-11.7
			c0.7-4.3,0.5-8.7-0.6-13.1c-1.5-6.1-4.6-11.3-8.7-15.4c-1.7,5.6-2,11.7-0.4,17.7c1.1,4.3,2.9,8.1,5.3,11.4
			c-0.8,4.2-0.8,8.6,0.2,13c0.9,4.3,2.6,8.2,4.9,11.6c-0.9,4.2-1.1,8.6-0.3,13c0.8,4.3,2.3,8.3,4.5,11.8c-1.1,4.1-1.4,8.5-0.7,13
			c0.6,4.3,2.1,8.4,4.1,11.9c-1.2,4.1-1.7,8.5-1.2,13c0.5,4.4,1.7,8.4,3.7,12.1c-1.4,4-2,8.4-1.6,12.9c0.3,4.4,1.5,8.5,3.3,12.2
			c-1.5,4-2.3,8.3-2.1,12.9c0.2,4.4,1.2,8.5,2.8,12.3c-1.6,3.9-2.5,8.2-2.5,12.8c0,4.5,0.9,8.8,2.6,12.8c-1.7,3.8-2.7,7.9-2.8,12.3
			c-0.2,4.5,0.6,8.9,2.1,12.9c-1.8,3.7-3,7.8-3.3,12.2c-0.3,4.5,0.3,8.9,1.7,12.9c-1.9,3.7-3.2,7.7-3.7,12.1c-0.5,4.5,0,8.9,1.2,13
			c-2.1,3.6-3.5,7.6-4.1,11.9c-0.6,4.5-0.3,8.9,0.8,13c-2.2,3.5-3.8,7.5-4.5,11.8c-0.8,4.5-0.6,8.9,0.3,13c-2.3,3.4-4,7.3-4.9,11.6
			c-0.9,4.4-0.9,8.9-0.2,13c-2.4,3.3-4.3,7.2-5.3,11.4c-1.1,4.3-1.2,8.6-0.6,12.8c-2.7,3.3-4.8,7.1-6,11.4c-1.7,6-1.5,12.1,0.2,17.8
			c4.5-3.9,7.9-9,9.6-15c1.3-4.5,1.5-9,0.8-13.4c2.4-3.3,4.2-7.1,5.2-11.3c1.1-4.4,1.3-8.9,0.6-13.1
			C438.7,625.7,440.4,621.8,441.3,617.5z"/>
		<path style="clip-path:url(#SVGID_00000181063085092840010360000004651002402986040458_);fill:#3C1E17;" d="M499,463.7
			c0-4.5-0.9-8.7-2.5-12.6c1.5-4.1,2.3-8.6,2-13.3c-0.2-4.4-1.3-8.6-3.1-12.4c1.3-4.3,1.7-8.8,1.1-13.5c-0.5-4.4-1.9-8.5-3.9-12.1
			c1-4.3,1.1-8.9,0.2-13.6c-0.8-4.3-2.5-8.3-4.8-11.8c0.7-4.4,0.5-9-0.8-13.6c-1.1-4.3-3.1-8.1-5.6-11.4c0.4-4.4-0.2-9-1.7-13.5
			c-1.4-4.2-3.7-7.9-6.4-11.1c0.1-4.4-0.7-8.9-2.4-13.2c-1.7-4.2-4.1-7.8-7.1-10.8c-0.1-4.4-1-8.8-2.9-13
			c-2.5-5.7-6.5-10.4-11.3-13.7c-0.7,5.8,0.1,11.8,2.6,17.5c1.8,4.1,4.4,7.6,7.4,10.5c-0.1,4.3,0.7,8.7,2.4,13
			c1.7,4.1,4,7.7,6.9,10.7c-0.3,4.3,0.2,8.8,1.7,13.2c1.4,4.1,3.6,7.8,6.3,10.9c-0.6,4.3-0.4,8.8,0.8,13.3c1.1,4.2,3.1,8,5.5,11.4
			c-0.9,4.3-1,8.8-0.1,13.4c0.8,4.3,2.5,8.2,4.7,11.7c-1.2,4.2-1.6,8.7-1.1,13.3c0.5,4.4,1.9,8.4,3.9,12c-1.5,4.1-2.2,8.6-2,13.2
			c0.2,4.4,1.3,8.6,3.1,12.4c-1.7,4-2.6,8.4-2.6,13c0,4.6,0.9,9,2.7,13c-1.8,3.8-2.9,7.9-3.1,12.4c-0.2,4.6,0.5,9.1,2,13.2
			c-2,3.6-3.4,7.7-3.9,12c-0.6,4.6-0.2,9.1,1.1,13.3c-2.2,3.5-3.9,7.4-4.7,11.7c-0.9,4.6-0.8,9.1,0.1,13.4
			c-2.5,3.3-4.4,7.1-5.5,11.4c-1.2,4.5-1.4,9-0.8,13.3c-2.7,3.1-4.9,6.8-6.3,10.9c-1.5,4.4-2,8.8-1.7,13.2c-2.9,3-5.3,6.6-6.9,10.7
			c-1.7,4.3-2.5,8.7-2.4,13c-3,2.9-5.6,6.4-7.4,10.5c-1.9,4.2-2.8,8.7-2.9,13.1c-3.2,2.7-5.9,5.9-7.9,9.8
			c-2.9,5.5-4.2,11.5-3.8,17.3c5-3,9.3-7.4,12.2-12.9c2.2-4.2,3.5-8.6,3.8-13c3-2.9,5.5-6.4,7.3-10.4c1.9-4.2,2.8-8.7,2.9-13
			c3-3,5.4-6.6,7.1-10.8c1.8-4.3,2.5-8.8,2.4-13.2c2.8-3.2,5-6.9,6.4-11.1c1.5-4.5,2.1-9,1.7-13.5c2.5-3.3,4.4-7.2,5.6-11.4
			c1.2-4.6,1.4-9.2,0.8-13.6c2.3-3.5,3.9-7.5,4.8-11.8c0.9-4.6,0.8-9.2-0.2-13.6c2-3.6,3.4-7.7,3.9-12.1c0.6-4.7,0.1-9.3-1.1-13.5
			c1.8-3.8,2.9-7.9,3.1-12.4c0.2-4.7-0.5-9.2-2-13.3C498.1,472.4,499,468.1,499,463.7z"/>
		<path style="clip-path:url(#SVGID_00000181063085092840010360000004651002402986040458_);fill:#3C1E17;" d="M422,728.3
			c-5.4,4.6-12.4,7.4-20,7.4c-7.7,0-14.7-2.8-20-7.4c5.4-4.6,12.4-7.3,20-7.3C409.6,720.9,416.6,723.7,422,728.3z"/>
		<path style="clip-path:url(#SVGID_00000181063085092840010360000004651002402986040458_);fill:#97633A;" d="M1520.5,568.9
			c0-39.4-12.8-75.9-34.5-105.4l-2.9-4.1c0,0,0,0,0,0l-0.2-0.3l0,0c-1.1-1.4-2.8-2.3-4.7-2.3c-2,0-3.8,1-4.9,2.5
			c-1.6-1.6-3.8-2.5-6.2-2.5c-1.9,0-3.7,0.6-5.1,1.6c-0.8-0.4-1.6-0.8-2.5-1.1c-1.1-0.3-2.3-0.5-3.5-0.5c-2.2,0-4.2,0.6-6,1.6
			c-1.4-1-3.2-1.6-5.1-1.6c-2.4,0-4.6,1-6.2,2.5c-1.1-1.5-2.8-2.5-4.9-2.5c-1.9,0-3.6,0.9-4.7,2.3l0,0l-3.2,4.4
			c-21.7,29.5-34.5,66-34.5,105.4c0,47.4,18.5,90.5,48.7,122.4c0,0,0,0,0,0c0,8.7,7.1,15.8,15.8,15.8s15.8-7.1,15.8-15.8
			c0,0,0,0,0,0C1502,659.3,1520.5,616.3,1520.5,568.9z"/>
		<path style="clip-path:url(#SVGID_00000181063085092840010360000004651002402986040458_);fill:#3C1E17;" d="M1443.7,664.5
			c0.3-2.1,0.2-4.4-0.3-6.6c-0.5-2.2-1.5-4.2-2.7-5.9c0.4-2.2,0.4-4.4-0.1-6.7c-0.5-2.2-1.4-4.2-2.5-6c0.5-2.1,0.6-4.4,0.2-6.7
			c-0.4-2.2-1.2-4.3-2.3-6.1c0.6-2.1,0.7-4.4,0.4-6.7c-0.3-2.2-1.1-4.3-2.1-6.1c0.6-2.1,0.9-4.4,0.6-6.7c-0.2-2.2-0.9-4.3-1.9-6.2
			c0.7-2.1,1-4.3,0.9-6.7c-0.2-2.3-0.7-4.4-1.7-6.3c0.8-2.1,1.2-4.3,1.1-6.6c-0.1-2.3-0.6-4.4-1.5-6.3c0.8-2,1.3-4.2,1.3-6.6
			c0-2.3-0.5-4.6-1.3-6.6c0.9-1.9,1.4-4.1,1.5-6.3c0.1-2.3-0.3-4.6-1.1-6.6c0.9-1.9,1.5-4,1.7-6.3c0.2-2.3-0.1-4.6-0.8-6.7
			c1-1.9,1.7-4,1.9-6.2c0.2-2.3,0-4.6-0.6-6.7c1.1-1.8,1.8-3.9,2.1-6.1c0.3-2.3,0.2-4.6-0.4-6.7c1.1-1.8,1.9-3.8,2.3-6.1
			c0.4-2.3,0.3-4.6-0.2-6.7c1.2-1.8,2.1-3.8,2.5-6c0.5-2.3,0.5-4.6,0.1-6.7c1.2-1.7,2.2-3.7,2.7-5.9c0.8-3.1,0.6-6.3-0.2-9.1
			c-2.1,2.1-3.7,4.8-4.5,7.9c-0.6,2.3-0.6,4.6-0.3,6.8c-1.2,1.8-2.1,3.8-2.6,6c-0.5,2.3-0.5,4.6-0.1,6.8c-1.1,1.8-2,3.9-2.3,6.1
			c-0.4,2.3-0.3,4.6,0.2,6.8c-1.1,1.9-1.8,3.9-2.1,6.2c-0.3,2.3-0.2,4.6,0.4,6.7c-1,1.9-1.7,4-1.9,6.3c-0.2,2.3,0,4.6,0.6,6.7
			c-0.9,1.9-1.5,4.1-1.7,6.3c-0.2,2.3,0.2,4.6,0.9,6.7c-0.9,2-1.4,4.1-1.5,6.4c-0.1,2.3,0.3,4.6,1.1,6.7c-0.8,2-1.2,4.2-1.3,6.4
			s0.4,4.4,1.2,6.4c-0.8,2.1-1.2,4.3-1.1,6.7c0.1,2.3,0.6,4.4,1.5,6.4c-0.7,2.1-1,4.4-0.9,6.7c0.2,2.3,0.8,4.4,1.7,6.3
			c-0.6,2.1-0.9,4.4-0.6,6.7c0.2,2.3,0.9,4.4,1.9,6.3c-0.6,2.1-0.7,4.4-0.4,6.7c0.3,2.2,1.1,4.3,2.1,6.2c-0.5,2.2-0.6,4.4-0.2,6.8
			c0.4,2.2,1.2,4.3,2.3,6.1c-0.4,2.2-0.4,4.5,0.1,6.8c0.5,2.2,1.4,4.2,2.6,6c-0.3,2.2-0.3,4.5,0.3,6.8c0.5,2.2,1.5,4.1,2.7,5.8
			c-0.3,2.3-0.2,4.6,0.4,6.9c0.9,3.1,2.6,5.7,4.9,7.7c0.9-2.9,1-6.1,0.1-9.2C1446.2,668.1,1445.1,666.2,1443.7,664.5z"/>
		<path style="clip-path:url(#SVGID_00000181063085092840010360000004651002402986040458_);fill:#3C1E17;" d="M1431.5,662.4
			c0-2.3-0.5-4.5-1.5-6.7c-0.9-2.1-2.2-3.9-3.8-5.4c0-2.2-0.4-4.5-1.2-6.7c-0.9-2.1-2.1-4-3.6-5.5c0.2-2.2-0.1-4.5-0.9-6.8
			c-0.7-2.1-1.9-4-3.2-5.6c0.3-2.2,0.2-4.6-0.4-6.9c-0.6-2.2-1.6-4.1-2.8-5.8c0.5-2.2,0.5-4.5,0.1-6.9c-0.4-2.2-1.3-4.2-2.4-6
			c0.6-2.2,0.8-4.5,0.6-6.9c-0.3-2.2-1-4.3-2-6.2c0.8-2.1,1.2-4.4,1-6.8c-0.1-2.3-0.7-4.4-1.6-6.4c0.9-2.1,1.4-4.3,1.4-6.7
			c0-2.4-0.5-4.6-1.4-6.7c0.9-1.9,1.5-4.1,1.6-6.4c0.1-2.4-0.2-4.7-1-6.8c1-1.9,1.7-3.9,2-6.2c0.3-2.4,0.1-4.7-0.6-6.9
			c1.2-1.8,2-3.8,2.4-6c0.5-2.3,0.4-4.7-0.1-6.9c1.3-1.7,2.3-3.7,2.8-5.8c0.6-2.3,0.7-4.6,0.4-6.9c1.4-1.6,2.5-3.5,3.2-5.6
			c0.8-2.3,1.1-4.6,0.9-6.8c1.5-1.5,2.7-3.4,3.6-5.5c0.9-2.2,1.3-4.5,1.2-6.7c1.6-1.5,2.9-3.3,3.8-5.4c1.3-2.9,1.7-6.1,1.4-9
			c-2.5,1.7-4.5,4.1-5.8,7.1c-1,2.2-1.4,4.5-1.5,6.7c-1.5,1.6-2.8,3.4-3.6,5.6c-0.9,2.2-1.3,4.5-1.2,6.8c-1.4,1.6-2.6,3.5-3.3,5.7
			c-0.8,2.3-1.1,4.7-0.9,6.9c-1.3,1.7-2.3,3.7-2.9,5.9c-0.6,2.4-0.7,4.7-0.4,7c-1.2,1.8-2,3.8-2.5,6.1c-0.5,2.4-0.4,4.8,0.1,7
			c-1,1.9-1.8,4-2,6.2c-0.3,2.4-0.1,4.8,0.6,7c-0.9,1.9-1.5,4.1-1.6,6.4c-0.1,2.4,0.3,4.7,1,6.8c-0.8,2-1.3,4.2-1.3,6.5
			c0,2.3,0.5,4.5,1.3,6.5c-0.8,2.1-1.2,4.4-1,6.8c0.1,2.3,0.7,4.4,1.6,6.4c-0.7,2.2-0.9,4.5-0.6,7c0.3,2.3,1,4.4,2,6.2
			c-0.5,2.2-0.6,4.6-0.1,7c0.4,2.2,1.3,4.3,2.5,6.1c-0.3,2.3-0.2,4.6,0.4,7c0.6,2.2,1.6,4.2,2.9,5.9c-0.2,2.3,0.1,4.6,0.9,6.9
			c0.7,2.2,1.9,4.1,3.3,5.7c-0.1,2.3,0.3,4.6,1.2,6.8c0.9,2.1,2.1,4,3.6,5.6c0,2.2,0.5,4.5,1.5,6.7c0.9,2.1,2.2,3.9,3.8,5.4
			c0.2,2.3,0.8,4.6,2,6.7c1.5,2.8,3.7,5.1,6.3,6.6c0.2-3-0.5-6.1-2-8.9C1434.6,665.4,1433.1,663.7,1431.5,662.4z"/>
		<path style="clip-path:url(#SVGID_00000181063085092840010360000004651002402986040458_);fill:#3C1E17;" d="M1456.1,469.5
			c-1.5,2.6-2.4,5.6-2.4,8.8c0,2.3,0.5,4.5,1.3,6.5c-0.8,2-1.3,4.2-1.3,6.5c0,2.3,0.5,4.5,1.3,6.5c-0.8,2-1.3,4.2-1.3,6.5
			c0,2.3,0.5,4.5,1.3,6.5c-0.8,2-1.3,4.2-1.3,6.5c0,2.3,0.5,4.5,1.3,6.5c-0.8,2-1.3,4.2-1.3,6.5c0,2.3,0.5,4.5,1.3,6.5
			c-0.8,2-1.3,4.2-1.3,6.5c0,2.3,0.5,4.5,1.3,6.5c-0.8,2-1.3,4.2-1.3,6.5c0,2.3,0.5,4.5,1.3,6.5c-0.8,2-1.3,4.2-1.3,6.5
			c0,2.3,0.5,4.5,1.3,6.5c-0.8,2-1.3,4.2-1.3,6.5c0,2.3,0.5,4.5,1.3,6.5c-0.8,2-1.3,4.2-1.3,6.5c0,2.3,0.5,4.5,1.3,6.5
			c-0.8,2-1.3,4.2-1.3,6.5c0,2.3,0.5,4.5,1.3,6.5c-0.8,2-1.3,4.2-1.3,6.5c0,2.3,0.5,4.5,1.3,6.5c-0.8,2-1.3,4.2-1.3,6.5
			c0,2.3,0.5,4.5,1.3,6.5c-0.8,2-1.3,4.2-1.3,6.5c0,2.3,0.5,4.5,1.3,6.5c-0.8,2-1.3,4.2-1.3,6.5c0,2.3,0.5,4.5,1.3,6.5
			c-0.8,2-1.3,4.2-1.3,6.5c0,3.2,0.9,6.2,2.4,8.8c1.5-2.6,2.4-5.6,2.4-8.8c0-2.3-0.5-4.5-1.3-6.5c0.8-2,1.3-4.2,1.3-6.5
			c0-2.3-0.5-4.5-1.3-6.5c0.8-2,1.3-4.2,1.3-6.5c0-2.3-0.5-4.5-1.3-6.5c0.8-2,1.3-4.2,1.3-6.5c0-2.3-0.5-4.5-1.3-6.5
			c0.8-2,1.3-4.2,1.3-6.5c0-2.3-0.5-4.5-1.3-6.5c0.8-2,1.3-4.2,1.3-6.5c0-2.3-0.5-4.5-1.3-6.5c0.8-2,1.3-4.2,1.3-6.5
			c0-2.3-0.5-4.5-1.3-6.5c0.8-2,1.3-4.2,1.3-6.5c0-2.3-0.5-4.5-1.3-6.5c0.8-2,1.3-4.2,1.3-6.5c0-2.3-0.5-4.5-1.3-6.5
			c0.8-2,1.3-4.2,1.3-6.5c0-2.3-0.5-4.5-1.3-6.5c0.8-2,1.3-4.2,1.3-6.5c0-2.3-0.5-4.5-1.3-6.5c0.8-2,1.3-4.2,1.3-6.5
			c0-2.3-0.5-4.5-1.3-6.5c0.8-2,1.3-4.2,1.3-6.5c0-2.3-0.5-4.5-1.3-6.5c0.8-2,1.3-4.2,1.3-6.5c0-2.3-0.5-4.5-1.3-6.5
			c0.8-2,1.3-4.2,1.3-6.5c0-2.3-0.5-4.5-1.3-6.5c0.8-2,1.3-4.2,1.3-6.5C1458.5,475.1,1457.6,472.1,1456.1,469.5z"/>
		<path style="clip-path:url(#SVGID_00000181063085092840010360000004651002402986040458_);fill:#3C1E17;" d="M1476.3,646.3
			c0.5-2.3,0.5-4.6,0.1-6.8c1.1-1.8,2-3.9,2.3-6.1c0.4-2.3,0.3-4.6-0.2-6.8c1.1-1.9,1.8-3.9,2.1-6.2c0.3-2.3,0.2-4.6-0.4-6.7
			c1-1.9,1.7-4,1.9-6.3c0.2-2.3,0-4.6-0.6-6.7c0.9-1.9,1.5-4.1,1.7-6.3c0.2-2.3-0.2-4.6-0.9-6.7c0.9-2,1.4-4.1,1.5-6.4
			c0.1-2.3-0.3-4.6-1.1-6.7c0.8-2,1.2-4.2,1.2-6.4s-0.4-4.4-1.3-6.4c0.8-2.1,1.2-4.3,1.1-6.7c-0.1-2.3-0.6-4.4-1.5-6.4
			c0.7-2.1,1-4.4,0.9-6.7c-0.2-2.3-0.8-4.4-1.7-6.3c0.6-2.1,0.9-4.4,0.6-6.7c-0.2-2.3-0.9-4.4-1.9-6.3c0.6-2.1,0.7-4.4,0.4-6.7
			c-0.3-2.2-1.1-4.3-2.1-6.2c0.5-2.2,0.6-4.4,0.2-6.8c-0.4-2.2-1.2-4.3-2.3-6.1c0.4-2.2,0.4-4.5-0.1-6.8c-0.5-2.2-1.4-4.2-2.6-6
			c0.3-2.2,0.3-4.5-0.3-6.8c-0.8-3.1-2.4-5.8-4.5-7.9c-0.9,2.9-1,6-0.2,9.1c0.5,2.2,1.5,4.2,2.7,5.9c-0.4,2.2-0.4,4.4,0.1,6.7
			c0.5,2.2,1.4,4.2,2.5,6c-0.5,2.1-0.6,4.4-0.2,6.7c0.4,2.2,1.2,4.3,2.3,6.1c-0.6,2.1-0.7,4.4-0.4,6.7c0.3,2.2,1.1,4.3,2.1,6.1
			c-0.6,2.1-0.9,4.4-0.6,6.7c0.2,2.2,0.9,4.3,1.9,6.2c-0.7,2.1-1,4.3-0.8,6.7c0.2,2.3,0.7,4.4,1.7,6.3c-0.8,2.1-1.2,4.3-1.1,6.6
			c0.1,2.3,0.6,4.4,1.5,6.3c-0.8,2-1.3,4.2-1.3,6.6s0.5,4.6,1.3,6.6c-0.9,1.9-1.4,4.1-1.5,6.3c-0.1,2.3,0.3,4.6,1.1,6.6
			c-0.9,1.9-1.5,4-1.7,6.3c-0.2,2.3,0.2,4.6,0.9,6.7c-1,1.9-1.7,4-1.9,6.2c-0.2,2.3,0,4.6,0.6,6.7c-1.1,1.8-1.8,3.9-2.1,6.1
			c-0.3,2.3-0.2,4.6,0.4,6.7c-1.1,1.8-1.9,3.8-2.3,6.1c-0.4,2.3-0.3,4.6,0.2,6.7c-1.2,1.8-2.1,3.8-2.5,6c-0.5,2.3-0.5,4.6-0.1,6.7
			c-1.2,1.7-2.2,3.7-2.7,5.9c-0.6,2.2-0.6,4.5-0.3,6.6c-1.4,1.7-2.5,3.7-3.1,5.9c-0.9,3.1-0.8,6.3,0.1,9.2c2.3-2,4.1-4.6,4.9-7.7
			c0.7-2.3,0.8-4.6,0.4-6.9c1.2-1.7,2.2-3.7,2.7-5.8c0.6-2.3,0.6-4.6,0.3-6.8C1475,650.5,1475.9,648.5,1476.3,646.3z"/>
		<path style="clip-path:url(#SVGID_00000181063085092840010360000004651002402986040458_);fill:#3C1E17;" d="M1506,567.1
			c0-2.3-0.5-4.5-1.3-6.5c0.8-2.1,1.2-4.4,1-6.8c-0.1-2.3-0.7-4.4-1.6-6.4c0.7-2.2,0.9-4.5,0.6-7c-0.3-2.3-1-4.4-2-6.2
			c0.5-2.2,0.6-4.6,0.1-7c-0.4-2.2-1.3-4.3-2.5-6.1c0.3-2.3,0.2-4.6-0.4-7c-0.6-2.2-1.6-4.2-2.9-5.9c0.2-2.3-0.1-4.6-0.9-6.9
			c-0.7-2.2-1.9-4.1-3.3-5.7c0.1-2.3-0.3-4.6-1.2-6.8c-0.9-2.1-2.1-4-3.6-5.6c0-2.2-0.5-4.5-1.5-6.7c-1.3-2.9-3.3-5.3-5.8-7.1
			c-0.4,3,0,6.1,1.4,9c0.9,2.1,2.2,3.9,3.8,5.4c0,2.2,0.4,4.5,1.2,6.7c0.9,2.1,2.1,4,3.6,5.5c-0.2,2.2,0.1,4.5,0.9,6.8
			c0.7,2.1,1.9,4,3.2,5.6c-0.3,2.2-0.2,4.6,0.4,6.9c0.6,2.2,1.6,4.1,2.8,5.8c-0.5,2.2-0.5,4.5-0.1,6.9c0.4,2.2,1.3,4.2,2.4,6
			c-0.6,2.2-0.8,4.5-0.6,6.9c0.3,2.2,1,4.3,2,6.2c-0.8,2.1-1.2,4.4-1,6.8c0.1,2.3,0.7,4.4,1.6,6.4c-0.9,2.1-1.4,4.3-1.4,6.7
			c0,2.4,0.5,4.6,1.4,6.7c-0.9,1.9-1.5,4.1-1.6,6.4c-0.1,2.4,0.2,4.7,1,6.8c-1,1.9-1.7,3.9-2,6.2c-0.3,2.4-0.1,4.7,0.6,6.9
			c-1.2,1.8-2,3.8-2.4,6c-0.5,2.3-0.4,4.7,0.1,6.9c-1.3,1.7-2.3,3.7-2.8,5.8c-0.6,2.3-0.7,4.6-0.4,6.9c-1.4,1.6-2.5,3.5-3.2,5.6
			c-0.8,2.3-1.1,4.6-0.9,6.8c-1.5,1.5-2.7,3.4-3.6,5.5c-0.9,2.2-1.3,4.5-1.2,6.7c-1.6,1.5-2.9,3.3-3.8,5.4c-1,2.2-1.4,4.5-1.5,6.7
			c-1.6,1.4-3,3.1-4.1,5.1c-1.5,2.8-2.1,5.9-2,8.9c2.6-1.5,4.8-3.8,6.3-6.6c1.1-2.1,1.8-4.4,2-6.7c1.5-1.5,2.8-3.3,3.8-5.4
			c1-2.2,1.4-4.5,1.5-6.7c1.5-1.6,2.8-3.4,3.6-5.6c0.9-2.2,1.3-4.5,1.2-6.8c1.4-1.6,2.6-3.5,3.3-5.7c0.8-2.3,1.1-4.7,0.9-6.9
			c1.3-1.7,2.3-3.7,2.9-5.9c0.6-2.4,0.7-4.7,0.4-7c1.2-1.8,2-3.8,2.5-6.1c0.5-2.4,0.4-4.8-0.1-7c1-1.9,1.8-4,2-6.2
			c0.3-2.4,0.1-4.8-0.6-7c0.9-1.9,1.5-4.1,1.6-6.4c0.1-2.4-0.3-4.7-1-6.8C1505.6,571.6,1506,569.4,1506,567.1z"/>
		<path style="clip-path:url(#SVGID_00000181063085092840010360000004651002402986040458_);fill:#3C1E17;" d="M1466.4,703.3
			c-2.8,2.4-6.4,3.8-10.3,3.8s-7.5-1.4-10.3-3.8c2.8-2.4,6.4-3.8,10.3-3.8S1463.6,701,1466.4,703.3z"/>
		<path style="clip-path:url(#SVGID_00000181063085092840010360000004651002402986040458_);fill:#97633A;" d="M1568.9,199.2
			c0-24-7.8-46.3-21-64.3l-1.8-2.5c0,0,0,0,0,0l-0.1-0.2l0,0c-0.7-0.9-1.7-1.4-2.9-1.4c-1.2,0-2.3,0.6-3,1.6c-1-1-2.3-1.6-3.8-1.6
			c-1.2,0-2.2,0.4-3.1,1c-0.5-0.3-1-0.5-1.5-0.7c-0.7-0.2-1.4-0.3-2.2-0.3c-1.3,0-2.6,0.4-3.6,1c-0.9-0.6-1.9-1-3.1-1
			c-1.5,0-2.8,0.6-3.8,1.6c-0.7-0.9-1.7-1.6-3-1.6c-1.2,0-2.2,0.5-2.8,1.4l0,0l-1.9,2.7c-13.2,18-21,40.2-21,64.3
			c0,28.9,11.3,55.2,29.7,74.7c0,0,0,0,0,0c0,5.3,4.3,9.6,9.6,9.6s9.6-4.3,9.6-9.6c0,0,0,0,0,0
			C1557.6,254.4,1568.9,228.1,1568.9,199.2z"/>
		<path style="clip-path:url(#SVGID_00000181063085092840010360000004651002402986040458_);fill:#3C1E17;" d="M1522.1,257.5
			c0.2-1.3,0.1-2.7-0.2-4c-0.3-1.3-0.9-2.5-1.7-3.6c0.2-1.3,0.2-2.7,0-4.1c-0.3-1.3-0.8-2.6-1.5-3.6c0.3-1.3,0.3-2.7,0.1-4.1
			c-0.2-1.4-0.7-2.6-1.4-3.7c0.3-1.3,0.4-2.7,0.2-4.1c-0.2-1.4-0.6-2.6-1.3-3.7c0.4-1.3,0.5-2.7,0.4-4.1c-0.1-1.4-0.5-2.6-1.2-3.8
			c0.4-1.3,0.6-2.6,0.5-4.1c-0.1-1.4-0.5-2.7-1-3.8c0.5-1.3,0.7-2.6,0.7-4c0-1.4-0.4-2.7-0.9-3.9c0.5-1.2,0.8-2.6,0.8-4
			c0-1.4-0.3-2.8-0.8-4c0.5-1.2,0.8-2.5,0.9-3.9c0.1-1.4-0.2-2.8-0.7-4c0.6-1.2,0.9-2.5,1-3.8c0.1-1.4-0.1-2.8-0.5-4.1
			c0.6-1.1,1-2.4,1.2-3.8c0.1-1.4,0-2.8-0.4-4.1c0.6-1.1,1.1-2.4,1.3-3.7c0.2-1.4,0.1-2.8-0.2-4.1c0.7-1.1,1.2-2.3,1.4-3.7
			c0.2-1.4,0.2-2.8-0.1-4.1c0.7-1.1,1.3-2.3,1.5-3.6c0.3-1.4,0.3-2.8,0.1-4.1c0.8-1.1,1.3-2.3,1.7-3.6c0.5-1.9,0.4-3.8-0.1-5.6
			c-1.3,1.3-2.3,2.9-2.7,4.8c-0.3,1.4-0.4,2.8-0.2,4.1c-0.7,1.1-1.3,2.3-1.6,3.7c-0.3,1.4-0.3,2.8,0,4.1c-0.7,1.1-1.2,2.4-1.4,3.7
			c-0.2,1.4-0.2,2.8,0.1,4.1c-0.7,1.1-1.1,2.4-1.3,3.8c-0.2,1.4-0.1,2.8,0.2,4.1c-0.6,1.2-1,2.4-1.2,3.8c-0.2,1.4,0,2.8,0.4,4.1
			c-0.6,1.2-0.9,2.5-1,3.9c-0.1,1.4,0.1,2.8,0.5,4.1c-0.5,1.2-0.9,2.5-0.9,3.9c-0.1,1.4,0.2,2.8,0.7,4.1c-0.5,1.2-0.8,2.5-0.8,3.9
			c0,1.4,0.3,2.7,0.8,3.9c-0.5,1.3-0.7,2.6-0.7,4.1c0,1.4,0.4,2.7,0.9,3.9c-0.4,1.3-0.6,2.7-0.5,4.1c0.1,1.4,0.5,2.7,1,3.9
			c-0.4,1.3-0.5,2.7-0.4,4.1c0.1,1.4,0.6,2.7,1.2,3.8c-0.3,1.3-0.4,2.7-0.2,4.1c0.2,1.4,0.6,2.6,1.3,3.8c-0.3,1.3-0.3,2.7-0.1,4.1
			c0.2,1.4,0.7,2.6,1.4,3.7c-0.3,1.3-0.3,2.7,0,4.1c0.3,1.4,0.8,2.6,1.6,3.7c-0.2,1.3-0.2,2.7,0.2,4.1c0.3,1.3,0.9,2.5,1.6,3.6
			c-0.2,1.4-0.1,2.8,0.3,4.2c0.5,1.9,1.6,3.5,3,4.7c0.5-1.8,0.6-3.7,0.1-5.6C1523.6,259.8,1522.9,258.5,1522.1,257.5z"/>
		<path style="clip-path:url(#SVGID_00000181063085092840010360000004651002402986040458_);fill:#3C1E17;" d="M1514.6,256.2
			c0-1.4-0.3-2.8-0.9-4.1c-0.6-1.3-1.4-2.4-2.3-3.3c0-1.4-0.2-2.7-0.8-4.1c-0.5-1.3-1.3-2.4-2.2-3.3c0.1-1.4-0.1-2.8-0.5-4.1
			c-0.4-1.3-1.1-2.5-2-3.4c0.2-1.4,0.1-2.8-0.2-4.2c-0.4-1.3-1-2.5-1.7-3.6c0.3-1.3,0.3-2.8,0-4.2c-0.3-1.4-0.8-2.6-1.5-3.7
			c0.4-1.3,0.5-2.7,0.3-4.2c-0.2-1.4-0.6-2.6-1.2-3.8c0.5-1.3,0.7-2.7,0.6-4.1c-0.1-1.4-0.4-2.7-1-3.9c0.5-1.3,0.8-2.6,0.8-4.1
			c0-1.5-0.3-2.8-0.8-4.1c0.6-1.2,0.9-2.5,1-3.9c0.1-1.5-0.2-2.9-0.6-4.1c0.6-1.1,1.1-2.4,1.2-3.8c0.2-1.4,0-2.9-0.3-4.2
			c0.7-1.1,1.2-2.3,1.5-3.7c0.3-1.4,0.2-2.9,0-4.2c0.8-1,1.4-2.2,1.7-3.6c0.4-1.4,0.4-2.8,0.2-4.2c0.8-1,1.5-2.1,2-3.4
			c0.5-1.4,0.6-2.8,0.5-4.1c0.9-0.9,1.7-2.1,2.2-3.3c0.5-1.3,0.8-2.7,0.8-4.1c1-0.9,1.8-2,2.3-3.3c0.8-1.8,1-3.7,0.8-5.5
			c-1.5,1.1-2.7,2.5-3.5,4.3c-0.6,1.3-0.9,2.7-0.9,4.1c-0.9,0.9-1.7,2.1-2.2,3.4c-0.6,1.4-0.8,2.8-0.8,4.2c-0.9,1-1.6,2.2-2,3.5
			c-0.5,1.4-0.6,2.8-0.5,4.2c-0.8,1-1.4,2.2-1.8,3.6c-0.4,1.4-0.4,2.9-0.2,4.3c-0.7,1.1-1.2,2.3-1.5,3.7c-0.3,1.5-0.2,2.9,0.1,4.3
			c-0.6,1.1-1.1,2.4-1.2,3.8c-0.2,1.5,0,2.9,0.4,4.2c-0.6,1.2-0.9,2.5-1,3.9c-0.1,1.5,0.2,2.9,0.6,4.2c-0.5,1.2-0.8,2.6-0.8,3.9
			c0,1.4,0.3,2.7,0.8,4c-0.5,1.3-0.7,2.7-0.6,4.2c0.1,1.4,0.4,2.7,1,3.9c-0.4,1.3-0.5,2.8-0.4,4.2c0.2,1.4,0.6,2.7,1.2,3.8
			c-0.3,1.4-0.3,2.8-0.1,4.3c0.3,1.4,0.8,2.6,1.5,3.7c-0.2,1.4-0.1,2.8,0.2,4.3c0.4,1.3,1,2.5,1.8,3.6c-0.1,1.4,0.1,2.8,0.5,4.2
			c0.5,1.3,1.2,2.5,2,3.5c0,1.4,0.2,2.8,0.8,4.2c0.5,1.3,1.3,2.4,2.2,3.4c0,1.4,0.3,2.8,0.9,4.1c0.6,1.3,1.4,2.4,2.3,3.3
			c0.1,1.4,0.5,2.8,1.2,4.1c0.9,1.7,2.3,3.1,3.8,4c0.1-1.8-0.3-3.7-1.2-5.4C1516.5,258.1,1515.6,257.1,1514.6,256.2z"/>
		<path style="clip-path:url(#SVGID_00000181063085092840010360000004651002402986040458_);fill:#3C1E17;" d="M1529.6,138.6
			c-0.9,1.6-1.5,3.4-1.5,5.4c0,1.4,0.3,2.7,0.8,4c-0.5,1.2-0.8,2.6-0.8,4c0,1.4,0.3,2.7,0.8,3.9c-0.5,1.2-0.8,2.5-0.8,3.9
			c0,1.4,0.3,2.7,0.8,4c-0.5,1.2-0.8,2.6-0.8,4c0,1.4,0.3,2.8,0.8,4c-0.5,1.2-0.8,2.6-0.8,4c0,1.4,0.3,2.7,0.8,4
			c-0.5,1.2-0.8,2.6-0.8,4c0,1.4,0.3,2.7,0.8,3.9c-0.5,1.2-0.8,2.5-0.8,3.9c0,1.4,0.3,2.7,0.8,4c-0.5,1.2-0.8,2.6-0.8,4
			c0,1.4,0.3,2.7,0.8,4c-0.5,1.2-0.8,2.6-0.8,4c0,1.4,0.3,2.7,0.8,4c-0.5,1.2-0.8,2.6-0.8,4c0,1.4,0.3,2.7,0.8,3.9
			c-0.5,1.2-0.8,2.5-0.8,3.9c0,1.4,0.3,2.7,0.8,4c-0.5,1.2-0.8,2.6-0.8,4c0,1.4,0.3,2.8,0.8,4c-0.5,1.2-0.8,2.6-0.8,4
			c0,1.4,0.3,2.7,0.8,4c-0.5,1.2-0.8,2.6-0.8,4c0,1.4,0.3,2.7,0.8,3.9c-0.5,1.2-0.8,2.5-0.8,3.9c0,1.4,0.3,2.7,0.8,4
			c-0.5,1.2-0.8,2.6-0.8,4c0,2,0.5,3.8,1.5,5.4c0.9-1.6,1.5-3.4,1.5-5.4c0-1.4-0.3-2.7-0.8-4c0.5-1.2,0.8-2.6,0.8-4
			c0-1.4-0.3-2.7-0.8-3.9c0.5-1.2,0.8-2.5,0.8-3.9c0-1.4-0.3-2.7-0.8-4c0.5-1.2,0.8-2.6,0.8-4c0-1.4-0.3-2.8-0.8-4
			c0.5-1.2,0.8-2.6,0.8-4c0-1.4-0.3-2.7-0.8-4c0.5-1.2,0.8-2.6,0.8-4c0-1.4-0.3-2.7-0.8-3.9c0.5-1.2,0.8-2.5,0.8-3.9
			c0-1.4-0.3-2.7-0.8-4c0.5-1.2,0.8-2.6,0.8-4c0-1.4-0.3-2.7-0.8-4c0.5-1.2,0.8-2.6,0.8-4c0-1.4-0.3-2.7-0.8-4
			c0.5-1.2,0.8-2.6,0.8-4c0-1.4-0.3-2.7-0.8-3.9c0.5-1.2,0.8-2.5,0.8-3.9c0-1.4-0.3-2.7-0.8-4c0.5-1.2,0.8-2.6,0.8-4
			c0-1.4-0.3-2.8-0.8-4c0.5-1.2,0.8-2.6,0.8-4c0-1.4-0.3-2.7-0.8-4c0.5-1.2,0.8-2.6,0.8-4c0-1.4-0.3-2.7-0.8-3.9
			c0.5-1.2,0.8-2.5,0.8-3.9c0-1.4-0.3-2.7-0.8-4c0.5-1.2,0.8-2.6,0.8-4C1531.1,142.1,1530.5,140.2,1529.6,138.6z"/>
		<path style="clip-path:url(#SVGID_00000181063085092840010360000004651002402986040458_);fill:#3C1E17;" d="M1542,246.4
			c0.3-1.4,0.3-2.8,0-4.1c0.7-1.1,1.2-2.4,1.4-3.7c0.2-1.4,0.2-2.8-0.1-4.1c0.7-1.1,1.1-2.4,1.3-3.8c0.2-1.4,0.1-2.8-0.2-4.1
			c0.6-1.2,1-2.4,1.2-3.8c0.1-1.4,0-2.8-0.4-4.1c0.6-1.2,0.9-2.5,1-3.9c0.1-1.4-0.1-2.8-0.5-4.1c0.5-1.2,0.8-2.5,0.9-3.9
			c0-1.4-0.2-2.8-0.7-4.1c0.5-1.2,0.8-2.5,0.8-3.9c0-1.4-0.3-2.7-0.8-3.9c0.5-1.3,0.7-2.6,0.7-4.1c0-1.4-0.4-2.7-0.9-3.9
			c0.4-1.3,0.6-2.7,0.5-4.1c-0.1-1.4-0.5-2.7-1-3.9c0.4-1.3,0.5-2.7,0.4-4.1c-0.1-1.4-0.6-2.7-1.2-3.8c0.3-1.3,0.4-2.7,0.2-4.1
			c-0.2-1.4-0.6-2.6-1.3-3.8c0.3-1.3,0.3-2.7,0.1-4.1c-0.2-1.4-0.7-2.6-1.4-3.7c0.3-1.3,0.3-2.7,0-4.1c-0.3-1.4-0.8-2.6-1.6-3.7
			c0.2-1.3,0.2-2.7-0.2-4.1c-0.5-1.9-1.4-3.6-2.7-4.8c-0.5,1.7-0.6,3.7-0.1,5.6c0.3,1.3,0.9,2.5,1.7,3.6c-0.2,1.3-0.2,2.7,0.1,4.1
			c0.3,1.3,0.8,2.6,1.5,3.6c-0.3,1.3-0.3,2.7-0.1,4.1c0.2,1.4,0.7,2.6,1.4,3.7c-0.3,1.3-0.4,2.7-0.2,4.1c0.2,1.4,0.6,2.6,1.3,3.7
			c-0.4,1.3-0.5,2.7-0.4,4.1c0.1,1.4,0.5,2.6,1.2,3.8c-0.4,1.3-0.6,2.6-0.5,4.1c0.1,1.4,0.5,2.7,1,3.8c-0.5,1.3-0.7,2.6-0.7,4
			c0,1.4,0.4,2.7,0.9,3.9c-0.5,1.2-0.8,2.6-0.8,4s0.3,2.8,0.8,4c-0.5,1.2-0.8,2.5-0.9,3.9c0,1.4,0.2,2.8,0.7,4
			c-0.6,1.2-0.9,2.5-1,3.8c-0.1,1.4,0.1,2.8,0.5,4.1c-0.6,1.1-1,2.4-1.2,3.8c-0.1,1.4,0,2.8,0.4,4.1c-0.6,1.1-1.1,2.4-1.3,3.7
			c-0.2,1.4-0.1,2.8,0.2,4.1c-0.7,1.1-1.2,2.3-1.4,3.7c-0.2,1.4-0.2,2.8,0.1,4.1c-0.7,1.1-1.3,2.3-1.5,3.6c-0.3,1.4-0.3,2.8,0,4.1
			c-0.8,1.1-1.3,2.3-1.7,3.6c-0.3,1.4-0.4,2.7-0.2,4c-0.9,1-1.5,2.2-1.9,3.6c-0.5,1.9-0.5,3.8,0.1,5.6c1.4-1.2,2.5-2.8,3-4.7
			c0.4-1.4,0.5-2.8,0.3-4.2c0.7-1,1.3-2.2,1.6-3.6c0.3-1.4,0.4-2.8,0.2-4.1C1541.1,249,1541.7,247.8,1542,246.4z"/>
		<path style="clip-path:url(#SVGID_00000181063085092840010360000004651002402986040458_);fill:#3C1E17;" d="M1560.1,198.1
			c0-1.4-0.3-2.7-0.8-3.9c0.5-1.3,0.7-2.7,0.6-4.2c-0.1-1.4-0.4-2.7-1-3.9c0.4-1.3,0.5-2.8,0.4-4.2c-0.2-1.4-0.6-2.7-1.2-3.8
			c0.3-1.4,0.3-2.8,0.1-4.3c-0.3-1.4-0.8-2.6-1.5-3.7c0.2-1.4,0.1-2.8-0.2-4.3c-0.4-1.3-1-2.5-1.8-3.6c0.1-1.4-0.1-2.8-0.5-4.2
			c-0.5-1.3-1.2-2.5-2-3.5c0-1.4-0.2-2.8-0.8-4.2c-0.5-1.3-1.3-2.4-2.2-3.4c0-1.4-0.3-2.8-0.9-4.1c-0.8-1.8-2-3.2-3.5-4.3
			c-0.2,1.8,0,3.7,0.8,5.5c0.6,1.3,1.4,2.4,2.3,3.3c0,1.4,0.2,2.7,0.8,4.1c0.5,1.3,1.3,2.4,2.2,3.3c-0.1,1.4,0.1,2.8,0.5,4.1
			c0.4,1.3,1.1,2.5,2,3.4c-0.2,1.4-0.1,2.8,0.2,4.2c0.4,1.3,1,2.5,1.7,3.6c-0.3,1.3-0.3,2.8,0,4.2c0.3,1.4,0.8,2.6,1.5,3.7
			c-0.4,1.3-0.5,2.7-0.3,4.2c0.2,1.4,0.6,2.6,1.2,3.8c-0.5,1.3-0.7,2.7-0.6,4.1c0.1,1.4,0.4,2.7,1,3.9c-0.5,1.3-0.8,2.6-0.8,4.1
			c0,1.5,0.3,2.8,0.8,4.1c-0.6,1.2-0.9,2.5-1,3.9c-0.1,1.5,0.2,2.9,0.6,4.1c-0.6,1.1-1.1,2.4-1.2,3.8c-0.2,1.4,0,2.9,0.3,4.2
			c-0.7,1.1-1.2,2.3-1.5,3.7c-0.3,1.4-0.2,2.9,0,4.2c-0.8,1-1.4,2.2-1.7,3.6c-0.4,1.4-0.4,2.8-0.2,4.2c-0.8,1-1.5,2.1-2,3.4
			c-0.5,1.4-0.6,2.8-0.5,4.1c-0.9,0.9-1.7,2.1-2.2,3.3c-0.5,1.3-0.8,2.7-0.8,4.1c-1,0.9-1.8,2-2.3,3.3c-0.6,1.3-0.9,2.7-0.9,4.1
			c-1,0.8-1.8,1.9-2.5,3.1c-0.9,1.7-1.3,3.6-1.2,5.4c1.6-0.9,2.9-2.3,3.8-4c0.7-1.3,1.1-2.7,1.2-4.1c0.9-0.9,1.7-2,2.3-3.3
			c0.6-1.3,0.9-2.7,0.9-4.1c0.9-0.9,1.7-2.1,2.2-3.4c0.6-1.4,0.8-2.8,0.8-4.2c0.9-1,1.6-2.2,2-3.5c0.5-1.4,0.6-2.8,0.5-4.2
			c0.8-1,1.4-2.2,1.8-3.6c0.4-1.4,0.4-2.9,0.2-4.3c0.7-1.1,1.2-2.3,1.5-3.7c0.3-1.5,0.2-2.9-0.1-4.3c0.6-1.1,1.1-2.4,1.2-3.8
			c0.2-1.5,0-2.9-0.4-4.2c0.6-1.2,0.9-2.5,1-3.9c0.1-1.5-0.2-2.9-0.6-4.2C1559.8,200.9,1560.1,199.5,1560.1,198.1z"/>
		<path style="clip-path:url(#SVGID_00000181063085092840010360000004651002402986040458_);fill:#3C1E17;" d="M1535.9,281.2
			c-1.7,1.5-3.9,2.3-6.3,2.3s-4.6-0.9-6.3-2.3c1.7-1.4,3.9-2.3,6.3-2.3S1534.2,279.8,1535.9,281.2z"/>
	</g>
</g>
</svg>
