<?xml version="1.0" encoding="utf-8"?>
<!-- Generator: Adobe Illustrator 25.4.1, SVG Export Plug-In . SVG Version: 6.00 Build 0)  -->
<svg version="1.1" id="Layer_1" xmlns="http://www.w3.org/2000/svg" xmlns:xlink="http://www.w3.org/1999/xlink" x="0px" y="0px"
	 viewBox="0 0 15 15" style="enable-background:new 0 0 15 15;" xml:space="preserve">
<style type="text/css">
	.st0{fill:#EEE7DA;}
</style>
<path class="st0" d="M12.9,2.6c-0.1-0.2-0.3-0.4-0.5-0.5C12.3,2,12.1,2,12,2H3C2.7,2,2.5,2.1,2.3,2.3C2.1,2.5,2,2.7,2,3
	c0,0.3,0.1,0.5,0.3,0.7C2.5,3.9,2.7,4,3,4h6.6l-7.3,7.3c-0.1,0.1-0.2,0.2-0.2,0.3C2,11.7,2,11.9,2,12c0,0.1,0,0.3,0.1,0.4
	c0.1,0.1,0.1,0.2,0.2,0.3c0.1,0.1,0.2,0.2,0.3,0.2C2.7,13,2.9,13,3,13c0.1,0,0.3,0,0.4-0.1c0.1-0.1,0.2-0.1,0.3-0.2L11,5.4V12
	c0,0.3,0.1,0.5,0.3,0.7c0.2,0.2,0.4,0.3,0.7,0.3c0.3,0,0.5-0.1,0.7-0.3c0.2-0.2,0.3-0.4,0.3-0.7V3C13,2.9,13,2.7,12.9,2.6z"/>
</svg>
