<?xml version="1.0" encoding="utf-8"?>
<!-- Generator: Adobe Illustrator 25.4.1, SVG Export Plug-In . SVG Version: 6.00 Build 0)  -->
<svg version="1.1" xmlns="http://www.w3.org/2000/svg" xmlns:xlink="http://www.w3.org/1999/xlink" x="0px" y="0px"
	 viewBox="0 0 1080 1080" style="enable-background:new 0 0 1080 1080;" xml:space="preserve">
<style type="text/css">
	.st0{fill:#F9CC10;}
	.st1{fill:#006300;}
	.st2{fill:#004F00;}
	.st3{fill:#008700;}
	.st4{fill:#F9AE10;}
	.st5{fill:#8E003A;}
	.st6{fill:#FF9F9F;}
	.st7{fill:#FFCE00;}
	.st8{fill:#FF8500;}
	.st9{fill:#154C24;}
	.st10{fill:#42AC55;}
	.st11{fill:#6C6436;}
	.st12{fill:#074900;}
	.st13{fill:#052D0E;}
	.st14{fill:#ED7099;}
	.st15{fill:#C11654;}
	.st16{fill:#CE386E;}
	.st17{fill:#E85B9C;}
	.st18{fill:#95623F;}
	.st19{fill:#3E231E;}
	.st20{fill:#E74C24;}
</style>
<g id="Layer_1">
	<g>
		<circle class="st5" cx="540" cy="540" r="540"/>
		<circle class="st6" cx="540" cy="540" r="492"/>
		<path class="st7" d="M1005.1,540c0-33.7-14.6-64-37.8-85c13.4-28.2,15.3-61.8,2.4-93c-12.9-31.2-38-53.6-67.4-64.1
			c1.6-31.2-9.5-63-33.4-86.8c-23.8-23.8-55.6-35-86.8-33.4c-10.5-29.5-32.9-54.5-64.1-67.4c-31.2-12.9-64.8-11-93,2.4
			c-21-23.2-51.3-37.8-85-37.8c-33.7,0-64,14.6-85,37.8c-28.2-13.4-61.8-15.3-93-2.4c-31.2,12.9-53.6,38-64.1,67.4
			c-31.2-1.6-63,9.5-86.8,33.4c-23.8,23.8-35,55.6-33.4,86.8c-29.5,10.5-54.5,32.9-67.4,64.1c-12.9,31.2-11,64.8,2.4,93
			c-23.2,21-37.8,51.3-37.8,85s14.6,64,37.8,85c-13.4,28.2-15.3,61.8-2.4,93c12.9,31.2,38,53.6,67.4,64.1
			c-1.6,31.2,9.5,63,33.4,86.8s55.6,35,86.8,33.4c10.5,29.5,32.9,54.5,64.1,67.4c31.2,12.9,64.8,11,93-2.4
			c21,23.2,51.3,37.8,85,37.8c33.7,0,64-14.6,85-37.8c28.2,13.4,61.8,15.3,93,2.4c31.2-12.9,53.6-38,64.1-67.4
			c31.2,1.6,63-9.5,86.8-33.4c23.8-23.8,35-55.6,33.4-86.8c29.5-10.5,54.5-32.9,67.4-64.1c12.9-31.2,11-64.8-2.4-93
			C990.5,604,1005.1,573.7,1005.1,540z"/>
		<g>
			<g>
				<ellipse class="st8" cx="624.4" cy="889.7" rx="89.6" ry="52.9"/>
				<path class="st8" d="M264.7,592.5c20.7-20.7,9.1-65.8-25.9-100.7c-3.6-3.6-7.2-6.9-11-9.9c3.3,0.2,6.7,0.3,10.1,0.3
					c49.5,0,89.6-23.7,89.6-52.9s-40.1-52.9-89.6-52.9s-89.6,23.7-89.6,52.9c0,9.7,4.4,18.8,12.2,26.6c-8.9,0.9-16.6,4.2-22.5,10
					c-20.7,20.7-9.1,65.8,25.9,100.8C198.9,601.6,244,613.2,264.7,592.5z"/>
				
					<ellipse transform="matrix(0.7071 -0.7071 0.7071 0.7071 -128.935 289.1725)" class="st8" cx="284.6" cy="300.2" rx="52.9" ry="89.6"/>
				
					<ellipse transform="matrix(0.7071 -0.7071 0.7071 0.7071 -310.3427 787.4154)" class="st8" cx="795.3" cy="768.3" rx="89.6" ry="52.9"/>
				
					<ellipse transform="matrix(0.7071 -0.7071 0.7071 0.7071 -200.1918 484.3038)" class="st8" cx="484.5" cy="483.8" rx="89.6" ry="52.9"/>
				
					<ellipse transform="matrix(0.7071 -0.7071 0.7071 0.7071 -92.7905 544.2654)" class="st8" cx="610.6" cy="384.1" rx="52.9" ry="89.6"/>
				
					<ellipse transform="matrix(0.7071 -0.7071 0.7071 0.7071 -279.056 701.2306)" class="st8" cx="706.9" cy="687.5" rx="89.6" ry="52.9"/>
				<ellipse class="st8" cx="900.1" cy="483.8" rx="52.9" ry="89.6"/>
				<path class="st8" d="M616.4,794.8c20.7-20.7,9.1-65.8-25.9-100.8c-14.5-14.5-30.6-24.9-46.1-30.7c18.2-9.7,29.7-23.7,29.7-39.4
					c0-29.2-40.1-52.9-89.6-52.9c-38.5,0-71.4,14.4-84,34.5c-7.7-0.4-16.2,1.3-24.9,4.9c12.3-16.4,20.2-41.8,20.2-70.4
					c0-49.5-23.7-89.6-52.9-89.6c-29.2,0-52.9,40.1-52.9,89.6s23.7,89.6,52.9,89.6c1,0,2-0.1,3-0.1c-7.7,6.8-15.2,15-21.8,24.3
					c-16.1,22.5-24.5,46.9-24.6,67c-35-35-80.1-46.5-100.7-25.9c-20.7,20.7-9.1,65.8,25.9,100.7c35,35,80.1,46.6,100.7,25.9
					c12.8-12.8,13.2-35.1,3.3-58.5c24.2,4.2,57.5-14.3,81.4-47.6c11.4-15.9,18.9-32.8,22.4-48.4c14.4,6.1,32,9.7,51,9.8
					c-11.3,22.9,1.4,61.4,32.1,92C550.6,803.8,595.7,815.4,616.4,794.8z"/>
				<path class="st8" d="M766.1,342.1C736,376,727,416.9,746.4,436.3c20.7,20.7,65.8,9.1,100.8-25.9c35-35,46.6-80.1,25.9-100.8
					c-12.6-12.6-34.1-13.2-57-3.9c0.2-22.1-12.7-50.1-36.1-73.5c-35-35-80.1-46.6-100.7-25.9c-20.7,20.7-9.1,65.8,25.9,100.8
					C724.3,326.3,746.5,338.5,766.1,342.1z"/>
				<ellipse class="st8" cx="410.2" cy="853.1" rx="52.9" ry="89.6"/>
				<path class="st8" d="M402.5,330.3c-15.7,27.6-17.7,55.5-2.7,70.5c20.7,20.7,65.8,9.1,100.7-25.9c35-35,46.6-80.1,25.9-100.8
					c-14.4-14.4-40.7-13.1-67.1,0.8c2.4-10.3,3.8-21.5,3.8-33.3c0-4.1-0.2-8.2-0.5-12.1c15.7,8,36.1,12.8,58.4,12.8
					c49.5,0,89.6-23.7,89.6-52.9c0-29.2-40.1-52.9-89.6-52.9c-36.1,0-67.2,12.6-81.3,30.8c-8.4-9.6-18.6-15.2-29.5-15.2
					c-29.2,0-52.9,40.1-52.9,89.6C357.3,286.7,376.9,324,402.5,330.3z"/>
				<path class="st8" d="M841.3,557.5c3.2-5.5,5-11.4,5-17.5c0-29.2-40.1-52.9-89.6-52.9c-38.6,0-71.4,14.4-84,34.6
					c-8.3-31.2-26.8-53-48.3-53c-29.2,0-52.9,40.1-52.9,89.6s23.7,89.6,52.9,89.6c28,0,51-36.9,52.8-83.5
					c14.9,17,44.9,28.6,79.6,28.6c7.9,0,15.6-0.6,22.9-1.8c0,22.1,12.9,49.8,36.1,73.1c35,35,80.1,46.6,100.8,25.9
					c20.7-20.7,9.1-65.8-25.9-100.7C875.2,573.9,857.8,563,841.3,557.5z"/>
			</g>
			<ellipse cx="484.5" cy="623.9" rx="36.5" ry="21"/>
		</g>
		<ellipse cx="624.4" cy="889.7" rx="36.5" ry="21"/>
		<ellipse cx="624.4" cy="558.3" rx="21" ry="36.5"/>
		<ellipse transform="matrix(0.7071 -0.7071 0.7071 0.7071 -315.1865 297.3878)" cx="201.4" cy="529.2" rx="21" ry="36.5"/>
		<ellipse transform="matrix(0.7071 -0.7071 0.7071 0.7071 -128.9351 289.1727)" cx="284.6" cy="300.2" rx="21" ry="36.5"/>
		<ellipse cx="342.9" cy="540" rx="21" ry="36.5"/>
		<ellipse transform="matrix(0.5831 -0.8124 0.8124 0.5831 -403.0713 583.6106)" cx="367.1" cy="684.5" rx="36.5" ry="21"/>
		<ellipse transform="matrix(0.7071 -0.7071 0.7071 0.7071 -310.3427 787.4142)" cx="795.3" cy="768.3" rx="36.5" ry="21"/>
		<ellipse transform="matrix(0.7071 -0.7071 0.7071 0.7071 -200.1918 484.3039)" cx="484.5" cy="483.8" rx="36.5" ry="21"/>
		<ellipse transform="matrix(0.7071 -0.7071 0.7071 0.7071 -92.7904 544.2659)" cx="610.6" cy="384.1" rx="21" ry="36.5"/>
		<ellipse transform="matrix(0.7071 -0.7071 0.7071 0.7071 -279.056 701.2314)" cx="706.9" cy="687.5" rx="36.5" ry="21"/>
		<ellipse cx="237.9" cy="429.2" rx="36.5" ry="21"/>
		<ellipse cx="900.1" cy="483.8" rx="21" ry="36.5"/>
		<ellipse cx="756.8" cy="540" rx="36.5" ry="21"/>
		<ellipse transform="matrix(0.7071 -0.7071 0.7071 0.7071 -355.2294 605.2894)" cx="553" cy="731.4" rx="21" ry="36.5"/>
		<ellipse transform="matrix(0.7071 -0.7071 0.7071 0.7071 -459.298 407.3383)" cx="262.1" cy="758.1" rx="21" ry="36.5"/>
		<ellipse transform="matrix(0.7071 -0.7071 0.7071 0.7071 26.7492 604.0126)" cx="742.5" cy="269.7" rx="21" ry="36.5"/>
		<ellipse cx="410.2" cy="853.1" rx="21" ry="36.5"/>
		<ellipse cx="410.2" cy="241.7" rx="21" ry="36.5"/>
		<ellipse transform="matrix(0.7071 -0.7071 0.7071 0.7071 -26.5996 681.7958)" cx="809.7" cy="373" rx="36.5" ry="21"/>
		<ellipse transform="matrix(0.7071 -0.7071 0.7071 0.7071 -193.3154 786.9543)" cx="853.3" cy="626.8" rx="21" ry="36.5"/>
		<ellipse transform="matrix(0.7071 -0.7071 0.7071 0.7071 -103.0053 426.3567)" cx="463.2" cy="337.5" rx="36.5" ry="21"/>
		<ellipse cx="521" cy="189.5" rx="36.5" ry="21"/>
	</g>
</g>
<g id="Isolation_Mode">
</g>
</svg>
