<?xml version="1.0" encoding="utf-8"?>
<!-- Generator: Adobe Illustrator 25.4.1, SVG Export Plug-In . SVG Version: 6.00 Build 0)  -->
<svg version="1.1" xmlns="http://www.w3.org/2000/svg" xmlns:xlink="http://www.w3.org/1999/xlink" x="0px" y="0px"
	 viewBox="0 0 555.7 1078.9" style="enable-background:new 0 0 555.7 1078.9;" xml:space="preserve">
<style type="text/css">
	.st0{fill:#F9CC10;}
	.st1{fill:#006300;}
	.st2{fill:#004F00;}
	.st3{fill:#008700;}
	.st4{fill:#F9AE10;}
	.st5{fill:#8E003A;}
	.st6{fill:#FF9F9F;}
	.st7{fill:#FFCE00;}
	.st8{fill:#FF8500;}
	.st9{fill:#154C24;}
	.st10{fill:#42AC55;}
	.st11{fill:#6C6436;}
	.st12{fill:#074900;}
	.st13{fill:#052D0E;}
	.st14{fill:#ED7099;}
	.st15{fill:#C11654;}
	.st16{fill:#CE386E;}
	.st17{fill:#E85B9C;}
	.st18{fill:#95623F;}
	.st19{fill:#3E231E;}
	.st20{fill:#E74C24;}
</style>
<g id="Layer_1">
	<g>
		<path class="st18" d="M555.7,479.8c-2-169.9-58.9-326.3-153.7-452.5L389.1,9.9c0,0,0-0.1-0.1-0.1l-1-1.3l0,0
			c-4.7-6-12.1-9.8-20.3-9.7c-8.7,0.1-16.3,4.5-20.8,11.2c-7-6.7-16.5-10.8-26.9-10.6c-8.2,0.1-15.7,2.8-21.9,7.2
			c-3.3-1.9-6.9-3.4-10.6-4.5c-4.8-1.4-9.9-2.2-15.2-2.1c-9.4,0.1-18.1,2.7-25.6,7.2c-6.3-4.3-13.9-6.8-22-6.7
			c-10.4,0.1-19.9,4.4-26.7,11.3C193.2,5.3,185.5,1,176.8,1.1c-8.2,0.1-15.4,4.1-20,10.1l0,0l-13.4,19
			C51.4,158.6-1.9,316.3,0.1,486.2c2.4,204.3,84.2,389,215.7,525.2c0,0,0,0.1,0,0.1c0.4,37.6,31.3,67.8,69,67.4
			c37.6-0.4,67.8-31.3,67.4-69c0,0,0-0.1,0-0.1C480.4,870.6,558,684,555.7,479.8z"/>
		<g>
			<path class="st19" d="M186.9,145.2c-2,9.9-1.9,19.8,0,29.1c-4.8,7.9-8.2,16.8-9.8,26.4c-1.6,10-1.2,19.9,1,29.1
				c-4.5,8-7.6,17-8.9,26.7c-1.3,10.1-0.5,19.9,2,29.1c-4.2,8.2-7,17.3-8,27c-0.9,10.1,0.2,19.9,3.1,29c-4,8.3-6.4,17.5-7,27.3
				c-0.6,10.1,0.9,19.9,4.1,28.9c-3.7,8.5-5.8,17.7-6,27.5c-0.2,10.1,1.6,19.8,5.1,28.7c-3.4,8.6-5.2,17.9-5.1,27.7
				c0.1,9.8,2.1,19.1,5.7,27.6c-3.3,8.9-4.9,18.7-4.4,28.8c0.5,9.8,2.8,19,6.7,27.4c-3,9.1-4.2,18.8-3.4,28.9
				c0.8,9.8,3.5,18.9,7.6,27.2c-2.7,9.2-3.6,19-2.4,29c1.1,9.7,4.1,18.8,8.5,26.9c-2.3,9.2-2.9,19.1-1.4,29.1
				c1.5,9.7,4.8,18.6,9.5,26.6c-2,9.3-2.2,19.2-0.4,29.1c1.8,9.6,5.4,18.4,10.4,26.2c-1.7,9.4-1.6,19.2,0.6,29.1
				c2.1,9.6,6.1,18.2,11.3,25.8c-1.4,9.4-0.9,19.3,1.7,29.1c2.4,9.3,6.5,17.7,11.9,25c-1.4,9.7-0.8,19.8,2.2,29.6
				c4,13.3,11.6,24.5,21.7,33.1c3.7-12.7,3.9-26.3,0-39.6c-2.8-9.5-7.6-17.9-13.7-25.1c1.2-9.2,0.7-18.8-1.8-28.4
				c-2.5-9.4-6.6-17.9-12.1-25.3c1.6-9.3,1.5-19.1-0.7-28.9c-2.1-9.5-6-18.2-11.2-25.7c2-9.2,2.2-19,0.3-28.9
				c-1.8-9.6-5.4-18.4-10.3-26.1c2.3-9.2,2.8-18.9,1.3-28.9c-1.5-9.6-4.7-18.5-9.4-26.4c2.6-9.1,3.5-18.8,2.3-28.8
				c-1.1-9.7-4.1-18.7-8.5-26.7c2.9-9,4.2-18.7,3.3-28.7c-0.8-9.7-3.4-18.8-7.5-27c3.2-8.9,4.8-18.5,4.4-28.6
				c-0.4-9.7-2.8-18.9-6.6-27.3c3.5-8.8,5.5-18.3,5.3-28.4c-0.1-10.1-2.2-19.6-6-28.3c3.6-8.4,5.8-17.6,6-27.4
				c0.2-10.1-1.6-19.7-5-28.5c3.9-8.3,6.4-17.4,6.9-27.1c0.6-10-0.9-19.7-4-28.7c4.2-8.1,7-17.2,7.9-26.9c0.9-10-0.2-19.7-3-28.8
				c4.5-8,7.6-16.9,8.8-26.6c1.3-10,0.5-19.7-2-28.8c4.8-7.8,8.1-16.7,9.7-26.3c1.6-9.9,1.2-19.7-1-28.9c5-7.7,8.7-16.4,10.6-26
				c2-9.8,1.9-19.6,0-28.9c5.3-7.5,9.3-16.1,11.5-25.6c3.2-13.5,2.5-27-1.4-39.3c-9,9.2-15.8,21-19,34.5c-2.3,9.9-2.6,19.7-1,29.1
				C192.5,126.9,188.8,135.6,186.9,145.2z"/>
			<path class="st19" d="M176.2,918.8c6.6,12.2,16.2,21.7,27.4,28.3c0.5-12.9-2.3-26.1-9-38.3c-4.7-8.5-10.8-15.8-17.9-21.6
				c-0.2-9.7-2.4-19.5-6.7-28.8c-4.1-9-9.9-16.8-16.7-23.1c0.1-9.6-1.8-19.4-5.7-28.8c-3.8-9.1-9.2-17-15.7-23.5
				c0.6-9.6-0.7-19.5-4.2-29.2c-3.3-9.2-8.2-17.3-14.3-24.1c1.3-9.6,0.7-19.6-2.1-29.5c-2.6-9.4-7-17.8-12.6-25.1
				c1.9-9.5,2-19.5,0-29.6c-2-9.5-5.7-18.3-10.8-25.9c2.6-9.3,3.4-19.3,2-29.5c-1.3-9.7-4.4-18.6-8.9-26.6c3.2-9.1,4.7-19,4.1-29.3
				c-0.6-9.8-3.1-19-7.2-27.4c3.7-8.9,5.7-18.7,5.6-28.9c-0.1-10.3-2.3-20-6.2-28.9c3.8-8.4,6.1-17.7,6.5-27.5
				c0.4-10.3-1.3-20.2-4.8-29.3c4.3-8.1,7.3-17.1,8.3-26.7c1.1-10.2,0.1-20.2-2.7-29.5c4.9-7.8,8.4-16.6,10.2-26.1
				c1.8-10.1,1.5-20.2-0.6-29.6c5.4-7.4,9.6-15.9,12-25.4c2.5-10,2.9-20,1.4-29.6c5.9-7,10.7-15.2,13.7-24.5
				c3.2-9.7,4.3-19.7,3.5-29.3c6.4-6.7,11.6-14.7,15.1-23.9c3.7-9.5,5.3-19.3,5-28.9c6.7-6.5,12.2-14.4,16.1-23.5
				c5.5-12.7,7.1-26.2,5.4-39c-10.5,7.5-19.2,17.9-24.6,30.7c-4.1,9.4-6,19.2-6,28.9c-6.5,6.8-11.8,14.9-15.4,24.2
				c-3.8,9.7-5.4,19.6-5,29.4c-6.1,7.1-10.9,15.4-14,24.8c-3.3,9.9-4.3,20.1-3.4,29.9c-5.5,7.4-9.7,16-12.1,25.6
				c-2.6,10.2-2.9,20.3-1.4,30.1c-5,7.8-8.5,16.7-10.3,26.3c-1.9,10.3-1.5,20.5,0.8,30.1c-4.4,8.1-7.4,17.2-8.4,26.9
				c-1.2,10.4-0.1,20.6,2.9,30c-3.8,8.4-6.1,17.7-6.5,27.5c-0.4,10.4,1.3,20.4,4.8,29.5c-3.4,8.6-5.3,18.1-5.2,27.9
				c0.1,9.9,2.2,19.3,5.8,27.9c-3.3,9.2-4.8,19.2-4.1,29.5c0.6,9.8,3.1,19,7.2,27.4c-2.7,9.5-3.5,19.6-2.2,30
				c1.3,9.7,4.5,18.8,9.1,26.8c-2,9.6-2.2,19.8-0.1,30.1c2,9.6,5.8,18.4,10.9,26.1c-1.4,9.8-0.8,19.9,2,30c2.6,9.5,7,18,12.7,25.3
				c-0.7,9.8,0.6,19.9,4.1,29.8c3.3,9.3,8.3,17.5,14.6,24.5c-0.1,9.8,1.7,19.7,5.7,29.3c3.8,9.2,9.3,17.2,16,23.8
				c0.3,9.7,2.4,19.4,6.7,28.8c4.1,8.9,9.8,16.6,16.5,23C168.3,899.8,171.1,909.6,176.2,918.8z"/>
			<path class="st19" d="M292.9,877c-0.1-9.9-2.2-19.3-5.8-27.9c3.4-8.6,5.3-18,5.2-27.9c-0.1-9.9-2.2-19.4-5.9-28
				c3.4-8.7,5.3-18.1,5.2-28c-0.1-10-2.2-19.5-5.9-28.1c3.5-8.7,5.4-18.2,5.3-28.2c-0.1-9.9-2.2-19.4-5.9-28
				c3.4-8.7,5.3-18.1,5.2-28c-0.1-9.9-2.2-19.3-5.8-27.9c3.4-8.6,5.3-18,5.2-27.9c-0.1-9.9-2.2-19.4-5.9-28c3.4-8.7,5.3-18.1,5.2-28
				c-0.1-9.9-2.2-19.4-5.9-28c3.4-8.7,5.3-18.1,5.2-28c-0.1-9.9-2.2-19.4-5.9-28c3.4-8.7,5.3-18.1,5.2-28
				c-0.1-9.9-2.2-19.3-5.8-27.9c3.4-8.6,5.3-18,5.2-27.9c-0.1-9.9-2.2-19.4-5.9-28c3.4-8.7,5.3-18.1,5.2-28
				c-0.1-10-2.2-19.5-5.9-28.1c3.5-8.7,5.4-18.2,5.3-28.2c-0.1-9.9-2.2-19.4-5.9-28c3.4-8.7,5.3-18.1,5.2-28
				c-0.1-9.9-2.2-19.3-5.8-27.9c3.4-8.6,5.3-18,5.2-27.9c-0.1-9.9-2.2-19.4-5.9-28c3.4-8.7,5.3-18.1,5.2-28
				c-0.2-13.9-4.1-26.8-10.9-37.8c-6.5,11.2-10.2,24.2-10.1,38c0.1,9.9,2.2,19.4,5.9,28c-3.4,8.7-5.3,18.1-5.2,28
				c0.1,9.9,2.2,19.3,5.8,27.9c-3.4,8.6-5.3,18-5.2,27.9c0.1,9.9,2.2,19.4,5.9,28c-3.4,8.7-5.3,18.1-5.2,28
				c0.1,10,2.2,19.5,5.9,28.1c-3.5,8.7-5.4,18.2-5.3,28.2c0.1,9.9,2.2,19.4,5.9,28c-3.4,8.7-5.3,18.1-5.2,28
				c0.1,9.9,2.2,19.3,5.8,27.9c-3.4,8.6-5.3,18-5.2,27.9c0.1,9.9,2.2,19.4,5.9,28c-3.4,8.7-5.3,18.1-5.2,28c0.1,9.9,2.2,19.4,5.9,28
				c-3.4,8.7-5.3,18.1-5.2,28c0.1,9.9,2.2,19.4,5.9,28c-3.4,8.7-5.3,18.1-5.2,28c0.1,9.9,2.2,19.3,5.8,27.9
				c-3.4,8.6-5.3,18-5.2,27.9c0.1,9.9,2.2,19.4,5.9,28c-3.4,8.7-5.3,18.1-5.2,28c0.1,10,2.2,19.5,5.9,28.1
				c-3.5,8.7-5.4,18.2-5.3,28.2c0.1,9.9,2.2,19.4,5.9,28c-3.4,8.7-5.3,18.1-5.2,28c0.1,9.9,2.2,19.3,5.8,27.9
				c-3.4,8.6-5.3,18-5.2,27.9c0.1,9.9,2.2,19.4,5.9,28c-3.4,8.7-5.3,18.1-5.2,28c0.2,13.9,4.1,26.8,10.9,37.8
				c6.5-11.2,10.2-24.2,10.1-38c-0.1-9.9-2.2-19.4-5.9-28C291.1,896.3,293,886.9,292.9,877z"/>
			<path class="st19" d="M357.3,870.9c2.3-9.9,2.6-19.7,1-29.1c5.1-7.7,8.8-16.5,10.7-26.1c2-9.9,1.9-19.8,0-29.1
				c4.8-7.9,8.2-16.8,9.8-26.4c1.6-10,1.2-19.9-1.1-29.1c4.5-8,7.6-17,8.9-26.7c1.3-10.1,0.5-19.9-2.1-29.1c4.2-8.2,7-17.3,7.9-27
				c0.9-10.1-0.2-19.9-3.1-29c3.9-8.3,6.4-17.5,7-27.3c0.6-10.1-0.9-19.9-4.1-28.9c3.7-8.5,5.8-17.7,6-27.5
				c0.2-10.1-1.6-19.8-5.1-28.7c3.4-8.6,5.2-17.9,5.1-27.7c-0.1-9.8-2.1-19.1-5.7-27.6c3.3-8.9,4.9-18.7,4.4-28.8
				c-0.5-9.8-2.8-19-6.7-27.4c3-9.1,4.2-18.8,3.4-28.9c-0.8-9.8-3.5-18.9-7.6-27.1c2.6-9.2,3.6-19,2.4-29
				c-1.1-9.7-4.1-18.8-8.6-26.9c2.3-9.2,2.9-19.1,1.4-29.1c-1.5-9.7-4.8-18.6-9.5-26.5c2-9.3,2.2-19.2,0.4-29.1
				c-1.8-9.6-5.4-18.4-10.4-26.2c1.7-9.4,1.6-19.2-0.7-29.1c-2.1-9.6-6.1-18.2-11.3-25.8c1.3-9.4,0.9-19.3-1.7-29.1
				c-3.5-13.4-10.5-25-19.8-34c-3.6,12.4-4,25.9-0.5,39.3c2.5,9.4,6.7,17.9,12.1,25.3c-1.6,9.3-1.5,19.1,0.7,28.9
				c2.1,9.5,6,18.2,11.2,25.7c-2,9.3-2.2,19-0.3,28.9c1.8,9.6,5.4,18.3,10.3,26.1c-2.3,9.2-2.8,18.9-1.3,28.9
				c1.5,9.6,4.7,18.5,9.4,26.4c-2.6,9.1-3.5,18.8-2.3,28.8c1.1,9.7,4.1,18.7,8.5,26.7c-2.9,9-4.1,18.7-3.3,28.7
				c0.8,9.7,3.4,18.8,7.6,27c-3.2,8.9-4.8,18.5-4.3,28.6c0.5,9.7,2.8,18.9,6.6,27.3c-3.5,8.8-5.4,18.3-5.3,28.4
				c0.1,10.1,2.3,19.6,6,28.3c-3.6,8.4-5.8,17.6-6,27.4c-0.2,10.1,1.6,19.7,5,28.5c-3.9,8.3-6.4,17.4-6.9,27.1
				c-0.6,10,0.9,19.7,4,28.7c-4.2,8.1-7,17.2-7.9,26.9c-0.9,10,0.2,19.7,3,28.8c-4.5,8-7.6,16.9-8.8,26.6c-1.3,10-0.5,19.7,2,28.8
				c-4.8,7.8-8.1,16.7-9.7,26.3c-1.6,9.9-1.2,19.7,1,28.9c-5,7.7-8.7,16.4-10.6,26c-2,9.8-1.9,19.6,0,28.9
				c-5.3,7.5-9.3,16.1-11.5,25.6c-2.3,9.6-2.5,19.2-1.1,28.4c-6,7.3-10.5,15.9-13.1,25.4c-3.7,13.4-3.1,27,0.9,39.6
				c9.8-8.8,17.3-20.2,20.9-33.6c2.7-9.9,3.1-20,1.5-29.7C351.2,888.8,355.1,880.2,357.3,870.9z"/>
			<path class="st19" d="M379.3,53.7c-1.4,12.8,0.5,26.2,6.3,38.8c4.1,9,9.9,16.8,16.7,23.1c-0.1,9.6,1.8,19.4,5.7,28.8
				c3.8,9.1,9.2,17,15.7,23.5c-0.6,9.6,0.7,19.5,4.2,29.2c3.3,9.2,8.2,17.3,14.3,24.1c-1.3,9.6-0.7,19.6,2.1,29.5
				c2.6,9.4,7,17.8,12.6,25.1c-1.9,9.5-2,19.5,0,29.6c2,9.5,5.7,18.3,10.8,25.9c-2.6,9.3-3.4,19.3-2,29.5c1.3,9.7,4.4,18.6,8.9,26.6
				c-3.2,9.1-4.7,19-4.1,29.3c0.6,9.8,3.1,19,7.2,27.3c-3.7,8.9-5.7,18.7-5.5,29c0.1,10.3,2.3,20,6.2,28.8
				c-3.8,8.4-6.2,17.7-6.5,27.5c-0.4,10.3,1.3,20.2,4.8,29.3c-4.3,8.1-7.3,17.1-8.3,26.7c-1.1,10.2-0.1,20.2,2.7,29.5
				c-4.9,7.8-8.4,16.6-10.2,26.1c-1.8,10.1-1.5,20.2,0.6,29.6c-5.4,7.4-9.6,15.9-12,25.4c-2.5,10-2.9,20-1.4,29.6
				c-5.9,7-10.7,15.2-13.7,24.5c-3.2,9.7-4.3,19.7-3.5,29.3c-6.4,6.7-11.6,14.7-15.1,23.9c-3.7,9.5-5.3,19.3-5,28.9
				c-6.7,6.5-12.2,14.4-16.1,23.5c-4.1,9.5-6,19.3-6,29c-7,6-12.9,13.4-17.4,22c-6.4,12.3-8.9,25.6-8.1,38.5
				c11-6.8,20.4-16.6,26.7-28.9c4.8-9.3,7.4-19.2,8.1-29c6.6-6.5,12.1-14.3,16-23.3c4.1-9.4,6-19.2,6-28.9
				c6.5-6.8,11.8-14.9,15.4-24.2c3.8-9.7,5.4-19.6,5-29.4c6.1-7.1,10.9-15.4,14-24.8c3.3-9.9,4.3-20.1,3.4-29.9
				c5.5-7.4,9.7-16,12.1-25.6c2.6-10.2,2.9-20.3,1.4-30.1c5-7.8,8.5-16.7,10.3-26.3c1.9-10.3,1.5-20.5-0.8-30.1
				c4.4-8.1,7.4-17.2,8.4-26.9c1.2-10.4,0.1-20.6-2.9-30c3.8-8.4,6.1-17.7,6.5-27.5c0.4-10.4-1.3-20.3-4.8-29.5
				c3.4-8.7,5.3-18.1,5.2-28s-2.2-19.3-5.8-27.8c3.3-9.2,4.8-19.2,4.1-29.5c-0.6-9.8-3.1-19-7.2-27.4c2.7-9.5,3.5-19.6,2.2-30
				c-1.3-9.7-4.5-18.8-9.1-26.8c2-9.6,2.2-19.8,0.1-30.1c-2-9.6-5.8-18.4-10.9-26.1c1.4-9.8,0.8-19.9-2-30c-2.6-9.5-7-18-12.7-25.3
				c0.7-9.8-0.6-19.9-4.1-29.8c-3.3-9.3-8.3-17.5-14.6-24.5c0.1-9.8-1.7-19.7-5.7-29.3c-3.8-9.2-9.3-17.2-16-23.8
				c-0.3-9.7-2.4-19.4-6.7-28.8C398.8,71.2,389.9,61,379.3,53.7z"/>
			<path class="st19" d="M284.4,1046.1c-16.9,0.2-32.4,6.5-44.3,16.8c12.1,10.1,27.7,16.2,44.6,16c17-0.2,32.4-6.6,44.2-17
				C316.9,1051.9,301.3,1045.9,284.4,1046.1z"/>
		</g>
	</g>
</g>
<g id="Isolation_Mode">
</g>
</svg>
