<?xml version="1.0" encoding="utf-8"?>
<!-- Generator: Adobe Illustrator 25.4.1, SVG Export Plug-In . SVG Version: 6.00 Build 0)  -->
<svg version="1.1" xmlns="http://www.w3.org/2000/svg" xmlns:xlink="http://www.w3.org/1999/xlink" x="0px" y="0px"
	 viewBox="0 0 1080 840.7" style="enable-background:new 0 0 1080 840.7;" xml:space="preserve">
<style type="text/css">
	.st0{fill:#F9CC10;}
	.st1{fill:#006300;}
	.st2{fill:#004F00;}
	.st3{fill:#008700;}
	.st4{fill:#F9AE10;}
	.st5{fill:#8E003A;}
	.st6{fill:#FF9F9F;}
	.st7{fill:#FFCE00;}
	.st8{fill:#FF8500;}
	.st9{fill:#154C24;}
	.st10{fill:#42AC55;}
	.st11{fill:#6C6436;}
	.st12{fill:#074900;}
	.st13{fill:#052D0E;}
	.st14{fill:#ED7099;}
	.st15{fill:#C11654;}
	.st16{fill:#CE386E;}
	.st17{fill:#E85B9C;}
	.st18{fill:#95623F;}
	.st19{fill:#3E231E;}
	.st20{fill:#E74C24;}
</style>
<g id="Layer_1">
	<g>
		<g>
			<path class="st10" d="M414.7,653.7c185-185,428.6-273.7,665.3-264.6c-198-125.7-469.7-96.8-649.6,83.1
				C327.3,575.4,273.8,708.5,270.5,840.7C309.3,774.1,357.4,711.1,414.7,653.7z"/>
			<path class="st12" d="M457.5,696.5c185-185,273.7-428.6,264.6-665.3c125.7,198,96.8,469.7-83.1,649.6
				C535.9,783.9,402.7,837.4,270.5,840.7C337.2,801.9,400.1,753.8,457.5,696.5z"/>
		</g>
		<g>
			<path class="st12" d="M440.2,102.5l-100.2,57.7c-0.4-0.5-0.8-0.9-1.2-1.4l74.3-88.7l-88.7,74.3c-0.5-0.4-0.9-0.9-1.4-1.2
				l57.7-100.2l-74.5,88.6c-0.5-0.3-1.1-0.6-1.6-0.9l39.4-108.8l-57.9,100.1c-0.6-0.2-1.2-0.4-1.7-0.6l20-114l-39.7,108.6
				c-0.6-0.1-1.2-0.2-1.8-0.3L262.7,0l-20.2,113.8c-0.6,0-1.2,0-1.9,0L220.5,0l-0.1,115.7c-0.6,0.1-1.2,0.2-1.8,0.3L178.8,7.3
				l20,114c-0.6,0.2-1.2,0.4-1.7,0.6L139.1,21.8l39.4,108.8c-0.5,0.3-1.1,0.6-1.6,0.9l-74.5-88.6l57.7,100.2
				c-0.5,0.4-0.9,0.8-1.4,1.2L70.1,70.1l74.3,88.7c-0.4,0.5-0.9,0.9-1.2,1.4L42.9,102.5l88.6,74.5c-0.3,0.5-0.6,1.1-0.9,1.6
				L21.8,139.1L121.9,197c-0.2,0.6-0.4,1.2-0.6,1.7l-114-20l108.6,39.7c-0.1,0.6-0.2,1.2-0.3,1.8L0,220.5l113.8,20.2
				c0,0.6,0,1.2,0,1.9L0,262.7l115.7,0.1c0.1,0.6,0.2,1.2,0.3,1.8L7.3,304.4l114-20c0.2,0.6,0.4,1.2,0.6,1.7L21.8,344.1l108.8-39.4
				c0.3,0.5,0.6,1.1,0.9,1.6l-88.6,74.5L143.1,323c0.4,0.5,0.8,0.9,1.2,1.4l-74.3,88.7l88.7-74.3c0.5,0.4,0.9,0.9,1.4,1.2
				l-57.7,100.2l74.5-88.6c0.5,0.3,1.1,0.6,1.6,0.9l-39.4,108.8L197,361.3c0.6,0.2,1.2,0.4,1.7,0.6l-20,114l39.7-108.6
				c0.6,0.1,1.2,0.2,1.8,0.3l0.1,115.7l20.2-113.8c0.6,0,1.2,0,1.9,0l20.2,113.8l0.1-115.7c0.6-0.1,1.2-0.2,1.8-0.3l39.7,108.6
				l-20-114c0.6-0.2,1.2-0.4,1.7-0.6l57.9,100.1l-39.4-108.8c0.5-0.3,1.1-0.6,1.6-0.9l74.5,88.6L323,340.1c0.5-0.4,0.9-0.8,1.4-1.2
				l88.7,74.3l-74.3-88.7c0.4-0.5,0.9-0.9,1.2-1.4l100.2,57.7l-88.6-74.5c0.3-0.5,0.6-1.1,0.9-1.6l108.8,39.4l-100.1-57.9
				c0.2-0.6,0.4-1.2,0.6-1.7l114,20l-108.6-39.7c0.1-0.6,0.2-1.2,0.3-1.8l115.7-0.1l-113.8-20.2c0-0.6,0-1.2,0-1.9l113.8-20.2
				l-115.7-0.1c-0.1-0.6-0.2-1.2-0.3-1.8l108.6-39.7l-114,20c-0.2-0.6-0.4-1.2-0.6-1.7l100.1-57.9l-108.8,39.4
				c-0.3-0.5-0.6-1.1-0.9-1.6L440.2,102.5z"/>
			<circle class="st14" cx="175.2" cy="357" r="85.8"/>
			<circle class="st15" cx="266.1" cy="266.1" r="85.8"/>
			<circle class="st15" cx="207.8" cy="480.5" r="85.8"/>
			<circle class="st14" cx="480.5" cy="207.8" r="85.8"/>
			<circle class="st16" cx="331.4" cy="513.2" r="85.8"/>
			<circle class="st14" cx="422.3" cy="422.3" r="85.8"/>
			<circle class="st15" cx="454.9" cy="545.8" r="85.8"/>
			<circle class="st17" cx="545.8" cy="454.9" r="85.8"/>
			<circle class="st16" cx="513.2" cy="331.4" r="85.8"/>
			<circle class="st17" cx="298.7" cy="389.6" r="85.8"/>
			<circle class="st15" cx="389.6" cy="298.7" r="85.8"/>
			<circle class="st16" cx="357" cy="175.2" r="85.8"/>
		</g>
	</g>
</g>
<g id="Isolation_Mode">
</g>
</svg>
