<?xml version="1.0" encoding="utf-8"?>
<!-- Generator: Adobe Illustrator 25.4.1, SVG Export Plug-In . SVG Version: 6.00 Build 0)  -->
<svg version="1.1" xmlns="http://www.w3.org/2000/svg" xmlns:xlink="http://www.w3.org/1999/xlink" x="0px" y="0px"
	 viewBox="0 0 1080 768.6" style="enable-background:new 0 0 1080 768.6;" xml:space="preserve">
<style type="text/css">
	.st0{fill:#F9CC10;}
	.st1{fill:#006300;}
	.st2{fill:#004F00;}
	.st3{fill:#008700;}
	.st4{fill:#F9AE10;}
	.st5{fill:#8E003A;}
	.st6{fill:#FF9F9F;}
	.st7{fill:#FFCE00;}
	.st8{fill:#FF8500;}
	.st9{fill:#154C24;}
	.st10{fill:#42AC55;}
	.st11{fill:#6C6436;}
	.st12{fill:#074900;}
	.st13{fill:#052D0E;}
	.st14{fill:#ED7099;}
	.st15{fill:#C11654;}
	.st16{fill:#CE386E;}
	.st17{fill:#E85B9C;}
	.st18{fill:#95623F;}
	.st19{fill:#3E231E;}
	.st20{fill:#E74C24;}
</style>
<g id="Layer_1">
	<g>
		<g>
			
				<ellipse transform="matrix(0.7071 -0.7071 0.7071 0.7071 -159.1691 384.2984)" class="st0" cx="384.3" cy="384.3" rx="296.7" ry="455.3"/>
			<g>
				<defs>
					
						<ellipse id="SVGID_1_" transform="matrix(0.7071 -0.7071 0.7071 0.7071 -159.1691 384.2984)" cx="384.3" cy="384.3" rx="296.7" ry="455.3"/>
				</defs>
				<clipPath id="SVGID_00000033331482402118489480000009645913969815719610_">
					<use xlink:href="#SVGID_1_"  style="overflow:visible;"/>
				</clipPath>
			</g>
			<g>
				<path class="st1" d="M668.2,668.2L668.2,668.2c10.5-10.5,27.4-10.5,37.9,0l41.9,41.9c10.5,10.5,10.5,27.4,0,37.9l0,0
					c-10.5,10.5-27.4,10.5-37.9,0l-41.9-41.9C657.8,695.6,657.8,678.7,668.2,668.2z"/>
				
					<ellipse transform="matrix(0.7071 -0.7071 0.7071 0.7071 -305.5875 737.7836)" class="st2" cx="737.8" cy="737.8" rx="23.8" ry="14.5"/>
			</g>
		</g>
		<g>
			<ellipse class="st1" cx="654.7" cy="419.3" rx="425.3" ry="119.9"/>
			<g>
				<defs>
					<ellipse id="SVGID_00000153665498015985765610000004933764089151491489_" cx="654.7" cy="419.3" rx="425.3" ry="119.9"/>
				</defs>
				<clipPath id="SVGID_00000166645722627893889160000003713914323036167555_">
					<use xlink:href="#SVGID_00000153665498015985765610000004933764089151491489_"  style="overflow:visible;"/>
				</clipPath>
			</g>
		</g>
		<g>
			<ellipse class="st1" cx="654.7" cy="419.3" rx="425.3" ry="119.9"/>
			<g>
				<defs>
					<ellipse id="SVGID_00000063618665491515909710000012086481842873087166_" cx="654.7" cy="419.3" rx="425.3" ry="119.9"/>
				</defs>
				<clipPath id="SVGID_00000004515049965850037190000008546289042649245367_">
					<use xlink:href="#SVGID_00000063618665491515909710000012086481842873087166_"  style="overflow:visible;"/>
				</clipPath>
			</g>
		</g>
		<ellipse class="st3" cx="654.7" cy="389.1" rx="376.2" ry="89.7"/>
		<path class="st4" d="M594.1,174.5C480.4,60.8,342.1-0.7,226.9,0C134.6,91.1,115.4,274.1,190,457.5
			c59,144.9,162.2,254.9,269.7,301.9c97.7,21.6,187.9,5.6,246.6-53.2C822.1,590.4,771.9,352.3,594.1,174.5z"/>
	</g>
</g>
<g id="Isolation_Mode">
</g>
</svg>
