<?xml version="1.0" encoding="utf-8"?>
<!-- Generator: Adobe Illustrator 25.4.1, SVG Export Plug-In . SVG Version: 6.00 Build 0)  -->
<svg version="1.1" xmlns="http://www.w3.org/2000/svg" xmlns:xlink="http://www.w3.org/1999/xlink" x="0px" y="0px"
	 viewBox="0 0 797 1080" style="enable-background:new 0 0 797 1080;" xml:space="preserve">
<style type="text/css">
	.st0{fill:#F9CC10;}
	.st1{fill:#006300;}
	.st2{fill:#004F00;}
	.st3{fill:#008700;}
	.st4{fill:#F9AE10;}
	.st5{fill:#8E003A;}
	.st6{fill:#FF9F9F;}
	.st7{fill:#FFCE00;}
	.st8{fill:#FF8500;}
	.st9{fill:#154C24;}
	.st10{fill:#42AC55;}
	.st11{fill:#6C6436;}
	.st12{fill:#074900;}
	.st13{fill:#052D0E;}
	.st14{fill:#ED7099;}
	.st15{fill:#C11654;}
	.st16{fill:#CE386E;}
	.st17{fill:#E85B9C;}
	.st18{fill:#95623F;}
	.st19{fill:#3E231E;}
	.st20{fill:#E74C24;}
</style>
<g id="Layer_1">
	<g>
		<path class="st9" d="M748.1,605.4c-13.9-13.9-29.6-24.8-46.4-32.8c14.2-72.8-7-151.2-63.4-207.6c-74.2-74.2-186.2-87.3-273.8-39.6
			c-81.3-57.7-191.5-56.5-271.6,3.4c-1.7-3.7-3.4-7.5-4.9-11.3c-13.2-32.5-19.9-66.9-19.9-102.2s6.7-69.7,19.9-102.2
			c13.7-33.7,33.7-63.9,59.7-89.8L124.3,0C95.3,29.1,72.8,62.9,57.5,100.7c-14.8,36.5-22.3,75-22.3,114.6s7.5,78.1,22.3,114.6
			c2.9,7.3,6.2,14.4,9.6,21.3C-13.2,432-21.4,557.5,42.4,647.4C-5.3,735.1,7.8,847.1,82,921.2c56.4,56.4,134.8,77.6,207.6,63.4
			c8,16.8,18.9,32.5,32.8,46.4c65.2,65.2,171,65.2,236.2,0c9.8-9.8,18.1-20.5,24.9-31.8c36.8,15.6,81.1,8.4,111.1-21.6
			c30-30,37.2-74.3,21.6-111.1c11.3-6.8,22-15.2,31.8-24.9C813.3,776.4,813.3,670.6,748.1,605.4z"/>
		<g>
			
				<ellipse transform="matrix(0.7071 -0.7071 0.7071 0.7071 -513.8779 566.197)" class="st10" cx="426.5" cy="903.4" rx="37.9" ry="71.6"/>
			
				<ellipse transform="matrix(0.7071 -0.7071 0.7071 0.7071 -319.9717 646.5155)" class="st10" cx="620.4" cy="709.5" rx="37.9" ry="71.6"/>
		</g>
		<g>
			
				<ellipse transform="matrix(0.7071 -0.7071 0.7071 0.7071 -423.1035 347.0482)" class="st10" cx="207.4" cy="684.3" rx="37.9" ry="71.6"/>
			
				<ellipse transform="matrix(0.7071 -0.7071 0.7071 0.7071 -229.1974 427.3668)" class="st10" cx="401.3" cy="490.3" rx="37.9" ry="71.6"/>
		</g>
	</g>
</g>
<g id="Isolation_Mode">
</g>
</svg>
