<?xml version="1.0" encoding="utf-8"?>
<!-- Generator: Adobe Illustrator 25.4.1, SVG Export Plug-In . SVG Version: 6.00 Build 0)  -->
<svg version="1.1" xmlns="http://www.w3.org/2000/svg" xmlns:xlink="http://www.w3.org/1999/xlink" x="0px" y="0px"
	 viewBox="0 0 1080 1080" style="enable-background:new 0 0 1080 1080;" xml:space="preserve">
<style type="text/css">
	.st0{fill:#F9CC10;}
	.st1{fill:#006300;}
	.st2{fill:#004F00;}
	.st3{fill:#008700;}
	.st4{fill:#F9AE10;}
	.st5{fill:#8E003A;}
	.st6{fill:#FF9F9F;}
	.st7{fill:#FFCE00;}
	.st8{fill:#FF8500;}
	.st9{fill:#154C24;}
	.st10{fill:#42AC55;}
	.st11{fill:#6C6436;}
	.st12{fill:#074900;}
	.st13{fill:#052D0E;}
	.st14{fill:#ED7099;}
	.st15{fill:#C11654;}
	.st16{fill:#CE386E;}
	.st17{fill:#E85B9C;}
	.st18{fill:#95623F;}
	.st19{fill:#3E231E;}
	.st20{fill:#E74C24;}
</style>
<g id="Layer_1">
	<g>
		<g>
			<path class="st10" d="M832.2,265.9c-56.3,0-110.3,13.1-160.1,37l160.1,547.9l160.1-547.9C942.4,279,888.5,265.9,832.2,265.9z"/>
			<path class="st11" d="M674.4,287.6c-54.2,15.2-102.6,42.3-144.2,78.8l301.9,484.4l6.3-570.8C784.1,270.4,728.7,272.4,674.4,287.6
				z"/>
			<path class="st10" d="M528.4,351c-48.1,29.3-87.4,68.5-117.6,114.8l421.4,385L684.4,299.5C629.4,304.9,576.5,321.7,528.4,351z"/>
			<path class="st12" d="M404.8,451.5c-38.5,41.2-65.7,89.5-82.2,142.2l509.6,257.1l-291.1-491C489.6,379.9,443.3,410.3,404.8,451.5
				z"/>
			<path class="st13" d="M312.9,581.6c-25.9,50-39.1,103.9-40.8,159.1l560.1,110.1L419.5,456.5C375.3,489.7,338.9,531.6,312.9,581.6
				z"/>
			<path class="st11" d="M259.6,731.6c-11.5,55.1-9.7,110.6,3.6,164.3l569-45.1L328.4,582.4C294.8,626.3,271,676.5,259.6,731.6z"/>
			<path class="st1" d="M248.6,890.5c3.8,56.2,20.5,109.1,47.8,157.2l535.8-196.9L274.7,728.3C254.2,779.6,244.8,834.3,248.6,890.5z
				"/>
		</g>
		<g>
			<g>
				<path class="st10" d="M620.3,869.8C373.4,869.8,151.8,766.4,0,602.5c48.3,216,248.8,377.9,488.8,377.9
					c137.5,0,262-53.1,352.4-139.1C770.9,859.8,696.8,869.8,620.3,869.8z"/>
				<path class="st12" d="M620.3,812.7C373.4,812.7,151.8,916,0,1080c48.3-216,248.8-377.9,488.8-377.9
					c137.5,0,262,53.1,352.4,139.1C770.9,822.6,696.8,812.7,620.3,812.7z"/>
			</g>
			<g>
				<path class="st12" d="M869.8,620.3c0-246.9-103.3-468.5-267.3-620.3c216,48.3,377.9,248.8,377.9,488.8
					c0,137.5-53.1,262-139.1,352.4C859.8,770.9,869.8,696.8,869.8,620.3z"/>
				<path class="st13" d="M812.7,620.3C812.7,373.4,916,151.8,1080,0C864,48.3,702.1,248.8,702.1,488.8
					c0,137.5,53.1,262,139.1,352.4C822.6,770.9,812.7,696.8,812.7,620.3z"/>
			</g>
		</g>
	</g>
</g>
<g id="Isolation_Mode">
</g>
</svg>
