<?xml version="1.0" encoding="utf-8"?>
<!-- Generator: Adobe Illustrator 25.4.1, SVG Export Plug-In . SVG Version: 6.00 Build 0)  -->
<svg version="1.1" xmlns="http://www.w3.org/2000/svg" xmlns:xlink="http://www.w3.org/1999/xlink" x="0px" y="0px"
	 viewBox="0 0 1085 988.2" style="enable-background:new 0 0 1085 988.2;" xml:space="preserve">
<style type="text/css">
	.st0{fill:#F9CC10;}
	.st1{fill:#006300;}
	.st2{fill:#004F00;}
	.st3{fill:#008700;}
	.st4{fill:#F9AE10;}
	.st5{fill:#8E003A;}
	.st6{fill:#FF9F9F;}
	.st7{fill:#FFCE00;}
	.st8{fill:#FF8500;}
	.st9{fill:#154C24;}
	.st10{fill:#42AC55;}
	.st11{fill:#6C6436;}
	.st12{fill:#074900;}
	.st13{fill:#052D0E;}
	.st14{fill:#ED7099;}
	.st15{fill:#C11654;}
	.st16{fill:#CE386E;}
	.st17{fill:#E85B9C;}
	.st18{fill:#95623F;}
	.st19{fill:#3E231E;}
	.st20{fill:#E74C24;}
</style>
<g id="Layer_1">
	<g>
		<path class="st9" d="M591.4,556.6h-17.9c0-59.2,11.6-116.6,34.5-170.7c22.1-52.2,53.7-99.1,94-139.4c40.3-40.3,87.1-71.9,139.4-94
			c54.1-22.9,111.5-34.5,170.7-34.5V136c-56.8,0-111.8,11.1-163.7,33c-50.1,21.2-95,51.5-133.7,90.1
			c-38.6,38.6-68.9,83.6-90.1,133.7C602.5,444.7,591.4,499.8,591.4,556.6z"/>
		<path class="st9" d="M613,406c-55.7,0-110.4-10.6-162.7-31.5l6.6-16.6c52.7,21.1,108,31.3,164.2,30.2
			c54.4-1.1,107.4-12.5,157.6-34c50.2-21.5,95.1-52,133.3-90.6c39.6-40,70.4-87,91.5-139.7l16.6,6.6c-22,54.9-54.1,103.9-95.4,145.6
			c-39.9,40.3-86.7,72-139,94.5c-52.3,22.4-107.6,34.3-164.3,35.4C618.7,406,615.8,406,613,406z"/>
		<polygon class="st14" points="644.7,722.2 619,722.2 545.9,722.2 520.1,722.2 421.3,722.2 447,988.2 520.1,988.2 533,855.2 
			545.9,988.2 619,988.2 631.9,855.2 644.7,988.2 717.8,988.2 743.6,722.2 		"/>
		<polygon class="st14" points="103.2,80.1 76,147.9 194.7,209.3 66.4,171.8 39.3,239.7 157.9,301.1 29.7,263.6 2.5,331.5 
			239.9,454.3 276.6,362.5 276.6,362.5 323,246.8 323,246.8 359.7,155 		"/>
		
			<ellipse transform="matrix(0.3716 -0.9284 0.9284 0.3716 -76.3675 552.7905)" class="st20" cx="370.2" cy="332.8" rx="120.4" ry="180.1"/>
		<path class="st10" d="M1048.1,139.4c-9.2-5.3-19.1-8.1-29-8.8l-1.3-2.4l14.8-25.9c18.7-32.8,7.3-74.6-25.4-93.3
			c-21.9-12.5-47.8-11.6-68.1,0.2C918.5-2.6,892.7-3.5,870.8,9c-32.8,18.7-44.2,60.5-25.4,93.3l14.8,25.9l-1.3,2.4
			c-9.9,0.7-19.8,3.6-29,8.8c-31.7,18.1-43.4,57.7-27.3,89.9c-16.1,32.2-4.4,71.8,27.3,89.9c9.2,5.3,19.1,8.1,29,8.8l1.3,2.4
			l-14.8,25.9c-18.7,32.8-7.3,74.6,25.4,93.3c21.9,12.5,47.8,11.6,68.1-0.2c20.4,11.7,46.2,12.7,68.1,0.2
			c32.8-18.7,44.2-60.5,25.4-93.3l-14.8-25.9l1.3-2.4c9.9-0.7,19.8-3.6,29-8.8c31.7-18.1,43.4-57.7,27.3-89.9
			C1091.4,197.1,1079.7,157.5,1048.1,139.4z"/>
		<ellipse class="st20" cx="582.4" cy="646.4" rx="120.4" ry="180.1"/>
	</g>
</g>
<g id="Isolation_Mode">
</g>
</svg>
