<?xml version="1.0" encoding="utf-8"?>
<!-- Generator: Adobe Illustrator 25.4.1, SVG Export Plug-In . SVG Version: 6.00 Build 0)  -->
<svg version="1.1" xmlns="http://www.w3.org/2000/svg" xmlns:xlink="http://www.w3.org/1999/xlink" x="0px" y="0px"
	 viewBox="0 0 1080 922.6" style="enable-background:new 0 0 1080 922.6;" xml:space="preserve">
<style type="text/css">
	.st0{fill:#F9CC10;}
	.st1{fill:#006300;}
	.st2{fill:#004F00;}
	.st3{fill:#008700;}
	.st4{fill:#F9AE10;}
	.st5{fill:#8E003A;}
	.st6{fill:#FF9F9F;}
	.st7{fill:#FFCE00;}
	.st8{fill:#FF8500;}
	.st9{fill:#154C24;}
	.st10{fill:#42AC55;}
	.st11{fill:#6C6436;}
	.st12{fill:#074900;}
	.st13{fill:#052D0E;}
	.st14{fill:#ED7099;}
	.st15{fill:#C11654;}
	.st16{fill:#CE386E;}
	.st17{fill:#E85B9C;}
	.st18{fill:#95623F;}
	.st19{fill:#3E231E;}
	.st20{fill:#E74C24;}
</style>
<g id="Layer_1">
	<g>
		<g>
			<path class="st12" d="M699.1,130.1c-52.1-22.9-108-34.8-165.9-33.6c7.8-22.7,17.1-44.9,27.9-66.2c-29.2,19-54.4,42.8-74.9,70.1
				c-3.3,0.5-6.5,1-9.8,1.6c3.7-34.8,10.8-69,21.2-102c-35.5,32.2-61.8,72.3-78.2,116.3c-20.4,6.8-40.3,15.3-59.5,25.3l43.8,132.9
				c5,32.7,15.2,65.2,30.8,96.3c2.8,10.9,6.2,21.7,10.2,32.5l1.8,1l97.5,295.9v222.3h10.6V695.7L659,287.1l-37-51.4l61.4-44.2
				L699.1,130.1z M622.1,173.4c-9.9,0-17.9-8-17.9-17.9c0-9.9,8-17.9,17.9-17.9c9.9,0,17.9,8,17.9,17.9
				C640,165.4,631.9,173.4,622.1,173.4z"/>
			<path class="st13" d="M549.3,716.4L372.8,137.6c-58.1,7.7-113.5,27.5-163.4,60.2c-1.3,0.8-2.5,1.7-3.8,2.5
				c-8.9-40.3-13-81.2-12.3-121.9c-30.6,50.5-44.7,108.5-42.4,166.6c-23.9,23.5-44.5,49.9-61.9,78.6l144.4,123.2
				c5.6,6.2,11.4,12.2,17.5,18.1c15.8,15.2,32.7,28.4,50.4,39.8L549.3,716.4z M380.6,270.8c10.7,0,19.4,16.1,19.4,35.9
				c0,19.8-8.7,35.9-19.4,35.9c-10.7,0-19.4-16.1-19.4-35.9C361.2,286.8,369.9,270.8,380.6,270.8z"/>
			<path class="st10" d="M987.7,278c-22.5-22.5-47.2-41.7-73.8-57.6c-1.1-26.3-5.5-52.6-13.3-78.3c-4.9,20.7-11,41.1-18.3,61.2
				c-13.7-6.6-27.9-12.5-42.3-17.6L728,390.2v108.2h-59.3L549.3,716.4L1080,425.7C1060.6,370.4,1030,320.2,987.7,278z M924.7,416.9
				c-23.7,23.7-47.6,38.2-53.4,32.4c-5.8-5.8,8.7-29.7,32.4-53.4c23.7-23.7,47.6-38.2,53.4-32.4
				C962.9,369.4,948.4,393.3,924.7,416.9z"/>
			<path class="st1" d="M549.3,716.4L223.2,206.7c-23.3,10-45.6,22.1-66.5,36.2c-16.6-33.8-29.4-69.1-38.3-105.3
				C104.8,183.7,103,231.8,112,278c-10.5,9.6-20.5,19.8-30,30.7c-39.3,45-66.4,97.2-82,153.7l171.1,79.2l117.1,7.4l-2.9,45.4
				L549.3,716.4z M97.2,427c-10.7,0-19.4-16.1-19.4-35.9c0-19.8,8.7-35.9,19.4-35.9c10.7,0,19.4,16.1,19.4,35.9
				C116.5,411,107.9,427,97.2,427z"/>
		</g>
	</g>
</g>
<g id="Isolation_Mode">
</g>
</svg>
